<?xml version="1.0" encoding="UTF-8" standalone="no"?>
<!-- Created with Inkscape (http://www.inkscape.org/) -->

<svg
   xmlns:dc="http://purl.org/dc/elements/1.1/"
   xmlns:cc="http://creativecommons.org/ns#"
   xmlns:rdf="http://www.w3.org/1999/02/22-rdf-syntax-ns#"
   xmlns:svg="http://www.w3.org/2000/svg"
   xmlns="http://www.w3.org/2000/svg"
   xmlns:xlink="http://www.w3.org/1999/xlink"
   version="1.1"
   width="284.97781"
   height="284.97781"
   viewBox="0 0 284.97781 284.97781"
   id="Layer_1"
   xml:space="preserve"><metadata
     id="metadata9"><rdf:RDF><cc:Work
         rdf:about=""><dc:format>image/svg+xml</dc:format><dc:type
           rdf:resource="http://purl.org/dc/dcmitype/StillImage" /><dc:title></dc:title></cc:Work></rdf:RDF></metadata><defs
     id="defs7"><linearGradient
       id="linearGradient9326"
       gradientTransform="translate(0.4494305,-1.3604662)"><stop
         id="stop9328"
         style="stop-color:#db98e5;stop-opacity:1"
         offset="0" /></linearGradient><linearGradient
       x1="0"
       y1="142.48891"
       x2="284.97781"
       y2="142.48891"
       id="linearGradient9330"
       xlink:href="#linearGradient9326"
       gradientUnits="userSpaceOnUse" /></defs><g
     transform="translate(17.977291,8.0897812)"
     id="g9332"><path
       d="m 5.8890086,276.70312 c -1.161858,-0.13837 -5.00696703,-1.17719 -6.461171,-1.74559 -5.947953,-2.32489 -11.5614536,-7.42762 -14.3966356,-13.08672 -0.802225,-1.60126 -1.903219,-4.79415 -2.444478,-7.089 -0.433852,-1.83945 -0.445866,-5.08667 -0.445866,-120.51301 l 0,-118.622599 0.622511,-2.372574 c 1.416112,-5.3972213 3.530276,-9.2838253 7.043819,-12.94911131 3.5944796,-3.74971699 7.9262516,-6.19961099 13.5884926,-7.68516199 l 2.375178,-0.623154 118.7407514,0 118.74076,0 2.08237,0.539543 c 6.16244,1.59668 10.0928,3.81338 14.01086,7.90202599 3.45303,3.60336701 5.34421,7.01167001 6.87482,12.38991131 l 0.66195,2.325921 0,119.095199 c 0,114.08005 -0.018,119.16487 -0.42692,120.74931 -1.52626,5.91341 -3.81762,10.13573 -7.49728,13.8154 -3.63966,3.63966 -7.55588,5.7828 -13.69725,7.49579 -1.47331,0.41092 -6.36987,0.42931 -120.0404,0.45036 -65.177457,0.012 -118.8766344,-0.0225 -119.3315114,-0.0765 z M 190.63697,242.62928 c 5.32692,-1.85411 10.31528,-6.406 13.09597,-11.95007 2.3513,-4.688 3.48368,-10.24481 3.48368,-17.09523 0,-8.98928 -2.28292,-15.60964 -7.15392,-20.746 -3.0066,-3.17039 -6.72206,-5.3158 -11.69248,-6.75157 l -1.82985,-0.52857 -30.12825,-0.13926 c -32.01559,-0.14799 -31.49419,-0.12961 -36.56039,-1.2891 -8.94268,-2.04668 -15.35438,-6.69132 -18.48326,-13.3893 -1.858312,-3.97807 -1.786512,-3.14855 -1.786512,-20.63927 l 0,-15.5958 45.251462,-0.11816 45.25145,-0.11815 1.50975,-0.54526 c 3.67536,-1.32739 6.52637,-3.19638 9.05289,-5.93466 4.71011,-5.10487 7.14259,-13.20718 6.71877,-22.37943 -0.59589,-12.896248 -6.27889,-21.227698 -16.92696,-24.815448 -1.24211,-0.41851 -3.28234,-0.44313 -46.0785,-0.55605 l -44.778862,-0.11815 -0.11815,-18.31325 c -0.11573,-17.938457 -0.12839,-18.339957 -0.6186,-19.618212 -1.29766,-3.383745 -2.99089,-6.0031 -5.50724,-8.519447 -3.84465,-3.844651 -8.85645,-6.292178 -15.259307,-7.451934 -3.198753,-0.579391 -11.095953,-0.595856 -14.178,-0.02956 -6.039037,1.109618 -10.508651,3.074462 -14.508495,6.377941 -2.979036,2.460393 -5.878123,6.629961 -7.120473,10.240909 -0.439522,1.277499 -0.452157,2.817135 -0.469731,57.239335 -0.01215,37.610666 0.06537,57.203426 0.236697,59.825476 0.783266,11.98765 2.895961,29.61983 4.140156,34.55304 3.11921,12.3676 11.283973,25.04825 22.985896,35.69926 5.566475,5.06655 8.665282,7.0894 13.758097,8.98105 5.551869,2.06217 13.65182,3.70077 21.030702,4.25449 0.58485,0.0439 19.88465,0.0969 42.88846,0.11791 l 41.8251,0.0381 1.9699,-0.68565 z"
       id="path9344"
       style="fill:url(#linearGradient9326)" /></g></svg>