<?xml version="1.0" encoding="UTF-8" standalone="no"?>
<!-- Generator: Adobe Illustrator 17.0.0, SVG Export Plug-In . SVG Version: 6.00 Build 0)  -->

<svg
   xmlns:dc="http://purl.org/dc/elements/1.1/"
   xmlns:cc="http://creativecommons.org/ns#"
   xmlns:rdf="http://www.w3.org/1999/02/22-rdf-syntax-ns#"
   xmlns:svg="http://www.w3.org/2000/svg"
   xmlns="http://www.w3.org/2000/svg"
   xmlns:sodipodi="http://sodipodi.sourceforge.net/DTD/sodipodi-0.dtd"
   xmlns:inkscape="http://www.inkscape.org/namespaces/inkscape"
   version="1.1"
   id="Layer_1"
   x="0px"
   y="0px"
   width="383.362"
   height="383.362"
   viewBox="0 0 383.362 383.362"
   enable-background="new 0 0 450 450"
   xml:space="preserve"
   inkscape:version="0.48.4 r9939"
   sodipodi:docname="605_Over.svg"><metadata
     id="metadata69"><rdf:RDF><cc:Work
         rdf:about=""><dc:format>image/svg+xml</dc:format><dc:type
           rdf:resource="http://purl.org/dc/dcmitype/StillImage" /><dc:title></dc:title></cc:Work></rdf:RDF></metadata><defs
     id="defs67" /><sodipodi:namedview
     pagecolor="#ffffff"
     bordercolor="#666666"
     borderopacity="1"
     objecttolerance="10"
     gridtolerance="10"
     guidetolerance="10"
     inkscape:pageopacity="0"
     inkscape:pageshadow="2"
     inkscape:window-width="640"
     inkscape:window-height="480"
     id="namedview65"
     showgrid="false"
     inkscape:zoom="0.52444444"
     inkscape:cx="194.351"
     inkscape:cy="189.341"
     inkscape:window-x="10"
     inkscape:window-y="24"
     inkscape:window-maximized="0"
     inkscape:current-layer="Layer_1"
     fit-margin-top="0"
     fit-margin-left="0"
     fit-margin-right="0"
     fit-margin-bottom="0" /><g
     id="g3"
     transform="translate(-30.649002,-30.979004)"><circle
       cx="222.33"
       cy="222.66"
       r="191.681"
       id="circle5"
       sodipodi:cx="222.33"
       sodipodi:cy="222.66"
       sodipodi:rx="191.681"
       sodipodi:ry="191.681"
       style="fill:#6dc497"
       d="m 414.011,222.66 c 0,105.8625 -85.81851,191.681 -191.681,191.681 -105.86249,0 -191.680998,-85.8185 -191.680998,-191.681 0,-105.86249 85.818508,-191.680996 191.680998,-191.680996 105.86249,0 191.681,85.818506 191.681,191.680996 z" /><g
       id="g7"><g
         id="g9"><path
           d="m 97.266,291.626 c 0,15.868 -0.141,31.448 -0.141,47.022 -0.141,0.581 -0.716,0.722 -1.151,0.722 -0.435,0 -1.151,-0.141 -1.151,-0.863 0,-15.433 0.141,-31.013 0.141,-46.74 -0.141,-18.464 -0.294,-26.826 -0.294,-33.609 0,-3.318 0,-6.342 0.153,-9.52 0.141,-0.288 0.716,-0.576 1.151,-0.576 0.435,0 1.01,0.288 1.151,0.722 2.455,11.252 6.93,21.494 9.96,32.164 2.737,9.232 4.181,20.484 6.049,29.862 1.304,6.777 3.183,13.125 4.334,19.761 4.181,-27.12 13.119,-54.668 18.605,-81.647 0.141,-0.288 0.716,-0.429 1.151,-0.429 0.576,0 1.01,0.141 1.163,0.576 0.423,7.787 0.857,15.721 0.998,23.367 0.294,12.984 0.294,27.408 0.294,40.245 v 25.822 c -0.141,0.576 -0.716,0.722 -1.151,0.722 -0.435,0 -1.151,-0.147 -1.151,-0.869 0,-11.252 -0.153,-22.645 -0.153,-34.044 0,-15.146 -0.282,-30.144 -0.716,-45.29 -7.787,29.569 -13.272,55.103 -17.888,79.621 -0.141,0.581 -0.716,0.722 -1.151,0.722 -0.576,0 -1.01,-0.141 -1.151,-0.863 -1.163,-7.358 -3.758,-18.464 -5.626,-27.554 -1.738,-8.509 -3.03,-16.872 -5.05,-25.241 -2.314,-9.379 -6.061,-20.918 -8.656,-29.569 v 3.312 c 0,6.207 0.282,12.55 0.282,18.757 v 13.417 z"
           id="path11"
           inkscape:connector-curvature="0"
           style="fill:#cccc64" /><path
           d="m 147.207,333.745 c -0.435,1.879 -0.716,4.04 -1.433,5.773 -0.153,0.141 -0.435,0.429 -0.869,0.429 -0.294,0 -0.728,-0.288 -0.728,-0.716 0.587,-2.167 0.587,-2.889 0.869,-4.763 7.646,-36.352 8.95,-51.638 11.968,-66.496 1.304,-6.202 1.445,-12.984 3.899,-18.61 0.294,-0.576 1.445,-1.298 1.879,-1.298 1.292,0 1.586,5.479 1.867,6.924 l 3.03,23.802 c 1.151,9.52 2.455,19.186 3.758,28.705 0.576,3.894 1.868,8.656 2.443,12.691 1.01,6.495 3.03,12.55 3.324,18.898 0,0.288 -0.294,0.576 -0.869,0.576 -0.141,0 -0.576,-0.141 -0.869,-0.429 -1.151,-6.207 -1.867,-11.833 -3.171,-17.747 -0.435,-1.586 -2.878,-17.019 -3.465,-19.039 -6.483,0 -9.079,0.576 -15.715,0.576 l -5.918,30.724 z m 6.061,-32.746 c 5.191,0 9.96,-0.429 15.292,-0.429 0,-3.894 -0.716,-4.328 -0.716,-8.222 -1.163,-6.348 -2.02,-12.115 -5.05,-37.649 -0.153,-1.157 -0.435,-2.743 -0.435,-4.328 -1.151,2.596 -2.02,8.797 -3.03,13.413 -2.314,11.54 -3.324,23.367 -5.626,35.054 l -0.435,2.161 z"
           id="path13"
           inkscape:connector-curvature="0"
           style="fill:#cccc64" /><path
           d="m 206.086,306.772 c 0,1.445 0.141,5.191 0.141,9.379 0,7.787 -0.435,18.029 -2.455,19.902 -2.302,2.455 -5.908,3.606 -9.655,3.606 -4.769,0 -9.819,-2.161 -11.252,-6.924 -1.01,-3.171 -1.163,-7.934 -1.163,-12.838 0,-6.055 0.294,-12.403 0.294,-15.58 0,-8.075 0.282,-17.166 0.282,-25.816 0,-4.328 0,-8.368 -0.282,-12.409 -0.141,-2.161 -0.294,-4.757 -0.294,-7.065 0,-1.873 0.435,-4.328 1.586,-5.914 2.02,-2.596 8.515,-5.191 12.697,-5.191 1.151,0 2.314,0.288 3.03,0.576 7.646,4.181 8.222,11.252 8.222,20.19 v 1.445 c -0.282,0.288 -0.576,0.576 -0.869,0.576 -0.423,0 -1.151,-0.429 -1.292,-0.716 0,-8.656 -0.576,-20.055 -9.091,-20.055 -3.888,0 -9.807,2.02 -11.393,5.914 -0.716,1.591 -1.01,3.318 -1.01,5.05 0,2.167 0.435,4.616 0.435,64.482 0,2.883 0.141,6.055 0.869,8.65 2.302,2.889 5.332,3.894 8.645,3.894 3.03,0 6.202,-1.004 8.809,-3.024 1.586,-1.879 1.586,-13.125 1.586,-28.13 -4.616,0 -7.071,0 -9.525,-0.288 -0.435,0 -0.576,-0.435 -0.576,-0.722 0,-0.576 0.435,-1.298 1.01,-1.298 4.322,0.435 7.646,0.147 11.968,0.435 0.576,0.288 0.728,0.716 0.728,1.01 0,0.288 -0.153,0.716 -0.576,0.863 h -0.869 z"
           id="path15"
           inkscape:connector-curvature="0"
           style="fill:#cccc64" /><path
           d="m 213.885,333.745 c -0.435,1.879 -0.716,4.04 -1.445,5.773 -0.141,0.141 -0.423,0.429 -0.857,0.429 -0.294,0 -0.728,-0.288 -0.728,-0.716 0.587,-2.167 0.587,-2.889 0.869,-4.763 7.646,-36.352 8.95,-51.638 11.968,-66.496 1.304,-6.202 1.445,-12.984 3.899,-18.61 0.294,-0.576 1.445,-1.298 1.879,-1.298 1.292,0 1.586,5.479 1.867,6.924 l 3.03,23.802 c 1.163,9.52 2.455,19.186 3.758,28.705 0.576,3.894 1.868,8.656 2.443,12.691 1.01,6.495 3.03,12.55 3.324,18.898 0,0.288 -0.294,0.576 -0.869,0.576 -0.141,0 -0.576,-0.141 -0.869,-0.429 -1.151,-6.207 -1.867,-11.833 -3.171,-17.747 -0.435,-1.586 -2.878,-17.019 -3.453,-19.039 -6.495,0 -9.091,0.576 -15.727,0.576 l -5.918,30.724 z m 6.061,-32.746 c 5.191,0 9.96,-0.429 15.292,-0.429 0,-3.894 -0.716,-4.328 -0.716,-8.222 -1.163,-6.348 -2.02,-12.115 -5.05,-37.649 -0.153,-1.157 -0.435,-2.743 -0.435,-4.328 -1.151,2.596 -2.02,8.797 -3.03,13.413 -2.314,11.54 -3.324,23.367 -5.626,35.054 l -0.435,2.161 z"
           id="path17"
           inkscape:connector-curvature="0"
           style="fill:#cccc64" /><path
           d="m 252.715,310.09 c 1.586,-5.479 3.888,-10.964 5.473,-16.59 3.183,-11.393 5.344,-22.792 9.091,-33.609 0.728,-2.883 2.889,-6.055 3.171,-9.232 -5.191,0.288 -9.232,0.435 -12.262,0.435 -6.483,0 -9.232,-0.435 -11.968,-0.722 -0.576,0 -0.869,-0.722 -0.869,-1.01 0,-0.435 0.294,-0.576 0.869,-0.722 3.606,0.147 7.353,0.288 10.817,0.288 4.91,0 9.525,-0.141 14.423,-0.141 0.576,0 1.01,0.141 1.304,0.722 0,3.318 -3.465,10.242 -7.94,26.826 -1.586,5.773 -2.596,11.54 -4.181,17.313 -1.586,5.626 -4.04,10.964 -5.626,16.584 -2.455,8.944 -4.463,18.464 -6.483,27.267 3.019,0.141 6.049,0.429 9.232,0.429 4.181,0 8.504,-0.288 12.685,-0.576 0.576,0.147 1.304,0.722 1.304,1.01 0,0.147 -0.294,0.435 -0.869,0.576 -4.181,0.435 -8.504,0.581 -12.697,0.581 -3.747,0 -7.353,-0.147 -11.099,-0.581 -0.294,-0.141 -1.01,-0.141 -1.01,-0.716 2.019,-9.093 4.039,-19.047 6.635,-28.132 z"
           id="path19"
           inkscape:connector-curvature="0"
           style="fill:#cccc64" /><path
           d="m 278.837,339.659 c -0.576,0 -1.151,-0.141 -1.151,-0.722 0.294,-5.626 0.294,-11.681 0.294,-17.307 0,-7.646 -0.294,-15.146 -0.294,-22.933 0,-16.737 -0.435,-33.468 -0.435,-50.058 0,-0.429 0.576,-0.716 1.01,-0.716 0.576,0 1.163,0.288 1.304,0.576 0,16.584 0.141,33.462 0.576,50.053 0.141,8.075 0.435,15.868 0.435,24.09 0,5.338 -0.153,10.964 -0.435,16.443 -0.142,0.433 -0.717,0.574 -1.304,0.574 z"
           id="path21"
           inkscape:connector-curvature="0"
           style="fill:#cccc64" /><path
           d="m 291.11,258.158 c -0.141,7.793 -0.435,17.025 -0.435,24.671 0,17.741 0.435,31.013 0.435,44.28 0,3.753 0,7.793 -0.141,11.687 -0.141,0.576 -0.576,0.722 -1.151,0.722 -0.435,0 -1.01,-0.147 -1.01,-0.869 0.141,-8.363 0.282,-16.731 0.282,-25.1 0,-14.276 -1.01,-22.069 -1.01,-30.867 0,-7.646 0.728,-16.878 0.869,-24.665 0,-2.308 0.294,-4.616 0.294,-7.071 0,-1.586 -0.153,-1.873 -0.153,-2.161 0.153,-0.435 0.576,-0.576 1.163,-0.576 0.423,0 0.857,0.141 1.292,0.863 2.161,8.509 5.191,16.59 7.505,24.812 4.181,14.999 8.069,31.442 11.099,46.588 0.728,3.318 1.304,6.783 2.748,11.252 -0.153,-15.286 -0.435,-30.726 -0.435,-46.3 0,-11.54 0.141,-24.524 1.01,-36.064 0.141,-0.288 0.576,-0.435 1.01,-0.435 0.576,0 1.01,0.147 1.151,0.581 -0.435,7.934 -0.576,15.868 -0.576,23.655 0,11.974 0.282,25.241 0.282,37.068 0,9.666 -0.141,19.186 -0.141,28.705 0,0.581 -1.01,0.581 -1.151,0.581 -0.576,0 -0.869,-0.581 -1.151,-1.445 -1.586,-4.181 -4.181,-12.115 -5.191,-17.453 -3.03,-15.146 -6.495,-31.877 -10.97,-46.594 -1.727,-5.767 -3.747,-11.54 -5.626,-17.453 v 1.588 z"
           id="path23"
           inkscape:connector-curvature="0"
           style="fill:#cccc64" /><path
           d="m 326.041,293.359 c 7.646,0 14.282,-0.147 22.21,-0.722 0.435,0 0.728,0.288 0.728,0.576 0,0.576 -0.576,1.298 -1.586,1.298 -7.799,0.722 -13.848,0.722 -21.353,0.722 0,1.298 -0.141,2.455 -0.141,3.753 -0.435,12.838 -0.728,25.094 -0.869,37.937 8.081,0.141 9.525,0.288 10.958,0.288 4.193,0 8.374,-0.147 12.697,-0.435 0.728,0 1.01,0.435 1.01,1.01 0,0.435 -0.435,1.151 -1.151,1.151 -3.899,0.294 -7.787,0.435 -11.546,0.435 -4.616,0 -9.079,-0.141 -13.413,-0.435 -0.282,0 -0.435,-0.288 -0.435,-0.576 0.294,-17.888 0.869,-35.482 0.869,-52.936 0,-11.399 -0.141,-23.514 -0.869,-35.201 0.153,-0.576 0.728,-1.439 1.586,-1.439 4.91,0 8.95,0.141 13.566,0.141 4.616,0 7.787,-0.141 10.676,-0.141 1.01,0 1.01,0.435 1.01,0.722 0,0.288 -0.153,1.01 -1.163,1.01 -1.867,0 -6.483,0.141 -11.252,0.141 -3.171,0 -7.353,0.147 -12.403,0.147 0.728,10.964 0.869,22.357 0.869,33.034 v 9.52 z"
           id="path25"
           inkscape:connector-curvature="0"
           style="fill:#cccc64" /></g><g
         id="g27"><g
           id="g29"><g
             id="g31"><path
               d="m 166.294,106.251 c -6.293,4.874 -10.891,11.912 -14.917,18.669 -5.254,8.819 -9.417,18.339 -12.709,28.051 -5.068,14.953 -10.481,36.952 4.204,48.223 14.038,10.775 32.763,-4.403 36.687,-18.19 5.451,-19.149 -15.269,-34.325 -32.675,-28.284 -3.447,1.196 -6.451,3.304 -9.078,5.794 -2.345,2.222 1.197,5.751 3.536,3.536 13.551,-12.839 37.98,-1.725 33.396,17.626 -3.476,14.674 -23.892,25.277 -33.711,10.297 -3.616,-5.517 -2.78,-13.861 -1.911,-20.029 1.143,-8.108 3.637,-16.027 6.537,-23.659 5.103,-13.433 12.509,-29.46 24.177,-38.497 2.546,-1.974 -1.02,-5.485 -3.536,-3.537 l 0,0 z"
               id="path33"
               inkscape:connector-curvature="0"
               style="fill:#cccc64" /></g></g><g
           id="g35"><g
             id="g37"><path
               d="m 209.386,113.524 c -9.055,7.662 -12.087,23.176 -14.221,34.134 -2.876,14.763 -4.19,31.101 -0.002,45.743 3.26,11.396 12.115,19.792 24.542,16.718 12.754,-3.155 17.589,-18.566 19.244,-29.92 2.115,-14.506 0.529,-29.898 -4.327,-43.717 -3.919,-11.15 -11.143,-23.071 -23.309,-26.267 -3.122,-0.82 -4.445,4.003 -1.329,4.821 14.269,3.749 20.206,21.154 22.928,33.946 3.137,14.743 3.429,32.611 -3.6,46.347 -5.402,10.557 -19.316,15.058 -26.442,3.538 -7.592,-12.272 -5.83,-30.539 -3.865,-44.092 1.149,-7.926 2.994,-15.788 5.662,-23.342 1.776,-5.028 4.073,-10.836 8.256,-14.376 2.464,-2.083 -1.092,-5.602 -3.537,-3.533 l 0,0 z"
               id="path39"
               inkscape:connector-curvature="0"
               style="fill:#cccc64" /></g></g><g
           id="g41"><g
             id="g43"><path
               d="m 257.897,122.249 c 2.484,14.596 1.322,29.382 1.267,44.102 -0.008,2.028 2.097,2.938 3.762,2.159 6.458,-3.022 13.633,-3.603 18.75,2.037 4.288,4.726 5.287,11.98 4.844,18.091 -0.432,5.963 -2.986,12.421 -8.418,15.448 -7.959,4.436 -18.089,-2.198 -24.167,-6.945 -2.509,-1.96 -6.075,1.552 -3.536,3.536 7.749,6.052 18.538,12.635 28.66,8.448 7.786,-3.221 11.313,-11.414 12.338,-19.278 1.053,-8.083 -1,-17.117 -6.551,-23.236 -6.512,-7.178 -16.425,-6.171 -24.445,-2.417 1.254,0.72 2.508,1.439 3.762,2.159 0.057,-15.2 1.119,-30.36 -1.446,-45.431 -0.539,-3.176 -5.357,-1.826 -4.82,1.327 l 0,0 z"
               id="path45"
               inkscape:connector-curvature="0"
               style="fill:#cccc64" /></g></g><g
           id="g47"><g
             id="g49"><path
               d="m 260.213,123.743 c 11.883,-5.334 23.594,-11.681 36.722,-13.224 3.162,-0.372 3.199,-5.376 0,-5 -14.098,1.658 -26.475,8.174 -39.245,13.907 -2.938,1.318 -0.393,5.626 2.523,4.317 l 0,0 z"
               id="path51"
               inkscape:connector-curvature="0"
               style="fill:#cccc64" /></g></g><g
           id="g53"><g
             id="g55"><path
               d="m 149.762,83.903 c -12.072,4.188 -20.93,14.094 -27.642,24.596 -8.511,13.318 -13.82,28.824 -16.59,44.317 -4.664,26.091 -1.985,61.981 25.999,74.025 2.928,1.26 5.478,-3.046 2.524,-4.317 -26.311,-11.324 -27.864,-45.093 -23.513,-69.431 2.534,-14.174 7.491,-28.033 14.871,-40.408 5.949,-9.975 14.375,-20.038 25.68,-23.961 3.027,-1.049 1.726,-5.88 -1.329,-4.821 l 0,0 z"
               id="path57"
               inkscape:connector-curvature="0"
               style="fill:#cccc64" /></g></g><g
           id="g59"><g
             id="g61"><path
               d="m 293.569,88.25 c 11.383,3.949 19.603,14.003 25.68,23.961 7.51,12.307 12.225,26.287 14.871,40.408 4.549,24.275 2.661,58.166 -23.513,69.431 -2.954,1.271 -0.405,5.578 2.524,4.317 28.131,-12.107 30.449,-47.868 25.999,-74.025 -2.594,-15.248 -8.01,-30.277 -16.073,-43.491 -6.621,-10.85 -15.864,-21.157 -28.158,-25.422 -3.056,-1.06 -4.357,3.771 -1.33,4.821 l 0,0 z"
               id="path63"
               inkscape:connector-curvature="0"
               style="fill:#cccc64" /></g></g></g></g></g></svg>