<?xml version="1.0" encoding="UTF-8" standalone="no"?>
<!-- Created with Inkscape (http://www.inkscape.org/) -->

<svg
   xmlns:dc="http://purl.org/dc/elements/1.1/"
   xmlns:cc="http://creativecommons.org/ns#"
   xmlns:rdf="http://www.w3.org/1999/02/22-rdf-syntax-ns#"
   xmlns:svg="http://www.w3.org/2000/svg"
   xmlns="http://www.w3.org/2000/svg"
   xmlns:xlink="http://www.w3.org/1999/xlink"
   version="1.1"
   width="383.362"
   height="383.362"
   viewBox="0 0 383.362 383.362"
   id="Layer_1"
   xml:space="preserve"><metadata
     id="metadata13"><rdf:RDF><cc:Work
         rdf:about=""><dc:format>image/svg+xml</dc:format><dc:type
           rdf:resource="http://purl.org/dc/dcmitype/StillImage" /><dc:title></dc:title></cc:Work></rdf:RDF></metadata><defs
     id="defs11"><linearGradient
       id="linearGradient3972"><stop
         id="stop3974"
         style="stop-color:#6e6f2e;stop-opacity:1"
         offset="0" /></linearGradient><linearGradient
       x1="84.966003"
       y1="188.27528"
       x2="302.66351"
       y2="188.27528"
       id="linearGradient3976"
       xlink:href="#linearGradient3972"
       gradientUnits="userSpaceOnUse" /><linearGradient
       x1="95.918533"
       y1="43.884041"
       x2="341.60403"
       y2="43.884041"
       id="linearGradient5363"
       xlink:href="#linearGradient3972"
       gradientUnits="userSpaceOnUse"
       gradientTransform="matrix(0.88592872,0,0,1.128759,-2.1258984,3.4866499)" /></defs><g
     transform="translate(-30.080993,-30.979004)"
     id="g3"><circle
       cx="221.76199"
       cy="222.66"
       r="191.681"
       id="circle5"
       style="fill:#cecbe6" /></g><path
     d="m 111.45821,330.26113 c 0.0507,-0.13241 0.40239,-1.38674 0.7815,-2.78739 0.37911,-1.40066 1.2445,-4.46568 1.9231,-6.81113 11.28748,-39.01333 27.39815,-76.71324 48.65999,-113.86722 12.15968,-21.2484 28.377,-45.80682 38.08207,-57.66888 7.03664,-8.60058 15.71017,-17.34481 23.34462,-23.5349 20.10726,-16.3032 42.60889,-25.615891 68.15525,-28.207241 2.75896,-0.27986 6.86871,-0.48289 6.48985,-0.32061 -0.13554,0.0581 -1.98392,0.77063 -4.1075,1.5835 -41.59571,15.922071 -75.99456,39.621521 -102.78739,70.816471 -25.37273,29.54153 -44.02679,66.06702 -55.94432,109.54151 -1.0639,3.88104 -1.71682,6.48493 -4.3888,17.50278 -1.53083,6.31237 -3.13597,10.87122 -5.4939,15.60367 -2.91614,5.85279 -5.71438,9.78235 -10.06183,14.1298 -2.51339,2.51339 -4.84839,4.53072 -4.65264,4.01964 z m 64.53999,-17.24149 c -8.5495,-0.60027 -14.98887,-3.13246 -19.8572,-7.80855 -2.77002,-2.66065 -4.35642,-4.86834 -6.0835,-8.46609 -0.8769,-1.8267 -2.1546,-5.16127 -2.1546,-5.62312 0,-0.12023 1.07915,-0.14266 3.49137,-0.0725 13.31652,0.38714 25.84922,3.41898 37.17288,8.99269 1.44584,0.71167 3.58325,1.85162 4.7498,2.53321 1.16655,0.6816 2.17727,1.23929 2.24605,1.23929 0.2808,0 0.33796,2.06847 0.0898,3.24914 -0.32849,1.56276 -0.88884,2.55947 -2.12933,3.78756 l -1.01311,1.00297 -2.05375,0.32987 c -4.67898,0.75152 -10.69978,1.09946 -14.4584,0.83556 z m -64.57458,-17.52087 c -10.70619,-3.82122 -18.917739,-10.16089 -23.475849,-18.12433 -3.21623,-5.61906 -4.77125,-11.70197 -5.05203,-19.76252 -0.11019,-3.16342 -0.0471,-3.58028 0.54177,-3.58028 0.60618,0 6.39524,3.79433 9.74862,6.38954 7.609229,5.88886 14.296069,12.99168 21.285249,22.60941 1.45189,1.99793 1.9334,3.43682 1.95184,5.83265 0.0143,1.86457 -0.22598,2.87756 -1.01347,4.2718 -0.51638,0.91424 -1.93628,2.72971 -2.22013,2.83864 -0.11541,0.0443 -0.9101,-0.16943 -1.766,-0.47491 z m 80.10093,-23.25078 c -10.57445,-1.32112 -19.1829,-10.51781 -25.56859,-27.31576 -0.75407,-1.98363 -0.78647,-2.13045 -0.51558,-2.33605 0.15899,-0.12066 0.35368,-0.22174 0.43264,-0.22462 0.079,-0.003 1.97939,0.77207 4.22315,1.7221 14.92983,6.32134 31.33448,12.77496 45.12865,17.75368 1.46843,0.53 2.66988,1.02379 2.66988,1.09729 0,0.2174 -5.18812,3.56904 -7.27089,4.69718 -6.93649,3.75716 -13.40615,5.31743 -19.09926,4.60618 z M 126.42492,260.191 c -14.70254,-3.76525 -24.72794,-10.93523 -31.095119,-22.23873 -2.3977,-4.2566 -4.46991,-10.09063 -5.5969,-15.75737 -0.20258,-1.01861 -0.32838,-1.89195 -0.27955,-1.94076 0.1394,-0.13941 4.08581,1.03389 6.53075,1.94166 7.266259,2.69783 14.764939,7.24851 21.605449,13.11157 4.14205,3.55019 11.46959,11.2542 13.75937,14.46632 0.93686,1.31422 1.27408,2.48926 1.27408,4.43947 0,2.35892 -0.97159,4.65692 -2.55775,6.04959 -0.71727,0.62976 -0.91633,0.62583 -3.64033,-0.0718 z m 78.84722,-23.25307 c -9.36679,-1.17834 -15.91268,-7.95991 -20.0665,-20.78892 -0.95539,-2.95071 -2.15089,-7.67076 -2.19445,-8.66409 -0.0261,-0.59508 0.0189,-0.69653 0.32869,-0.74063 0.4111,-0.0585 6.08594,2.86465 12.78507,6.58571 4.95032,2.74968 12.55637,7.27837 17.16935,10.22271 2.90774,1.85595 11.32875,7.4823 12.13085,8.10503 l 0.3834,0.29766 -1.6978,0.79173 c -4.22014,1.96794 -8.17431,3.28815 -11.6147,3.87791 -2.2155,0.3798 -5.54561,0.52402 -7.22391,0.31289 z m -60.40879,-13.98342 c -18.08307,-2.73433 -28.21008,-12.28729 -31.04683,-29.28693 -0.68737,-4.11915 -0.69686,-5.35454 -0.0412,-5.35655 0.46067,-10e-4 4.68864,1.8156 7.51094,3.22791 9.01905,4.51322 17.56451,11.02854 25.25926,19.25843 2.98857,3.19642 3.60359,4.05261 3.7494,5.21968 0.26466,2.11821 -0.56461,4.41411 -2.21195,6.12398 -1.07036,1.11099 -1.13838,1.12818 -3.21966,0.81348 z m 106.87715,-3.54415 c -1.31166,-0.2348 -6.34248,-1.6233 -8.3793,-2.31268 -14.88276,-5.03716 -24.14481,-14.04885 -27.91894,-27.16428 -1.08484,-3.76992 -1.67941,-7.90351 -1.902,-13.22314 -0.0919,-2.19596 -0.0719,-2.51467 0.17274,-2.75935 0.15215,-0.15215 0.33791,-0.25486 0.4128,-0.22823 0.14297,0.0508 9.26127,7.96434 29.34455,25.46729 l 12.02092,10.47645 0.19315,0.86468 c 0.72205,3.23226 0.0697,5.8927 -1.97052,8.03679 -0.90251,0.94846 -1.04398,1.00886 -1.9734,0.84247 z M 155.70715,195.1465 c -10.01255,-3.67157 -16.32811,-9.53999 -19.04693,-17.69843 -1.70749,-5.12369 -2.04315,-11.57191 -0.94388,-18.13249 0.3724,-2.22253 0.45231,-2.24994 2.99362,-1.02676 7.93505,3.81928 14.24444,10.95096 18.85726,21.31492 0.62341,1.40066 1.43306,3.13813 1.79922,3.86105 0.86852,1.71476 1.18356,2.81037 1.29918,4.51825 0.11656,1.7218 -0.11735,2.92536 -0.85458,4.39709 -0.52702,1.0521 -2.25101,3.33426 -2.50558,3.31681 -0.0658,-0.005 -0.78503,-0.25221 -1.59831,-0.55044 z m 113.47898,-15.53968 c -7.0118,-0.51517 -12.71748,-2.2586 -17.28133,-5.2805 -2.09537,-1.38742 -5.33361,-4.61975 -6.72877,-6.71648 -3.54277,-5.32431 -5.50097,-12.19876 -5.86863,-20.60234 -0.0979,-2.23688 -0.0817,-2.46573 0.18781,-2.66282 0.262,-0.19158 0.48023,-0.0542 1.95721,1.23166 10.86064,9.45566 23.37671,17.27426 36.98682,23.1051 4.16982,1.78643 4.43932,2.08481 4.31937,4.78205 -0.0661,1.48674 -0.138,1.81261 -0.61231,2.77608 -0.29558,0.60038 -0.95638,1.53736 -1.46847,2.08218 -0.83535,0.88873 -1.02086,1.00476 -1.80447,1.12863 -1.32641,0.20968 -7.5866,0.31077 -9.68723,0.15644 z M 171.2335,165.85871 c -11.01412,-8.83958 -17.63174,-18.01665 -20.13902,-27.92805 -0.91518,-3.61776 -1.13169,-5.44338 -1.12739,-9.50637 0.003,-2.64701 0.0839,-4.14237 0.30283,-5.5862 0.16445,-1.08438 0.32357,-1.99838 0.3536,-2.03111 0.03,-0.0327 0.8909,0.37974 1.91305,0.91661 12.50208,6.56651 21.55024,17.79 26.82055,33.26863 0.81508,2.39386 0.91288,2.82524 0.91288,4.02667 0,4.09956 -1.82391,6.53402 -5.80888,7.7534 -0.61949,0.18956 -1.24793,0.3434 -1.39655,0.34188 -0.14862,-0.002 -0.9726,-0.56648 -1.83107,-1.25546 z M 280.91275,148.2859 c -7.89812,-1.4258 -15.61792,-7.87848 -23.36874,-19.53301 -0.54087,-0.81328 -1.29854,-2.0122 -1.68369,-2.66426 -0.62061,-1.05066 -0.68757,-1.26098 -0.58833,-1.84838 l 0.11199,-0.66281 2.12612,0 c 8.2454,0 17.66059,2.49151 26.67964,7.06012 6.06469,3.07208 14.21438,8.47967 15.68392,10.40681 l 0.63725,0.83569 -0.93138,0.73034 c -3.73916,2.93205 -8.1309,5.02724 -11.91993,5.68669 -1.79467,0.31235 -4.98393,0.30706 -6.74685,-0.0112 z m -86.99631,-4.42817 c -7.10544,-3.8146 -11.85691,-8.33302 -14.67449,-13.95474 -3.21862,-6.42187 -3.73882,-14.51344 -1.51517,-23.56819 0.79427,-3.23431 2.33927,-7.895261 2.61709,-7.895261 0.48253,0 3.36604,0.83222 4.47712,1.29215 4.10222,1.698131 7.55833,5.012641 9.70273,9.305201 2.1207,4.24512 3.48695,11.17117 3.49001,17.69214 6.6e-4,1.32695 0.0452,1.51601 0.63957,2.71095 1.00735,2.02529 1.51408,3.82746 1.61755,5.75273 0.17644,3.28311 -0.68131,5.5202 -3.04866,7.95116 -0.78421,0.80529 -1.53674,1.46288 -1.67229,1.46132 -0.13555,-0.002 -0.8706,-0.33792 -1.63346,-0.74746 z m 29.89922,-27.02631 c -3.52831,-2.02141 -5.6301,-3.60052 -7.9776,-5.99368 -6.82554,-6.95828 -8.46639,-15.984931 -4.91304,-27.027611 0.76405,-2.374406 2.2167,-5.946607 3.26363,-8.025521 l 0.5552,-1.102486 1.1236,-0.228022 c 0.61798,-0.125412 1.49964,-0.224614 1.95924,-0.220451 1.28011,0.0116 2.95131,0.95263 4.6045,2.592743 1.15744,1.148281 1.44318,1.554036 2.17336,3.086219 2.97613,6.244998 4.89165,12.804058 5.45863,18.691228 0.23821,2.473421 0.11378,6.976491 -0.25422,9.200801 -0.63256,3.8233 -2.27889,8.63876 -3.32818,9.73478 -0.23791,0.2485 -0.47939,0.45182 -0.53663,0.45182 -0.0572,0 -1.01505,-0.52192 -2.12849,-1.15982 z m 18.24576,-22.037751 c -6.95627,-14.944908 -2.85357,-27.817536 12.33132,-38.690792 1.0263,-0.734888 2.48939,-1.731287 3.2513,-2.214221 1.26039,-0.798895 1.46777,-0.877036 2.3002,-0.866694 0.56661,0.007 1.23383,0.151408 1.75264,0.379222 1.16876,0.513209 1.66761,1.063758 4.4048,4.861317 0.27091,0.375857 -2.53517,7.002134 -5.32723,12.579743 -4.12175,8.233824 -8.54201,15.132315 -14.2091,22.175395 -3.48394,4.32987 -3.34138,4.27365 -4.50393,1.77603 z"
     id="path3978"
     style="fill:url(#linearGradient5363)" /></svg>