<?xml version="1.0" encoding="UTF-8" standalone="no"?>
<!-- Created with Inkscape (http://www.inkscape.org/) -->

<svg
   xmlns:dc="http://purl.org/dc/elements/1.1/"
   xmlns:cc="http://creativecommons.org/ns#"
   xmlns:rdf="http://www.w3.org/1999/02/22-rdf-syntax-ns#"
   xmlns:svg="http://www.w3.org/2000/svg"
   xmlns="http://www.w3.org/2000/svg"
   xmlns:xlink="http://www.w3.org/1999/xlink"
   version="1.1"
   width="383.452"
   height="383.452"
   viewBox="0 0 383.452 383.452"
   id="Layer_1"
   xml:space="preserve"><metadata
     id="metadata13"><rdf:RDF><cc:Work
         rdf:about=""><dc:format>image/svg+xml</dc:format><dc:type
           rdf:resource="http://purl.org/dc/dcmitype/StillImage" /><dc:title></dc:title></cc:Work></rdf:RDF></metadata><defs
     id="defs11"><linearGradient
       id="linearGradient5158"
       gradientTransform="translate(-0.89872298,-15.139055)"><stop
         id="stop5160"
         style="stop-color:#171839;stop-opacity:1"
         offset="0" /></linearGradient><linearGradient
       x1="73.255096"
       y1="206.86031"
       x2="311.94809"
       y2="206.86031"
       id="linearGradient5162"
       xlink:href="#linearGradient5158"
       gradientUnits="userSpaceOnUse" /></defs><g
     transform="translate(-28.831999,-30.979002)"
     id="g3"><circle
       cx="220.558"
       cy="222.705"
       r="191.726"
       id="circle5"
       style="fill:#61c7ce" /></g><path
     d="m 182.81477,274.11342 c -4.24304,-0.14255 -7.95105,-0.30556 -15.5961,-0.68563 -8.38189,-0.4167 -14.35082,-0.46509 -26.5525,-0.21523 -8.08629,0.16559 -17.97638,0.12117 -21.1861,-0.0951 -7.65557,-0.51592 -15.22705,-1.56033 -20.012203,-2.76046 -6.9997,-1.75556 -11.75923,-4.58839 -14.719152,-8.76072 -1.95686,-2.75841 -5.009675,-8.30197 -6.798652,-12.34556 -3.255029,-7.35729 -4.596595,-12.68777 -5.334181,-21.19444 -0.238467,-2.75027 -0.272422,-11.12562 -0.05734,-14.1427 0.453259,-6.35804 1.196233,-12.29019 2.380409,-19.006 0.249373,-1.41427 0.597589,-3.43594 0.773813,-4.49261 0.696786,-4.17803 1.495895,-5.55292 6.350835,-10.92679 3.342775,-3.70007 4.313113,-5.14867 5.173367,-7.7232 0.335665,-1.00457 0.3739,-1.24845 0.376836,-2.4037 0.004,-1.56069 -0.165684,-2.01408 -1.133144,-3.02836 -1.240829,-1.30088 -3.04496,-2.22678 -4.968747,-2.55001 -1.6709,-0.28075 -2.105919,-0.40158 -2.568777,-0.7135 -0.958298,-0.6458 -0.836324,-1.8916 0.239539,-2.44659 0.542883,-0.28004 1.615003,-0.46529 2.257446,-0.39006 0.455584,0.0533 0.53105,0.0343 0.53105,-0.1342 0,-0.59704 -0.632874,-1.39695 -2.964878,-3.7474 -2.281554,-2.29961 -2.401522,-2.44175 -2.401522,-2.84538 0,-0.69508 0.718399,-1.31147 2.809721,-2.41075 1.875907,-0.98604 4.05661,-1.66052 6.581478,-2.03559 1.922856,-0.28565 6.355732,-0.28941 7.460334,-0.006 1.493782,0.38281 2.639927,1.2674 3.213745,2.48035 0.436952,0.92364 0.39863,1.11069 -0.548399,2.67669 -0.530593,0.87739 -0.673057,1.41143 -0.509072,1.90831 0.162962,0.49378 0.880843,1.10477 1.502567,1.27885 0.797518,0.22329 1.461782,-0.0692 3.015307,-1.32778 1.2681,-1.02732 2.08462,-2.49687 3.9214,-7.0576 1.65184,-4.10153 4.22421,-9.06909 6.71223,-12.96214 0.4895,-0.76592 1.89619,-2.99191 3.12599,-4.94665 3.54768,-5.63893 5.20921,-7.91394 7.48324,-10.24619 2.77131,-2.84227 6.22018,-5.10464 10.17065,-6.67168 1.29463,-0.51354 1.33963,-0.52295 1.64345,-0.34347 0.27009,0.15954 0.38503,0.16576 0.84902,0.0459 l 0.53664,-0.13858 -0.559,-0.12576 -0.559,-0.12576 1.0621,-0.34382 c 3.29205,-1.06569 8.36718,-1.98276 13.416,-2.42426 3.19192,-0.27912 5.18888,-0.38481 9.6148,-0.5089 2.30588,-0.0647 6.68285,-0.19389 9.7266,-0.2872 10.28265,-0.31521 26.43774,-0.70991 26.8879,-0.65692 0.24596,0.0289 4.11983,0.15157 8.6086,0.2725 4.48877,0.12093 10.55113,0.29491 13.4719,0.38663 2.92077,0.0917 7.21801,0.2195 9.54942,0.28395 4.46178,0.12335 6.4676,0.22902 9.68018,0.50994 5.04882,0.4415 10.12395,1.35857 13.416,2.42426 l 1.0621,0.34382 -0.559,0.12576 -0.559,0.12576 0.53664,0.13858 c 0.46399,0.11982 0.57893,0.1136 0.84902,-0.0459 0.30387,-0.17951 0.34858,-0.17011 1.64346,0.34539 2.86461,1.14042 6.02878,2.99246 8.15088,4.77082 1.15664,0.96929 2.93825,2.78699 3.92672,4.00628 1.62877,2.00909 2.91343,3.89759 6.08416,8.944 1.02383,1.62948 2.29749,3.65212 2.83036,4.49474 2.43254,3.84655 4.91468,8.65505 6.45188,12.49886 1.69433,4.2367 2.67902,6.08252 3.70861,6.95186 1.12714,0.95172 1.68337,1.32038 2.27221,1.50599 0.55952,0.17637 0.62205,0.17566 1.11511,-0.0126 0.67324,-0.25711 1.23482,-0.75406 1.39269,-1.23243 0.17419,-0.52781 0.012,-1.04787 -0.68261,-2.18932 -0.71762,-1.1792 -0.77742,-1.5436 -0.3883,-2.36611 0.58631,-1.23937 1.72021,-2.12026 3.22593,-2.50613 1.10086,-0.28212 5.5334,-0.2792 7.46034,0.005 2.50966,0.37002 4.88236,1.11356 6.73234,2.10974 1.98354,1.06811 2.65886,1.68222 2.65886,2.41791 0,0.29961 -0.31584,0.66331 -2.40152,2.7655 -2.33201,2.35045 -2.96488,3.15036 -2.96488,3.7474 0,0.16848 0.0755,0.18755 0.53105,0.1342 0.64244,-0.0752 1.71456,0.11002 2.25744,0.39006 1.07586,0.55499 1.19784,1.80079 0.23954,2.44659 -0.46286,0.31192 -0.89787,0.43275 -2.56877,0.7135 -1.95623,0.32868 -3.7674,1.26978 -5.01931,2.60806 -0.96261,1.02904 -1.18059,1.65563 -1.11111,3.19391 0.0435,0.96256 0.12298,1.37517 0.44161,2.2919 0.90289,2.59776 1.76816,3.87751 5.18154,7.66348 3.63124,4.02762 4.96817,5.90212 5.63472,7.90044 0.19912,0.59696 0.53015,2.1244 0.78747,3.6335 0.24419,1.43197 0.64622,3.78586 0.89342,5.23088 2.78382,16.27283 3.07411,29.48239 0.89087,40.53827 -1.28887,6.52675 -5.00333,15.32392 -9.53102,22.57283 -1.75001,2.8018 -2.73132,4.01829 -4.34965,5.39206 -4.1871,3.55437 -9.82618,5.59908 -19.18372,6.95594 -5.02368,0.72843 -7.87621,1.03473 -12.60298,1.35328 -3.20695,0.21612 -13.10098,0.26038 -21.242,0.095 -4.24281,-0.0862 -10.33032,-0.15199 -13.5278,-0.14625 -5.12387,0.009 -6.50997,0.0523 -11.6831,0.3627 -11.44574,0.68688 -12.21679,0.7126 -22.36,0.74552 -5.25739,0.0171 -10.79149,-0.0104 -12.298,-0.061 z m 22.6395,-6.59577 c 17.4433,-1.46162 22.2478,-1.91874 26.94032,-2.56324 2.97131,-0.40809 4.32302,-0.5235 8.55618,-0.73052 4.28085,-0.20935 6.27528,-0.35089 8.0496,-0.57128 4.14915,-0.51535 7.4188,-1.55694 11.739,-3.73959 3.2728,-1.65347 5.2928,-3.04138 7.22289,-4.96272 1.03341,-1.02873 1.3146,-1.38502 1.677,-2.12494 0.43439,-0.88691 0.4354,-0.89212 0.42939,-2.236 -0.006,-1.24793 -0.0337,-1.42103 -0.38252,-2.35322 -1.57981,-4.22191 -6.51703,-11.80287 -11.89669,-18.26706 -7.59345,-9.12425 -14.95602,-14.43444 -20.01332,-14.43444 -0.39846,0 -1.04203,-0.0727 -1.43016,-0.16162 -1.81845,-0.41646 -3.64387,-0.53629 -9.00756,-0.59131 -6.09617,-0.0625 -7.87302,-0.008 -27.69773,0.85293 -1.68146,0.073 -3.36318,0.0588 -5.9254,-0.0501 -4.17347,-0.17738 -11.83107,-0.43957 -18.3352,-0.62781 -2.52109,-0.073 -8.53313,-0.13628 -13.3601,-0.14072 -8.95508,-0.008 -11.85219,0.0848 -14.1427,0.45405 -0.55341,0.0892 -1.60992,0.20938 -2.3478,0.26703 -2.00989,0.15703 -3.48927,0.60285 -5.62017,1.69368 -5.47517,2.80278 -12.61229,9.88238 -19.10535,18.95137 -3.35736,4.6893 -6.28118,9.68861 -7.14777,12.22171 -0.28534,0.83405 -0.32511,1.10828 -0.32511,2.2418 0,1.27324 0.006,1.30406 0.43421,2.1801 0.79143,1.61967 3.3133,3.87974 6.38559,5.72269 2.05388,1.23203 5.00978,2.63538 7.3229,3.47662 3.82298,1.39034 6.52696,1.78616 15.0371,2.20122 3.85075,0.18781 6.20135,0.38704 8.4483,0.71605 3.99919,0.58559 10.72621,1.20467 28.62379,2.63424 5.01715,0.40073 9.84691,0.80016 10.7328,0.8876 1.92863,0.19037 0.51832,0.27855 15.13851,-0.94651 z m -79.0187,-60.91972 c 0.75508,-0.33024 1.49207,-1.12324 1.83035,-1.96944 0.23999,-0.60032 0.26529,-0.82859 0.25957,-2.34215 -0.005,-1.45335 -0.0463,-1.8261 -0.30587,-2.795 -0.37644,-1.4051 -1.30167,-3.30657 -2.20602,-4.53369 -0.8967,-1.21673 -2.6185,-2.97269 -5.41553,-5.52295 -3.8067,-3.47087 -4.86442,-4.717 -7.4906,-8.82486 -1.81126,-2.83319 -3.16452,-4.60922 -4.48626,-5.88782 -1.72561,-1.6693 -3.38534,-2.66984 -4.91399,-2.96232 -0.45213,-0.0865 -2.16951,-0.20996 -3.816403,-0.27434 -5.128861,-0.20049 -6.696814,-0.60097 -7.4611,-1.90568 -0.189454,-0.32341 -0.215192,-0.5586 -0.194454,-1.77695 l 0.0239,-1.40419 -0.368953,0.8385 c -0.650641,1.47868 -1.30001,2.54899 -3.862449,6.36618 -2.859544,4.25979 -3.478897,5.25355 -4.322288,6.93522 -1.074398,2.14229 -1.74064,4.50769 -1.730401,6.14355 0.0095,1.52374 0.518707,3.23426 1.40988,4.7364 0.741816,1.25039 2.807318,3.31742 4.455719,4.45901 2.18572,1.51371 4.974105,2.96104 7.826,4.06213 4.175146,1.61198 8.357629,2.72575 17.189609,4.57747 2.19847,0.46094 5.04098,1.11539 6.3167,1.45433 3.13102,0.83189 3.8522,0.95417 5.39399,0.91456 1.04443,-0.0268 1.39509,-0.0809 1.8686,-0.28796 z m 134.4848,0.15801 c 0.5461,-0.0936 2.03667,-0.44702 3.31239,-0.78548 1.27572,-0.33847 4.11823,-0.99252 6.3167,-1.45346 11.04616,-2.31595 15.97965,-3.77854 20.72182,-6.14321 3.09876,-1.5452 5.03829,-2.86367 6.81956,-4.6359 3.34188,-3.32489 4.10242,-6.72865 2.49906,-11.18425 -0.69261,-1.92467 -1.827,-3.91635 -4.39374,-7.7142 -3.37971,-5.00074 -3.92961,-5.89265 -4.66568,-7.5674 l -0.38391,-0.8735 0.0239,1.40419 c 0.0207,1.21835 -0.005,1.45354 -0.19446,1.77695 -0.76428,1.30471 -2.33223,1.70519 -7.4611,1.90568 -1.64688,0.0644 -3.36427,0.18784 -3.8164,0.27434 -1.52892,0.29253 -3.18901,1.29339 -4.91353,2.96232 -1.33701,1.29391 -2.56967,2.91134 -4.47748,5.87512 -2.69283,4.1833 -3.71063,5.38264 -7.49984,8.83756 -2.79107,2.54483 -4.51863,4.30594 -5.40862,5.51363 -0.9003,1.22169 -1.83941,3.14456 -2.21877,4.54301 -0.26613,0.98106 -0.30346,1.32341 -0.30482,2.795 -0.001,1.50486 0.0256,1.74493 0.26307,2.33872 0.44347,1.10896 1.35603,1.92378 2.44076,2.17934 0.67394,0.15878 2.2662,0.13569 3.34108,-0.0485 z m -104.4904,-55.84387 c 1.64215,-0.11321 3.52171,-0.31127 5.7577,-0.60672 6.03975,-0.79805 25.00271,-1.34447 37.70963,-1.08659 11.00448,0.22332 17.53256,0.56442 21.76797,1.13741 3.96528,0.53644 6.01492,0.66737 10.46885,0.66876 5.28064,0.002 7.87867,-0.17069 18.54325,-1.23008 8.65982,-0.86024 13.33483,-1.22664 15.66717,-1.22789 0.63808,-3.4e-4 1.07406,-0.0572 1.2857,-0.16753 0.17613,-0.0919 0.39857,-0.16732 0.4943,-0.1677 0.0958,-3.4e-4 0.80009,0.35993 1.5652,0.80068 3.2709,1.88422 4.36045,2.08854 5.28404,0.99091 0.8132,-0.96642 0.38697,-2.57989 -1.61818,-6.12568 -0.49587,-0.87687 -1.79519,-3.44268 -2.88735,-5.7018 -3.00899,-6.22399 -4.57899,-9.05235 -6.46906,-11.654 -3.06162,-4.21427 -7.07048,-7.96517 -11.25533,-10.53108 -1.65555,-1.01509 -4.52977,-2.49967 -5.65653,-2.9217 -1.13572,-0.42538 -2.87174,-0.85575 -4.57136,-1.13327 -2.43313,-0.3973 -14.11445,-0.70223 -21.27422,-0.55535 -6.33675,0.12999 -52.86087,0.13128 -59.07776,0.002 -7.14628,-0.14903 -18.83338,0.15516 -21.27422,0.55371 -3.06648,0.50071 -4.75336,1.06489 -7.42283,2.48256 -4.26056,2.26264 -7.00014,4.27985 -10.0837,7.42482 -4.05065,4.13131 -6.08561,7.30408 -10.35075,16.13817 -1.09844,2.27513 -2.28506,4.6397 -2.63694,5.2546 -2.28348,3.9904 -2.80061,5.77264 -1.96359,6.76738 0.80587,0.95772 2.09582,0.90477 4.61395,-0.18938 0.64876,-0.28189 1.5302,-0.68859 1.95876,-0.90378 0.73864,-0.37089 0.83465,-0.39042 1.8447,-0.37525 2.92337,0.0439 7.19173,0.37732 15.879,1.2404 6.78907,0.67449 9.90967,0.94688 12.6893,1.10762 2.29514,0.13271 9.13742,0.1384 11.0123,0.009 z"
     id="path5164"
     style="fill:url(#linearGradient5158)" /></svg>