<?xml version="1.0" encoding="UTF-8" standalone="no"?>
<!-- Generator: Adobe Illustrator 17.0.0, SVG Export Plug-In . SVG Version: 6.00 Build 0)  -->

<svg
   xmlns:dc="http://purl.org/dc/elements/1.1/"
   xmlns:cc="http://creativecommons.org/ns#"
   xmlns:rdf="http://www.w3.org/1999/02/22-rdf-syntax-ns#"
   xmlns:svg="http://www.w3.org/2000/svg"
   xmlns="http://www.w3.org/2000/svg"
   xmlns:sodipodi="http://sodipodi.sourceforge.net/DTD/sodipodi-0.dtd"
   xmlns:inkscape="http://www.inkscape.org/namespaces/inkscape"
   version="1.1"
   id="Layer_1"
   x="0px"
   y="0px"
   width="384.30801"
   height="384.30801"
   viewBox="0 0 384.30801 384.30801"
   enable-background="new 0 0 450 450"
   xml:space="preserve"
   inkscape:version="0.48.4 r9939"
   sodipodi:docname="Mos_Over.svg"><metadata
     id="metadata41"><rdf:RDF><cc:Work
         rdf:about=""><dc:format>image/svg+xml</dc:format><dc:type
           rdf:resource="http://purl.org/dc/dcmitype/StillImage" /><dc:title></dc:title></cc:Work></rdf:RDF></metadata><defs
     id="defs39" /><sodipodi:namedview
     pagecolor="#ffffff"
     bordercolor="#666666"
     borderopacity="1"
     objecttolerance="10"
     gridtolerance="10"
     guidetolerance="10"
     inkscape:pageopacity="0"
     inkscape:pageshadow="2"
     inkscape:window-width="640"
     inkscape:window-height="480"
     id="namedview37"
     showgrid="false"
     fit-margin-top="0"
     fit-margin-left="0"
     fit-margin-right="0"
     fit-margin-bottom="0"
     inkscape:zoom="0.52444444"
     inkscape:cx="195.207"
     inkscape:cy="189.07101"
     inkscape:window-x="0"
     inkscape:window-y="34"
     inkscape:window-maximized="0"
     inkscape:current-layer="Layer_1" /><g
     id="g3"
     transform="translate(-29.792999,-29.763)"><circle
       cx="221.94701"
       cy="221.91701"
       r="192.15401"
       id="circle5"
       sodipodi:cx="221.94701"
       sodipodi:cy="221.91701"
       sodipodi:rx="192.15401"
       sodipodi:ry="192.15401"
       style="fill:#93c3ce"
       d="m 414.10101,221.91701 c 0,106.12373 -86.03028,192.154 -192.154,192.154 -106.12373,0 -192.154011,-86.03027 -192.154011,-192.154 0,-106.12373 86.030281,-192.15401 192.154011,-192.15401 106.12372,0 192.154,86.03028 192.154,192.15401 z" /><path
       d="m 215.783,167.919 c -1.415,-2.114 -2.936,-3.966 -2.74,-6.979 0.186,-2.85 0.854,-5.653 2.091,-7.838 1.347,-2.378 3.063,-4.394 3.205,-7.3 0.025,-0.51 0.985,-0.957 1.477,-1.469 0.333,-0.347 0.913,-0.824 0.846,-1.124 -0.317,-1.435 0.641,-2.019 1.522,-2.734 0.868,-0.705 1.756,-1.412 2.492,-2.245 0.727,-0.822 1.486,-1.725 1.858,-2.731 0.738,-1.998 2.394,-2.881 4.034,-3.847 0.604,-0.356 1.362,-0.572 1.799,-1.071 2.961,-3.379 7.164,-4.384 11.136,-5.661 1.589,-0.511 3.542,0.004 5.305,0.236 0.356,0.047 0.603,0.921 0.919,1.444 -0.87,2 -2.775,2.074 -2.775,2.074 -15.604,7.65 -17.925,31.526 -17.925,31.526 0.215,2.41 1.303,4.881 2.811,6.208 1.604,1.411 2.683,1.189 6.217,1.394 3.112,-1.062 3.891,-2.392 5.117,-4.395 -0.212,-0.285 -1.501,-1.225 -1.807,-1.403 -2.386,-1.388 -2.71,-3.539 -1.917,-5.841 0.89,-2.583 2.292,-4.897 5.417,-5.195 1.415,-0.135 2.855,-0.006 4.283,-0.031 0.39,-0.007 0.777,-0.14 1.204,-0.222 0,-0.86 -0.242,-1.725 0.038,-2.359 2.121,-4.8 1.651,-9.696 0.73,-14.629 -0.037,-0.198 -0.108,-0.417 -0.06,-0.599 0.179,-0.682 0.4,-1.352 0.617,-2.063 1.809,-0.743 1.809,-0.743 5.406,0.206 -0.21,0.456 -0.415,0.901 -0.619,1.345 0.064,0.071 0.142,0.211 0.19,0.201 0.552,-0.106 1.1,-0.234 1.908,-0.415 0.115,1.123 0.212,2.074 0.337,3.294 -0.845,-0.137 -1.538,-0.249 -2.883,-0.468 0.606,1 0.819,1.619 1.242,2.007 2.519,2.306 2.619,2.611 1.543,6.038 -0.245,0.781 0.069,2.131 0.976,3.466 -1.842,0.684 -3.582,1.33 -5.437,2.018 0.112,0.812 0.231,1.675 0.36,2.612 0.892,0.04 1.798,0.08 3.281,0.146 -1.164,0.84 -1.907,1.377 -2.776,2.005 0.286,0.473 0.578,0.956 0.935,1.546 -0.524,0.558 -1.071,1.14 -1.63,1.735 0.864,1.221 0.747,3.231 2.883,3.396 2.217,0.171 4.328,0.058 5.96,-1.752 1.5,-1.663 3.005,-3.321 4.533,-4.959 1.301,-1.396 2.712,-2.565 5.151,-1.696 0.076,0.551 0.355,1.339 0.261,2.079 -0.736,5.81 -6.615,11.033 -12.538,11.067 -2.86,0.016 -5.721,-0.304 -8.583,-0.318 -0.945,-0.005 -1.912,0.418 -2.831,0.749 -0.743,0.267 -1.467,0.633 -2.131,1.061 -0.648,0.418 -1.364,0.866 -1.781,1.483 -1.847,2.731 -4.055,4.462 -7.589,4.938 -3.649,0.491 -7.26,0.868 -10.857,0.331 -2.866,-0.429 -5.692,-1.309 -8.441,-2.262 0,0.001 -2.069,-0.738 -2.764,-2.999 z"
       id="path7"
       inkscape:connector-curvature="0"
       style="fill:#de4344" /><path
       d="m 304.108,138.481 c -0.93,1.997 -1.834,4.007 -2.798,5.988 -0.793,1.631 -1.605,3.257 -2.503,4.832 -0.761,1.335 -2.055,1.648 -3.474,1.364 -1.318,-0.264 -2,-1.35 -1.657,-2.705 0.451,-1.78 0.819,-3.622 1.575,-5.277 2.213,-4.842 4.491,-9.66 6.963,-14.373 1.315,-2.507 3.126,-4.644 6.42,-4.72 2.806,-0.065 4.705,0.976 6.325,3.391 1.109,1.653 1.548,3.449 2.282,5.172 0.379,0.888 0.71,2.311 0.271,2.934 -1.182,1.678 -0.433,3.165 0.174,4.501 1.27,2.795 0.992,5.812 1.633,8.682 0.08,0.359 0.21,0.859 0.04,1.097 -0.922,1.289 -0.236,2.247 0.417,3.355 0.613,1.04 0.948,2.244 1.44,3.463 1.045,0.565 1.782,0.203 2.441,-0.844 1.362,-2.162 3.031,-4.159 4.171,-6.426 1.117,-2.221 2.797,-3.089 5.313,-3.305 1.282,2.247 1.194,4.546 -0.182,6.741 -2.541,4.053 -5.187,8.041 -7.805,12.045 -0.215,0.329 -0.498,0.742 -0.832,0.843 -2.827,0.857 -5.128,2.93 -8.269,3.189 -2.052,0.17 -3.999,1.35 -6.056,1.765 -4.496,0.906 -8.855,0.743 -12.813,-2.092 -0.755,-0.54 -1.938,-0.49 -2.927,-0.693 -1.248,-0.255 -2.372,-0.636 -2.492,-2.409 2.664,-1.107 5.376,-2.288 8.132,-3.354 1.05,-0.406 1.668,-1.082 2.461,-1.872 5.467,-5.452 4.323,-11.926 3.282,-18.434 -0.141,-0.878 -0.447,-1.73 -0.677,-2.594 -0.286,-0.087 -0.571,-0.176 -0.855,-0.264 z"
       id="path9"
       inkscape:connector-curvature="0"
       style="fill:#de4344" /><path
       d="m 278.201,137.803 c 0.509,-2.686 0.726,-2.876 2.918,-3.278 0.512,-0.094 1.258,-0.381 1.402,-0.765 0.714,-1.895 2.128,-3.182 3.365,-4.691 1.354,-1.651 1.919,-3.949 3.012,-6.372 -1.179,0 -1.876,-0.165 -2.455,0.027 -3.733,1.233 -6.743,-0.1 -8.88,-2.992 -0.815,-1.103 -0.94,-3.195 -0.557,-4.615 1.234,-4.577 8.146,-9.356 13.361,-6.089 2.563,1.605 3.268,4.112 4.18,6.482 0.709,1.844 0.59,4.008 0.829,6.03 0.622,5.255 -2.41,8.566 -6.13,11.51 -0.771,0.61 -1.516,1.255 -2.318,1.82 -0.633,0.447 -1.324,0.816 -2.01,1.181 -0.506,0.269 -1.188,0.343 -1.545,0.731 -2.1,2.279 -2.306,2.354 -5.172,1.021 z"
       id="path11"
       inkscape:connector-curvature="0"
       style="fill:#de4344" /><path
       d="m 121.287,126.975 c 0,0 11.511,-3.366 9.105,9.105 0,0 -3.794,11.571 -17.073,3.225 0,0 -8.786,-5.642 1.581,-22.89 0,0 29.213,-30.225 44.515,-5.817 0,0 27.316,-27.235 27.316,-1.77 0,0 35.663,-28.328 21.436,16.63 0,0 -33.007,58.426 -6.829,65.255 0,0 3.415,1.138 8.347,-2.845 0,0 1.518,6.26 -6.07,7.967 0,0 -44.578,10.623 -5.501,-67.531 0,0 15.555,-29.159 -11.761,-5.853 0,0 -39.836,79.455 -29.972,35.825 0,0 16.693,-33.386 15.176,-40.974 -1.518,-7.588 -9.864,0.054 -13.658,5.149 -3.794,5.095 -15.555,48.108 -22.763,49.175 -7.208,1.067 -9.105,-6.9 12.899,-44.08 22.004,-37.18 -31.111,-5.313 -26.748,-0.571 z"
       id="path13"
       inkscape:connector-curvature="0"
       style="fill:#de4344" /><g
       id="g15"><path
         d="m 84.288,267.87 c 9.045,0 16.896,-0.174 26.275,-0.854 0.514,0 0.855,0.34 0.855,0.681 0,0.681 -0.681,1.535 -1.876,1.535 -9.212,0.855 -16.382,0.855 -25.253,0.855 0,1.535 -0.174,2.904 -0.174,4.439 -0.507,15.187 -0.855,29.693 -1.021,44.879 9.552,0.167 11.262,0.34 12.971,0.34 4.946,0 9.893,-0.174 15.013,-0.514 0.855,0 1.195,0.514 1.195,1.195 0,0.514 -0.514,1.362 -1.362,1.362 -4.613,0.347 -9.219,0.514 -13.651,0.514 -5.461,0 -10.754,-0.167 -15.875,-0.514 -0.34,0 -0.507,-0.34 -0.507,-0.681 0.34,-21.161 1.021,-41.975 1.021,-62.623 0,-13.485 -0.174,-27.817 -1.021,-41.635 0.167,-0.688 0.848,-1.709 1.876,-1.709 5.801,0 10.581,0.167 16.041,0.167 5.461,0 9.212,-0.167 12.623,-0.167 1.195,0 1.195,0.514 1.195,0.855 0,0.34 -0.167,1.195 -1.362,1.195 -2.223,0 -7.684,0.167 -13.311,0.167 -3.758,0 -8.705,0.174 -14.68,0.174 0.855,12.964 1.028,26.448 1.028,39.078 v 11.261 z"
         id="path17"
         inkscape:connector-curvature="0"
         style="fill:#de4344" /><path
         d="m 118.434,298.41 c 0,-0.507 0.688,-1.021 1.369,-1.021 0.514,0 1.021,0.514 1.195,0.854 0,2.049 -0.174,4.092 -0.174,6.482 0,4.439 0.688,8.872 3.758,12.116 2.216,2.564 4.266,3.758 7.163,3.758 3.758,0 7.684,-1.709 9.559,-5.294 2.897,-5.287 3.411,-11.776 3.411,-17.917 0,-3.925 -0.174,-7.677 -0.174,-11.262 0,-15.868 -13.304,-21.675 -22.183,-32.937 -3.071,-3.925 -3.585,-9.212 -3.585,-14.159 0,-4.099 0.514,-9.045 0.855,-12.804 0,-0.681 -0.34,-1.021 -0.34,-1.535 0,-0.167 0,-0.681 0.34,-1.021 1.883,-6.655 6.996,-8.872 13.311,-8.872 3.585,0 6.655,0.167 8.705,2.557 3.925,4.606 4.432,11.095 4.432,17.41 0,3.237 -0.167,6.996 -0.167,9.893 -0.174,0.514 -0.855,0.681 -1.369,0.681 -0.507,0 -1.362,-0.167 -1.362,-0.848 v -6.315 c 0,-7.51 -0.514,-17.75 -5.461,-20.988 l -4.78,-0.34 c -3.585,0 -4.432,0 -7.51,2.216 -1.362,1.702 -2.216,2.897 -3.237,4.78 0,4.606 -0.855,10.407 -0.855,15.694 0,3.418 0.34,6.655 1.709,9.559 4.432,9.045 16.208,13.818 21.495,25.767 2.223,5.12 2.904,10.581 2.904,15.868 0,4.266 -0.34,8.365 -0.34,12.797 0,9.045 -4.606,18.945 -14.846,18.945 -3.925,0 -6.829,-1.369 -9.386,-3.925 -4.439,-4.099 -4.439,-13.144 -4.439,-18.945 v -1.194 z"
         id="path19"
         inkscape:connector-curvature="0"
         style="fill:#de4344" /><path
         d="m 159.409,214.967 c 2.216,0 4.266,-0.167 6.482,-0.167 5.294,0 10.074,0.855 13.992,5.801 3.244,3.925 4.273,9.552 4.273,15.013 0,2.564 -0.174,4.78 -0.347,6.996 -0.507,4.953 -1.188,9.726 -2.216,14.68 -2.216,10.407 -4.78,12.116 -15.701,13.992 -2.39,0.34 -4.773,0.34 -7.163,0.34 0.34,9.386 0.681,18.598 0.681,27.643 0,7.17 0,15.36 -1.021,22.356 -0.174,0.681 -0.688,0.855 -1.369,0.855 -0.514,0 -1.362,-0.174 -1.362,-1.028 0.848,-6.822 1.021,-14.673 1.021,-21.502 0,-13.818 -1.021,-27.469 -1.021,-41.295 0,-7.336 0.167,-15.013 0.848,-22.697 0,-3.752 0,-5.461 0.514,-6.822 0,-4.439 -0.167,-8.705 -0.167,-13.137 0,-0.855 0.848,-0.855 1.188,-1.028 h 1.368 z m 0.34,5.46 c 0,11.949 -1.362,24.232 -1.362,36.181 0,6.141 0.34,9.038 0.34,12.623 6.141,0 11.262,-1.021 17.062,-3.411 2.049,-2.564 4.78,-12.797 4.78,-17.577 0.34,-3.925 0.855,-7.85 0.855,-11.602 0,-8.024 -0.514,-14.846 -10.074,-19.112 -1.535,0 -3.237,-0.34 -4.946,-0.34 -2.216,0 -4.606,0.167 -6.655,0.167 v 3.071 z"
         id="path21"
         inkscape:connector-curvature="0"
         style="fill:#de4344" /><path
         d="m 199.696,275.373 c -1.362,0.347 -4.092,0.347 -5.627,0.347 0.167,4.092 0.167,7.843 0.167,11.769 0,12.804 -0.848,23.551 -0.848,34.132 0,0.681 -0.855,0.855 -1.369,0.855 -0.681,0 -1.362,-0.174 -1.362,-1.028 1.362,-34.639 1.702,-70.473 1.702,-105.112 0,-0.681 0.855,-0.681 1.195,-1.028 1.028,0 3.071,-0.167 5.461,-0.167 5.801,0 13.825,0.681 16.722,4.432 2.39,3.078 2.564,9.733 2.564,15.194 0,27.984 0,38.564 -14.506,40.44 3.925,10.067 6.996,21.161 9.552,31.395 1.369,4.953 2.39,10.24 4.613,15.02 0,0.167 -1.195,0.855 -1.883,0.855 -0.34,0 -0.507,-0.174 -0.848,-0.34 -2.39,-4.78 -3.418,-10.414 -4.78,-15.36 -2.564,-10.24 -5.461,-21.328 -9.212,-31.402 h -1.541 z m -3.578,-1.702 5.627,-0.681 c 0,0 0.34,-0.174 0.514,-0.174 0.34,0 0.514,0.174 0.681,0.174 1.876,0 2.564,0 3.585,-0.347 5.461,-1.876 8.017,-6.649 8.531,-12.283 0.681,-4.439 0.855,-9.045 0.855,-13.992 0,-4.953 -0.174,-10.581 -0.34,-14.846 -0.514,-3.411 0,-9.045 -2.904,-11.602 -2.557,-2.049 -9.045,-2.223 -13.651,-2.223 h -4.092 c 0,12.797 -0.34,25.601 -0.34,37.883 v 6.315 c 0,3.925 -0.514,7.677 -0.514,11.602 l 2.048,0.174 z"
         id="path23"
         inkscape:connector-curvature="0"
         style="fill:#de4344" /><path
         d="m 229.923,267.87 c 9.045,0 16.896,-0.174 26.281,-0.854 0.507,0 0.848,0.34 0.848,0.681 0,0.681 -0.681,1.535 -1.876,1.535 -9.212,0.855 -16.382,0.855 -25.253,0.855 0,1.535 -0.174,2.904 -0.174,4.439 -0.507,15.187 -0.848,29.693 -1.021,44.879 9.552,0.167 11.262,0.34 12.971,0.34 4.946,0 9.893,-0.174 15.013,-0.514 0.854,0 1.195,0.514 1.195,1.195 0,0.514 -0.514,1.362 -1.362,1.362 -4.613,0.347 -9.219,0.514 -13.651,0.514 -5.461,0 -10.754,-0.167 -15.874,-0.514 -0.34,0 -0.507,-0.34 -0.507,-0.681 0.34,-21.161 1.021,-41.975 1.021,-62.623 0,-13.485 -0.174,-27.817 -1.021,-41.635 0.167,-0.688 0.848,-1.709 1.876,-1.709 5.801,0 10.581,0.167 16.041,0.167 5.46,0 9.212,-0.167 12.623,-0.167 1.195,0 1.195,0.514 1.195,0.855 0,0.34 -0.167,1.195 -1.362,1.195 -2.223,0 -7.684,0.167 -13.311,0.167 -3.752,0 -8.705,0.174 -14.673,0.174 0.848,12.964 1.021,26.448 1.021,39.078 v 11.261 z"
         id="path25"
         inkscape:connector-curvature="0"
         style="fill:#de4344" /><path
         d="m 264.069,298.41 c 0,-0.507 0.688,-1.021 1.369,-1.021 0.514,0 1.021,0.514 1.195,0.854 0,2.049 -0.174,4.092 -0.174,6.482 0,4.439 0.681,8.872 3.758,12.116 2.216,2.564 4.266,3.758 7.163,3.758 3.758,0 7.684,-1.709 9.559,-5.294 2.897,-5.287 3.411,-11.776 3.411,-17.917 0,-3.925 -0.174,-7.677 -0.174,-11.262 0,-15.868 -13.304,-21.675 -22.183,-32.937 -3.071,-3.925 -3.578,-9.212 -3.578,-14.159 0,-4.099 0.507,-9.045 0.848,-12.804 0,-0.681 -0.34,-1.021 -0.34,-1.535 0,-0.167 0,-0.681 0.34,-1.021 1.876,-6.655 6.996,-8.872 13.311,-8.872 3.585,0 6.655,0.167 8.705,2.557 3.925,4.606 4.439,11.095 4.439,17.41 0,3.237 -0.174,6.996 -0.174,9.893 -0.174,0.514 -0.855,0.681 -1.369,0.681 -0.507,0 -1.362,-0.167 -1.362,-0.848 v -6.315 c 0,-7.51 -0.514,-17.75 -5.461,-20.988 l -4.78,-0.34 c -3.585,0 -4.432,0 -7.51,2.216 -1.362,1.702 -2.216,2.897 -3.237,4.78 0,4.606 -0.854,10.407 -0.854,15.694 0,3.418 0.34,6.655 1.709,9.559 4.432,9.045 16.208,13.818 21.495,25.767 2.223,5.12 2.904,10.581 2.904,15.868 0,4.266 -0.34,8.365 -0.34,12.797 0,9.045 -4.606,18.945 -14.846,18.945 -3.925,0 -6.829,-1.369 -9.386,-3.925 -4.439,-4.099 -4.439,-13.144 -4.439,-18.945 v -1.194 z"
         id="path27"
         inkscape:connector-curvature="0"
         style="fill:#de4344" /><path
         d="m 300.605,298.41 c 0,-0.507 0.688,-1.021 1.369,-1.021 0.514,0 1.021,0.514 1.195,0.854 0,2.049 -0.174,4.092 -0.174,6.482 0,4.439 0.688,8.872 3.758,12.116 2.216,2.564 4.266,3.758 7.163,3.758 3.758,0 7.684,-1.709 9.559,-5.294 2.897,-5.287 3.411,-11.776 3.411,-17.917 0,-3.925 -0.174,-7.677 -0.174,-11.262 0,-15.868 -13.304,-21.675 -22.183,-32.937 -3.071,-3.925 -3.585,-9.212 -3.585,-14.159 0,-4.099 0.514,-9.045 0.855,-12.804 0,-0.681 -0.34,-1.021 -0.34,-1.535 0,-0.167 0,-0.681 0.34,-1.021 1.883,-6.655 6.996,-8.872 13.311,-8.872 3.585,0 6.655,0.167 8.705,2.557 3.925,4.606 4.432,11.095 4.432,17.41 0,3.237 -0.167,6.996 -0.167,9.893 -0.174,0.514 -0.854,0.681 -1.369,0.681 -0.507,0 -1.362,-0.167 -1.362,-0.848 v -6.315 c 0,-7.51 -0.514,-17.75 -5.461,-20.988 l -4.78,-0.34 c -3.585,0 -4.432,0 -7.51,2.216 -1.362,1.702 -2.216,2.897 -3.237,4.78 0,4.606 -0.854,10.407 -0.854,15.694 0,3.418 0.34,6.655 1.709,9.559 4.432,9.045 16.208,13.818 21.495,25.767 2.223,5.12 2.904,10.581 2.904,15.868 0,4.266 -0.34,8.365 -0.34,12.797 0,9.045 -4.606,18.945 -14.846,18.945 -3.925,0 -6.829,-1.369 -9.386,-3.925 -4.439,-4.099 -4.439,-13.144 -4.439,-18.945 v -1.194 z"
         id="path29"
         inkscape:connector-curvature="0"
         style="fill:#de4344" /><path
         d="m 354.55,214.112 c 8.191,0 11.262,10.581 13.311,17.577 3.411,11.095 4.946,23.037 4.946,34.986 0,10.24 -1.195,20.814 -2.557,30.373 -1.369,8.531 -4.273,25.767 -16.041,25.767 -10.074,0 -13.311,-14.332 -15.187,-22.356 -2.39,-10.747 -3.585,-21.842 -3.585,-32.93 0,-9.9 1.021,-19.966 2.897,-29.693 1.537,-8.53 6.15,-23.724 16.216,-23.724 z m 12.797,82.596 c 1.535,-9.219 2.39,-18.772 2.39,-28.498 0,-8.531 -0.681,-17.41 -2.223,-26.108 -1.188,-6.315 -5.113,-25.253 -12.964,-26.108 -9.219,1.362 -11.949,14.846 -13.311,22.009 -1.876,9.9 -2.904,19.966 -2.904,29.866 0,10.921 1.195,21.842 3.418,32.423 1.535,6.649 3.578,16.034 10.233,19.619 1.028,0.514 2.904,0.514 3.244,0.514 0.174,0 1.362,-0.514 2.216,-0.681 6.831,-5.633 8.533,-14.504 9.901,-23.036 z"
         id="path31"
         inkscape:connector-curvature="0"
         style="fill:#de4344" /></g><line
       stroke-miterlimit="10"
       x1="118.434"
       y1="186.77299"
       x2="176.05"
       y2="186.77299"
       id="line33"
       style="fill:none;stroke:#de4344;stroke-miterlimit:10" /><line
       stroke-miterlimit="10"
       x1="213.591"
       y1="186.77299"
       x2="329.617"
       y2="186.77299"
       id="line35"
       style="fill:none;stroke:#de4344;stroke-miterlimit:10" /></g></svg>