<?xml version="1.0" encoding="UTF-8" standalone="no"?>
<!-- Created with Inkscape (http://www.inkscape.org/) -->

<svg
   xmlns:dc="http://purl.org/dc/elements/1.1/"
   xmlns:cc="http://creativecommons.org/ns#"
   xmlns:rdf="http://www.w3.org/1999/02/22-rdf-syntax-ns#"
   xmlns:svg="http://www.w3.org/2000/svg"
   xmlns="http://www.w3.org/2000/svg"
   xmlns:xlink="http://www.w3.org/1999/xlink"
   version="1.1"
   width="384.30801"
   height="384.30801"
   viewBox="0 0 384.30801 384.30801"
   id="Layer_1"
   xml:space="preserve"><metadata
     id="metadata13"><rdf:RDF><cc:Work
         rdf:about=""><dc:format>image/svg+xml</dc:format><dc:type
           rdf:resource="http://purl.org/dc/dcmitype/StillImage" /><dc:title></dc:title></cc:Work></rdf:RDF></metadata><defs
     id="defs11"><linearGradient
       id="linearGradient7223"><stop
         id="stop7225"
         style="stop-color:#de4344;stop-opacity:1"
         offset="0" /></linearGradient><linearGradient
       x1="42.7136"
       y1="180.9798"
       x2="337.6192"
       y2="180.9798"
       id="linearGradient7227"
       xlink:href="#linearGradient7223"
       gradientUnits="userSpaceOnUse" /></defs><g
     transform="translate(-29.792999,-29.763)"
     id="g3"><circle
       cx="221.94701"
       cy="221.91701"
       r="192.15401"
       id="circle5"
       style="fill:#93c3ce" /></g><g
     transform="translate(1.9980489,5.181513)"
     id="g7229"><path
       d="m 169.2072,261.78355 c -0.24992,-0.0591 -1.66704,-0.48001 -3.14917,-0.93524 -2.59567,-0.79724 -2.70012,-0.81969 -2.84,-0.6103 -0.14142,0.21169 -0.334,0.19181 -7.34539,-0.75837 -3.9601,-0.53667 -7.22043,-0.95551 -7.24518,-0.93076 -0.0248,0.0247 2.2e-4,0.16712 0.0554,0.31636 0.10923,0.295 0.0612,0.55536 -0.10249,0.55536 -0.0567,0 -2.61558,-1.33838 -5.68643,-2.97417 l -5.58338,-2.97419 -0.35331,0.39624 c -0.19431,0.21793 -0.52068,0.58503 -0.72525,0.81577 -0.20458,0.23076 -0.41923,0.41955 -0.47702,0.41955 -0.0578,0 -0.82667,-0.94667 -1.70865,-2.10372 -0.88197,-1.15705 -1.64333,-2.07918 -1.69189,-2.04916 -0.0486,0.03 -0.33476,0.59329 -0.63597,1.25173 -0.36239,0.79217 -0.60903,1.19715 -0.72909,1.19715 -0.10631,0 -1.23925,-1.43313 -2.73623,-3.46128 -1.42117,-1.92542 -2.63338,-3.46283 -2.73188,-3.4648 -0.0974,-0.002 -0.27359,0.067 -0.39154,0.15328 -0.20692,0.15132 -0.1977,0.20209 0.26318,1.4484 0.52901,1.43057 0.57182,1.69097 0.27704,1.68552 -0.10934,-0.002 -1.04228,-0.59461 -2.0732,-1.31685 -2.84453,-1.99284 -3.34911,-2.20324 -4.59242,-1.9149 -1.77305,0.4112 -3.0302,0.52134 -7.10838,0.62279 -4.25186,0.10576 -6.0306,0.26266 -7.63779,0.67372 -1.8841,0.48186 -3.47149,1.29151 -5.018815,2.55982 -0.811287,0.66501 -0.883854,0.68817 -1.600193,0.51072 -0.924405,-0.22899 -3.07906,-0.43643 -3.473806,-0.33444 -0.213728,0.0552 -0.895189,0.28302 -1.51436,0.50623 -6.687428,2.41082 -16.806975,2.13616 -25.059035,-0.68015 -3.632148,-1.23961 -6.61739,-2.85466 -9.0312,-4.88599 -0.49984,-0.42063 -1.598921,-1.27725 -2.442401,-1.90357 -1.868567,-1.3875 -2.782916,-2.30965 -3.338553,-3.36702 -0.545396,-1.0379 -0.747576,-2.02674 -0.745111,-3.64428 0.0063,-4.15634 1.389718,-5.91472 4.878864,-6.2014 0.864242,-0.071 1.761237,-0.015 11.07116,0.69071 7.796623,0.59105 10.133275,0.70268 10.995742,0.52533 2.091501,-0.43008 13.153796,-4.31561 13.65675,-4.7968 0.223168,-0.21353 -1.770484,0.3149 -7.91991,2.09919 -2.139218,0.62071 -3.577797,0.98057 -3.919896,0.98057 -0.81171,0 -3.178441,-0.2961 -4.969445,-0.62172 -3.815767,-0.69375 -8.783741,-2.1556 -11.502134,-3.38455 -3.711838,-1.67809 -5.175572,-3.09356 -6.211692,-6.00684 -0.502389,-1.4126 -0.671358,-2.44298 -0.614351,-3.74638 0.06206,-1.41889 0.389712,-2.12079 1.505596,-3.22526 1.412836,-1.39839 3.068086,-2.03238 5.292181,-2.02698 1.408256,0.003 1.644504,0.0512 4.4304,0.89661 3.589755,1.0893 4.494035,1.25367 7.87901,1.43214 3.57394,0.18843 7.321132,-0.0764 9.444918,-0.66756 0.521885,-0.14526 0.802572,-0.31074 1.198282,-0.70645 0.829097,-0.8291 0.88879,-1.18931 0.923338,-5.57181 0.02876,-3.64764 0.02468,-3.72203 -0.339076,-6.1912 -0.2025,-1.37456 -0.414466,-2.66741 -0.471038,-2.87299 -0.05657,-0.20559 -0.474262,-0.92127 -0.928203,-1.5904 -1.980849,-2.91988 -4.914991,-7.1412 -5.097443,-7.33363 -0.23296,-0.2457 -0.805516,-0.31927 -4.544188,-0.58391 -5.570652,-0.39432 -8.265783,-0.73657 -10.772795,-1.36804 -3.099266,-0.78065 -4.335415,-1.76794 -4.192123,-3.34818 0.105877,-1.16764 0.720464,-2.12979 2.902153,-4.54336 0.649344,-0.71836 2.177376,-2.52175 3.395627,-4.00753 2.392468,-2.91785 2.362605,-2.85998 1.81645,-3.51975 l -0.259422,-0.31339 -1.755745,0.39587 c -1.737094,0.39167 -2.373769,0.56629 -4.141345,1.13587 -5.391357,1.73728 -11.071195,1.07574 -15.251192,-1.77635 -3.20626,-2.18769 -5.821123,-6.4573 -5.821516,-9.50553 -1.44e-4,-1.11297 0.255243,-1.82133 0.883095,-2.44941 0.814459,-0.81475 1.476508,-1.20887 5.421612,-3.22748 5.309744,-2.71688 7.220007,-3.59323 9.883201,-4.53405 4.004232,-1.41455 6.526116,-3.27995 8.233309,-6.09005 0.636412,-1.04755 1.16371,-2.37814 1.638495,-4.13459 1.241342,-4.59232 3.383544,-7.58056 7.342284,-10.24205 2.791625,-1.87683 7.782946,-4.0371 12.741114,-5.51441 1.5087,-0.44952 2.410059,-1.26165 2.935133,-2.64457 0.137172,-0.36128 0.524513,-1.77004 0.860756,-3.13057 1.475503,-5.97029 3.275751,-11.34148 4.84351,-14.45102 0.787882,-1.56271 1.979882,-2.89424 3.276118,-3.65961 1.49263,-0.881336 4.77443,-0.952733 6.37028,-0.13859 1.86023,0.94902 3.08868,3.58518 4.07196,8.73812 0.46597,2.44196 0.70648,4.07289 1.30669,8.8608 0.8229,6.5643 0.81849,6.54241 1.49207,7.40056 0.33072,0.42134 4.36906,3.98962 7.76588,6.86194 5.27726,4.4624 9.68977,7.68143 13.916,10.15204 0.87472,0.51136 3.05562,1.67031 4.84645,2.57545 4.32456,2.18579 6.84459,3.8611 10.31915,6.86017 1.86351,1.60848 5.93691,5.52361 8.41865,8.09154 3.43434,3.55361 5.38253,5.16532 7.58335,6.27364 1.13686,0.57251 2.92228,1.15406 4.2188,1.37415 3.28168,0.55707 6.08689,1.71735 10.1672,4.20533 0.99968,0.60956 2.59863,1.58396 3.55322,2.16533 5.22658,3.18314 11.11433,5.51485 16.89479,6.69078 7.29795,1.48463 14.67242,1.40578 22.72,-0.24296 2.46061,-0.50411 4.12988,-0.92423 9.2584,-2.33013 6.78848,-1.86095 9.30209,-2.43624 13.348,-3.05498 3.06258,-0.46836 6.39982,-1.14299 11.7008,-2.36535 10.58852,-2.44163 13.74937,-2.91641 19.312,-2.90077 3.3425,0.009 4.69774,0.13714 7.72124,0.72779 0.93916,0.18347 2.16764,0.38561 2.72996,0.44919 1.28295,0.14508 4.02873,0.14855 6.7592,0.009 1.15588,-0.0593 2.94376,-0.1229 3.97307,-0.14142 2.40238,-0.0432 2.43484,0.0117 0.6947,1.17483 -0.68817,0.45997 -1.23964,0.87681 -1.22549,0.92632 0.0141,0.0495 4.54913,2.44264 10.07772,5.31808 5.52859,2.87545 10.1159,5.31125 10.194,5.41291 0.23648,0.3078 0.16359,0.85759 -0.3124,2.3566 -0.52484,1.65285 -0.56037,2.13796 -0.1961,2.67849 0.35765,0.53071 0.84752,0.83339 1.93434,1.19518 1.4285,0.47552 1.71272,0.88009 2.86516,4.07833 0.36023,0.99968 0.75139,2.04275 0.86926,2.31793 l 0.21429,0.50033 -0.57147,0.55083 c -0.31431,0.30296 -0.57148,0.57623 -0.57148,0.60727 0,0.031 0.0959,0.0564 0.21316,0.0564 0.17451,0 0.3384,0.36552 0.90412,2.0164 0.88959,2.59598 0.92613,2.74804 0.92688,3.85653 10e-4,1.59 -0.48256,2.80307 -2.41476,6.05668 -0.53854,0.90684 -1.00933,1.72742 -1.04621,1.8235 -0.0525,0.13687 0.15626,0.24606 0.96409,0.50423 1.05185,0.33615 1.29581,0.48269 1.15622,0.69449 -0.0433,0.0657 -1.25446,0.74753 -2.6915,1.51524 -1.43704,0.76771 -2.65249,1.43183 -2.701,1.47585 -0.12218,0.11087 1.60404,5.79804 2.23596,7.36653 1.97583,4.90433 4.51773,8.25551 7.67864,10.12332 2.76313,1.63275 3.46144,2.07478 4.42813,2.80298 2.18075,1.64274 3.76681,3.66923 4.34931,5.55705 0.32828,1.06394 0.4603,2.56004 0.36768,4.16703 -0.048,0.83213 -0.0932,2.79097 -0.10056,4.35297 -0.01,2.07111 -0.0525,2.90856 -0.15808,3.09321 -0.0796,0.13926 -0.43743,0.45188 -0.7952,0.69468 -3.31709,2.25124 -8.86312,3.3997 -13.50986,2.79759 -3.46752,-0.4493 -6.36371,-1.44263 -12.4392,-4.26636 -5.60783,-2.60637 -6.67537,-3.03475 -8.34613,-3.34907 -1.76236,-0.33154 -3.24816,-0.037 -4.91227,0.9737 -1.99363,1.21088 -2.75755,1.29428 -7.33742,0.80113 -6.87505,-0.74029 -10.66518,-1.23474 -14.4741,-1.88821 -2.13944,-0.36705 -4.0736,-0.82956 -10.36814,-2.47927 -2.67432,-0.7009 -4.99256,-1.14472 -6.95101,-1.33074 -1.44933,-0.13767 -3.33315,-0.0235 -5.12675,0.3106 -2.09424,0.39014 -8.36283,2.09635 -9.93991,2.70548 -2.86169,1.10531 -5.29099,2.66824 -8.07359,5.19428 -1.06372,0.96565 -1.61207,1.25636 -3.26191,1.7293 -0.58003,0.16627 -1.34683,0.44149 -1.704,0.61159 l -0.64939,0.30929 -6.1344,0 c -7.22451,0 -6.61205,-0.0653 -13.916,1.4847 -5.96987,1.26693 -8.67616,1.56314 -12.00745,1.31425 -2.94108,-0.21974 -3.89771,-0.0505 -8.61096,1.52327 -2.32506,0.77635 -2.75041,0.88357 -3.8624,0.97358 -2.4778,0.2006 -5.61516,0.25116 -6.97096,0.11238 -1.05144,-0.10764 -4.89728,-0.81742 -6.02035,-1.11111 -0.15359,-0.0402 -0.38028,0.0811 -0.71666,0.38352 -0.93843,0.84353 -1.0966,0.89918 -1.96883,0.69276 z"
       id="path7243"
       style="fill:#f6d0d0" /><path
       d="m 169.3776,261.7773 c -0.21868,-0.0656 -1.60983,-0.49491 -3.09147,-0.954 -1.48163,-0.45908 -2.7556,-0.8347 -2.83105,-0.8347 -0.0755,0 -0.22295,0.0776 -0.32778,0.17249 -0.17131,0.15503 -0.91312,0.0745 -7.32611,-0.7952 -3.92452,-0.53223 -7.17896,-0.96769 -7.23208,-0.96769 -0.0531,0 -0.0639,0.20448 -0.0239,0.4544 0.04,0.24992 0.0411,0.4544 0.002,0.4544 -0.0386,0 -2.57423,-1.33383 -5.63467,-2.96409 -3.06044,-1.63023 -5.60978,-2.94657 -5.6652,-2.9252 -0.0554,0.0214 -0.39228,0.38395 -0.74857,0.80569 -0.35628,0.42174 -0.69018,0.7668 -0.74198,0.7668 -0.0518,0 -0.80157,-0.94572 -1.66613,-2.1016 -0.86456,-1.15588 -1.62928,-2.1016 -1.69938,-2.1016 -0.0701,0 -0.3911,0.56643 -0.71334,1.25873 -0.36019,0.77384 -0.64022,1.24104 -0.72691,1.21279 -0.0776,-0.0253 -1.27764,-1.57578 -2.66683,-3.44555 -1.48798,-2.00271 -2.612,-3.41345 -2.73557,-3.43335 -0.11537,-0.0186 -0.33088,0.0643 -0.47891,0.18416 l -0.26915,0.21795 0.47801,1.29263 c 0.48761,1.31861 0.54984,1.57664 0.38024,1.57664 -0.12513,0 -1.13017,-0.6577 -2.68721,-1.75851 -1.54032,-1.08899 -2.44376,-1.53569 -3.10616,-1.5358 -0.27134,-4e-5 -0.98702,0.0993 -1.5904,0.22067 -1.49707,0.30125 -3.37,0.45959 -5.47064,0.46249 -2.51015,0.004 -6.0359,0.19417 -7.10201,0.38415 -2.72149,0.48496 -4.55789,1.28552 -6.403841,2.79167 -0.461698,0.37671 -0.905656,0.68493 -0.986574,0.68493 -0.08092,0 -0.51628,-0.0777 -0.967471,-0.17257 -0.451192,-0.0949 -1.346894,-0.20478 -1.99045,-0.24415 -1.120826,-0.0686 -1.209779,-0.0566 -2.112279,0.28382 -2.062205,0.77793 -4.326799,1.30746 -6.962977,1.6281 -1.886771,0.2295 -7.294801,0.1957 -9.370867,-0.0586 -7.690065,-0.94186 -14.134897,-3.35428 -18.120334,-6.78276 -0.37488,-0.3225 -1.449242,-1.16246 -2.38747,-1.86657 -3.45789,-2.59508 -4.253707,-3.91236 -4.255593,-7.0441 -0.0019,-3.15902 0.66906,-4.70754 2.407748,-5.55683 1.611483,-0.78717 1.87819,-0.78881 11.356002,-0.0697 7.129407,0.54089 11.009631,0.79857 12.025267,0.79857 0.91178,0 2.224157,-0.35314 5.903668,-1.58855 4.470455,-1.50098 9.427983,-3.4202 9.427983,-3.64986 0,-0.0578 -0.14058,-0.0738 -0.3124,-0.0355 -1.155196,0.25732 -4.183971,1.07951 -6.844401,1.85799 -5.092805,1.49021 -4.844257,1.44141 -6.549671,1.28595 -5.370336,-0.48957 -12.720551,-2.51975 -16.624729,-4.59187 -2.291843,-1.21637 -3.298685,-2.17727 -4.203332,-4.01151 -1.094768,-2.21972 -1.48053,-4.85364 -0.923664,-6.30662 0.95324,-2.48719 4.255886,-4.176 7.392394,-3.78009 0.557883,0.0704 1.950573,0.40926 3.094867,0.75298 4.057762,1.21888 5.062845,1.40446 8.334707,1.53891 3.715463,0.15269 7.536403,-0.10176 9.350324,-0.62267 0.751695,-0.21587 1.356503,-0.60926 1.686225,-1.09681 0.504344,-0.74574 0.590991,-1.48478 0.622832,-5.31232 0.02933,-3.52536 0.02425,-3.61628 -0.342708,-6.1344 -0.20486,-1.4058 -0.44319,-2.77281 -0.52962,-3.03779 -0.08643,-0.26499 -1.493571,-2.41961 -3.126979,-4.78805 l -2.969832,-4.30626 -0.473807,-0.0691 c -0.260593,-0.038 -2.160767,-0.19644 -4.222607,-0.3521 -5.546016,-0.41867 -6.717266,-0.55094 -9.2016,-1.03917 -4.094624,-0.80469 -5.638293,-1.80829 -5.479249,-3.56226 0.0986,-1.08741 0.744507,-2.14223 2.468759,-4.03168 0.922573,-1.01097 3.273649,-3.79631 5.1031,-6.04571 1.043079,-1.28251 1.067305,-1.38252 0.496221,-2.04865 l -0.316831,-0.36957 -1.98498,0.45383 c -1.091739,0.24961 -2.523099,0.63093 -3.1808,0.84739 -2.580339,0.84923 -4.544378,1.1937 -6.81902,1.19596 -2.599192,0.003 -4.816971,-0.48048 -7.002273,-1.52519 -3.267346,-1.562 -5.406926,-3.72915 -6.996854,-7.08699 -1.365572,-2.88402 -1.327343,-4.72484 0.125865,-6.06071 0.877654,-0.80679 1.726184,-1.28799 6.602861,-3.74449 4.355477,-2.19396 5.970021,-2.92536 8.369176,-3.79128 5.874795,-2.12038 8.626733,-4.92405 10.031049,-10.21961 0.631683,-2.38203 1.234635,-3.76793 2.392152,-5.49844 1.241159,-1.85555 3.117824,-3.63864 5.37838,-5.11019 2.422268,-1.57683 7.834622,-3.8922 11.714845,-5.01154 1.470519,-0.42421 1.99848,-0.70669 2.657911,-1.42209 0.717023,-0.77788 0.976998,-1.46023 1.784877,-4.68475 1.599554,-6.38438 3.373911,-11.60075 4.996036,-14.68766 0.776783,-1.47822 2.115221,-2.83672 3.429054,-3.48046 1.68161,-0.823939 4.12194,-0.795509 5.87692,0.0685 0.93391,0.45976 1.61174,1.22668 2.26621,2.56408 1.25116,2.55672 1.96732,6.08706 3.18716,15.71117 0.35084,2.76803 0.70756,5.26425 0.79271,5.54718 0.0851,0.28292 0.27359,0.69182 0.41877,0.90867 0.40776,0.60908 7.37337,6.69013 11.06032,9.65577 5.59567,4.50096 9.42987,6.99656 15.51212,10.09654 6.64522,3.38691 8.93709,5.17439 17.48431,13.63644 2.78036,2.75265 5.48972,5.33935 6.0208,5.74823 2.53937,1.95504 4.36414,2.7683 7.60731,3.39045 1.00261,0.19234 2.34658,0.52918 2.98661,0.74853 1.60299,0.5494 4.67256,2.07341 6.81528,3.3837 0.98406,0.60177 2.59434,1.58582 3.5784,2.1868 1.99888,1.22072 6.07333,3.26021 8.15081,4.07991 4.4217,1.74466 9.09096,2.87348 14.1432,3.41921 2.3994,0.25917 7.7556,0.25877 10.3376,-8e-4 4.85736,-0.48827 8.5203,-1.2559 16.5288,-3.4639 6.23802,-1.71988 9.15496,-2.38697 12.99505,-2.9719 3.67137,-0.55924 5.71858,-0.97663 12.50815,-2.5502 4.54978,-1.05447 6.62641,-1.48811 9.22103,-1.92551 3.90733,-0.6587 5.54833,-0.80001 9.23897,-0.79559 3.56887,0.004 4.73645,0.11287 7.8952,0.7343 3.19027,0.62762 4.17589,0.66293 10.58067,0.379 2.35172,-0.10425 4.36142,-0.15672 4.466,-0.11659 0.28423,0.10907 0.15425,0.23488 -1.13944,1.10285 -0.65121,0.43692 -1.18403,0.84319 -1.18403,0.90284 0,0.16345 -0.17976,0.0672 10.3944,5.56397 5.43576,2.82566 9.92412,5.19627 9.97414,5.26803 0.16247,0.23311 -0.01,1.23996 -0.42392,2.47987 -0.22298,0.66737 -0.40542,1.40165 -0.40542,1.63173 0,0.93897 0.7713,1.68087 2.20002,2.11618 1.37944,0.42028 1.75238,0.94535 2.89078,4.06989 0.3756,1.03092 0.76742,2.07248 0.8707,2.31457 l 0.18779,0.44017 -0.71166,0.65855 -0.71164,0.65855 0.37918,0.0373 0.37919,0.0373 0.7115,2.05117 c 0.87576,2.52469 1.03788,3.44478 0.80431,4.56498 -0.30738,1.47422 -0.69459,2.29695 -2.61718,5.561 -0.48552,0.82431 -0.85605,1.54199 -0.82339,1.59484 0.0327,0.0528 0.52491,0.24486 1.09386,0.42669 0.70555,0.22548 1.02419,0.38056 1.0021,0.48772 -0.0178,0.0864 -1.19518,0.78153 -2.61642,1.5447 -1.42123,0.76317 -2.63504,1.43857 -2.69736,1.50089 -0.0753,0.0753 0.15466,1.00607 0.68649,2.77786 0.96239,3.20619 1.43421,4.5414 2.17654,6.15933 2.12455,4.63052 4.30571,7.13047 8.09839,9.282 3.91087,2.21857 6.08192,4.20388 7.28161,6.65867 0.90704,1.85598 0.91086,1.89775 0.81829,8.96455 -0.0483,3.68355 -0.0241,3.59285 -1.15567,4.34678 -2.61525,1.74256 -6.81638,2.86682 -10.71263,2.86682 -4.30271,0 -7.89914,-1.08288 -15.6572,-4.71438 -4.82735,-2.25967 -6.2003,-2.80038 -7.82033,-3.07995 -1.77245,-0.30588 -3.1945,-0.018 -4.83585,0.97889 -2.05031,1.2453 -2.73605,1.30947 -7.96222,0.74501 -10.90835,-1.17815 -15.13093,-1.8711 -20.8456,-3.42086 -7.12253,-1.93155 -8.33393,-2.1529 -11.7576,-2.14833 -2.42971,0.003 -2.6402,0.0212 -4.26,0.36362 -1.83576,0.38806 -6.96769,1.76432 -8.6336,2.31533 -2.87658,0.95144 -5.79601,2.73301 -8.6336,5.26858 -1.34789,1.20442 -1.75896,1.43356 -3.4648,1.93129 -0.59356,0.1732 -1.36036,0.44852 -1.704,0.61185 l -0.6248,0.29695 -6.0776,0 c -6.82666,0 -6.90712,0.007 -11.5304,0.97774 -5.51173,1.15749 -6.58252,1.36635 -8.1224,1.58427 -2.19784,0.31105 -4.80235,0.40151 -6.6456,0.23084 -2.45247,-0.22709 -3.49951,-0.0322 -8.29281,1.54362 -3.28783,1.08089 -3.38993,1.09794 -7.4408,1.24259 -2.41871,0.0864 -3.89541,-0.0771 -7.2704,-0.80488 -1.86315,-0.40177 -2.36544,-0.47498 -2.51206,-0.36618 -0.10078,0.0748 -0.48418,0.37879 -0.852,0.67554 -0.71955,0.58051 -0.70124,0.57489 -1.29354,0.39716 z"
       id="path7241"
       style="fill:#f0aeaf" /><path
       d="m 166.8784,260.95164 c -3.71723,-1.17694 -3.61173,-1.15215 -3.80126,-0.89296 -0.14328,0.19595 -0.47634,0.16095 -7.34761,-0.77199 -3.95864,-0.53749 -7.23777,-0.94004 -7.28695,-0.89457 -0.0492,0.0455 -0.0383,0.217 0.0241,0.38116 0.0624,0.16416 0.0718,0.32421 0.021,0.35565 -0.0509,0.0314 -2.58151,-1.26788 -5.62361,-2.88739 -3.0421,-1.61951 -5.59286,-2.91638 -5.66835,-2.88192 -0.0755,0.0344 -0.39285,0.37289 -0.70525,0.7521 -0.3124,0.37921 -0.62334,0.70784 -0.69097,0.7303 -0.0676,0.0225 -0.83444,-0.90589 -1.704,-2.063 -0.86957,-1.15711 -1.65016,-2.09145 -1.73466,-2.07632 -0.0845,0.0151 -0.39802,0.56227 -0.69672,1.21587 -0.2987,0.65361 -0.5988,1.20695 -0.66689,1.22964 -0.0681,0.0227 -1.27694,-1.5089 -2.68633,-3.40357 -1.40939,-1.89467 -2.65043,-3.45852 -2.75787,-3.47525 -0.10745,-0.0167 -0.34008,0.0866 -0.51697,0.22954 l -0.32161,0.25994 0.46361,1.23426 c 0.47105,1.25407 0.54,1.54427 0.36694,1.54427 -0.0532,0 -0.90942,-0.56707 -1.9028,-1.26014 -2.9487,-2.05732 -3.40955,-2.22189 -5.11286,-1.82592 -1.50773,0.3505 -2.97719,0.46601 -7.42847,0.58388 -4.14735,0.10983 -5.52912,0.24379 -7.12035,0.69029 -1.78969,0.50218 -3.43339,1.35886 -4.817805,2.511 -0.731572,0.60881 -0.805141,0.62268 -2.044313,0.38557 -0.473919,-0.0907 -1.317399,-0.19782 -1.8744,-0.23805 -0.975535,-0.0705 -1.052026,-0.058 -2.082667,0.33889 -3.165071,1.21891 -6.629435,1.76542 -11.198864,1.7666 -3.03596,0.001 -4.472945,-0.10305 -7.17822,-0.51874 -6.494476,-0.9979 -12.362359,-3.39153 -16.054188,-6.54882 -0.469265,-0.40132 -1.568345,-1.2579 -2.4424,-1.90351 -3.37697,-2.49435 -4.081851,-3.71668 -4.06263,-7.04505 0.01554,-2.69134 0.577921,-4.20407 1.889497,-5.08254 1.434298,-0.96066 2.676986,-1.00419 10.864741,-0.38059 8.545469,0.65085 10.882247,0.8064 12.501141,0.83212 1.30919,0.0208 1.508186,-0.006 2.664459,-0.35359 4.061433,-1.2223 11.213834,-3.81314 12.836801,-4.64991 0.424256,-0.21873 0.513497,-0.30455 0.352631,-0.33909 -0.378054,-0.0812 -1.504385,0.19714 -5.748631,1.42043 -6.719034,1.93659 -6.337712,1.85203 -7.789573,1.72753 -3.665701,-0.31436 -9.250947,-1.58253 -12.999228,-2.95158 -4.631517,-1.69167 -6.843535,-3.23372 -7.974976,-5.55958 -0.876364,-1.8015 -1.311166,-3.68462 -1.189169,-5.15027 0.184429,-2.2157 2.210201,-4.19324 4.911045,-4.79412 1.283156,-0.28547 3.051379,-0.18331 4.5371,0.26216 3.024096,0.90671 4.407948,1.28902 5.417252,1.49661 3.429292,0.70531 11.248741,0.54549 13.736378,-0.28078 0.775836,-0.25769 1.516983,-0.95351 1.784417,-1.67528 0.304291,-0.82125 0.36407,-1.62251 0.374754,-5.02312 0.0088,-2.81018 -0.01059,-3.09311 -0.39974,-5.82656 -0.224961,-1.58012 -0.481398,-3.04618 -0.569861,-3.2579 -0.154069,-0.36874 -4.70404,-7.05684 -5.682707,-8.35314 -0.560878,-0.74291 -0.197693,-0.6683 -4.947693,-1.01648 -5.956271,-0.43661 -8.082216,-0.70873 -10.792,-1.3814 -1.634561,-0.40576 -2.609124,-0.81435 -3.21845,-1.34934 -0.585455,-0.51404 -0.75755,-0.8961 -0.75755,-1.68179 0,-1.18601 0.475001,-1.9266 3.2376,-5.04786 1.724409,-1.94829 5.2824,-6.29266 5.2824,-6.44992 0,-0.27512 -0.696503,-1.13561 -0.919196,-1.13561 -0.481151,0 -3.756962,0.80042 -5.286989,1.29183 -2.606048,0.83702 -3.52282,0.99591 -6.119415,1.06064 -1.754621,0.0437 -2.504821,0.0162 -3.294401,-0.12079 -3.308491,-0.57412 -6.056117,-1.96102 -8.236,-4.15722 -1.1955,-1.20445 -1.947559,-2.25728 -2.747846,-3.84679 -0.851274,-1.69079 -1.169428,-2.74777 -1.168996,-3.88367 4.37e-4,-1.14674 0.192599,-1.59015 1.039266,-2.39805 0.85621,-0.81702 1.273032,-1.05649 6.171976,-3.5459 4.900068,-2.48999 6.247709,-3.10668 8.860801,-4.05476 2.994214,-1.08636 4.934579,-2.21447 6.540941,-3.80285 1.531862,-1.51471 2.52735,-3.21153 3.216194,-5.48204 0.194295,-0.64042 0.50446,-1.66292 0.689253,-2.27223 1.393519,-4.59475 4.661595,-8.09949 10.044116,-10.77146 2.435151,-1.20884 6.628148,-2.83438 9.102297,-3.52877 1.817831,-0.51019 2.713604,-1.19776 3.357533,-2.57714 0.180242,-0.3861 0.686021,-2.13336 1.123955,-3.8828 1.329962,-5.31288 2.44081,-8.75608 3.98862,-12.36318 1.002152,-2.33547 1.339147,-2.88861 2.435492,-3.99761 2.160058,-2.184992 4.986758,-2.701142 7.639858,-1.39502 0.92198,0.45388 1.61026,1.21428 2.23861,2.47317 1.26438,2.53315 2.01079,6.06929 3.06999,14.54424 0.86918,6.95452 0.90939,7.15353 1.61653,8.00008 0.72109,0.86326 9.29893,8.21391 12.35821,10.59019 5.04427,3.91812 8.12484,5.88186 13.6888,8.72607 3.81428,1.9498 5.05689,2.68294 7.19711,4.24632 3.14784,2.29942 5.69505,4.61007 11.54689,10.47454 4.53659,4.54638 5.67461,5.50923 7.8203,6.61664 1.6283,0.84039 2.58457,1.16489 4.61261,1.56529 2.06515,0.40771 2.63803,0.56281 4.03909,1.09349 2.02955,0.76873 4.31958,1.99816 7.88365,4.23242 5.3411,3.34824 9.59919,5.29827 14.85656,6.80372 5.11696,1.46523 9.64789,2.02571 15.4862,1.91563 6.41486,-0.12096 10.09497,-0.76919 20.42882,-3.59848 6.87717,-1.88289 9.19624,-2.41065 13.48078,-3.0679 3.12403,-0.47923 5.84768,-1.0328 11.4736,-2.33198 10.64898,-2.45914 14.28804,-2.97863 20.07062,-2.86519 3.19102,0.0626 4.48436,0.20351 7.4515,0.81184 2.04792,0.41988 4.34095,0.5477 7.31027,0.40751 4.92305,-0.23244 7.3561,-0.27589 7.26579,-0.12977 -0.046,0.0745 -0.61654,0.49295 -1.26775,0.92986 -0.65121,0.43692 -1.18315,0.85716 -1.18207,0.93386 0.001,0.0767 4.58911,2.52504 10.1956,5.44076 l 10.19364,5.30129 0.0337,0.55989 c 0.0243,0.40373 -0.0759,0.88956 -0.35931,1.7419 -0.57811,1.73865 -0.58983,2.39251 -0.0538,3.00296 0.40872,0.46552 1.12191,0.85803 2.04837,1.12736 1.15157,0.33477 1.4531,0.79412 2.66349,4.05758 0.47108,1.27013 0.88164,2.39169 0.91237,2.49238 0.037,0.12115 -0.17774,0.38622 -0.63488,0.78383 -0.3799,0.33043 -0.69073,0.64751 -0.69073,0.70461 0,0.0571 0.16374,0.0878 0.36386,0.0682 l 0.36387,-0.0357 0.59852,1.6472 c 0.72972,2.0083 1.05989,3.26513 1.05767,4.02603 -0.004,1.40026 -0.72948,3.16821 -2.53893,6.18793 -0.53954,0.90044 -0.98099,1.72688 -0.98099,1.83653 0,0.14967 0.24784,0.28199 0.994,0.53071 0.5467,0.18223 0.994,0.39302 0.994,0.46842 0,0.0754 -1.17576,0.76798 -2.6128,1.53906 -1.48269,0.79557 -2.62831,1.47953 -2.64865,1.58129 -0.0412,0.20611 1.11938,4.17443 1.78785,6.11304 1.29061,3.74291 3.23937,7.09918 5.33758,9.19266 1.13927,1.1367 2.20037,1.90676 4.30682,3.12554 6.02509,3.48606 8.30194,7.05515 7.7606,12.16512 -0.0782,0.73879 -0.13142,2.41679 -0.11814,3.72887 0.029,2.86617 -0.006,2.99442 -0.9943,3.66518 -2.92078,1.98185 -7.94089,3.16001 -12.18313,2.85921 -3.92929,-0.27861 -7.11097,-1.31014 -13.98383,-4.5337 -2.55201,-1.19697 -4.85715,-2.22235 -5.7936,-2.57714 -1.85722,-0.70365 -3.74703,-0.90187 -5.15241,-0.54044 -0.64956,0.16706 -1.05107,0.35758 -2.69274,1.27772 -1.05139,0.5893 -1.8646,0.73914 -3.62845,0.66852 -1.6501,-0.066 -8.2517,-0.7839 -12.30486,-1.33801 -5.77744,-0.78984 -6.75342,-0.9954 -15.64074,-3.29415 -6.50343,-1.68215 -9.68339,-1.74977 -14.9952,-0.31892 -6.69544,1.80357 -8.05387,2.28897 -10.46385,3.73894 -1.4329,0.86211 -2.89904,1.95465 -4.19055,3.12276 -1.49642,1.35342 -1.68007,1.46084 -3.49278,2.04287 -0.92181,0.29598 -1.92357,0.66277 -2.22612,0.81509 l -0.5501,0.27693 -4.0507,-0.13312 c -6.78913,-0.22311 -8.38723,-0.0745 -15.4675,1.43786 -6.19775,1.3239 -6.31152,1.33751 -11.3032,1.35179 -5.05138,0.0145 -4.84831,-0.016 -9.00142,1.34896 -3.67696,1.20846 -3.62153,1.19559 -5.93699,1.37872 -3.72968,0.295 -4.81352,0.21318 -8.95106,-0.67575 -1.33049,-0.28584 -2.51608,-0.51972 -2.63466,-0.51972 -0.11857,0 -0.56359,0.30583 -0.98893,0.67962 -0.42534,0.3738 -0.79891,0.67714 -0.83015,0.67411 -0.0312,-0.003 -1.41148,-0.43444 -3.0672,-0.95869 z"
       id="path7239"
       style="fill:#ea8e8f" /><path
       d="m 169.6048,261.78782 c -0.1562,-0.0647 -1.63868,-0.54564 -3.2944,-1.06884 -2.97036,-0.93861 -3.01292,-0.94826 -3.19985,-0.72619 -0.1879,0.22325 -0.24734,0.21723 -7.31715,-0.74156 -3.92024,-0.53164 -7.20182,-0.96663 -7.29239,-0.96663 -0.12669,0 -0.14748,0.0917 -0.0901,0.3976 0.041,0.21868 0.0306,0.3976 -0.0231,0.3976 -0.0537,0 -2.54634,-1.30356 -5.53913,-2.8968 -2.99279,-1.59324 -5.50565,-2.8968 -5.58412,-2.8968 -0.0785,0 -0.41033,0.334 -0.73746,0.74222 -0.32712,0.40822 -0.66745,0.72772 -0.75628,0.71 -0.0888,-0.0177 -0.86143,-0.95238 -1.71688,-2.07702 -0.85545,-1.12464 -1.62077,-2.0448 -1.7007,-2.0448 -0.0799,0 -0.38438,0.52272 -0.67656,1.16159 -0.29217,0.63889 -0.58375,1.21414 -0.64796,1.27834 -0.0799,0.0799 -0.81355,-0.8227 -2.32592,-2.86166 -1.21505,-1.63811 -2.4035,-3.22478 -2.64099,-3.52594 l -0.43181,-0.54754 -0.44859,0.25213 c -0.24673,0.13867 -0.4486,0.31869 -0.4486,0.40006 0,0.0814 0.20492,0.69348 0.45537,1.36026 0.25045,0.66676 0.42704,1.24062 0.39243,1.27523 -0.0821,0.0821 -0.28092,-0.0422 -2.03134,-1.26912 -0.80715,-0.56576 -1.84508,-1.22402 -2.30651,-1.4628 -0.98727,-0.51089 -1.35449,-0.53744 -2.9673,-0.21447 -1.56728,0.31383 -3.29772,0.46136 -5.46198,0.46566 -2.71416,0.005 -5.94315,0.18178 -7.14531,0.39036 -2.80031,0.48587 -4.82896,1.41498 -6.858807,3.14131 l -0.420247,0.35741 -1.056553,-0.20699 c -0.622718,-0.122 -1.569652,-0.208 -2.306151,-0.20943 -1.217129,-0.002 -1.292404,0.0127 -2.8968,0.58094 -1.698726,0.60162 -3.623338,1.02937 -5.850401,1.30026 -1.894358,0.23043 -7.298884,0.19713 -9.370866,-0.0577 -7.658798,-0.94202 -13.885615,-3.26759 -18.006734,-6.72507 -0.49984,-0.41936 -1.680756,-1.34007 -2.624257,-2.04605 -3.265364,-2.44329 -4.016944,-3.71679 -4.018806,-6.80956 -0.0014,-2.40579 0.328816,-3.63127 1.25037,-4.63959 0.889871,-0.97366 2.215505,-1.43505 4.129144,-1.43715 0.429688,0 2.474488,0.12691 4.544,0.28307 2.069512,0.15616 5.424149,0.40933 7.454749,0.56257 6.264381,0.4728 8.639535,0.57654 9.395786,0.4104 2.317936,-0.50922 11.972527,-3.91856 13.986152,-4.93894 0.574904,-0.29132 0.758391,-0.52116 0.41606,-0.52116 -0.528629,0 -2.904938,0.63122 -8.716449,2.31535 -3.749653,1.08662 -3.822007,1.09623 -6.07293,0.80648 -5.780408,-0.74409 -12.897215,-2.84736 -16.230043,-4.79657 -2.353661,-1.37653 -3.327901,-2.57374 -4.183747,-5.14126 -0.692969,-2.07889 -0.754992,-3.87161 -0.175367,-5.06897 0.323515,-0.66828 1.372321,-1.79965 2.094938,-2.25984 0.856704,-0.54558 1.935735,-0.9335 3.041169,-1.09333 1.365936,-0.19749 2.607264,-0.0227 4.967631,0.69967 3.959685,1.21176 5.233221,1.44813 8.494522,1.57657 3.919148,0.15435 7.587124,-0.10734 9.491669,-0.67718 0.593422,-0.17756 0.889674,-0.34601 1.260257,-0.71659 0.797292,-0.79729 0.873777,-1.1583 0.989911,-4.67233 0.117158,-3.54501 0.09451,-3.95379 -0.421099,-7.601 -0.352119,-2.49074 -0.413181,-2.7642 -0.735621,-3.2944 -0.193395,-0.31801 -1.587691,-2.3661 -3.098434,-4.55131 -2.703214,-3.91006 -2.754016,-3.97445 -3.201205,-4.05728 -0.24992,-0.0463 -2.47364,-0.24034 -4.9416,-0.43121 -4.953613,-0.3831 -6.41166,-0.54927 -8.52,-0.97102 -3.153224,-0.63076 -4.580745,-1.2586 -5.179902,-2.27816 -0.697039,-1.18613 -0.165769,-2.48087 2.03263,-4.95369 1.602132,-1.80212 4.949446,-5.794 6.244751,-7.44726 0.07815,-0.0997 -0.0029,-0.31025 -0.271861,-0.70584 -0.21077,-0.31004 -0.441427,-0.58735 -0.512571,-0.61625 -0.151464,-0.0615 -3.17602,0.59692 -4.313185,0.93898 -4.56866,1.37426 -4.868073,1.42937 -7.769462,1.43023 -3.130388,9.1e-4 -4.963132,-0.41191 -7.42663,-1.67286 -3.428732,-1.75502 -6.048658,-4.92889 -7.271373,-8.80879 -0.403264,-1.27963 -0.390984,-1.95697 0.05153,-2.84252 0.662345,-1.32547 1.464378,-1.83956 7.887269,-5.05556 4.265843,-2.13594 5.438663,-2.66247 8.008801,-3.59547 3.140367,-1.14 5.013412,-2.27777 6.731515,-4.08901 1.660696,-1.75071 2.451561,-3.25643 3.268893,-6.22359 0.50473,-1.83232 1.054178,-3.23281 1.725844,-4.39901 2.034441,-3.53238 5.220026,-6.10958 10.368948,-8.38868 1.714091,-0.75872 5.503914,-2.16446 7.088914,-2.62945 1.705983,-0.50048 2.154021,-0.72021 2.813692,-1.37988 0.775764,-0.77576 1.098077,-1.6223 2.07572,-5.45178 1.225314,-4.79963 2.14619,-7.74355 3.407449,-10.89319 1.818779,-4.54189 2.957989,-5.92724 5.766977,-7.01296 0.53346,-0.20619 0.88489,-0.25421 1.85125,-0.25295 1.02124,10e-4 1.31535,0.0469 2.0448,0.31693 1.77686,0.65771 2.57291,1.49127 3.45054,3.61316 1.06445,2.57353 1.67437,5.74821 2.80157,14.58222 0.37469,2.93656 0.75576,5.59806 0.8468,5.91445 0.091,0.31638 0.32052,0.78919 0.50994,1.05068 0.34061,0.4702 5.0552,4.65327 8.35195,7.41037 5.17705,4.32961 8.98795,7.11283 13.1208,9.58256 0.90596,0.54139 3.16341,1.75192 5.01655,2.69007 6.67569,3.37956 9.92434,5.94109 18.41086,14.5168 1.91983,1.94 3.96463,3.92207 4.544,4.40458 2.63162,2.19166 5.08502,3.35581 8.21019,3.89575 2.96339,0.51199 5.955,1.78067 9.94,4.21535 4.46439,2.72756 5.11891,3.10575 7.1568,4.13534 2.62995,1.32871 4.60261,2.1609 7.16547,3.02286 6.02138,2.02515 12.70978,2.94603 19.03794,2.6212 5.80441,-0.29795 9.63667,-1.00249 18.31297,-3.36677 7.85173,-2.13958 10.0023,-2.637 14.03649,-3.24662 2.92575,-0.44212 6.42075,-1.14152 10.7573,-2.15269 7.48746,-1.74589 10.86241,-2.40738 14.55477,-2.85276 1.69528,-0.20449 2.69505,-0.25099 5.48147,-0.25492 3.69712,-0.005 4.76451,0.0921 8.0088,0.73037 3.1914,0.62785 4.1941,0.66375 10.54053,0.37735 2.82883,-0.12765 4.27353,-0.15335 4.34953,-0.0773 0.076,0.076 -0.30269,0.38919 -1.14012,0.9429 -0.68967,0.45601 -1.25394,0.87207 -1.25394,0.92457 0,0.14898 -0.0465,0.12415 10.3944,5.55143 5.43576,2.82556 9.9471,5.18951 10.0252,5.25323 0.24301,0.19828 0.15877,0.81945 -0.3124,2.30324 -0.24992,0.78705 -0.4544,1.62102 -0.4544,1.85327 0,0.96746 0.78312,1.70266 2.38023,2.23454 1.33642,0.44507 1.56434,0.77399 2.67767,3.86419 0.36017,0.99968 0.7491,2.03764 0.86429,2.30658 l 0.20944,0.48898 -0.57758,0.53342 c -0.31766,0.29338 -0.64931,0.5743 -0.73701,0.62426 -0.32895,0.18744 -0.17638,0.41457 0.26102,0.38856 l 0.42045,-0.025 0.495,1.3632 c 1.65955,4.57034 1.55388,5.3359 -1.434,10.38884 -0.57086,0.96538 -1.03791,1.81742 -1.03791,1.89343 0,0.076 0.49069,0.30167 1.09043,0.50147 0.89453,0.29801 1.0629,0.38926 0.9372,0.50787 -0.0843,0.0795 -1.27787,0.74454 -2.65243,1.47782 -1.37456,0.73327 -2.54392,1.37414 -2.59859,1.42416 -0.11333,0.1037 1.3258,5.0307 1.97268,6.75361 1.48231,3.94807 3.20222,6.78092 5.42064,8.92824 1.1335,1.0972 2.22473,1.87296 4.42365,3.14483 4.09328,2.36756 6.20276,4.70351 7.15265,7.92053 0.25069,0.84902 0.30412,1.2632 0.31503,2.4424 0.007,0.781 -0.0584,1.8636 -0.14589,2.40576 -0.12683,0.78628 -0.13511,1.31503 -0.0409,2.6128 0.12528,1.72578 0.0391,2.7841 -0.26437,3.24809 -0.23944,0.36606 -0.92283,0.83682 -2.06735,1.42415 -3.33633,1.71208 -8.09711,2.47853 -12.11982,1.9512 -3.37984,-0.44305 -6.28693,-1.45682 -12.61251,-4.39823 -5.54209,-2.57707 -6.73684,-3.03691 -8.50034,-3.27159 -1.67263,-0.22258 -2.95223,0.0857 -4.73406,1.14072 -1.92809,1.14156 -2.55546,1.19295 -7.7248,0.63276 -6.31646,-0.6845 -11.02646,-1.30721 -14.3136,-1.89243 -1.91899,-0.34164 -3.76247,-0.78091 -7.3272,-1.74595 -5.79291,-1.56825 -8.12382,-1.99368 -10.92332,-1.99368 -2.65093,0 -4.5123,0.34996 -10.01588,1.88306 -3.03901,0.84657 -4.08283,1.22396 -5.8704,2.12248 -2.10594,1.05852 -4.01148,2.41135 -5.94966,4.22392 -1.02671,0.96017 -1.52359,1.22634 -3.17055,1.69846 -0.58003,0.16627 -1.34683,0.44149 -1.704,0.61159 l -0.64939,0.30929 -6.0776,0 c -6.82666,0 -6.90712,0.007 -11.5304,0.97773 -5.50361,1.15579 -6.58231,1.36645 -8.1224,1.58624 -2.17139,0.30989 -4.79477,0.40008 -6.64824,0.22855 -2.3388,-0.21644 -3.91689,0.0585 -7.77897,1.35539 -1.0934,0.36716 -2.42252,0.79244 -2.9536,0.94507 -1.29449,0.37204 -3.49188,0.58826 -5.9072,0.58126 -2.13565,-0.006 -2.31924,-0.0329 -6.64199,-0.96518 l -2.0471,-0.44149 -0.40201,0.27858 c -0.2211,0.15322 -0.60238,0.4838 -0.84731,0.73461 -0.49089,0.50274 -0.45496,0.4891 -0.85359,0.32406 z"
       id="path7237"
       style="fill:#e77f80" /><path
       d="m 169.77308,261.82352 c -0.12379,-0.023 -0.2762,-0.0794 -0.33868,-0.12534 -0.0625,-0.046 -1.47934,-0.50832 -3.14859,-1.02747 -3.01841,-0.93873 -3.0361,-0.94264 -3.2376,-0.71572 -0.20219,0.2277 -0.21669,0.22622 -7.07541,-0.71769 -3.78004,-0.52022 -7.05172,-0.93461 -7.2704,-0.92088 -0.39488,0.0248 -0.43546,0.0916 -0.32596,0.53618 0.0231,0.0937 -0.0158,0.15965 -0.0865,0.14652 -0.0706,-0.0131 -2.53135,-1.30391 -5.46825,-2.8684 -2.9369,-1.56449 -5.43511,-2.84109 -5.55157,-2.83689 -0.11647,0.004 -0.48313,0.33649 -0.8148,0.7384 -0.33168,0.40192 -0.64319,0.73077 -0.69226,0.73077 -0.0491,0 -0.80009,-0.94571 -1.66895,-2.10158 -0.86886,-1.15587 -1.64759,-2.10159 -1.73051,-2.1016 -0.0829,-1e-5 -0.41251,0.5632 -0.73242,1.25158 -0.31991,0.68837 -0.63546,1.23389 -0.70123,1.21226 -0.0658,-0.0216 -1.25296,-1.56756 -2.63819,-3.43539 -1.38523,-1.86785 -2.57368,-3.41443 -2.64099,-3.43687 -0.21405,-0.0713 -0.91801,0.43951 -0.91801,0.6662 0,0.11839 0.1828,0.70324 0.40623,1.29966 0.22342,0.59642 0.3887,1.13696 0.36728,1.20121 -0.0214,0.0642 -0.62595,-0.29363 -1.34342,-0.79527 -2.04696,-1.43121 -3.0727,-2.04683 -3.73093,-2.23921 -0.58261,-0.17028 -0.67318,-0.16511 -2.1016,0.11982 -1.79991,0.35903 -3.91636,0.51846 -6.90066,0.51979 -6.0605,0.003 -9.19834,0.79116 -12.013744,3.01869 -1.083356,0.85715 -0.811903,0.82052 -3.367154,0.45433 -1.561004,-0.2237 -1.838997,-0.19759 -3.0104,0.28269 -0.4686,0.19212 -1.51656,0.52425 -2.3288,0.73806 -7.445128,1.95979 -17.819855,1.06978 -25.503201,-2.18784 -2.493311,-1.05711 -4.669031,-2.38111 -6.712899,-4.085 -0.661815,-0.55172 -1.760895,-1.40905 -2.4424,-1.90517 -2.877003,-2.0944 -3.79154,-3.689 -3.794244,-6.61574 -0.003,-3.21138 0.916292,-5.00774 2.895942,-5.6591 1.422163,-0.46793 2.074569,-0.45444 11.076001,0.22916 7.455536,0.56619 10.102608,0.73572 11.488015,0.73572 1.1457,0 1.346928,-0.037 3.115828,-0.57326 4.998574,-1.5153 12.887358,-4.49773 12.887358,-4.8722 0,-0.36817 -1.713222,0.0362 -7.952001,1.87663 -4.105208,1.21106 -4.157685,1.2231 -5.2824,1.21274 -2.786406,-0.0257 -8.559294,-1.22978 -12.8368,-2.67749 -3.717442,-1.25814 -6.208397,-2.57681 -7.523769,-3.98295 -1.99142,-2.12883 -3.011037,-6.38936 -2.01908,-8.43683 0.456943,-0.94316 1.595299,-2.03548 2.670049,-2.56206 1.204997,-0.5904 2.031777,-0.77367 3.481197,-0.7717 1.405549,0.002 1.84774,0.0922 4.725572,0.96531 1.140717,0.34606 2.687471,0.75374 3.437231,0.90595 4.134042,0.83924 12.287962,0.55264 14.360617,-0.50475 0.657282,-0.33532 1.200643,-1.03942 1.431825,-1.85539 0.170826,-0.60294 0.201748,-1.24275 0.212535,-4.3976 0.01186,-3.46855 -0.0067,-3.82951 -0.306172,-5.964 -0.464555,-3.31081 -0.480376,-3.35799 -1.749816,-5.21818 -3.128735,-4.58473 -4.854854,-7.0214 -5.072647,-7.16077 -0.165791,-0.1061 -1.485143,-0.24895 -4.161942,-0.45061 -6.449231,-0.48588 -8.686688,-0.77138 -11.2464,-1.43501 -3.459671,-0.89697 -4.478083,-2.15234 -3.44976,-4.25245 0.340775,-0.69596 1.079117,-1.63561 2.870483,-3.65314 1.447625,-1.6304 5.350477,-6.36618 5.350477,-6.49235 0,-0.18965 -0.814715,-1.27109 -0.957584,-1.27109 -0.411654,0 -3.822185,0.8383 -5.265474,1.29424 -2.981672,0.94193 -5.285514,1.29074 -7.636143,1.15614 -5.637192,-0.32277 -10.154249,-3.11576 -12.598657,-7.79 -0.80831,-1.54566 -1.369157,-3.08841 -1.450446,-3.98981 -0.06014,-0.66688 -0.03274,-0.82445 0.240547,-1.38302 0.382255,-0.7813 1.33683,-1.70575 2.391756,-2.31627 1.442483,-0.83482 9.287856,-4.75637 10.710041,-5.35347 0.767163,-0.32209 2.045163,-0.81927 2.840001,-1.10485 5.761949,-2.07023 8.574915,-4.93308 10.020841,-10.19854 0.254215,-0.92574 0.642127,-2.13269 0.862028,-2.68211 1.602947,-4.00494 4.79407,-7.12584 9.759704,-9.54495 2.237932,-1.09025 6.259188,-2.64343 8.691296,-3.35693 1.621499,-0.4757 1.892711,-0.60154 2.522181,-1.17022 0.990865,-0.89519 1.22771,-1.4868 2.305725,-5.75941 1.550602,-6.14567 3.153786,-10.79217 4.850318,-14.05764 0.793653,-1.52762 2.313105,-2.94855 3.755965,-3.51242 0.32753,-0.128 0.71822,-0.29114 0.8682,-0.36253 0.14999,-0.0714 0.78899,-0.12981 1.42,-0.12981 0.97075,0 1.27665,0.0479 1.98783,0.31152 1.72757,0.6403 2.44133,1.29513 3.25128,2.98288 1.1799,2.45867 1.9316,6.0693 2.94705,14.15562 0.91066,7.25182 0.91754,7.28742 1.56919,8.12831 0.37235,0.48047 2.55533,2.42852 6.82451,6.09005 7.67092,6.57909 13.35744,10.50268 19.55624,13.49345 6.15341,2.96886 9.60394,5.67559 18.17506,14.2572 4.1752,4.18031 5.3572,5.24186 7.04414,6.32634 1.76258,1.13309 3.62019,1.84114 5.89737,2.24784 3.57035,0.63767 6.14205,1.78028 11.48343,5.10211 2.89142,1.79819 3.97961,2.42026 6.0208,3.44185 5.64339,2.82444 11.3915,4.51372 17.94881,5.27486 2.4386,0.28306 8.45765,0.2817 11.1328,-0.003 4.83079,-0.51324 7.67456,-1.12156 16.5288,-3.53575 6.63459,-1.80898 8.89883,-2.31761 13.1776,-2.96015 2.77147,-0.41618 5.67982,-1.00895 11.09019,-2.26034 10.31393,-2.38555 13.91853,-2.93546 19.24101,-2.93534 3.22005,7e-5 4.95806,0.16073 7.76343,0.71766 0.92722,0.18408 2.12854,0.38541 2.6696,0.44741 1.28885,0.14769 4.70274,0.14487 7.68594,-0.006 1.31221,-0.0665 2.92259,-0.10485 3.57863,-0.0852 l 1.1928,0.0357 -1.2212,0.82614 c -0.67166,0.45438 -1.2212,0.89321 -1.2212,0.97519 0,0.0825 4.56212,2.52293 10.21526,5.46452 10.91958,5.68197 10.453,5.40205 10.28009,6.16735 -0.0388,0.17182 -0.24428,0.86099 -0.45657,1.5315 -0.56298,1.77815 -0.50769,2.45996 0.25707,3.16993 0.39973,0.37109 0.78413,0.56292 1.7912,0.8939 0.87386,0.2872 1.19144,0.56403 1.62841,1.41947 0.27758,0.54335 1.79974,4.51429 1.91994,5.00862 0.0448,0.18437 -0.10945,0.38419 -0.69043,0.89427 -0.41149,0.36127 -0.74817,0.70518 -0.74817,0.76425 0,0.0591 0.21175,0.0912 0.47055,0.0713 l 0.47055,-0.0361 0.73748,2.14684 c 1.32235,3.84947 1.18155,4.71432 -1.50951,9.27221 -0.66417,1.12493 -1.19119,2.12992 -1.17114,2.23332 0.0241,0.12443 0.37258,0.30002 1.03047,0.51928 0.5467,0.18221 0.994,0.36784 0.994,0.41252 0,0.0447 -1.18009,0.71208 -2.62241,1.4831 -1.44232,0.77101 -2.64835,1.46941 -2.68003,1.552 -0.0317,0.0826 0.22613,1.11068 0.57294,2.28464 1.24193,4.20401 1.76253,5.60197 2.97368,7.98534 1.86035,3.66092 3.95558,5.98036 6.9853,7.73285 4.48602,2.59483 6.57627,4.46731 7.77,6.96047 0.89105,1.86102 1.21572,3.659 0.98089,5.43194 -0.20806,1.57067 -0.26418,3.40343 -0.13632,4.45128 0.0837,0.68629 0.076,1.10277 -0.0299,1.60781 -0.19782,0.9437 -0.3073,1.10584 -1.10732,1.64007 -2.88061,1.92361 -8.10263,3.10961 -12.15823,2.76134 -3.87016,-0.33235 -7.12415,-1.40305 -13.91329,-4.57809 -5.37162,-2.51212 -7.033,-3.12983 -8.7511,-3.25373 -1.54367,-0.11133 -2.98803,0.28886 -4.42759,1.22677 -0.39172,0.25523 -1.00806,0.5561 -1.36964,0.66861 -1.25317,0.38993 -1.89315,0.3846 -5.9398,-0.0495 -10.27971,-1.10271 -15.02151,-1.84228 -19.7096,-3.07403 -12.99649,-3.41472 -13.47803,-3.42746 -23.51511,-0.62218 -1.37451,0.38417 -2.93504,0.86685 -3.46786,1.07262 -2.71773,1.04959 -5.42563,2.77605 -7.83543,4.99561 -1.19874,1.1041 -1.82952,1.45154 -3.50336,1.92971 -0.58353,0.16669 -1.397,0.46185 -1.80772,0.6559 l -0.74675,0.35282 -4.15628,-0.11944 c -6.63464,-0.19065 -8.60498,-0.0154 -14.83469,1.31922 -6.38997,1.36899 -7.64417,1.53977 -10.9624,1.49269 -5.68699,-0.0807 -5.40131,-0.11795 -9.59921,1.25214 -4.25947,1.3902 -3.58581,1.24062 -7.1568,1.58911 -1.48126,0.14457 -3.78589,0.0888 -4.6008,-0.11126 -1.63656,-0.40183 -6.05742,-1.2567 -6.2227,-1.2033 -0.10763,0.0348 -0.50337,0.3578 -0.87942,0.71782 -0.46368,0.44392 -0.75614,0.64115 -0.9088,0.61281 z"
       id="path7235"
       style="fill:#e46e6f" /><path
       d="m 178.80985,261.84211 c -0.34175,-0.0272 -0.67403,-0.0911 -0.7384,-0.14198 -0.0644,-0.0509 -0.37265,-0.12812 -0.68505,-0.17168 -0.3124,-0.0436 -1.63747,-0.30563 -2.94461,-0.58234 -1.30714,-0.27671 -2.51302,-0.50311 -2.67974,-0.50311 -0.21395,0 -0.51721,0.20057 -1.03064,0.6816 -0.70891,0.66419 -0.96827,0.79021 -1.18909,0.57778 -0.1459,-0.14036 -5.97347,-1.94098 -6.28183,-1.94098 -0.14159,0 -0.24449,0.0717 -0.24449,0.1704 0,0.0937 -0.0657,0.1704 -0.14602,0.1704 -0.0803,0 -3.35716,-0.43435 -7.28188,-0.96521 -3.92472,-0.53087 -7.18696,-0.93363 -7.24942,-0.89502 -0.0625,0.0386 -0.0841,0.21735 -0.0482,0.39721 0.036,0.17986 0.0412,0.32702 0.0117,0.32702 -0.0296,0 -2.49975,-1.30356 -5.48934,-2.8968 -2.9896,-1.59324 -5.49156,-2.8968 -5.55992,-2.8968 -0.0684,0 -0.41901,0.35826 -0.77923,0.79612 -0.55257,0.67167 -0.67913,0.77196 -0.80962,0.64147 -0.0851,-0.0851 -0.82855,-1.04085 -1.65218,-2.12396 -0.82363,-1.08311 -1.56228,-1.98975 -1.64144,-2.01477 -0.0901,-0.0285 -0.37804,0.45278 -0.76994,1.28683 -0.3443,0.73277 -0.65226,1.30605 -0.68435,1.27397 -0.0321,-0.0321 -1.16809,-1.55482 -2.52446,-3.38385 -1.35637,-1.82903 -2.55698,-3.38183 -2.66801,-3.45066 -0.15804,-0.098 -0.29374,-0.0718 -0.6248,0.12059 -0.52786,0.30672 -0.52724,0.43738 0.009,1.88426 0.22572,0.60918 0.37079,1.1076 0.32237,1.1076 -0.0484,0 -0.85135,-0.53451 -1.78429,-1.18781 -0.93295,-0.65329 -2.02571,-1.35619 -2.42835,-1.562 -0.90093,-0.46049 -1.50084,-0.4796 -3.47112,-0.11052 -1.46925,0.27523 -4.60382,0.46785 -7.68436,0.47221 -3.86525,0.005 -6.36665,0.49961 -8.73084,1.72471 -0.59356,0.30758 -1.411479,0.83789 -1.817599,1.17847 -1.097734,0.92058 -1.108668,0.92406 -2.19517,0.69823 -0.511643,-0.10634 -1.423129,-0.22572 -2.025524,-0.26529 -1.085823,-0.0713 -1.106239,-0.0678 -2.368726,0.40535 -1.609533,0.60326 -3.461936,1.06683 -5.565781,1.39286 -1.461319,0.22646 -2.076647,0.25543 -5.4528,0.25669 -3.315198,0.001 -4.047142,-0.0314 -5.68,-0.25336 -7.469602,-1.01529 -13.3658,-3.30769 -17.50633,-6.80634 -0.586998,-0.496 -1.62959,-1.30492 -2.31687,-1.79759 -1.587731,-1.13814 -2.964482,-2.50998 -3.378705,-3.36664 -0.527103,-1.09009 -0.668205,-1.82602 -0.671478,-3.50217 -0.0049,-2.52669 0.395756,-3.81885 1.488999,-4.80177 1.280582,-1.15135 2.653595,-1.28451 8.581985,-0.83229 8.263363,0.63032 11.447681,0.85875 13.700315,0.98282 l 2.340313,0.12889 1.294887,-0.34589 c 3.317573,-0.8862 13.032461,-4.42007 13.904934,-5.05804 0.33968,-0.24838 0.09847,-0.44683 -0.440715,-0.3626 -0.912183,0.1425 -3.584214,0.86571 -7.454934,2.01774 l -3.9192,1.16647 -1.5336,-0.006 c -3.294419,-0.0139 -10.075783,-1.5564 -14.5408,-3.3074 -2.702403,-1.05976 -5.027915,-2.45692 -5.882182,-3.53398 -1.338893,-1.68808 -2.333532,-4.87108 -2.127334,-6.80779 0.172455,-1.61979 1.514949,-3.22866 3.383545,-4.05491 1.862249,-0.82345 3.709203,-0.82769 6.443571,-0.0148 2.499959,0.74323 5.027144,1.38914 6.0208,1.53884 1.322443,0.19923 6.968342,0.28292 8.706391,0.12907 3.700788,-0.32761 4.969735,-0.7782 5.628362,-1.99856 0.458344,-0.84927 0.539671,-1.61585 0.560594,-5.28414 0.01887,-3.30797 0.01381,-3.38726 -0.39173,-6.14702 -0.225965,-1.53771 -0.463944,-2.93549 -0.528842,-3.10618 -0.105607,-0.27777 -2.827568,-4.29164 -5.27958,-7.7854 l -0.915884,-1.305 -0.566855,-0.0791 c -0.31177,-0.0435 -2.330496,-0.21192 -4.486056,-0.37425 -4.401556,-0.33147 -6.298549,-0.53085 -8.122619,-0.8537 -3.436781,-0.60829 -5.416571,-1.42717 -5.896722,-2.43902 -0.09936,-0.20939 -0.180659,-0.60937 -0.180659,-0.88886 0,-1.05639 0.552933,-2.0268 2.207236,-3.87376 2.638023,-2.94524 6.312764,-7.41114 6.312764,-7.67189 0,-0.0968 -0.16614,-0.41974 -0.3692,-0.71769 -0.290534,-0.4263 -0.435992,-0.54178 -0.682675,-0.54195 -0.51191,-3.4e-4 -4.059736,0.85951 -5.562544,1.34817 -2.248783,0.73121 -3.394399,0.93245 -5.711181,1.00323 -1.614108,0.0493 -2.308002,0.0213 -3.294401,-0.13271 -2.219903,-0.34672 -4.288558,-1.13479 -6.1344,-2.33694 -1.139726,-0.74228 -3.012776,-2.6098 -3.806241,-3.79501 -0.651953,-0.97382 -1.702739,-3.0977 -1.942074,-3.92536 -0.0813,-0.28116 -0.198396,-0.5458 -0.260207,-0.58809 -0.172596,-0.11808 -0.157819,-2.05191 0.01612,-2.1099 0.0781,-0.026 0.142,-0.11517 0.142,-0.19808 0,-0.33718 0.944237,-1.31602 1.839545,-1.90696 1.090025,-0.71946 9.288669,-4.88401 11.224455,-5.70153 0.71852,-0.30344 1.987771,-0.7984 2.820558,-1.09991 3.015525,-1.09176 4.694804,-2.06159 6.376085,-3.68235 1.679013,-1.61857 2.84722,-3.58505 3.470961,-5.84278 0.864503,-3.1292 1.429553,-4.48332 2.604527,-6.24165 2.026026,-3.03192 5.074746,-5.32894 9.83347,-7.40892 1.850232,-0.80871 5.614434,-2.19944 6.872801,-2.53924 1.502128,-0.40561 2.26892,-0.77949 2.906683,-1.41725 0.804876,-0.80488 1.153664,-1.68243 1.969541,-4.95538 1.174088,-4.70993 2.174367,-7.96326 3.42874,-11.15171 0.679652,-1.72758 1.628344,-3.72848 2.076931,-4.38047 0.84384,-1.22648 2.277575,-2.36849 3.456075,-2.75286 0.32408,-0.1057 0.661,-0.24932 0.74872,-0.31915 0.2019,-0.16074 2.6063,-0.16376 2.71578,-0.003 0.0431,0.0631 0.30837,0.18188 0.58953,0.26397 1.44242,0.42117 2.36134,1.24371 3.11999,2.79276 1.31513,2.68532 1.98918,6.00242 3.24341,15.96132 0.31869,2.53044 0.62988,4.83084 0.69155,5.112 0.21557,0.98296 0.75229,1.5739 4.0495,4.45867 6.74057,5.89741 10.14995,8.62423 14.34195,11.47067 2.74789,1.86586 5.01608,3.18428 8.4632,4.91936 4.32946,2.17919 5.94521,3.18507 8.89112,5.53512 2.42249,1.93251 4.37482,3.73839 8.43288,7.80036 5.7269,5.73239 6.47325,6.39481 8.66302,7.68877 1.58055,0.93398 3.05999,1.46299 5.36234,1.91743 3.86776,0.76342 6.05446,1.73695 11.47784,5.11 2.68351,1.66898 4.10569,2.48347 5.93357,3.39819 5.37649,2.69051 10.95546,4.38428 17.1503,5.20681 1.69372,0.22489 2.41236,0.25375 6.39534,0.25679 3.62871,0.003 4.80233,-0.0353 6.1344,-0.19905 4.54155,-0.55828 7.6426,-1.21909 14.57171,-3.10514 7.92384,-2.15681 9.86324,-2.60568 14.18781,-3.28376 4.11381,-0.64503 5.19501,-0.86603 12.70961,-2.59782 4.63662,-1.06855 6.5735,-1.47006 9.10043,-1.8865 3.81755,-0.62915 5.08345,-0.73274 8.95684,-0.73296 3.89238,-2.3e-4 4.84809,0.0869 8.08749,0.73705 2.44951,0.49165 4.48964,0.60988 7.8912,0.45734 4.79382,-0.21498 6.74131,-0.27314 6.74131,-0.20133 0,0.0379 -0.53676,0.43434 -1.1928,0.8809 -0.65604,0.44656 -1.1928,0.85762 -1.1928,0.91347 0,0.17911 0.57183,0.48651 10.6216,5.70983 l 9.8832,5.13675 0.0342,0.4632 c 0.0221,0.29952 -0.10822,0.90362 -0.36878,1.70964 -0.55678,1.72227 -0.59605,2.12526 -0.26909,2.76101 0.32633,0.63452 1.02623,1.11954 2.12565,1.47305 0.44896,0.14436 0.93311,0.35436 1.07589,0.46667 0.39075,0.30736 0.91466,1.3733 1.59612,3.24746 0.3371,0.92709 0.72023,1.9567 0.85139,2.28802 l 0.23847,0.60239 -0.48351,0.43771 c -0.26592,0.24073 -0.59635,0.53197 -0.73427,0.6472 -0.43677,0.36488 -0.37968,0.5503 0.16947,0.5503 l 0.48669,0 0.40597,1.136 c 1.15174,3.22286 1.31714,4.08925 1.02635,5.37605 -0.27371,1.21119 -0.80571,2.35242 -2.188,4.69361 -0.67511,1.14345 -1.23032,2.18153 -1.23379,2.30684 -0.005,0.18771 0.16878,0.28453 0.98768,0.54963 0.5467,0.17698 0.994,0.36044 0.994,0.40768 0,0.0472 -1.1713,0.7114 -2.60288,1.47588 -1.43159,0.76447 -2.62846,1.4566 -2.65972,1.53807 -0.0666,0.17344 1.41652,5.17335 2.02493,6.82664 0.63637,1.72928 2.08939,4.62761 3.01066,6.00533 0.95554,1.42898 2.61221,3.20623 3.87731,4.15951 0.48508,0.36552 1.40859,0.95824 2.05224,1.31714 4.73057,2.63782 7.19498,5.20146 7.98294,8.30442 0.10826,0.42637 0.25299,0.89318 0.3216,1.03739 0.16101,0.33837 0.15251,3.26153 -0.01,3.4574 -0.14367,0.17311 -0.18883,1.33104 -0.14764,3.78512 0.024,1.42679 -0.007,1.91451 -0.14144,2.23656 -0.53791,1.28739 -4.55317,2.95617 -8.53368,3.54668 -1.61019,0.23887 -4.31071,0.23846 -5.92417,-10e-4 -3.39496,-0.50363 -6.25918,-1.51573 -12.37092,-4.37135 -6.00329,-2.80495 -7.05486,-3.1841 -9.05783,-3.26593 -1.20452,-0.0492 -1.42356,-0.0261 -2.27201,0.23918 -0.51642,0.16149 -1.32236,0.5324 -1.79096,0.82425 -1.92456,1.19864 -2.67994,1.26237 -8.0656,0.68045 -7.51458,-0.81197 -13.2691,-1.63164 -16.47012,-2.34599 -0.84452,-0.18846 -2.95369,-0.72639 -4.68708,-1.1954 -6.47346,-1.75153 -8.77261,-2.15532 -11.73,-2.06007 -2.55488,0.0823 -4.10091,0.38845 -9.372,1.85594 -3.79571,1.05673 -5.56177,1.76047 -7.60521,3.03052 -1.16924,0.72671 -3.15014,2.24554 -4.23585,3.24778 -1.17165,1.08157 -1.42031,1.21905 -3.21094,1.7751 -0.74976,0.23283 -1.68221,0.5715 -2.07211,0.7526 l -0.7089,0.32928 -3.7783,-0.1284 c -7.09986,-0.24129 -8.59563,-0.0916 -17.01269,1.70302 -4.82789,1.02934 -5.35707,1.08619 -10.224,1.09833 -4.98188,0.0124 -4.51571,-0.0648 -9.53653,1.57956 -2.59436,0.84967 -3.07557,0.97286 -4.05898,1.03907 -0.61363,0.0413 -1.19242,0.11426 -1.2862,0.16212 -0.20656,0.10541 -3.44473,0.21442 -4.31325,0.1452 z"
       id="path7233"
       style="fill:#e05758" /><path
       d="m 178.8632,261.81141 c -0.54605,-0.0562 -0.61382,-0.0829 -0.3408,-0.13427 0.34077,-0.0641 0.34077,-0.0641 -0.0568,-0.0815 -0.59224,-0.0259 -2.19412,-0.3192 -4.47802,-0.81994 -1.11958,-0.24548 -2.14198,-0.44542 -2.272,-0.44433 -0.25403,0.002 -1.80151,1.29182 -1.6872,1.40614 0.0378,0.0378 -0.0548,0.0679 -0.20584,0.0669 -0.16332,-0.001 -0.22083,-0.0359 -0.14195,-0.0861 0.12826,-0.0816 -6.081,-2.07058 -6.46398,-2.07058 -0.10413,0 -0.23754,0.0862 -0.29647,0.19147 -0.0986,0.17621 -0.68116,0.1138 -7.30075,-0.78214 -3.95647,-0.5355 -7.26407,-0.9466 -7.35021,-0.91354 -0.10583,0.0406 -0.13548,0.16588 -0.0914,0.38617 l 0.0652,0.32607 -0.36668,-0.18816 c -0.20168,-0.10349 -2.65496,-1.40778 -5.45173,-2.89841 -2.79678,-1.49064 -5.13367,-2.71026 -5.19308,-2.71026 -0.0594,0 -0.40376,0.35355 -0.7652,0.78567 -0.4012,0.47965 -0.70147,0.74799 -0.77092,0.68893 -0.0626,-0.0532 -0.77832,-0.99213 -1.59056,-2.08648 -0.81224,-1.09436 -1.54718,-2.0187 -1.6332,-2.05408 -0.25099,-0.10328 -0.3833,0.0817 -0.92364,1.29152 -0.28069,0.62849 -0.56148,1.12708 -0.62396,1.10798 -0.0625,-0.0191 -1.22966,-1.53888 -2.59373,-3.37732 -1.37518,-1.85341 -2.56995,-3.35784 -2.68173,-3.37679 -0.24604,-0.0417 -0.98455,0.3784 -1.07373,0.61079 -0.0356,0.0927 0.11806,0.65635 0.3414,1.25256 0.22335,0.59619 0.37819,1.11189 0.3441,1.14598 -0.0341,0.0341 -0.79294,-0.44918 -1.68634,-1.07395 -1.77925,-1.24422 -2.7908,-1.80117 -3.46801,-1.90947 -0.27191,-0.0435 -0.85216,0.0174 -1.51383,0.15885 -1.7905,0.38274 -3.05485,0.48459 -7.32093,0.58979 -4.17279,0.10288 -5.47498,0.22479 -7.22346,0.67625 -1.75802,0.45391 -3.66375,1.43237 -4.969414,2.55145 -0.642546,0.55072 -0.954368,0.62599 -1.703342,0.41119 -0.206975,-0.0594 -0.977639,-0.16989 -1.712587,-0.24564 l -1.33627,-0.13772 -1.410662,0.51815 c -5.09182,1.87023 -11.896557,2.25097 -18.809774,1.05244 -6.378087,-1.10575 -11.521174,-3.26653 -15.31769,-6.43547 -0.56232,-0.46937 -1.712521,-1.36675 -2.556001,-1.99416 -2.260163,-1.6812 -3.066005,-2.62899 -3.554049,-4.18007 -0.213593,-0.67883 -0.249019,-1.04456 -0.242086,-2.4992 0.01137,-2.38537 0.337847,-3.54116 1.278241,-4.52522 0.849923,-0.8894 1.936317,-1.22163 3.994695,-1.22166 0.781,-1e-5 4.1038,0.2049 7.384,0.45536 12.692767,0.96913 13.180872,0.98443 15.003899,0.47052 3.23033,-0.91065 10.230093,-3.42112 12.972206,-4.6525 0.779825,-0.35018 1.041642,-0.63428 0.75285,-0.81689 -0.303387,-0.19183 -2.143872,0.25401 -7.561059,1.83164 -5.442462,1.585 -5.032706,1.50924 -7.028938,1.2996 -5.189013,-0.54492 -11.886091,-2.37723 -15.74738,-4.30846 -2.073373,-1.037 -3.128921,-1.85475 -3.909284,-3.02858 -1.115586,-1.67809 -1.820155,-4.09479 -1.72226,-5.90744 0.04478,-0.82919 0.109691,-1.08473 0.426514,-1.67915 0.45559,-0.85478 1.576377,-1.93466 2.473483,-2.38321 1.31742,-0.65871 1.763109,-0.75329 3.544769,-0.75222 l 1.6472,0.001 2.3288,0.7053 c 2.718663,0.82337 4.315995,1.21655 5.7368,1.41209 1.420268,0.19546 7.707195,0.19757 9.2584,0.003 2.788882,-0.34963 3.909502,-0.7534 4.551766,-1.64001 0.666504,-0.92009 0.71778,-1.32106 0.722662,-5.65126 0.0043,-3.85075 -0.002,-3.96252 -0.365425,-6.39944 -0.203414,-1.36413 -0.448042,-2.66769 -0.543616,-2.8968 -0.09557,-0.22914 -0.436216,-0.79999 -0.756981,-1.26859 -3.361452,-4.91069 -5.355895,-7.73996 -5.516203,-7.82516 -0.187609,-0.0997 -2.101179,-0.2755 -6.953003,-0.63873 -7.79331,-0.58344 -11.676534,-1.68648 -12.151878,-3.45177 -0.288896,-1.07288 0.301352,-2.23306 2.23789,-4.39877 2.400347,-2.68441 6.278741,-7.40787 6.278769,-7.64686 1.1e-5,-0.0891 -0.187398,-0.4342 -0.416464,-0.7668 -0.302086,-0.43861 -0.489246,-0.60471 -0.681397,-0.60471 -0.46513,0 -4.176108,0.90187 -5.382018,1.30798 -5.70507,1.92128 -11.200205,1.40429 -15.433079,-1.45195 -1.654378,-1.11633 -3.373934,-2.99341 -4.356515,-4.7556 -0.534177,-0.95801 -1.298572,-2.77224 -1.398522,-3.31927 -0.04755,-0.26025 -0.113984,-0.38207 -0.164121,-0.30094 -0.126725,0.20504 -0.255624,-0.85819 -0.16737,-1.38056 0.04205,-0.24891 0.105239,-0.42379 0.140413,-0.38862 0.03517,0.0352 0.151173,-0.13086 0.257777,-0.36897 0.282299,-0.63054 0.82301,-1.19829 1.681983,-1.76611 1.028698,-0.68001 9.349334,-4.89135 11.321731,-5.73029 0.87472,-0.37205 2.203841,-0.89244 2.953601,-1.15641 5.204118,-1.83224 8.34621,-4.84654 9.652217,-9.25966 0.823404,-2.78236 1.141179,-3.67612 1.713581,-4.81955 1.704061,-3.40403 4.410911,-5.89187 8.857156,-8.14053 2.282406,-1.15431 6.590646,-2.82682 9.085847,-3.52723 1.271846,-0.35701 2.210525,-0.84864 2.740616,-1.43538 0.72965,-0.80764 1.11361,-1.85455 2.071906,-5.64931 2.029367,-8.0361 4.209468,-13.68501 6.055416,-15.69034 0.86729,-0.94217 2.35217,-1.83506 3.31289,-1.9921 0.25222,-0.0412 0.37871,-0.10608 0.30081,-0.15422 -0.0739,-0.0457 0.15197,-0.11885 0.50198,-0.16258 0.71315,-0.0891 1.98828,0.0306 1.76909,0.16608 -0.0854,0.0528 0.0405,0.11707 0.32248,0.16471 0.79726,0.13469 1.96571,0.77554 2.54118,1.39372 1.79339,1.9265 2.73137,5.72943 4.12587,16.72788 0.71597,5.64682 0.76947,5.98369 1.03302,6.50478 0.37631,0.74403 0.81511,1.18049 3.8938,3.87297 5.39688,4.71986 7.66729,6.59166 11.06688,9.12387 4.03524,3.00569 7.0525,4.87099 11.48556,7.1005 3.29903,1.65917 4.76736,2.50271 6.62187,3.80423 3.30942,2.32258 5.79463,4.53733 11.51114,10.25841 2.4689,2.47087 4.89113,4.81502 5.38272,5.20923 2.67588,2.14577 5.01342,3.25271 7.96357,3.77115 0.74976,0.13176 1.7466,0.34476 2.2152,0.47333 2.14176,0.58765 4.99371,1.96795 8.30785,4.02089 4.55196,2.8197 6.42848,3.85886 9.12976,5.05578 5.05462,2.23967 9.93308,3.56515 15.7336,4.27482 2.32209,0.2841 9.07149,0.2835 11.5304,-10e-4 4.49291,-0.51989 7.84002,-1.22432 14.76384,-3.10719 8.18558,-2.22598 10.14952,-2.6784 14.48816,-3.33752 2.97042,-0.45126 6.04021,-1.07804 11.8712,-2.42383 8.5843,-1.98125 11.88509,-2.53501 16.66361,-2.79559 3.43443,-0.18729 6.6571,0.0649 10.25959,0.80288 2.19035,0.4487 4.76852,0.53584 9.8832,0.33407 1.99936,-0.0789 3.80978,-0.12457 4.02315,-0.10155 0.38346,0.0414 0.37458,0.0508 -0.7668,0.80928 -0.63511,0.42209 -1.15475,0.81625 -1.15475,0.87592 0,0.0597 0.0639,0.16695 0.142,0.23838 0.0781,0.0714 4.69168,2.49788 10.2524,5.39209 l 10.1104,5.2622 0.0342,0.50846 c 0.0238,0.3545 -0.0911,0.88163 -0.37945,1.7408 -0.82722,2.46464 -0.38311,3.41451 1.96198,4.19634 1.05346,0.35121 1.26502,0.52965 1.71627,1.44757 0.27967,0.56892 1.71514,4.30933 1.90367,4.96042 0.0307,0.1061 -0.2514,0.4208 -0.74766,0.834 -0.43833,0.36499 -0.79698,0.73014 -0.79698,0.81145 0,0.21699 0.27906,0.28759 0.68104,0.1723 0.25039,-0.0718 0.36711,-0.0618 0.40082,0.0345 0.0262,0.0747 0.28176,0.77478 0.56801,1.55578 0.63426,1.73055 0.96108,3.03692 0.96213,3.846 0.002,1.31394 -0.65218,2.94447 -2.24964,5.60955 -1.28841,2.14947 -1.43955,2.46853 -1.25251,2.64396 0.0835,0.0783 0.50959,0.25696 0.94695,0.39707 0.43736,0.1401 0.83022,0.28675 0.87303,0.32588 0.0428,0.0391 -1.08183,0.6891 -2.4992,1.44437 -1.96433,1.04674 -2.58536,1.42932 -2.61206,1.60913 -0.0385,0.25933 1.08371,4.14015 1.78707,6.17998 1.48195,4.29782 3.69355,7.90416 6.17312,10.06621 0.90909,0.79268 1.6606,1.30419 3.39573,2.31129 2.13904,1.24155 3.33283,2.09883 4.55736,3.27275 1.81067,1.73583 2.82708,3.49797 3.19647,5.54168 0.0996,0.551 0.17004,0.75694 0.18641,0.54493 0.0145,-0.18744 0.066,0.017 0.11453,0.4544 0.0993,0.89552 -0.007,2.95307 -0.12279,2.3856 -0.12915,-0.63067 -0.23973,1.37223 -0.20696,3.7488 0.0215,1.55732 -0.0108,2.3689 -0.10242,2.58006 -0.26537,0.61113 -2.10037,1.70847 -3.9321,2.35139 -4.30107,1.50964 -8.59021,1.71392 -12.96659,0.61757 -2.61151,-0.65424 -4.84688,-1.53418 -10.08985,-3.97184 -5.97692,-2.77889 -7.22066,-3.21781 -9.13136,-3.22241 -1.42109,-0.003 -2.47637,0.32508 -4.00999,1.24832 -1.79106,1.07822 -2.39723,1.13153 -7.10616,0.62506 -11.21065,-1.20577 -15.71478,-1.93746 -21.35064,-3.46837 -8.5185,-2.31393 -11.10469,-2.64364 -15.1909,-1.9367 -2.59438,0.44885 -8.79403,2.15241 -10.8097,2.97033 -2.37504,0.96373 -4.75994,2.46912 -6.85294,4.32565 -1.9418,1.7224 -1.98543,1.74921 -3.78246,2.3252 -0.90596,0.29038 -1.9013,0.65544 -2.21186,0.81126 l -0.56466,0.28331 -4.26334,-0.12476 c -4.52164,-0.13232 -7.04173,-0.0593 -9.28039,0.26905 -1.1712,0.17176 -2.29326,0.39276 -8.04695,1.5849 -3.83332,0.79425 -5.58431,0.99693 -8.2928,0.95991 -4.86332,-0.0665 -5.12907,-0.0554 -6.44391,0.26938 -0.67007,0.1655 -2.56151,0.74169 -4.2032,1.28043 -2.9559,0.97 -3.00199,0.98091 -4.7457,1.12327 -0.96844,0.079 -1.53076,0.15904 -1.2496,0.17774 0.34561,0.023 0.16161,0.0607 -0.568,0.1165 -1.26618,0.0968 -2.1809,0.0967 -3.124,0 z"
       id="path7231"
       style="fill:#dd4243" /></g></svg>