<?xml version="1.0" encoding="UTF-8" standalone="no"?>
<!-- Created with Inkscape (http://www.inkscape.org/) -->

<svg
   xmlns:dc="http://purl.org/dc/elements/1.1/"
   xmlns:cc="http://creativecommons.org/ns#"
   xmlns:rdf="http://www.w3.org/1999/02/22-rdf-syntax-ns#"
   xmlns:svg="http://www.w3.org/2000/svg"
   xmlns="http://www.w3.org/2000/svg"
   version="1.1"
   width="254.748"
   height="253.851"
   viewBox="0 0 254.748 253.851"
   id="Layer_1"
   xml:space="preserve"><metadata
     id="metadata9"><rdf:RDF><cc:Work
         rdf:about=""><dc:format>image/svg+xml</dc:format><dc:type
           rdf:resource="http://purl.org/dc/dcmitype/StillImage" /><dc:title></dc:title></cc:Work></rdf:RDF></metadata><defs
     id="defs7" /><g
     transform="matrix(0.94351852,0,0,0.94018519,300.83945,-37.931373)"
     id="g10058"><path
       d="M 18.8125,0 C 8.4343059,0 0,8.1918878 0,18.28125 l 0,217.25 c 0,10.10925 8.4343059,18.3125 18.8125,18.3125 l 217.0625,0 c 10.38932,0 18.875,-8.20325 18.875,-18.3125 l 0,-217.25 C 254.75,8.1918878 246.26432,0 235.875,0 L 18.8125,0 z m 37.84375,34.9375 c 12.079632,0 21.90625,9.801151 21.90625,21.84375 0,12.054349 -9.826618,21.84375 -21.90625,21.84375 C 44.544426,78.625 34.75,68.835599 34.75,56.78125 34.75,44.738651 44.544426,34.9375 56.65625,34.9375 z m 115.125,57.21875 c 38.23373,0 45.28125,25.08845 45.28125,57.71875 l 0,66.4375 -37.75,0 0,-58.90625 c 0,-14.05682 -0.26164,-32.125 -19.625,-32.125 -19.66175,0 -22.65625,15.29289 -22.65625,31.09375 l 0,59.9375 -37.78125,0 0,-121.125 36.25,0 0,16.53125 0.5,0 c 5.04547,-9.52055 17.39915,-19.5625 35.78125,-19.5625 z M 37.75,95.1875 l 37.8125,0 0,121.125 -37.8125,0 0,-121.125 z"
       transform="matrix(1.0598626,0,0,1.0636203,-318.84849,40.344576)"
       id="path10011"
       style="fill:#92c3ce;fill-opacity:1;fill-rule:nonzero;stroke:none" /></g></svg>