<?xml version="1.0" encoding="UTF-8" standalone="no"?>
<!-- Generator: Adobe Illustrator 17.0.0, SVG Export Plug-In . SVG Version: 6.00 Build 0)  -->

<svg
   xmlns:dc="http://purl.org/dc/elements/1.1/"
   xmlns:cc="http://creativecommons.org/ns#"
   xmlns:rdf="http://www.w3.org/1999/02/22-rdf-syntax-ns#"
   xmlns:svg="http://www.w3.org/2000/svg"
   xmlns="http://www.w3.org/2000/svg"
   xmlns:sodipodi="http://sodipodi.sourceforge.net/DTD/sodipodi-0.dtd"
   xmlns:inkscape="http://www.inkscape.org/namespaces/inkscape"
   version="1.1"
   id="Layer_1"
   x="0px"
   y="0px"
   width="383.362"
   height="383.362"
   viewBox="0 0 383.362 383.362"
   enable-background="new 0 0 450 450"
   xml:space="preserve"
   inkscape:version="0.48.4 r9939"
   sodipodi:docname="DO_Over.svg"><metadata
     id="metadata39"><rdf:RDF><cc:Work
         rdf:about=""><dc:format>image/svg+xml</dc:format><dc:type
           rdf:resource="http://purl.org/dc/dcmitype/StillImage" /><dc:title></dc:title></cc:Work></rdf:RDF></metadata><defs
     id="defs37" /><sodipodi:namedview
     pagecolor="#ffffff"
     bordercolor="#666666"
     borderopacity="1"
     objecttolerance="10"
     gridtolerance="10"
     guidetolerance="10"
     inkscape:pageopacity="0"
     inkscape:pageshadow="2"
     inkscape:window-width="640"
     inkscape:window-height="480"
     id="namedview35"
     showgrid="false"
     fit-margin-top="0"
     fit-margin-left="0"
     fit-margin-right="0"
     fit-margin-bottom="0"
     inkscape:zoom="0.52444444"
     inkscape:cx="194.91901"
     inkscape:cy="189.341"
     inkscape:window-x="0"
     inkscape:window-y="34"
     inkscape:window-maximized="0"
     inkscape:current-layer="Layer_1" /><g
     id="g3"
     transform="translate(-30.080994,-30.979004)"><circle
       cx="221.76199"
       cy="222.66"
       r="191.681"
       id="circle5"
       sodipodi:cx="221.76199"
       sodipodi:cy="222.66"
       sodipodi:rx="191.681"
       sodipodi:ry="191.681"
       style="fill:#cecbe6"
       d="m 413.44299,222.66 c 0,105.8625 -85.8185,191.681 -191.681,191.681 -105.86249,0 -191.680996,-85.8185 -191.680996,-191.681 0,-105.86249 85.818506,-191.680996 191.680996,-191.680996 105.8625,0 191.681,85.818506 191.681,191.680996 z" /><path
       d="m 367.227,212.159 c -0.302,5.988 -3.152,10.494 -7.885,14.143 -4.394,3.387 -9.192,6.037 -14.014,8.677 -2.616,1.432 -3.822,3.261 -3.883,6.45 -0.157,8.207 -0.626,16.417 -1.277,24.601 -0.572,7.191 -1.406,14.371 -2.408,21.515 -0.995,7.096 -3.062,13.95 -5.991,20.485 -0.98,2.186 -2.569,4.14 -4.093,6.028 0,0 -11.37,5.508 -21.549,4.73 -4.735,0.384 -9.325,-0.166 -13.811,-1.952 -4.572,-1.82 -7.926,-4.931 -10.284,-9.079 -1.813,-3.189 -3.207,-6.616 -4.795,-9.933 -2.454,-5.128 -2.005,-10.211 0.483,-15.13 1.381,-2.731 3.176,-5.25 4.702,-7.912 2.411,-4.206 5.953,-7.449 9.158,-10.985 3.892,-4.294 8.078,-8.254 12.748,-11.698 3.924,-2.894 7.84,-5.798 11.707,-8.767 4.008,-3.078 7.924,-6.275 11.94,-9.341 1.248,-0.953 1.885,-2.027 2.004,-3.611 0.216,-2.878 0.639,-5.741 0.941,-8.613 0.053,-0.498 -0.061,-1.014 -0.097,-1.522 -0.242,-0.058 -0.484,-0.115 -0.726,-0.173 -1.008,2.091 -2.02,4.181 -3.021,6.276 -0.116,0.243 -0.166,0.516 -0.26,0.77 -2.329,6.303 -4.795,6.859 -11.721,5.923 -3.745,-1.921 -6.81,-4.455 -7.702,-8.838 -0.902,-4.433 -0.214,-8.828 0.555,-13.189 0.878,-4.976 1.911,-9.925 2.868,-14.887 0.117,-0.605 0.183,-1.219 0.361,-2.427 -0.8,0.765 -1.298,1.078 -1.569,1.528 -1.444,2.394 -2.981,4.749 -4.208,7.253 -2.38,4.858 -4.486,9.851 -6.877,14.704 -1.87,3.796 -4.036,7.445 -6,11.196 -1.145,2.186 -3.032,2.734 -5.23,2.51 -3.676,-0.375 -6.817,-1.673 -8.37,-5.395 -0.136,-0.326 -0.365,-0.616 -0.566,-0.912 -0.044,-0.065 -0.156,-0.085 -0.545,-0.281 -0.774,0.928 -1.649,1.888 -2.426,2.923 -4.144,5.515 -12.638,7.995 -19.749,4.345 -1.831,-0.94 -3.548,-2.167 -5.154,-3.465 -1.628,-1.315 -2.31,-3.279 -2.357,-5.301 -0.085,-3.692 3.97,-22.828 4.028,-26.523 0.01,-0.617 -3.801,14.206 -4.044,13.463 3.739,-14.074 -0.545,0.969 -0.677,1.489 -1.114,4.371 -2.196,8.75 -3.281,13.128 -0.087,0.35 -0.104,0.716 -0.179,1.069 -0.807,3.822 -2.779,4.867 -6.494,3.643 -5.144,-1.696 -6.234,-5.022 -6.046,-8.168 0.074,-1.232 0.527,-2.458 0.918,-3.65 1.629,-4.97 3.272,-9.935 4.969,-14.881 0.636,-1.854 1.481,-3.642 0.924,-5.865 -0.874,1.576 -1.88,3.095 -2.592,4.741 -1.216,2.811 -2.205,5.72 -3.372,8.553 -0.648,1.573 -1.513,3.056 -2.194,4.617 -2.31,5.297 -4.656,10.58 -6.828,15.933 -0.805,1.983 -2.127,2.655 -4.106,2.895 -4.43,0.538 -8.107,-1.174 -11.613,-3.534 -2.044,1.585 -4.043,3.231 -6.14,4.741 -3.495,2.518 -9.648,2.676 -13.323,0.396 -1.145,-0.71 -2.304,-1.434 -3.311,-2.317 -1.005,-0.881 -1.828,-1.969 -2.899,-3.153 -0.696,0.532 -1.333,0.98 -1.926,1.48 -2.649,2.232 -5.676,3.433 -9.156,3.556 -6.037,0.213 -11.067,-2.022 -15.311,-6.196 -2.359,-2.32 -2.679,-2.38 -5.591,-0.784 -3.405,1.867 -6.828,3.7 -10.223,5.585 -4.982,2.766 -10.465,3.259 -15.983,3.511 -4.779,0.219 -9.567,0.424 -14.346,0.337 -1.918,-0.035 -3.862,-0.748 -5.721,-1.37 -1.778,-0.595 -3.461,-1.474 -5.432,-2.336 -0.608,0.785 -1.254,1.509 -1.775,2.314 -1.275,1.974 -3.006,3.372 -5.201,4.148 -2.21,0.782 -4.429,1.57 -6.696,2.156 -3.507,0.905 -6.761,0.213 -9.777,-1.834 -1.865,-1.266 -3.849,-2.356 -5.783,-3.521 -0.154,-0.092 -0.367,-0.109 -0.489,-0.227 -2.499,-2.413 -4.143,-5.433 -5.542,-8.52 -1.065,-2.349 -0.186,-4.802 0.801,-7.076 0.319,-0.736 0.664,-1.547 1.229,-2.076 2.769,-2.588 5.606,-5.074 9.164,-6.62 2.656,-1.154 5.215,-1.247 7.86,-0.104 2.238,0.967 4.488,1.907 6.75,2.814 1.694,0.679 2.098,0.522 2.531,-1.178 2.05,-8.048 3.61,-16.168 4.806,-24.411 1.394,-9.601 1.208,-19.261 2.147,-28.867 0.798,-8.167 0.832,-16.409 1.177,-24.618 0.025,-0.596 -0.17,-1.2 -0.213,-1.481 -1.967,-0.515 -3.701,-0.847 -5.345,-1.432 -1.974,-0.703 -2.964,-2.26 -3.084,-4.352 -0.031,-0.541 0.049,-1.099 -0.052,-1.624 -0.7,-3.634 1.111,-5.944 3.902,-7.902 7.053,-4.948 14.708,-6.803 23.31,-5.522 7.659,1.141 14.661,3.878 21.071,7.982 6.866,4.396 13.031,9.715 17.673,16.534 3.998,5.874 6.809,12.28 8.266,19.281 1.033,4.966 1.525,9.971 1.734,15.027 0.115,2.767 0.43,5.527 0.667,8.433 2.256,-1.349 3.93,-3.038 5.311,-5.014 3.479,-4.975 8.336,-7.629 14.255,-8.411 1.501,-0.198 3.065,-0.122 4.579,0.032 1.591,0.162 2.451,1.353 3.134,2.701 0.687,1.356 1.406,2.702 2.205,3.995 0.936,1.516 0.776,3.115 0.534,4.733 -0.534,3.564 -1.002,7.141 -1.661,10.682 -1.56,8.395 -2.143,16.955 -4.39,25.24 -0.582,2.146 -0.768,4.48 -0.668,6.706 0.074,1.639 0.75,3.318 1.455,4.842 0.63,1.362 1.366,1.416 2.609,0.576 0.595,-0.402 1.228,-0.825 1.659,-1.381 1.817,-2.342 3.7,-4.652 5.3,-7.14 1.618,-2.516 2.457,-5.304 2.747,-8.382 0.77,-8.175 1.705,-16.352 3.909,-24.298 1.058,-3.816 1.862,-7.79 4.3,-11.036 0.998,-1.329 2.36,-2.503 3.788,-3.36 2.12,-1.273 7.497,0.753 8.455,3.07 0.24,0.582 0.099,1.41 -0.085,2.064 -1.512,5.384 -3.287,10.704 -4.561,16.143 -1.233,5.262 -1.951,10.644 -2.927,15.968 -0.325,1.771 -0.796,3.515 -1.116,5.287 -0.229,1.265 -0.317,2.554 -0.469,3.833 0.215,0.057 0.43,0.114 0.646,0.171 0.74,-1.599 1.533,-3.175 2.21,-4.8 1.632,-3.918 2.967,-7.979 4.866,-11.76 2.749,-5.473 5.862,-10.765 8.875,-16.103 1.625,-2.88 4.601,-4.075 7.448,-4.996 2.306,-0.746 4.813,0.024 7.008,1.24 0.779,0.432 1.509,0.95 2.166,1.368 0.332,-0.067 0.552,-0.046 0.675,-0.145 3.826,-3.078 7.727,-2.064 11.242,0.283 4.008,2.677 6.421,6.495 5.979,11.616 -0.039,0.448 -0.07,0.914 -0.218,1.332 -1.227,3.479 -2.492,6.945 -3.724,10.423 -1.729,4.882 -2.94,9.871 -2.801,15.093 0.027,1.015 0.38,2.022 0.667,3.457 1.084,-0.554 1.926,-0.749 2.409,-1.275 1.255,-1.367 2.497,-2.788 3.486,-4.351 3.012,-4.761 4.946,-10.026 6.942,-15.264 0.994,-2.608 2.148,-5.168 3.405,-7.66 3.89,-7.713 5.457,-16.021 6.486,-24.483 0.216,-1.779 0.508,-3.549 0.764,-5.316 -0.382,-0.194 -0.615,-0.417 -0.843,-0.413 -4.595,0.084 -9.19,0.2 -13.785,0.296 -3.371,0.07 -7.593,-3.006 -8.601,-6.319 1.073,-1.048 2.411,-1.291 3.901,-1.396 4.206,-0.298 8.492,0.216 12.596,-1.184 2.133,-0.727 4.273,-1.435 6.412,-2.143 1.698,-0.561 2.641,-1.665 2.983,-3.479 0.536,-2.836 1.264,-5.636 1.929,-8.447 0.713,-3.013 2.248,-3.631 5.386,-3.147 3.878,0.598 6.123,2.316 6.108,6.425 -0.001,0.232 0.24,0.466 0.557,1.04 2.022,-0.719 4.091,-1.445 6.154,-2.189 4.583,-1.651 9.11,-3.482 13.764,-4.899 2.646,-0.806 5.486,-1.061 8.261,-1.322 1.203,-0.113 2.516,0.234 3.684,0.644 1.588,0.558 3.084,1.379 4.621,2.083 0.844,0.387 1.762,2.528 1.562,3.777 -0.202,1.262 -1.181,1.457 -2.228,1.515 -7.529,0.418 -14.372,3.361 -21.294,5.923 -4.981,1.844 -9.803,4.111 -14.737,6.087 -2.058,0.824 -3.207,2.143 -3.519,4.357 -0.957,6.791 -1.918,13.584 -3.02,20.353 -0.884,5.431 -1.991,10.825 -2.958,16.242 -0.198,1.111 -0.214,2.255 -0.331,3.574 1.583,-0.18 1.757,-1.314 2.199,-2.087 1.701,-2.98 3.315,-6.009 4.989,-9.005 0.918,-1.642 1.741,-3.37 2.89,-4.837 0.797,-1.017 2.063,-1.677 3.147,-2.458 5.161,-3.717 12.59,-4.461 17.593,-0.217 1.412,1.198 2.307,2.574 2.24,4.404 -0.076,2.067 -0.166,4.158 -0.543,6.184 -0.776,4.171 -1.76,8.304 -2.627,12.459 -0.162,0.775 -0.177,1.581 -0.319,2.934 0.672,-0.637 1.027,-0.85 1.207,-1.164 2.923,-5.082 5.967,-10.101 8.672,-15.298 1.448,-2.781 2.311,-5.869 3.419,-8.825 0.221,-0.59 0.335,-1.22 0.537,-1.818 1.096,-3.25 1.983,-3.754 5.448,-3.18 0.708,0.117 1.434,0.124 2.15,0.2 3.181,0.339 4.76,2.17 4.819,5.33 0.17,9.153 -0.615,18.228 -2.032,27.262 -0.469,2.99 -0.782,6.004 -1.18,9.112 2.262,-0.413 4.323,-2.046 5.812,-4.378 1.583,-2.479 2.464,-5.216 2.965,-8.09 0.341,-1.956 0.601,-3.928 0.991,-5.874 0.745,-3.716 2.626,-6.627 5.926,-8.674 1.85,-1.148 3.786,-0.883 5.449,-0.293 0.924,0.328 1.571,2.07 1.883,3.292 3.799,6.214 0.788,13.633 0.788,13.633 z M 106.389,130.637 c 2.348,2.656 2.487,5.503 2.115,8.599 -0.365,3.035 -0.367,6.122 -0.398,9.188 -0.027,2.707 0.297,5.424 0.167,8.121 -0.415,8.566 -0.975,17.124 -1.468,25.686 -0.15,2.612 -0.08,5.251 -0.431,7.835 -1.262,9.302 -2.61,18.593 -4.741,27.752 -0.404,1.736 -0.576,3.561 -0.564,5.343 0.006,0.878 0.465,1.964 1.088,2.585 1.565,1.561 3.551,2.658 5.787,2.617 5.865,-0.106 11.734,-0.303 17.585,-0.695 2.237,-0.15 4.42,-0.934 6.023,-2.759 0.283,-0.322 0.71,-0.656 1.109,-0.713 3.077,-0.432 5.478,-2.294 8.001,-3.826 4.357,-2.646 7.723,-6.249 9.425,-11.144 1.096,-3.151 2.036,-6.362 2.911,-9.582 0.566,-2.084 0.666,-4.312 1.376,-6.335 1.068,-3.042 1.404,-6.152 1.476,-9.309 0.188,-8.292 0.39,-16.569 -1.107,-24.813 -0.881,-4.849 -2.41,-9.438 -4.362,-13.899 -3.066,-7.007 -9.253,-11.163 -14.902,-15.761 -3.047,-2.48 -6.776,-3.68 -10.372,-5.162 -4.549,-1.874 -8.881,-2.854 -13.818,-1.086 -3.056,1.094 -5.649,2.652 -8.15,4.546 -0.694,0.525 -1.53,1.059 -1.071,2.493 1.391,0.103 2.885,0.213 4.321,0.319 z m 222.366,117.652 c -0.239,-0.094 -0.479,-0.189 -0.718,-0.283 -0.675,0.421 -1.377,0.805 -2.021,1.268 -4.1,2.948 -8.193,5.907 -12.278,8.877 -2.113,1.536 -4.441,2.868 -6.26,4.702 -4.927,4.968 -10.464,9.4 -14.035,15.613 -1.387,2.413 -3.168,4.6 -4.557,7.013 -2.168,3.766 -2.374,7.694 -0.356,11.627 1.724,3.358 3.42,6.733 5.248,10.034 1.412,2.55 3.652,3.985 6.621,3.983 2.523,-0.002 5.05,-0.088 7.567,-0.254 6.901,-0.454 7.356,-0.632 11.126,-7.188 0.135,-0.234 0.238,-0.486 0.362,-0.727 3.842,-7.493 5.336,-15.634 6.714,-23.833 1.56,-9.276 2.016,-18.638 2.579,-27.998 0.057,-0.943 0.008,-1.89 0.008,-2.834 z M 183.434,182.511 c -0.196,-0.063 -0.392,-0.125 -0.588,-0.188 -0.331,0.397 -0.716,0.761 -0.985,1.197 -2.883,4.677 -5.879,9.291 -8.566,14.079 -1.576,2.809 -2.828,5.838 -3.902,8.881 -1.168,3.308 -2.139,6.71 -2.855,10.143 -0.47,2.254 -0.382,4.632 -0.441,6.957 -0.014,0.544 0.392,1.099 0.634,1.724 0.525,-0.161 0.963,-0.163 1.179,-0.382 2.138,-2.168 4.645,-4.046 5.993,-6.868 1.242,-2.6 2.434,-5.239 3.424,-7.942 2.864,-7.822 4.428,-15.973 5.836,-24.153 0.195,-1.132 0.186,-2.298 0.271,-3.448 z m -110.61,44.41 c 0.04,4.405 3.476,7.034 7.682,5.731 1.618,-0.501 3.163,-1.312 4.647,-2.15 1.462,-0.826 2.339,-2.191 2.842,-3.81 0.703,-2.267 0.734,-2.925 -1.277,-4.107 -2.296,-1.349 -4.855,-2.253 -7.321,-3.301 -0.279,-0.118 -0.72,0.021 -1.043,0.149 -3.128,1.239 -5.606,3.471 -5.53,7.488 z"
       id="path7"
       inkscape:connector-curvature="0"
       style="fill:#6f6f2f" /><path
       d="m 210.21,139.895 c 0.169,-1.429 0.454,-3.396 0.621,-5.373 0.13,-1.531 0.205,-3.078 0.135,-4.61 -0.061,-1.345 0.46,-2.204 1.698,-2.538 2.115,-0.57 5.481,-0.437 7.172,1.5 0.883,1.012 1.471,2.115 1.333,3.519 -0.228,2.319 -0.38,4.648 -0.659,6.961 -0.217,1.798 -0.538,3.525 0.026,5.371 0.552,1.81 -0.801,3.666 -2.617,3.682 -1.438,0.012 -2.97,-0.191 -4.301,-0.707 -2.374,-0.922 -3.784,-2.665 -3.42,-5.435 0.078,-0.595 0.012,-1.209 0.012,-2.37 z"
       id="path9"
       inkscape:connector-curvature="0"
       style="fill:#6f6f2f" /><g
       id="g11"><path
         d="m 81.774,266.193 c 4.53,0 6.228,5.856 7.362,9.721 1.887,6.132 2.736,12.741 2.736,19.35 0,5.664 -0.661,11.512 -1.418,16.799 -0.753,4.718 -2.359,14.247 -8.868,14.247 -5.571,0 -7.362,-7.923 -8.399,-12.357 -1.322,-5.948 -1.983,-12.08 -1.983,-18.22 0,-5.471 0.565,-11.043 1.602,-16.422 0.849,-4.718 3.4,-13.118 8.968,-13.118 z m 7.077,45.678 c 0.849,-5.095 1.322,-10.382 1.322,-15.761 0,-4.718 -0.377,-9.621 -1.226,-14.44 -0.661,-3.489 -2.832,-13.963 -7.174,-14.44 -5.099,0.761 -6.609,8.215 -7.362,12.18 -1.037,5.471 -1.606,11.043 -1.606,16.514 0,6.04 0.661,12.08 1.89,17.928 0.849,3.681 1.979,8.876 5.66,10.858 0.569,0.277 1.606,0.277 1.794,0.277 0.096,0 0.757,-0.277 1.226,-0.377 3.778,-3.11 4.719,-8.02 5.476,-12.739 z"
         id="path13"
         inkscape:connector-curvature="0"
         style="fill:#6f6f2f" /><path
         d="m 96.321,317.066 c 0,-5.471 -0.284,-10.951 -0.569,-16.514 -0.092,-2.928 -0.092,-5.856 -0.092,-8.784 v -12.265 c 0,-3.965 0,-7.931 -0.188,-11.896 0,-0.277 0.092,-0.653 0.469,-0.653 2.455,-0.192 4.342,-0.384 6.136,-0.384 1.51,0 3.02,0.192 4.058,0.945 2.644,1.89 4.246,7.078 4.438,12.272 v 1.606 c 0,1.222 -0.096,2.544 -0.192,3.773 -0.469,3.112 -1.506,5.756 -3.208,6.985 -1.318,1.037 -2.832,1.698 -4.434,1.883 5.283,1.322 7.738,4.91 7.738,12.365 0,2.175 0.284,7.831 0.284,9.06 0,0.192 0,0.284 0,0.284 -0.096,10.19 -5.379,10.29 -13.779,10.29 -0.284,0 -0.38,-0.1 -0.473,-0.1 -0.284,0 -0.569,-0.284 -0.569,-0.561 0,-2.083 0.284,-4.25 0.38,-6.324 v -1.982 z m 3.02,-23.784 c 2.359,0 4.999,-0.377 6.513,-1.514 2.075,-2.167 3.397,-3.865 3.397,-11.604 v -0.569 c -0.188,-4.811 -1.89,-9.629 -4.53,-11.704 -0.569,-0.377 -1.51,-0.377 -2.74,-0.377 -1.698,0 -3.773,0.092 -4.907,0.192 0.096,2.828 0.096,5.564 0.096,8.492 0,5.571 -0.096,11.419 -0.096,17.083 h 2.267 z m -1.891,25.859 c 0,1.983 -0.092,3.589 -0.092,5.571 8.588,0 12.08,-1.037 12.08,-8.968 0,-11.235 -0.188,-10.29 -0.661,-13.402 -0.661,-4.534 -2.644,-7.454 -10.666,-7.831 h -1.037 v 5.94 c 0.096,5.195 0.377,10.482 0.377,15.669 v 3.021 z"
         id="path15"
         inkscape:connector-curvature="0"
         style="fill:#6f6f2f" /><path
         d="m 114.921,312.816 c 0,-0.284 0.38,-0.569 0.757,-0.569 0.284,0 0.565,0.284 0.661,0.476 0,1.13 -0.096,2.267 -0.096,3.589 0,2.451 0.377,4.903 2.079,6.701 1.226,1.414 2.359,2.075 3.961,2.075 2.079,0 4.25,-0.945 5.287,-2.928 1.602,-2.928 1.887,-6.509 1.887,-9.913 0,-2.167 -0.096,-4.242 -0.096,-6.225 0,-8.776 -7.358,-11.988 -12.269,-18.213 -1.698,-2.175 -1.979,-5.103 -1.979,-7.838 0,-2.259 0.28,-5.003 0.469,-7.078 0,-0.377 -0.188,-0.561 -0.188,-0.845 0,-0.1 0,-0.377 0.188,-0.569 1.037,-3.681 3.869,-4.91 7.362,-4.91 1.983,0 3.681,0.1 4.814,1.422 2.171,2.544 2.455,6.132 2.455,9.621 0,1.798 -0.096,3.873 -0.096,5.479 -0.096,0.277 -0.473,0.377 -0.757,0.377 -0.281,0 -0.753,-0.1 -0.753,-0.476 v -3.489 c 0,-4.15 -0.284,-9.813 -3.02,-11.612 l -2.644,-0.184 c -1.983,0 -2.451,0 -4.154,1.222 -0.753,0.945 -1.226,1.606 -1.791,2.644 0,2.551 -0.473,5.756 -0.473,8.684 0,1.89 0.188,3.681 0.945,5.287 2.451,5.003 8.964,7.646 11.888,14.247 1.23,2.836 1.606,5.856 1.606,8.784 0,2.359 -0.188,4.618 -0.188,7.078 0,5.003 -2.547,10.474 -8.211,10.474 -2.171,0 -3.777,-0.753 -5.191,-2.175 -2.455,-2.259 -2.455,-7.262 -2.455,-10.474 v -0.662 z"
         id="path17"
         inkscape:connector-curvature="0"
         style="fill:#6f6f2f" /><path
         d="m 137.395,295.925 c 5.003,0 9.345,-0.092 14.536,-0.476 0.28,0 0.469,0.192 0.469,0.384 0,0.377 -0.377,0.845 -1.037,0.845 -5.095,0.476 -9.06,0.476 -13.967,0.476 0,0.845 -0.096,1.598 -0.096,2.451 -0.28,8.399 -0.469,16.422 -0.565,24.822 5.283,0.092 6.228,0.184 7.174,0.184 2.736,0 5.471,-0.092 8.303,-0.284 0.473,0 0.661,0.284 0.661,0.661 0,0.284 -0.284,0.761 -0.753,0.761 -2.551,0.184 -5.099,0.284 -7.55,0.284 -3.02,0 -5.948,-0.1 -8.78,-0.284 -0.188,0 -0.281,-0.192 -0.281,-0.377 0.188,-11.704 0.565,-23.223 0.565,-34.643 0,-7.454 -0.096,-15.377 -0.565,-23.023 0.092,-0.377 0.469,-0.945 1.037,-0.945 3.208,0 5.852,0.092 8.872,0.092 3.02,0 5.095,-0.092 6.982,-0.092 0.661,0 0.661,0.284 0.661,0.469 0,0.192 -0.092,0.661 -0.753,0.661 -1.23,0 -4.25,0.1 -7.362,0.1 -2.075,0 -4.814,0.092 -8.115,0.092 0.469,7.17 0.565,14.624 0.565,21.609 v 6.233 z"
         id="path19"
         inkscape:connector-curvature="0"
         style="fill:#6f6f2f" /><path
         d="m 156.28,312.816 c 0,-0.284 0.38,-0.569 0.757,-0.569 0.284,0 0.565,0.284 0.661,0.476 0,1.13 -0.096,2.267 -0.096,3.589 0,2.451 0.377,4.903 2.079,6.701 1.226,1.414 2.359,2.075 3.961,2.075 2.079,0 4.25,-0.945 5.287,-2.928 1.602,-2.928 1.887,-6.509 1.887,-9.913 0,-2.167 -0.096,-4.242 -0.096,-6.225 0,-8.776 -7.358,-11.988 -12.269,-18.213 -1.698,-2.175 -1.979,-5.103 -1.979,-7.838 0,-2.259 0.281,-5.003 0.469,-7.078 0,-0.377 -0.188,-0.561 -0.188,-0.845 0,-0.1 0,-0.377 0.188,-0.569 1.037,-3.681 3.869,-4.91 7.362,-4.91 1.983,0 3.681,0.1 4.814,1.422 2.171,2.544 2.455,6.132 2.455,9.621 0,1.798 -0.096,3.873 -0.096,5.479 -0.096,0.277 -0.473,0.377 -0.757,0.377 -0.28,0 -0.753,-0.1 -0.753,-0.476 v -3.489 c 0,-4.15 -0.284,-9.813 -3.02,-11.612 l -2.644,-0.184 c -1.983,0 -2.451,0 -4.154,1.222 -0.753,0.945 -1.226,1.606 -1.791,2.644 0,2.551 -0.473,5.756 -0.473,8.684 0,1.89 0.188,3.681 0.945,5.287 2.451,5.003 8.964,7.646 11.888,14.247 1.23,2.836 1.606,5.856 1.606,8.784 0,2.359 -0.188,4.618 -0.188,7.078 0,5.003 -2.547,10.474 -8.211,10.474 -2.171,0 -3.777,-0.753 -5.191,-2.175 -2.455,-2.259 -2.455,-7.262 -2.455,-10.474 v -0.662 z"
         id="path21"
         inkscape:connector-curvature="0"
         style="fill:#6f6f2f" /><path
         d="m 176.487,312.816 c 0,-0.284 0.38,-0.569 0.757,-0.569 0.284,0 0.565,0.284 0.661,0.476 0,1.13 -0.096,2.267 -0.096,3.589 0,2.451 0.38,4.903 2.079,6.701 1.226,1.414 2.359,2.075 3.961,2.075 2.079,0 4.25,-0.945 5.287,-2.928 1.602,-2.928 1.887,-6.509 1.887,-9.913 0,-2.167 -0.096,-4.242 -0.096,-6.225 0,-8.776 -7.358,-11.988 -12.269,-18.213 -1.698,-2.175 -1.983,-5.103 -1.983,-7.838 0,-2.259 0.284,-5.003 0.473,-7.078 0,-0.377 -0.188,-0.561 -0.188,-0.845 0,-0.1 0,-0.377 0.188,-0.569 1.041,-3.681 3.869,-4.91 7.362,-4.91 1.983,0 3.681,0.1 4.814,1.422 2.171,2.544 2.451,6.132 2.451,9.621 0,1.798 -0.092,3.873 -0.092,5.479 -0.096,0.277 -0.473,0.377 -0.757,0.377 -0.28,0 -0.753,-0.1 -0.753,-0.476 v -3.489 c 0,-4.15 -0.284,-9.813 -3.02,-11.612 l -2.644,-0.184 c -1.983,0 -2.451,0 -4.154,1.222 -0.753,0.945 -1.226,1.606 -1.791,2.644 0,2.551 -0.473,5.756 -0.473,8.684 0,1.89 0.188,3.681 0.945,5.287 2.451,5.003 8.964,7.646 11.888,14.247 1.23,2.836 1.606,5.856 1.606,8.784 0,2.359 -0.188,4.618 -0.188,7.078 0,5.003 -2.547,10.474 -8.211,10.474 -2.171,0 -3.777,-0.753 -5.191,-2.175 -2.455,-2.259 -2.455,-7.262 -2.455,-10.474 v -0.662 z"
         id="path23"
         inkscape:connector-curvature="0"
         style="fill:#6f6f2f" /><path
         d="m 198.112,326.218 c -0.377,0 -0.757,-0.092 -0.757,-0.469 0.188,-3.681 0.188,-7.646 0.188,-11.327 0,-5.003 -0.188,-9.913 -0.188,-15.008 0,-10.943 -0.28,-21.894 -0.28,-32.744 0,-0.284 0.377,-0.476 0.661,-0.476 0.377,0 0.753,0.192 0.849,0.377 0,10.858 0.092,21.901 0.377,32.752 0.092,5.287 0.284,10.382 0.284,15.761 0,3.489 -0.096,7.17 -0.284,10.759 -0.097,0.283 -0.473,0.375 -0.85,0.375 z"
         id="path25"
         inkscape:connector-curvature="0"
         style="fill:#6f6f2f" /><path
         d="m 213.405,266.193 c 4.53,0 6.228,5.856 7.362,9.721 1.887,6.132 2.736,12.741 2.736,19.35 0,5.664 -0.661,11.512 -1.418,16.799 -0.753,4.718 -2.359,14.247 -8.868,14.247 -5.571,0 -7.362,-7.923 -8.399,-12.357 -1.322,-5.948 -1.983,-12.08 -1.983,-18.22 0,-5.471 0.565,-11.043 1.602,-16.422 0.849,-4.718 3.4,-13.118 8.968,-13.118 z m 7.077,45.678 c 0.849,-5.095 1.322,-10.382 1.322,-15.761 0,-4.718 -0.377,-9.621 -1.226,-14.44 -0.661,-3.489 -2.832,-13.963 -7.174,-14.44 -5.099,0.761 -6.609,8.215 -7.362,12.18 -1.037,5.471 -1.606,11.043 -1.606,16.514 0,6.04 0.661,12.08 1.89,17.928 0.849,3.681 1.979,8.876 5.66,10.858 0.569,0.277 1.606,0.277 1.794,0.277 0.096,0 0.757,-0.277 1.226,-0.377 3.778,-3.11 4.719,-8.02 5.476,-12.739 z"
         id="path27"
         inkscape:connector-curvature="0"
         style="fill:#6f6f2f" /><path
         d="m 229.081,272.894 c -0.092,5.095 -0.28,11.135 -0.28,16.138 0,11.612 0.28,20.295 0.28,28.979 0,2.451 0,5.095 -0.092,7.639 -0.096,0.384 -0.377,0.476 -0.757,0.476 -0.281,0 -0.661,-0.092 -0.661,-0.569 0.096,-5.471 0.192,-10.943 0.192,-16.422 0,-9.345 -0.661,-14.44 -0.661,-20.195 0,-5.003 0.469,-11.043 0.565,-16.138 0,-1.514 0.188,-3.02 0.188,-4.626 0,-1.037 -0.092,-1.222 -0.092,-1.414 0.092,-0.284 0.377,-0.377 0.753,-0.377 0.284,0 0.565,0.092 0.849,0.569 1.418,5.564 3.397,10.851 4.907,16.23 2.74,9.813 5.287,20.572 7.27,30.485 0.469,2.167 0.849,4.434 1.791,7.362 -0.092,-10.005 -0.28,-20.103 -0.28,-30.301 0,-7.546 0.092,-16.038 0.661,-23.592 0.092,-0.184 0.377,-0.284 0.661,-0.284 0.377,0 0.657,0.1 0.753,0.377 -0.284,5.195 -0.377,10.382 -0.377,15.477 0,7.838 0.188,16.522 0.188,24.261 0,6.324 -0.096,12.549 -0.096,18.781 0,0.377 -0.661,0.377 -0.753,0.377 -0.377,0 -0.565,-0.377 -0.757,-0.945 -1.037,-2.736 -2.736,-7.931 -3.397,-11.419 -1.983,-9.913 -4.246,-20.856 -7.174,-30.485 -1.13,-3.773 -2.451,-7.546 -3.681,-11.419 v 1.035 z"
         id="path29"
         inkscape:connector-curvature="0"
         style="fill:#6f6f2f" /><path
         d="m 249.669,312.816 c 0,-0.284 0.38,-0.569 0.757,-0.569 0.284,0 0.565,0.284 0.661,0.476 0,1.13 -0.096,2.267 -0.096,3.589 0,2.451 0.38,4.903 2.079,6.701 1.226,1.414 2.359,2.075 3.961,2.075 2.079,0 4.25,-0.945 5.287,-2.928 1.602,-2.928 1.887,-6.509 1.887,-9.913 0,-2.167 -0.096,-4.242 -0.096,-6.225 0,-8.776 -7.358,-11.988 -12.269,-18.213 -1.698,-2.175 -1.983,-5.103 -1.983,-7.838 0,-2.259 0.284,-5.003 0.473,-7.078 0,-0.377 -0.188,-0.561 -0.188,-0.845 0,-0.1 0,-0.377 0.188,-0.569 1.041,-3.681 3.869,-4.91 7.362,-4.91 1.983,0 3.681,0.1 4.814,1.422 2.171,2.544 2.451,6.132 2.451,9.621 0,1.798 -0.092,3.873 -0.092,5.479 -0.096,0.277 -0.473,0.377 -0.757,0.377 -0.28,0 -0.753,-0.1 -0.753,-0.476 v -3.489 c 0,-4.15 -0.284,-9.813 -3.02,-11.612 l -2.644,-0.184 c -1.983,0 -2.451,0 -4.154,1.222 -0.753,0.945 -1.226,1.606 -1.791,2.644 0,2.551 -0.473,5.756 -0.473,8.684 0,1.89 0.188,3.681 0.945,5.287 2.451,5.003 8.964,7.646 11.888,14.247 1.23,2.836 1.606,5.856 1.606,8.784 0,2.359 -0.188,4.618 -0.188,7.078 0,5.003 -2.547,10.474 -8.211,10.474 -2.171,0 -3.777,-0.753 -5.191,-2.175 -2.455,-2.259 -2.455,-7.262 -2.455,-10.474 v -0.662 z"
         id="path31"
         inkscape:connector-curvature="0"
         style="fill:#6f6f2f" /></g><line
       stroke-miterlimit="10"
       x1="71.203003"
       y1="249.694"
       x2="289.086"
       y2="249.694"
       id="line33"
       style="fill:none;stroke:#6f6f2f;stroke-miterlimit:10" /></g></svg>