<?xml version="1.0" encoding="UTF-8" standalone="no"?>
<!-- Created with Inkscape (http://www.inkscape.org/) -->

<svg
   xmlns:dc="http://purl.org/dc/elements/1.1/"
   xmlns:cc="http://creativecommons.org/ns#"
   xmlns:rdf="http://www.w3.org/1999/02/22-rdf-syntax-ns#"
   xmlns:svg="http://www.w3.org/2000/svg"
   xmlns="http://www.w3.org/2000/svg"
   xmlns:xlink="http://www.w3.org/1999/xlink"
   version="1.1"
   width="384.22198"
   height="384.22198"
   viewBox="0 0 384.22198 384.22198"
   id="Layer_1"
   xml:space="preserve"><metadata
     id="metadata13"><rdf:RDF><cc:Work
         rdf:about=""><dc:format>image/svg+xml</dc:format><dc:type
           rdf:resource="http://purl.org/dc/dcmitype/StillImage" /><dc:title></dc:title></cc:Work></rdf:RDF></metadata><defs
     id="defs11"><linearGradient
       id="linearGradient6588"><stop
         id="stop6590"
         style="stop-color:#f79e86;stop-opacity:1"
         offset="0" /></linearGradient><linearGradient
       id="linearGradient6582"><stop
         id="stop6584"
         style="stop-color:#a55b52;stop-opacity:1"
         offset="0" /></linearGradient><linearGradient
       x1="91.183197"
       y1="176.3707"
       x2="292.29059"
       y2="176.3707"
       id="linearGradient6592"
       xlink:href="#linearGradient6588"
       gradientUnits="userSpaceOnUse" /></defs><g
     transform="translate(-29.804001,-30.125)"
     id="g3"><circle
       cx="221.91499"
       cy="222.23599"
       r="192.11099"
       id="circle5"
       style="fill:#f4e1d9" /></g><g
     transform="translate(93.329598,17.170349)"
     id="g6612"><path
       d="m 5.2276681,328.08044 c -0.7826428,-0.27697 -2.0980601,-1.46057 -2.8423295,-2.55747 -1.2682152,-1.86912 -2.2235333,-4.17425 -2.95786263,-7.13715 -0.99772037,-4.02565 -0.93809137,-2.35514 -1.03640127,-29.03481 -0.049107,-13.32689 -0.047629,-30.26615 0.00328,-37.6428 0.087614,-12.69397 0.1091241,-13.50732 0.4017349,-15.1905 1.22270551,-7.03334 3.7604986,-11.80632 6.8586002,-12.8994 0.5142965,-0.18146 2.233558,-0.2163 10.6720292,-0.2163 l 10.058967,0 5.93e-4,-26.26845 c 5.93e-4,-26.19758 0.05053,-29.2935 0.524539,-32.47167 0.457548,-3.06782 1.480637,-6.63596 2.467883,-8.60701 1.093154,-2.18251 2.601741,-3.96204 3.983327,-4.69875 l 0.655959,-0.34982 7.41,-0.0741 7.41,-0.0741 0.0827,-23.5638 c 0.08728,-24.87009 0.06119,-23.88529 0.732965,-27.659868 1.043516,-5.863299 3.30059,-10.239102 5.901402,-11.441084 l 0.692935,-0.320244 40.384502,0 40.384509,0 0.84753,0.416193 c 2.36681,1.162251 4.48118,5.211936 5.58592,10.698806 0.83794,4.161817 0.80986,3.268227 0.89649,28.528497 l 0.0801,23.3415 9.4107,0.0741 9.4107,0.0741 0.79302,0.43925 c 2.49722,1.38321 4.70591,5.37925 5.85972,10.60165 0.92831,4.20174 0.88212,2.56134 0.93803,33.30795 l 0.051,28.04685 10.26875,0 c 11.53365,0 10.94735,-0.0524 12.43058,1.11171 2.8154,2.2097 5.01558,7.95623 5.53096,14.44603 0.16796,2.11508 0.20681,8.97441 0.20944,36.97916 0.003,36.74401 -0.012,37.62104 -0.72423,41.03155 -1.23341,5.90645 -3.68503,10.28642 -6.22217,11.11628 -0.67682,0.22136 -8.25583,0.23992 -93.629986,0.22917 -82.446059,-0.0104 -92.9646737,-0.0369 -93.5258792,-0.23547 z M 110.71149,85.121771 c -2.73854,-0.255342 -6.14183,-0.966337 -8.0769,-1.687382 -1.43876,-0.536113 -2.845561,-1.608177 -3.607429,-2.749083 -0.736989,-1.103651 -1.282036,-2.753217 -1.159405,-3.508902 0.10228,-0.630285 0.472326,-1.23339 0.756767,-1.23339 0.306096,0 0.762472,0.838725 1.028045,1.889335 0.318964,1.261825 0.733072,2.024011 1.594582,2.93494 1.11255,1.17635 3.35173,2.033363 7.24134,2.771503 2.33686,0.443472 7.18816,0.471811 9.4107,0.05497 2.82807,-0.530403 6.07476,-1.677356 8.10232,-2.862298 3.98289,-2.32767 6.24477,-7.642576 6.232,-14.643752 -0.005,-2.944921 -0.35957,-5.102015 -1.29979,-7.915749 -0.88453,-2.647089 -1.47376,-3.674254 -2.94238,-5.129269 -1.37191,-1.359188 -2.89546,-2.242749 -4.69123,-2.720597 -2.54834,-0.678104 -4.31124,-0.540652 -7.32008,0.570742 -2.99102,1.104807 -3.13696,1.139093 -3.48973,0.819841 -0.16324,-0.147734 -0.29681,-0.34722 -0.29681,-0.443304 0,-0.09608 0.36723,-0.427616 0.81607,-0.73674 0.44883,-0.309123 1.37411,-1.148456 2.05616,-1.865182 1.00665,-1.057817 1.38224,-1.591358 1.99509,-2.834141 2.06335,-4.18421 2.407,-9.891754 0.83291,-13.833524 -1.32219,-3.310947 -3.83083,-5.883571 -7.36991,-7.557862 -2.33422,-1.104286 -3.37444,-1.332998 -6.03672,-1.327284 -2.21274,0.0047 -2.35032,0.02318 -3.74634,0.501788 -4.680738,1.604748 -9.395549,5.871017 -11.822307,10.697596 -1.277465,2.540751 -2.252099,6.084814 -2.238619,8.140288 0.0095,1.454325 0.215809,2.298882 0.928233,3.800577 0.989745,2.086248 2.816229,3.621434 5.089397,4.277711 1.143819,0.330227 2.353231,0.22721 4.30554,-0.366742 2.204847,-0.670781 2.669175,-0.562193 1.66725,0.389903 -1.822599,1.731955 -5.192139,1.834364 -8.39167,0.255043 -1.165154,-0.575132 -1.607357,-0.904322 -2.7417,-2.041013 -2.01703,-2.021207 -3.125652,-4.232534 -3.515816,-7.012873 -0.445935,-3.177778 0.724642,-7.233775 2.94737,-10.2125 2.192531,-2.938258 6.846481,-6.638498 10.363679,-8.239906 2.886333,-1.314167 4.770243,-1.676802 8.711083,-1.676802 4.2144,0 6.25173,0.381474 9.05782,1.696003 4.09467,1.918174 6.77661,5.269822 7.71483,9.641297 0.40826,1.902222 0.36554,6.190393 -0.0826,8.287718 -0.58898,2.75666 -1.52848,4.743965 -3.16684,6.698736 -0.46868,0.559198 -0.85215,1.042638 -0.85215,1.07431 0,0.03167 1.25044,0.05034 2.77875,0.04148 3.23291,-0.01874 4.29127,0.190188 6.68405,1.319511 1.80929,0.853934 2.93958,1.675795 4.40379,3.20211 3.77087,3.930812 5.17748,9.229827 4.12426,15.536937 -0.47072,2.818855 -1.74071,5.986628 -3.2292,8.0547 -2.24709,3.122045 -4.86695,4.978352 -8.89467,6.302337 -4.51794,1.485128 -9.37004,2.058475 -13.86978,1.63892 z M 68.103992,83.728308 c -4.595735,-1.002373 -7.6323,-4.748393 -7.6323,-9.415494 0,-1.500925 0.391492,-3.212415 0.994093,-4.345893 0.567029,-1.066569 2.429918,-2.901279 3.600107,-3.545651 0.529815,-0.291747 1.76358,-0.777671 2.7417,-1.079833 0.97812,-0.30216 2.04516,-0.683568 2.3712,-0.847572 0.32604,-0.164004 1.52646,-1.245997 2.667601,-2.404431 2.239011,-2.272943 3.61549,-3.291465 5.519386,-4.08406 1.926828,-0.802139 3.167877,-1.054112 5.615049,-1.140034 3.324669,-0.11673 5.138274,0.236161 9.787292,1.904407 0.992159,0.356024 1.833613,0.614344 1.869898,0.574042 0.303339,-0.336907 7.153132,-12.97231 7.919142,-14.607968 l 0.41123,-0.878106 0.075,-5.0388 c 0.0704,-4.727989 0.0943,-5.079936 0.38742,-5.705699 0.48609,-1.03774 0.94708,-1.378386 1.96502,-1.452017 1.10275,-0.07976 1.82729,0.243971 2.3652,1.056805 0.35023,0.529232 0.39422,0.737945 0.39341,1.866389 -7.4e-4,1.044004 -0.0987,1.58759 -0.54907,3.048922 -0.30149,0.97812 -0.79926,2.71206 -1.10618,3.8532 l -0.55802,2.0748 -0.0499,8.85495 -0.05,8.85495 2.49085,-0.0012 c 1.36996,-7.41e-4 3.09105,-0.06811 3.82464,-0.149879 3.55165,-0.395857 7.17305,-1.452132 10.45441,-3.049289 1.90259,-0.926093 2.3649,-1.085986 2.3649,-0.817948 0,0.213531 -1.05078,1.177269 -1.90425,1.746513 -2.47244,1.649057 -6.54127,2.659975 -13.98198,3.473882 l -3.06599,0.335375 -0.0457,7.345216 c -0.0366,5.873389 -0.0864,7.419456 -0.24878,7.715715 -0.27137,0.495202 -1.07437,1.3338 -1.27718,1.3338 -0.0893,0 -0.458,-0.301225 -0.81933,-0.66939 -0.63109,-0.643029 -0.66107,-0.714521 -0.76131,-1.81545 -0.0574,-0.630333 -0.1091,-3.954718 -0.1149,-7.387523 -0.0127,-7.49167 0.13476,-6.941578 -1.90041,-7.091177 -0.71304,-0.05241 -1.83972,-0.258458 -2.50373,-0.457879 -1.993131,-0.598587 -2.884256,-0.453316 -3.942074,0.64264 -0.292442,0.302984 -1.358358,1.789233 -2.368707,3.302777 -3.260568,4.884468 -5.770873,8.021534 -9.004741,11.253002 -4.357126,4.353894 -7.170579,6.115457 -10.769589,6.743072 -1.537156,0.268058 -3.946183,0.270308 -5.163397,0.0048 z m 5.464268,-1.929976 c 1.443078,-0.305738 2.889269,-1.07046 4.735807,-2.504218 3.777264,-2.932885 9.142274,-8.357383 11.719938,-11.849891 1.004211,-1.360618 4.533689,-6.440686 4.533689,-6.525455 0,-0.112088 -2.091943,-0.933055 -3.592542,-1.409866 -5.791653,-1.840282 -11.413601,-1.107122 -15.504725,2.02198 -1.253769,0.958947 -3.219806,3.292147 -2.959492,3.512186 0.02698,0.02281 0.349163,0.225209 0.715958,0.449784 2.174454,1.331335 2.587852,3.001411 1.087681,4.394094 -0.990809,0.919815 -1.928552,1.086168 -3.019319,0.535618 -0.85444,-0.431266 -1.271593,-1.175223 -1.405252,-2.506143 -0.100469,-1.000429 -0.106,-1.010752 -0.494208,-0.922526 -0.786576,0.178759 -2.783722,1.23176 -3.452208,1.820185 -1.984972,1.747243 -2.504604,4.176946 -1.520858,7.111248 0.543089,1.619916 1.155085,2.613182 2.347798,3.810461 1.93545,1.94286 4.172959,2.620759 6.807733,2.062543 z M 73.376492,69.137214 c 0.770135,-0.770133 0.545853,-1.766615 -0.505006,-2.243743 -0.977207,-0.443689 -1.321328,-0.379757 -1.925662,0.357753 l -0.528373,0.644811 0.547571,0.516047 c 0.775859,0.73119 1.393057,1.148184 1.70752,1.153637 0.148913,0.0026 0.46569,-0.190244 0.70395,-0.428505 z m 30.369598,-14.4856 c 0,-3.477758 -0.0432,-6.280037 -0.0959,-6.227283 -0.2014,0.201396 -6.424886,11.13072 -6.424886,11.283005 0,0.141086 5.286986,1.211106 6.187346,1.252244 l 0.33345,0.01523 0,-6.323201 z m 3.40634,-19.435295 c 0.001,-0.586114 -0.053,-0.90082 -0.14594,-0.843403 -0.0815,0.05038 -0.14717,0.571159 -0.14593,1.157296 0.002,0.742779 0.0458,0.998344 0.14593,0.843404 0.079,-0.122265 0.14469,-0.643049 0.14594,-1.157297 z"
       id="path6626"
       style="fill:#efd4ce" /><path
       d="m 5.3498044,328.02242 c -3.5059856,-1.59048 -6.1552681,-7.9468 -6.8228502,-16.36979 -0.2152005,-2.71523 -0.2247686,-68.84697 -0.010324,-71.35582 0.7153684,-8.36931 3.1881015,-14.48053 6.5839671,-16.27192 l 0.7593917,-0.40058 10.299901,-0.0741 10.2999,-0.0741 0.08742,-27.8616 c 0.08915,-28.41329 0.09159,-28.53001 0.663625,-31.86007 0.711047,-4.13927 2.100366,-7.85995 3.741035,-10.0187 0.829823,-1.09187 1.362764,-1.5799 2.37517,-2.17505 l 0.690949,-0.40618 7.4841,-0.0741 7.4841,-0.0741 0.01731,-22.1559 c 0.01212,-15.52204 0.0695,-22.79931 0.191621,-24.3048 0.567078,-6.990682 2.31007,-12.460221 4.780007,-14.999744 0.461633,-0.47464 1.161878,-1.011834 1.5561,-1.193767 l 0.716767,-0.330785 39.862104,-0.0384 c 26.592972,-0.02562 40.134662,0.01186 40.680902,0.112583 3.28647,0.605992 5.94533,5.960216 7.06735,14.231713 0.22325,1.64574 0.25996,4.40961 0.33556,25.2635 l 0.0849,23.4156 9.4848,0.0741 9.4848,0.0741 0.64458,0.34398 c 3.06486,1.63555 5.4562,6.8047 6.4912,14.03142 0.23109,1.61354 0.26247,4.3818 0.33855,29.8623 l 0.0839,28.0839 10.5222,0.0741 10.5222,0.0741 0.741,0.39208 c 0.95768,0.50674 2.37687,1.99797 3.15289,3.31292 1.30948,2.21889 2.53459,6.06307 3.05586,9.58875 0.53272,3.60318 0.55273,5.2342 0.49751,40.57695 -0.0496,31.71385 -0.0762,34.89545 -0.3047,36.3831 -0.43586,2.83727 -0.85412,4.68344 -1.52366,6.72508 -1.28493,3.91817 -3.05378,6.48702 -5.10872,7.41923 -0.6578,0.29841 -0.73925,0.29868 -93.505684,0.29868 -92.7664348,0 -92.8478784,0 -93.5056898,-0.29868 z M 110.19279,84.957518 c -1.86944,-0.187774 -5.42174,-0.921077 -6.95047,-1.43479 -2.23351,-0.750544 -3.715403,-1.970305 -4.62563,-3.80741 -0.635321,-1.282262 -0.800461,-2.459431 -0.442208,-3.152216 0.134213,-0.259538 0.298665,-0.471888 0.365448,-0.471888 0.298032,0 0.669046,0.66772 0.976588,1.757577 0.395563,1.401786 0.924342,2.353221 1.756902,3.161188 0.77445,0.751576 1.58397,1.15959 3.43829,1.73294 7.1629,2.214762 14.42981,1.664046 20.7244,-1.570578 1.07597,-0.552914 1.61455,-0.957136 2.61479,-1.962485 1.37066,-1.37767 2.12649,-2.544576 2.83298,-4.373777 1.12084,-2.901972 1.53123,-5.622609 1.42021,-9.415264 -0.0913,-3.120507 -0.35411,-4.628488 -1.30363,-7.481126 -0.80913,-2.430838 -1.41649,-3.461329 -2.93615,-4.98163 -1.03538,-1.035825 -1.52737,-1.400228 -2.63473,-1.951487 -1.87752,-0.934653 -3.16172,-1.198634 -5.43032,-1.116263 -1.56349,0.05677 -1.98127,0.12954 -3.13747,0.546505 -3.51496,1.267624 -4.03937,1.415875 -4.28558,1.211539 -0.12898,-0.107046 -0.23452,-0.24762 -0.23452,-0.312383 0,-0.06477 0.56701,-0.5605 1.26001,-1.101634 2.64901,-2.068499 4.13505,-4.597858 5.00365,-8.516627 0.4646,-2.096099 0.46121,-6.066431 -0.007,-7.919364 -1.02997,-4.078064 -3.71611,-7.342155 -7.66479,-9.313929 -4.44543,-2.219833 -8.85433,-2.125634 -13.041596,0.278644 -3.764429,2.161491 -7.204303,5.732577 -9.033941,9.378535 -0.716201,1.427188 -1.515527,3.650043 -1.934702,5.38023 -0.430475,1.776834 -0.483691,3.598779 -0.14413,4.934603 0.772236,3.037958 3.099853,5.476202 5.93193,6.213865 1.200955,0.312808 1.853856,0.285344 3.402443,-0.143121 2.177055,-0.602352 2.734955,-0.723501 2.841434,-0.617022 0.18966,0.18966 -0.720449,0.959097 -1.633409,1.380939 -0.841715,0.388923 -1.048006,0.421187 -2.690025,0.420715 -1.954232,-5.93e-4 -2.622062,-0.160691 -4.371901,-1.048268 C 88.1642,49.600647 86.381829,47.741662 85.297348,45.487915 83.826946,42.43216 83.6667,39.404989 84.795262,36.003116 c 1.075522,-3.241995 3.066187,-5.879333 6.575901,-8.712103 4.952298,-3.997112 9.395577,-5.737397 14.648657,-5.737397 7.42888,0 13.30219,3.15338 15.69262,8.425365 0.81242,1.791741 1.17436,3.54501 1.25892,6.098235 0.17311,5.226921 -1.0621,9.129837 -3.88122,12.263549 -0.38497,0.427928 -0.64375,0.786435 -0.57506,0.796685 0.0687,0.01024 1.39199,0.02793 2.94068,0.0393 3.70809,0.02721 5.2799,0.42015 7.99551,1.998793 1.39182,0.809098 3.72309,3.027409 4.67288,4.446462 2.00957,3.002433 2.96928,6.68928 2.76915,10.638009 -0.32812,6.473988 -3.1193,11.867874 -7.74098,14.959268 -4.30481,2.879438 -12.1365,4.423589 -18.95976,3.738237 z m -42.459298,-1.46302 c -3.487503,-0.899868 -6.101809,-3.486684 -6.882857,-6.810484 -0.265453,-1.129653 -0.299404,-3.358724 -0.06817,-4.475755 0.494721,-2.389872 2.359345,-4.698349 4.728029,-5.853484 0.692835,-0.337873 1.916604,-0.797268 2.719487,-1.020877 1.90132,-0.529533 2.792593,-1.12118 4.525291,-3.00399 3.055452,-3.320161 6.244129,-4.965429 10.379216,-5.35538 2.954096,-0.278581 5.818838,0.209132 9.939521,1.692167 1.262477,0.454366 2.371105,0.82612 2.463618,0.82612 0.278235,0 7.503603,-13.174993 8.311473,-15.155427 0.37481,-0.918832 0.37646,-0.942157 0.27961,-3.962373 -0.21314,-6.647029 0.34112,-8.629799 2.41238,-8.629799 1.03056,0 1.77472,0.411672 2.20088,1.217537 0.50586,0.956605 0.45645,2.092223 -0.18818,4.325261 -0.29013,1.005015 -0.80358,2.860996 -1.141,4.124401 l -0.61349,2.2971 -0.008,8.8179 -0.008,8.8179 2.2971,0.04224 c 5.27964,0.09708 10.24899,-1.015721 14.87268,-3.330485 0.88483,-0.442971 1.65176,-0.760878 1.7043,-0.706457 0.19976,0.206912 -1.573,1.57696 -2.85967,2.210045 -2.75657,1.356322 -6.77388,2.19403 -14.08781,2.937646 l -1.7784,0.180813 -0.0741,7.507561 -0.0741,7.507561 -0.45127,0.557397 c -0.73938,0.913257 -0.86994,0.944428 -1.48848,0.355376 -0.97061,-0.924325 -0.95015,-0.742747 -0.95015,-8.432063 0,-4.859512 -0.0506,-7.074199 -0.16742,-7.330643 -0.219,-0.480658 -0.68083,-0.641787 -2.17209,-0.757834 -0.67541,-0.05256 -1.704106,-0.257491 -2.286005,-0.455408 -2.59407,-0.882301 -3.390319,-0.398221 -6.11178,3.715653 -3.210057,4.852459 -6.112128,8.489762 -9.282104,11.633699 -4.285433,4.250232 -7.262592,6.08479 -10.806196,6.658894 -1.552233,0.251481 -4.063514,0.183318 -5.335201,-0.14481 z m 6.739696,-1.839929 c 1.398822,-0.469568 2.475762,-1.118466 4.375305,-2.636292 3.327754,-2.659034 7.710643,-7.023997 10.305111,-10.262963 1.576192,-1.967737 5.586045,-7.754185 5.48582,-7.916353 -0.148512,-0.240297 -3.18837,-1.363413 -4.972331,-1.837091 -1.626994,-0.432003 -1.842106,-0.452978 -4.7424,-0.462442 -2.729327,-0.0089 -3.166129,0.02485 -4.2978,0.332134 -2.824005,0.766803 -5.665009,2.535648 -7.209578,4.488773 -0.772017,0.976225 -1.15766,1.597242 -1.055379,1.699522 0.03204,0.03204 0.462047,0.319241 0.95557,0.638219 1.530012,0.988894 2.056073,1.997385 1.605017,3.076913 -0.811506,1.942204 -3.292666,2.461139 -4.391182,0.918415 -0.323497,-0.45431 -0.561733,-1.60499 -0.332296,-1.60499 0.07336,0 0.462802,0.272219 0.865428,0.604929 1.400825,1.157574 1.830658,1.228151 2.516411,0.41318 0.776929,-0.923329 0.275166,-2.119449 -1.04257,-2.485311 -0.904494,-0.251128 -1.042899,-0.208246 -1.626452,0.503903 -0.673569,0.822001 -0.95537,0.860976 -0.95537,0.132133 0,-0.609246 -0.04503,-0.610667 -1.546696,-0.04882 -3.204949,1.199123 -5.037486,4.003253 -4.549041,6.960893 0.965668,5.847348 5.649755,9.151168 10.612433,7.485251 z M 103.89429,54.602215 c 0,-3.58644 -0.0522,-6.5208 -0.11603,-6.5208 -0.14574,0 -6.702619,11.418407 -6.701781,11.67075 2.96e-4,0.101887 0.01729,0.188414 0.03766,0.19228 3.974511,0.754171 6.185071,1.153479 6.446701,1.16451 l 0.33345,0.01406 0,-6.5208 z m 3.33602,-18.636149 c 0.0936,-1.613901 0.0788,-1.81545 -0.13334,-1.81545 -0.20738,0 -0.23868,0.256504 -0.23868,1.95624 0,2.436608 0.22746,2.350526 0.37202,-0.14079 z"
       id="path6624"
       style="fill:#f2c4b9" /><path
       d="m 5.5613945,328.016 c -3.3788062,-1.78267 -5.5804104,-6.4593 -6.6959738,-14.22349 -0.2142658,-1.49127 -0.2499402,-4.23787 -0.2996548,-23.07065 -0.035285,-13.36683 -0.1092039,-21.37785 -0.197255,-21.37785 -0.084881,0 -0.1408221,-1.35406 -0.1408221,-3.4086 0,-2.17361 0.053696,-3.4086 0.1482,-3.4086 0.097287,0 0.148955,-3.37302 0.1503978,-9.81825 0.00281,-12.54544 0.1600465,-14.96753 1.25408997,-19.31797 1.16204649,-4.62085 3.08590973,-7.95977 5.28978463,-9.18056 l 0.789828,-0.43752 10.3338118,-0.0409 c 10.039738,-0.0398 10.338174,-0.0491 10.487086,-0.32732 0.10421,-0.19472 0.129292,-5.49471 0.07836,-16.55746 -0.10299,-22.36955 -0.10386,-21.72017 0.04243,-31.68389 0.117013,-7.96982 0.162867,-9.08412 0.442153,-10.7445 1.108573,-6.59057 3.414343,-11.32339 6.213306,-12.75343 l 0.709059,-0.36227 7.325631,-0.0411 c 5.068519,-0.0285 7.386363,-0.0915 7.522736,-0.20471 0.162515,-0.13488 0.194425,-4.02883 0.181831,-22.18887 -0.01705,-24.58938 0.01719,-25.65324 0.973791,-30.255993 1.050156,-5.052885 3.144766,-9.010843 5.327986,-10.067721 0.619402,-0.299847 0.732208,-0.300672 41.111945,-0.300672 l 40.490835,0 0.71728,0.363474 c 2.56215,1.29834 4.82193,6.333595 5.72288,12.751762 0.48875,3.48177 0.54332,6.39166 0.52639,28.07382 -0.0135,17.27264 0.0206,21.57627 0.17134,21.67198 0.10348,0.0657 4.29788,0.12044 9.32088,0.12169 7.79406,0.002 9.22643,0.0353 9.77207,0.22785 3.02882,1.06863 5.63842,6.13323 6.71887,13.03976 0.51006,3.26042 0.56446,6.31319 0.58625,32.89896 l 0.0215,26.2314 10.5963,0.0741 10.5963,0.0741 0.63653,0.33987 c 1.72905,0.92321 3.35875,3.19642 4.56065,6.36154 0.60234,1.5862 1.34703,4.69012 1.61004,6.71069 0.13261,1.01887 0.31185,2.20813 0.39828,2.64281 0.21124,1.0624 0.19667,71.1429 -0.015,72.33209 -0.0812,0.45617 -0.25623,1.62968 -0.38891,2.6078 -0.50839,3.74769 -1.74892,7.65005 -3.16169,9.9457 -0.82489,1.34041 -2.26329,2.77398 -3.29223,3.28115 l -0.6765,0.33345 -92.685059,0 -92.6850672,0 L 5.5613945,328.016 z M 110.34099,84.883503 c -3.62764,-0.451211 -7.0405,-1.281223 -8.56746,-2.083619 -1.851217,-0.972786 -3.071285,-2.488491 -3.574507,-4.440645 -0.217496,-0.843734 -0.217198,-0.967044 0.0037,-1.51905 0.132209,-0.330425 0.298292,-0.600775 0.369074,-0.600775 0.229172,0 0.598945,0.705318 0.826381,1.57627 0.443634,1.698858 1.550012,3.274295 2.867972,4.083845 0.56292,0.34577 2.35623,0.963439 3.96793,1.366671 6.15804,1.540677 11.90524,1.150051 17.49025,-1.188776 0.84003,-0.351776 1.92786,-0.882904 2.41739,-1.180284 2.69487,-1.637042 4.57062,-4.45219 5.55675,-8.339602 1.19906,-4.726866 1.0129,-9.701751 -0.54003,-14.430939 -0.75835,-2.309436 -1.45733,-3.60304 -2.63296,-4.872823 -1.60006,-1.728229 -3.26177,-2.698233 -5.57062,-3.251793 -2.24817,-0.539012 -4.41465,-0.337971 -6.98224,0.647923 -2.66128,1.021872 -3.48933,1.17885 -3.47888,0.65951 0.002,-0.104446 0.33643,-0.415534 0.74296,-0.691306 0.40652,-0.275774 1.30661,-1.097726 2.00019,-1.826565 1.06828,-1.122572 1.38374,-1.578345 2.06351,-2.981295 1.68561,-3.478878 2.24587,-7.887519 1.47673,-11.620183 -1.03335,-5.014817 -4.8917,-9.073205 -10.22559,-10.755728 -3.45702,-1.090482 -6.53296,-0.824754 -9.918321,0.856836 -4.096939,2.035047 -7.809136,5.775432 -9.929177,10.004574 -1.234876,2.463381 -2.301007,6.207686 -2.294751,8.059288 0.0094,2.788014 1.55455,5.7344 3.802978,7.251845 2.112127,1.425456 3.874182,1.656688 6.56845,0.861968 0.855855,-0.252449 1.684432,-0.459411 1.841283,-0.459916 0.263911,-8.89e-4 0.258995,0.02696 -0.06591,0.3728 -0.193101,0.205544 -0.721573,0.555667 -1.174385,0.77805 -0.775853,0.381033 -0.938576,0.403962 -2.823992,0.39792 -1.784472,-0.0057 -2.108679,-0.04773 -2.999798,-0.388702 -5.279126,-2.019981 -8.311781,-7.724981 -7.139515,-13.430785 0.648516,-3.156541 1.967171,-5.475511 4.655912,-8.187826 4.992993,-5.03677 10.321625,-7.668655 16.079696,-7.941987 6.10272,-0.289692 12.07041,2.067457 14.9823,5.917787 2.12154,2.805269 3.09825,6.722354 2.73095,10.952431 -0.37289,4.294441 -1.46801,7.106001 -3.79808,9.750993 l -0.8486,0.9633 3.24792,0.08517 c 2.97775,0.07808 3.35886,0.118892 4.58172,0.490593 4.15871,1.264089 7.689,4.461832 9.41822,8.531043 0.86954,2.046229 1.20809,3.684873 1.28791,6.233771 0.11718,3.742225 -0.46102,6.733607 -1.87858,9.719024 -1.94785,4.102232 -4.94594,6.983192 -8.8594,8.513276 -2.02458,0.791576 -5.58645,1.688361 -7.8734,1.982321 -1.66616,0.214164 -6.49684,0.297973 -7.80396,0.135391 z M 68.844992,83.644528 c -1.270996,-0.195574 -2.941327,-0.818608 -4.018496,-1.498902 -4.577361,-2.890864 -5.584837,-9.777197 -1.997321,-13.652142 1.366147,-1.475603 2.869485,-2.343116 5.19211,-2.996149 2.225587,-0.625751 2.678897,-0.920859 4.899208,-3.189427 3.291606,-3.363149 5.732812,-4.663986 9.764486,-5.20317 2.883953,-0.385692 6.01922,0.105698 10.202942,1.599103 1.539733,0.549617 2.783509,0.917734 2.85359,0.844568 0.343655,-0.358783 6.773709,-12.18899 7.883929,-14.505094 l 0.63935,-1.3338 -0.0458,-4.0014 c -0.0612,-5.348274 0.16396,-6.787909 1.17741,-7.527882 1.00147,-0.731218 2.71509,-0.29577 3.29074,0.836209 0.4568,0.898281 0.37502,2.329643 -0.25108,4.394573 -0.28421,0.937365 -0.76066,2.63796 -1.05877,3.7791 -0.68652,2.627978 -0.79851,4.489872 -0.80831,13.438564 -0.007,5.919581 0.0146,6.494874 0.24675,6.72701 0.22782,0.227817 0.53555,0.24522 3.00105,0.169721 5.47583,-0.167682 9.46584,-1.097948 13.87465,-3.234853 0.82194,-0.398388 1.5492,-0.724342 1.61612,-0.724342 0.25526,0 -0.48207,0.663293 -1.40626,1.265053 -2.65781,1.730546 -6.63707,2.678943 -14.85519,3.540507 -1.11973,0.11739 -2.10341,0.255173 -2.18595,0.306184 -0.098,0.06058 -0.15007,2.636532 -0.15007,7.427262 0,7.971045 0.0255,7.713309 -0.84604,8.541498 l -0.4279,0.406603 -0.65978,-0.672089 -0.65978,-0.67209 -0.0741,-7.40065 -0.0741,-7.400648 -0.39759,-0.397444 c -0.35335,-0.353214 -0.55126,-0.409166 -1.7784,-0.502778 -0.80356,-0.0613 -1.895139,-0.268224 -2.611106,-0.494971 -1.369926,-0.433856 -1.629347,-0.458112 -2.453167,-0.22936 -0.929934,0.258214 -1.804823,1.23121 -3.795162,4.220731 -3.809674,5.722196 -7.159444,9.760238 -10.773702,12.987358 -3.565597,3.183671 -5.479482,4.290941 -8.543757,4.942959 -1.316249,0.280073 -3.648527,0.382832 -4.770514,0.210188 z m 5.044714,-1.700696 c 2.037983,-0.515862 4.43161,-2.147867 8.15265,-5.558582 2.288824,-2.097939 5.97881,-6.02281 7.521651,-8.000436 0.888097,-1.13837 4.781162,-6.658766 5.195793,-7.367673 0.221571,-0.378826 -3.077358,-1.670124 -5.856867,-2.292549 -1.307569,-0.292809 -1.925126,-0.341683 -4.20054,-0.33243 -2.398626,0.0098 -2.815114,0.05045 -4.130601,0.403593 -3.380516,0.907507 -6.288646,2.919085 -8.012129,5.542056 -0.224529,0.341713 -0.368574,0.68547 -0.320099,0.763905 0.04848,0.07843 0.442229,0.342446 0.875007,0.586691 0.878596,0.495849 1.680499,1.32603 1.820791,1.884999 0.256679,1.022691 -0.589052,2.360358 -1.779844,2.815126 -1.134786,0.433378 -2.354542,-0.12133 -2.818937,-1.28197 -0.365125,-0.912537 -0.104834,-0.98133 0.822978,-0.217504 1.105922,0.910456 1.454143,1.026513 2.029724,0.676481 0.465638,-0.283172 0.91681,-0.973615 0.91681,-1.403025 0,-0.769383 -0.898522,-1.535918 -2.060538,-1.757859 -0.459974,-0.08785 -0.558472,-0.03749 -1.117499,0.571407 -0.337185,0.367264 -0.660381,0.667752 -0.718214,0.667752 -0.05783,0 -0.10515,-0.194512 -0.10515,-0.43225 0,-0.563696 -0.205761,-0.615967 -1.152299,-0.29272 -2.148414,0.733689 -3.921426,2.14669 -4.701711,3.747029 -1.482286,3.04012 0.353935,8.212976 3.670993,10.34162 1.706827,1.095316 3.949753,1.447214 5.968031,0.936339 z M 103.95254,61.036793 c 0.14231,-0.370854 0.10005,-12.858179 -0.0443,-13.086074 -0.16302,-0.257397 0.1262,-0.723576 -3.78901,6.107276 -1.767265,3.083342 -3.180215,5.692061 -3.139889,5.797151 0.04237,0.110422 0.68837,0.301218 1.530483,0.452028 0.801437,0.143527 2.224096,0.412325 3.161456,0.597329 2.11152,0.416743 2.17078,0.420179 2.28125,0.13229 z m 3.20215,-23.044524 c 0,-0.08786 0.0733,-0.963455 0.16299,-1.945767 0.12926,-1.416525 0.12438,-1.80988 -0.0236,-1.901343 -0.49557,-0.306276 -0.58398,-1.7e-4 -0.58398,2.022012 0,1.665506 0.0358,1.984844 0.2223,1.984844 0.12227,0 0.2223,-0.07189 0.2223,-0.159746 z"
       id="path6622"
       style="fill:#f59d85" /><path
       d="m -1.5870612,269.39406 c -0.1406009,-0.0567 -0.18525,-0.8895 -0.18525,-3.45514 0,-2.94577 0.03014,-3.39197 0.2344209,-3.47035 0.3065285,-0.11763 200.3320403,-0.11763 200.6385703,0 0.20427,0.0784 0.23442,0.52427 0.23442,3.46684 0,2.94257 -0.0302,3.38846 -0.23442,3.46684 -0.28061,0.10768 -200.4208365,0.0995 -200.6877412,-0.008 z m 11.3002506,-19.7366 c -0.9469684,-0.57771 -1.8156361,-2.35158 -2.2300767,-4.55392 -0.3530136,-1.87591 -0.2342737,-5.74244 0.2249805,-7.32603 1.4925098,-5.14646 4.5924828,-5.14646 6.0849918,0 0.45997,1.58607 0.577915,5.44866 0.224,7.3358 -0.417917,2.22841 -1.36614,4.10963 -2.320089,4.60293 -0.566735,0.29308 -1.449967,0.26691 -1.9838066,-0.0588 z m 43.9752876,-0.0243 c -0.931298,-0.56781 -1.759595,-2.26083 -2.173442,-4.44246 -0.268429,-1.41504 -0.310657,-4.83843 -0.07602,-6.16343 0.795285,-4.49112 3.266417,-6.47847 5.029388,-4.04476 1.903082,2.62713 2.161067,9.70422 0.478992,13.13987 -0.559465,1.14271 -1.348652,1.80757 -2.144775,1.80687 -0.367093,0 -0.831442,-0.12373 -1.114138,-0.29609 z m 43.597771,0.0164 c -3.134021,-1.91112 -3.427626,-12.11941 -0.43224,-15.02849 0.910586,-0.88435 1.870544,-0.91484 2.810824,-0.0893 1.170918,1.02808 1.984628,3.56825 2.112818,6.59561 0.16104,3.8032 -0.6477,6.88066 -2.169502,8.25551 -0.497931,0.44985 -0.716963,0.54675 -1.234731,0.54631 -0.354726,0 -0.829197,-0.12238 -1.087169,-0.27968 z m 43.710062,-0.22833 c -2.40969,-2.06261 -3.00481,-9.27381 -1.10268,-13.36127 0.73131,-1.57151 1.81569,-2.34785 2.89947,-2.07584 1.01543,0.25486 2.01909,1.79352 2.61933,4.01557 0.26933,0.99704 0.32221,1.60985 0.33245,3.8532 0.0105,2.29188 -0.034,2.8499 -0.31604,3.96193 -0.4186,1.65065 -1.03802,2.87492 -1.80529,3.56811 -0.52122,0.47089 -0.70448,0.54686 -1.3192,0.54686 -0.59895,0 -0.80957,-0.0819 -1.30804,-0.50856 z m 44.09782,0.28779 c -0.8119,-0.44137 -1.62507,-1.89787 -2.15213,-3.85473 -0.22895,-0.85011 -0.27921,-1.55915 -0.27832,-3.9273 0.001,-2.57212 0.0386,-3.01974 0.34184,-4.07068 1.50756,-5.22408 4.60442,-5.26404 6.10818,-0.0788 0.45997,1.58607 0.57791,5.44866 0.22399,7.3358 -0.41791,2.22841 -1.36614,4.10963 -2.32009,4.60293 -0.51973,0.26877 -1.42203,0.26539 -1.92347,-0.007 z M 26.86734,190.84806 c -0.140763,-0.0568 -0.18525,-0.90432 -0.18525,-3.52924 0,-3.01333 0.02994,-3.46598 0.234422,-3.54445 0.128931,-0.0495 32.471236,-0.09 71.871788,-0.09 70.67409,0 71.63944,0.004 71.79078,0.28666 0.0915,0.17103 0.15342,1.51997 0.15342,3.34424 0,1.82427 -0.0619,3.17321 -0.15342,3.34424 -0.15136,0.28284 -1.11104,0.2865 -71.83995,0.27497 -39.427597,-0.006 -71.769902,-0.0453 -71.87179,-0.0865 z m 10.707451,-15.74009 c -0.953575,-0.59223 -1.600465,-1.6671 -2.152207,-3.57606 -0.411827,-1.42487 -0.573829,-5.21021 -0.296543,-6.92908 0.372085,-2.30655 1.306869,-4.31269 2.293741,-4.92261 0.569586,-0.35202 1.407361,-0.38866 1.990616,-0.087 0.93029,0.48107 1.813971,2.15892 2.250082,4.27226 0.321155,1.55628 0.390176,4.95022 0.130493,6.4167 -0.661893,3.73784 -2.528309,5.87413 -4.216182,4.82583 z m 39.865802,0 c -0.964692,-0.59914 -1.604892,-1.67421 -2.176473,-3.65488 -0.303279,-1.05094 -0.340869,-1.49856 -0.341838,-4.07068 -8.89e-4,-2.37486 0.04895,-3.07479 0.279678,-3.9273 0.754881,-2.78917 1.767912,-4.0755 3.20962,-4.0755 0.569715,0 0.714334,0.0775 1.323533,0.70957 1.088514,1.12931 1.694808,3.13138 1.87203,6.18173 0.338072,5.81888 -1.782944,10.31746 -4.16655,8.83706 z m 39.495297,-0.0471 c -1.64083,-1.10869 -2.66557,-4.63541 -2.47991,-8.53479 0.10133,-2.12826 0.42523,-3.62952 1.08159,-5.01305 0.66588,-1.4036 1.4617,-2.13365 2.325,-2.13289 1.49255,10e-4 2.55403,1.38827 3.23146,4.2223 0.79676,3.33328 0.40619,7.51019 -0.94023,10.05522 -0.82357,1.55671 -2.1407,2.13107 -3.21791,1.40321 z m 39.89242,0.0751 c -0.95217,-0.4692 -1.90333,-2.22616 -2.35224,-4.34496 -0.39605,-1.86934 -0.3574,-5.40208 0.0785,-7.17063 0.43738,-1.77475 1.07347,-3.06361 1.83273,-3.7135 0.52105,-0.446 0.72601,-0.52727 1.32988,-0.52727 0.61179,0 0.79855,0.0765 1.30569,0.53465 1.24941,1.12877 2.04621,3.5668 2.17438,6.65305 0.23602,5.68443 -1.86393,9.80306 -4.3689,8.56866 z M 49.213705,123.67316 c -0.163994,-0.30643 -0.220562,-6.18312 -0.06346,-6.59253 0.08177,-0.21308 4.403389,-0.23442 47.482247,-0.23442 43.078858,0 47.400478,0.0213 47.482248,0.23442 0.1571,0.40941 0.10054,6.2861 -0.0635,6.59253 -0.15118,0.28249 -0.84057,0.28665 -47.418788,0.28665 -46.578213,0 -47.267604,-0.004 -47.418789,-0.28665 z m 13.629187,-15.22735 c -0.122265,-0.0462 -0.411916,-0.25905 -0.64367,-0.47304 -2.362417,-2.18127 -2.685153,-11.001092 -0.527221,-14.408059 1.415752,-2.235204 3.237319,-1.078563 4.168808,2.647068 0.436947,1.747634 0.477938,6.246291 0.07459,8.185631 -0.297941,1.43253 -1.182117,3.326 -1.738703,3.72345 -0.426014,0.30422 -1.011234,0.44679 -1.3338,0.32495 z m 33.641402,0 c -2.232168,-0.84318 -3.364671,-7.79225 -2.061854,-12.651612 0.962402,-3.589656 2.97061,-4.45276 4.219237,-1.81338 0.730398,1.543934 1.008421,3.333042 1.008421,6.489292 0,3.21846 -0.294241,5.04793 -1.052207,6.54218 -0.575126,1.13379 -1.409293,1.69956 -2.113597,1.43352 z m 33.212196,-0.15347 c -2.61285,-1.28707 -3.23902,-10.795837 -0.96631,-14.673921 0.40004,-0.682623 1.11568,-1.224097 1.61782,-1.224097 0.51421,0 1.22141,0.547681 1.64871,1.276822 2.25666,3.850697 1.56954,13.397776 -1.05386,14.642656 -0.6024,0.28586 -0.6232,0.2855 -1.24636,-0.0215 z m -19.0591,-23.406399 c -4.11632,-0.489432 -7.28007,-1.247258 -8.99096,-2.153645 -0.86972,-0.460749 -2.149399,-1.641654 -2.620517,-2.418234 -0.850016,-1.401148 -1.145356,-3.160112 -0.636182,-3.788915 l 0.275237,-0.339903 0.250633,0.382516 c 0.137848,0.210383 0.391555,0.900929 0.563791,1.534546 0.831708,3.05965 2.831228,4.41331 8.111378,5.491342 5.90815,1.206247 11.78128,0.561396 16.99504,-1.866003 4.48627,-2.088702 6.80364,-5.709351 7.68118,-12.00109 0.6717,-4.815846 -0.17623,-10.364054 -2.18686,-14.30924 -0.45356,-0.889953 -0.92049,-1.50307 -1.87248,-2.458717 -2.0634,-2.071306 -4.22929,-3.055388 -7.05815,-3.206889 -1.94741,-0.104294 -3.05472,0.100717 -5.53168,1.024151 -2.95628,1.102128 -3.93808,1.020338 -2.28443,-0.190304 3.78567,-2.77151 5.74374,-7.186801 5.74398,-12.952241 1e-4,-2.265137 -0.13256,-3.220029 -0.68971,-4.964699 -1.20129,-3.761714 -4.21089,-6.928814 -8.24588,-8.677397 -2.11815,-0.917913 -3.24263,-1.149935 -5.58059,-1.151483 -1.82708,-0.0012 -2.23018,0.04588 -3.37626,0.394371 -2.908394,0.884372 -5.558738,2.576781 -8.267375,5.279227 -3.094112,3.08704 -4.782616,6.048374 -6.002826,10.527881 -0.581199,2.133639 -0.608604,4.431324 -0.07238,6.06875 0.720333,2.199641 2.399457,4.161764 4.380848,5.1192 1.990857,0.962009 3.087414,0.981942 6.037829,0.109754 0.712485,-0.210622 1.34604,-0.331389 1.4079,-0.268369 0.208713,0.212621 -0.918105,0.983093 -1.86679,1.276434 -1.164913,0.3602 -3.091808,0.385826 -4.371947,0.05814 -3.599177,-0.921303 -6.582403,-3.939889 -7.825155,-7.917911 -0.497267,-1.591745 -0.499109,-4.689913 -0.0039,-6.5208 0.787504,-2.911416 2.459897,-5.57621 5.020329,-7.999397 7.633286,-7.224124 16.177227,-9.201164 24.733657,-5.72329 2.20845,0.89765 4.30131,2.437384 5.64849,4.155628 2.18241,2.783535 3.20388,6.683526 2.85895,10.915513 -0.25072,3.076093 -0.72631,4.907187 -1.82327,7.019862 -0.57149,1.100668 -1.95544,3.004463 -2.5216,3.46878 -0.13641,0.111868 -0.24801,0.254579 -0.24801,0.317137 0,0.06256 1.45051,0.145682 3.22335,0.184724 2.74134,0.06037 3.38807,0.119414 4.32488,0.394839 5.13702,1.510296 9.02439,5.617743 10.49136,11.0853 0.35694,1.330337 0.38925,1.691742 0.39458,4.413004 0.005,2.523951 -0.043,3.18817 -0.32313,4.473922 -1.27901,5.871141 -4.38367,10.149637 -9.06866,12.497408 -2.22363,1.114317 -6.66583,2.299059 -9.96279,2.657089 -1.32661,0.144064 -5.67502,0.182292 -6.71189,0.05901 z M 69.095874,83.638675 c -4.108575,-0.53341 -7.141674,-3.128453 -8.128643,-6.954661 -0.337577,-1.308699 -0.332925,-3.653196 0.0095,-4.808752 0.451535,-1.523562 1.09983,-2.609443 2.220204,-3.718791 1.257601,-1.245227 2.504355,-1.933724 4.660232,-2.57353 2.354219,-0.698668 3.08274,-1.155498 4.81891,-3.021765 3.231523,-3.473669 6.186993,-5.024443 10.418298,-5.46662 2.966648,-0.310018 5.744672,0.168474 10.121017,1.743262 1.424054,0.512434 2.376396,0.781929 2.491884,0.705158 0.245142,-0.162959 4.640124,-8.105674 6.834114,-12.350761 l 1.72336,-3.3345 -0.047,-3.8532 c -0.0701,-5.741711 0.22102,-7.336316 1.45573,-7.973793 0.60303,-0.311345 1.55648,-0.250485 2.22046,0.141735 1.10705,0.653953 1.34552,2.388341 0.65176,4.740329 -0.21307,0.722332 -0.6833,2.413714 -1.04496,3.758629 -0.82712,3.075854 -0.92354,4.510543 -0.93247,13.875604 -0.006,5.830519 0.0227,6.712052 0.22059,6.87628 0.30579,0.253779 5.68005,0.09938 7.62762,-0.219142 3.58499,-0.58631 6.75586,-1.595238 9.74416,-3.100462 0.59094,-0.297663 1.07445,-0.475838 1.07445,-0.395945 0,0.22304 -1.44619,1.253339 -2.4949,1.777435 -2.55843,1.278574 -7.84178,2.363402 -14.17761,2.911081 -0.65208,0.05637 -1.33386,0.157409 -1.51507,0.224538 l -0.32948,0.122054 -0.041,7.463892 -0.041,7.463891 -0.42322,0.554754 c -0.60972,0.799201 -0.77645,0.811359 -1.48007,0.107931 l -0.61611,-0.615946 -0.0741,-7.370933 c -0.0541,-5.383022 -0.12253,-7.455381 -0.25368,-7.684057 -0.25219,-0.439711 -0.81184,-0.613902 -2.26572,-0.705199 -0.79172,-0.04972 -1.657825,-0.219358 -2.331367,-0.45664 -1.233964,-0.434712 -1.898636,-0.471485 -2.675143,-0.148 -0.880795,0.366929 -1.586517,1.165015 -3.335341,3.771864 -3.994909,5.95493 -7.157577,9.818648 -10.645103,13.004743 -4.129511,3.772591 -6.610095,5.084253 -10.430748,5.515481 -1.484864,0.167593 -1.675615,0.167216 -3.009518,-0.006 z m 4.904146,-1.704477 c 1.548499,-0.401256 2.744474,-1.097573 5.070773,-2.952287 2.159598,-1.721806 4.704594,-4.121253 7.148497,-6.739673 2.496605,-2.674884 3.88289,-4.432552 6.767974,-8.581106 1.576205,-2.266476 1.860371,-2.755622 1.695005,-2.917677 -0.301885,-0.295835 -2.662049,-1.205906 -4.247587,-1.637856 -2.065879,-0.562807 -3.733275,-0.797184 -5.675826,-0.79782 -4.294894,-0.0013 -7.899886,1.382437 -10.590767,4.065463 -0.988593,0.985709 -2.094766,2.544362 -1.92779,2.716357 0.05816,0.0599 0.547672,0.409021 1.087812,0.775816 1.162953,0.789731 1.51584,1.2306 1.611696,2.013531 0.09345,0.763261 -0.279177,1.469997 -1.104586,2.095011 -0.533242,0.403781 -0.770598,0.485564 -1.4079,0.485103 -1.249804,-8.89e-4 -2.269551,-0.887371 -2.146274,-1.865761 0.04554,-0.361388 0.05249,-0.359213 0.780709,0.244268 1.145087,0.948942 1.473313,1.082894 1.99385,0.813714 1.600069,-0.827427 1.310259,-2.597454 -0.512023,-3.127206 -0.928112,-0.269809 -1.18373,-0.183383 -1.783556,0.60303 -0.481332,0.631058 -0.655335,0.652526 -0.655335,0.08086 0,-0.239719 -0.06331,-0.474982 -0.140689,-0.522805 -0.229553,-0.141872 -1.935055,0.491012 -2.976849,1.104659 -1.210609,0.713084 -2.269293,1.831682 -2.776739,2.933881 -0.554299,1.203971 -0.633571,3.088764 -0.19686,4.680593 0.90791,3.309361 3.14155,5.77156 5.942937,6.551055 0.949135,0.264099 2.983791,0.253459 4.043528,-0.02115 z m 30.00699,-27.323011 c 0.0228,-3.895796 -0.0174,-6.64195 -0.0985,-6.723081 -0.17266,-0.172666 -0.17959,-0.161412 -3.914817,6.35568 -1.685612,2.940999 -3.064749,5.450671 -3.064749,5.57705 0,0.174153 0.349795,0.292468 1.44495,0.48874 0.794722,0.142428 2.245226,0.412097 3.223346,0.599263 0.97812,0.187166 1.91178,0.328596 2.0748,0.314289 0.29093,-0.02553 0.29712,-0.147548 0.33502,-6.611941 z m 3.3184,-18.454783 c 0.13057,-1.563743 0.12301,-1.916373 -0.0433,-2.02165 -0.11082,-0.07014 -0.26818,-0.106477 -0.34969,-0.08076 -0.15872,0.05008 -0.29133,3.704343 -0.14798,4.077912 0.19813,0.516338 0.39207,-0.191824 0.541,-1.975505 z"
       id="path6620"
       style="fill:#e18c77" /><path
       d="m -1.7723112,265.93541 0,-3.4086 100.5537052,0 100.553706,0 0,3.4086 0,3.4086 -100.553706,0 -100.5537052,0 0,-3.4086 z M 9.519298,249.27094 c -0.6827376,-0.61681 -1.27163,-1.77487 -1.6841497,-3.31187 -0.4340289,-1.61716 -0.5380662,-5.08313 -0.2094141,-6.97656 0.8869649,-5.11002 3.7879258,-6.51073 5.4844528,-2.64814 0.645049,1.46863 0.851036,2.59344 0.92919,5.07394 0.08754,2.77826 -0.193873,4.54525 -1.003674,6.30213 -0.647437,1.40464 -1.382819,2.07117 -2.285114,2.07117 -0.551039,0 -0.7636469,-0.0882 -1.231291,-0.51067 z m 44.015402,0 c -0.662478,-0.5985 -1.222115,-1.67555 -1.66661,-3.20745 -0.492068,-1.69585 -0.572356,-5.47161 -0.158858,-7.47086 0.582083,-2.81436 1.710277,-4.44612 3.074043,-4.44612 1.605607,0 2.788817,2.52922 3.094379,6.61452 0.195725,2.61681 -0.347591,5.97359 -1.228968,7.59297 -0.823598,1.51322 -2.05321,1.87529 -3.113986,0.91694 z m 43.531308,-0.0357 c -1.095869,-0.99007 -1.782323,-2.86554 -2.07623,-5.6725 -0.448696,-4.2853 0.98805,-8.94903 2.905134,-9.43019 1.861903,-0.46731 3.520248,2.63608 3.729508,6.97933 0.18386,3.81578 -0.83878,7.4466 -2.358311,8.37306 -0.777201,0.47386 -1.488567,0.39312 -2.200101,-0.2497 z m 44.261572,0.25972 c -1.44381,-0.9518 -2.35303,-3.87608 -2.35303,-7.56798 0,-3.30033 0.6612,-5.77507 1.88392,-7.05116 0.94959,-0.99106 1.70855,-1.04311 2.6867,-0.18429 2.476,2.17396 2.87042,10.32111 0.66778,13.79361 -0.77486,1.22158 -1.94364,1.63063 -2.88537,1.00982 z m 43.50831,-0.22767 c -0.75121,-0.67868 -1.45466,-2.23364 -1.82928,-4.04363 -0.25247,-1.21981 -0.2873,-1.81259 -0.22419,-3.81538 0.0489,-1.55296 0.16284,-2.70361 0.33013,-3.3345 1.50463,-5.67446 5.03234,-5.13183 6.08906,0.93662 0.33188,1.90594 0.21251,5.51033 -0.23361,7.05306 -0.4424,1.52998 -1.00238,2.60835 -1.66551,3.20745 -0.46765,0.42249 -0.68025,0.51067 -1.23129,0.51067 -0.55194,0 -0.76357,-0.0881 -1.23531,-0.51429 z m -157.975809,-58.647 c -0.271415,-0.27141 -0.250489,-6.39485 0.02263,-6.62152 0.147971,-0.1228 19.019882,-0.15673 71.914053,-0.12929 l 71.713436,0.0372 0,3.4086 0,3.4086 -71.736063,0.0372 c -55.672452,0.0289 -71.775918,-0.003 -71.914054,-0.14079 z m 10.831364,-15.61757 c -0.885617,-0.45017 -1.66329,-1.80491 -2.205021,-3.84124 -0.392747,-1.47632 -0.400494,-5.87107 -0.01325,-7.52168 0.351153,-1.4968 1.156595,-3.09414 1.84725,-3.66344 1.142582,-0.94181 2.465205,-0.39713 3.331438,1.37195 0.776897,1.58663 1.022906,2.80126 1.102066,5.44127 0.06264,2.08909 0.02867,2.66117 -0.233171,3.92718 -0.689481,3.33363 -2.255213,5.08608 -3.829306,4.28596 z m 39.865802,-0.007 c -2.573253,-1.26877 -3.464165,-9.16247 -1.512097,-13.39754 1.212537,-2.63063 3.102384,-2.80849 4.273214,-0.40215 2.024608,4.16104 1.261751,12.61822 -1.245514,13.808 -0.612905,0.29085 -0.91221,0.2892 -1.515603,-0.008 z m 39.600943,-0.0357 c -0.9752,-0.60568 -1.59671,-1.69699 -2.17068,-3.81155 -0.4425,-1.63023 -0.48079,-5.49748 -0.0718,-7.24851 0.68165,-2.91812 1.70973,-4.37367 3.08725,-4.37092 1.28628,0.003 2.39553,1.64941 3.03588,4.50721 0.33597,1.49944 0.32729,5.11941 -0.016,6.67986 -0.76122,3.45994 -2.33836,5.19184 -3.86465,4.24391 z m 39.68503,-0.0148 c -1.55478,-0.948 -2.46124,-3.7598 -2.46191,-7.63665 0,-2.33496 0.18452,-3.55003 0.78156,-5.1354 1.27667,-3.39007 3.61743,-3.5525 4.96684,-0.34466 1.57178,3.73645 1.07504,10.40692 -0.93607,12.56984 -0.80153,0.86205 -1.54846,1.03583 -2.35042,0.54687 z M 49.30752,123.71304 c -0.05446,-0.0545 -0.09903,-1.58844 -0.09903,-3.40883 l 0,-3.3098 47.426784,0 47.426786,0 -0.0398,3.37155 -0.0398,3.37155 -47.287929,0.0373 c -26.008357,0.0205 -47.332485,-0.007 -47.386952,-0.0617 z m 13.401423,-15.55159 c -0.877175,-0.36882 -1.670856,-2.07034 -2.10139,-4.50504 -0.306358,-1.73246 -0.238702,-5.2576 0.135105,-7.039496 0.53524,-2.551437 1.670024,-4.240908 2.689325,-4.003877 0.575094,0.133733 1.407501,1.110067 1.768072,2.073776 0.668423,1.786521 0.812542,2.810927 0.813625,5.783297 8.89e-4,2.41392 -0.04582,3.00378 -0.32722,4.13284 -0.406686,1.63176 -0.740158,2.39857 -1.340396,3.08221 -0.538603,0.61343 -0.995101,0.74624 -1.637121,0.47629 z m 33.66134,0.008 C 93.91273,107.13652 93.185882,97.684862 95.2775,93.959713 c 0.763075,-1.35903 1.684875,-1.697904 2.517967,-0.92566 2.252233,2.087729 2.359013,12.183007 0.155414,14.692777 -0.498915,0.56823 -0.969258,0.70006 -1.580598,0.44301 z m 33.442197,-0.0406 c -0.86091,-0.43241 -1.55583,-1.8168 -2.02203,-4.02822 -0.3637,-1.72521 -0.32318,-5.905276 0.074,-7.636081 1.34038,-5.840712 4.4213,-4.834877 5.22003,1.704197 0.28662,2.346524 0.12756,4.818124 -0.4467,6.941024 -0.68129,2.51858 -1.68544,3.59159 -2.82532,3.01907 z M 110.73169,84.830009 c -3.2884,-0.318148 -6.94752,-1.163143 -8.73768,-2.01778 -1.93524,-0.923902 -3.342681,-2.684324 -3.768268,-4.713326 -0.1275,-0.607857 -0.121145,-0.885009 0.02858,-1.246473 0.105894,-0.255649 0.249594,-0.464816 0.319337,-0.464816 0.218231,0 0.551633,0.636632 0.737315,1.4079 0.431945,1.79418 1.654496,3.498557 3.051026,4.253465 0.39446,0.213227 1.38863,0.595271 2.20927,0.848988 4.69546,1.451686 9.72269,1.73476 14.29122,0.804709 3.1082,-0.63276 6.92253,-2.253362 8.61581,-3.660616 2.9238,-2.429923 4.54284,-6.283569 5.02465,-11.959704 0.35708,-4.206577 -0.59638,-9.275932 -2.39988,-12.75971 -1.07545,-2.077415 -3.10434,-3.910353 -5.37453,-4.855433 -1.11851,-0.465639 -3.20944,-0.903798 -4.31299,-0.903798 -0.99518,0 -2.97686,0.424547 -4.14187,0.88734 -1.60413,0.637228 -3.36427,1.189449 -3.50803,1.100599 -0.27523,-0.170097 -0.0889,-0.452837 0.61118,-0.927697 1.0602,-0.71908 2.83053,-2.63245 3.53895,-3.824898 0.72551,-1.221211 1.38183,-2.957657 1.82901,-4.839087 0.27382,-1.152085 0.32466,-1.808397 0.32936,-4.252257 0.006,-3.360841 -0.20494,-4.442165 -1.31825,-6.743099 -1.83911,-3.800966 -5.42064,-6.613906 -10.0549,-7.897136 -1.29243,-0.357874 -4.97779,-0.348789 -6.32611,0.01559 -2.659335,0.71869 -6.517254,3.184347 -8.898243,5.687014 -4.302095,4.521947 -6.95522,11.699088 -5.849484,15.823811 0.813014,3.032783 3.169564,5.50433 5.935014,6.224639 1.238861,0.322683 2.162324,0.282782 3.773919,-0.163063 0.774345,-0.214222 1.60797,-0.417629 1.8525,-0.452018 l 0.4446,-0.06252 -0.506597,0.446959 c -1.407969,1.242223 -4.688511,1.35242 -7.199712,0.241848 -2.713358,-1.199976 -5.109119,-3.926309 -6.12836,-6.973968 -1.502852,-4.493712 0.120494,-10.085414 4.091889,-14.09472 4.076175,-4.115086 8.334296,-6.56285 13.670074,-7.858191 1.40407,-0.340859 5.3873,-0.382279 6.7431,-0.07012 2.50618,0.57702 3.37341,0.823339 4.5942,1.304892 5.66919,2.236257 8.66726,6.536288 8.91864,12.79168 0.2068,5.146179 -1.10662,9.284034 -3.91736,12.341415 -0.43394,0.472023 -0.74366,0.93157 -0.68825,1.021216 0.0706,0.11431 0.75208,0.131989 2.28145,0.05919 2.64628,-0.125962 4.13733,0.04882 6.10004,0.715067 2.07505,0.70438 3.51044,1.577885 5.13345,3.123973 1.66196,1.583194 2.4519,2.651145 3.35278,4.532808 1.63246,3.409679 2.0592,7.019552 1.33464,11.28987 -0.99727,5.877502 -4.15863,10.514728 -8.80688,12.918341 -2.25746,1.167329 -5.77589,2.204803 -9.1015,2.683742 -1.99174,0.286841 -5.91176,0.395452 -7.77311,0.21537 z M 68.103992,83.41532 c -3.561979,-0.784028 -6.400165,-3.558634 -7.112948,-6.953606 -0.119793,-0.57057 -0.217977,-1.57092 -0.218189,-2.223 -0.0013,-4.245854 2.531684,-7.30868 7.108837,-8.595599 2.321682,-0.652768 2.943627,-1.052958 5.187001,-3.337564 2.134724,-2.173962 3.177359,-2.962596 5.095289,-3.854009 2.136628,-0.993058 3.483332,-1.254562 6.464311,-1.255239 3.152017,-7.41e-4 4.08135,0.171933 7.7064,1.431668 1.426426,0.495695 2.795285,0.931964 3.041911,0.969488 l 0.448412,0.06822 2.656777,-4.791783 c 1.461227,-2.63548 3.360177,-6.158928 4.219887,-7.829883 l 1.56311,-3.0381 0.0797,-5.0388 c 0.0879,-5.559114 0.14165,-5.897247 1.05948,-6.669551 0.57194,-0.481258 1.73518,-0.513842 2.46475,-0.06904 1.17798,0.718193 1.32779,2.30879 0.48321,5.130586 -0.24761,0.827306 -0.73408,2.561246 -1.08105,3.8532 l -0.63083,2.349007 -0.002,8.9661 -0.002,8.9661 2.5935,0.04362 c 5.13447,0.08636 9.71024,-0.884184 14.20335,-3.012594 0.77216,-0.365777 1.43307,-0.635912 1.46868,-0.600302 0.10767,0.107673 -1.16066,0.972633 -2.18583,1.490661 -2.51493,1.270822 -6.43647,2.096083 -13.6344,2.869267 l -2.2971,0.246749 -0.0741,7.484099 c -0.0525,5.301584 -0.1244,7.570536 -0.24659,7.7805 -0.0949,0.16302 -0.36484,0.479372 -0.59992,0.703005 l -0.42743,0.406603 -0.65978,-0.672218 -0.65978,-0.672219 -0.052,-7.338788 c -0.0519,-7.32039 -0.0529,-7.339744 -0.37938,-7.719357 -0.34862,-0.405291 -1.17321,-0.613127 -2.49832,-0.629691 -0.3887,-0.0049 -1.18394,-0.175559 -1.767185,-0.379334 -1.915946,-0.669392 -3.194844,-0.436568 -4.295792,0.78205 -0.2888,0.319668 -1.328129,1.786305 -2.309616,3.259193 -3.276303,4.916643 -5.662615,7.900254 -8.920129,11.152847 -3.97236,3.966365 -6.656096,5.783097 -9.639845,6.525615 -1.690444,0.420672 -4.706956,0.519795 -6.150301,0.2021 z m 5.740314,-1.386008 c 2.00516,-0.512832 3.62795,-1.532712 6.79741,-4.271989 3.016693,-2.607241 7.339414,-7.127234 9.300414,-9.724844 1.905172,-2.523657 4.921202,-6.974342 4.878048,-7.198422 -0.06006,-0.311882 -2.891705,-1.425254 -4.941434,-1.942919 -0.939637,-0.237309 -2.472574,-0.50894 -3.406527,-0.603626 -4.694355,-0.475922 -9.279736,1.005652 -12.280456,3.967918 -0.935956,0.923962 -2.012269,2.380396 -2.012269,2.722941 0,0.166451 0.292663,0.431118 0.782252,0.707425 0.430238,0.242811 1.030448,0.716199 1.3338,1.051974 0.482259,0.533803 0.551549,0.70395 0.551549,1.354382 0,0.665633 -0.06431,0.813648 -0.6113,1.407067 -0.986516,1.070243 -2.265019,1.240945 -3.227645,0.430948 -0.42901,-0.360987 -0.87425,-1.327558 -0.69438,-1.507428 0.04973,-0.04973 0.273118,0.08133 0.49642,0.291234 0.641687,0.603193 1.53106,1.152841 1.865386,1.152841 0.168587,0 0.559421,-0.24695 0.86852,-0.548777 0.482073,-0.47073 0.561999,-0.641426 0.561999,-1.20024 0,-0.536456 -0.08055,-0.726706 -0.456264,-1.077678 -0.444668,-0.415381 -1.235777,-0.72761 -1.847809,-0.729278 -0.166856,-4.44e-4 -0.563858,0.265934 -0.882228,0.591974 -0.318369,0.32604 -0.632009,0.5928 -0.696977,0.5928 -0.06497,0 -0.118123,-0.20007 -0.118123,-0.4446 0,-0.573708 -0.304331,-0.577499 -1.713447,-0.02134 -2.511532,0.991263 -4.031327,2.538693 -4.605897,4.689642 -0.277526,1.038943 -0.249476,2.059213 0.09408,3.421944 1.071128,4.24871 4.2697,7.10616 8.017009,7.162009 0.455644,0.0068 1.332185,-0.116489 1.94787,-0.273955 z M 104.04249,54.454015 c 0,-4.388263 -0.0521,-6.8172 -0.14634,-6.8172 -0.19307,0 -0.31343,0.199953 -3.996827,6.639892 -2.330462,4.074508 -3.118454,5.571963 -2.996342,5.694075 0.182161,0.182161 5.694169,1.25688 6.583759,1.283686 l 0.55575,0.01675 0,-6.8172 z m 3.12825,-16.19085 c 0.0662,-0.152895 0.34706,-3.801537 0.30815,-4.003565 -0.0629,-0.32654 -0.7037,-0.344178 -0.82704,-0.02276 -0.0495,0.128932 -0.09,0.990448 -0.09,1.91448 0,1.800644 0.0626,2.148899 0.38636,2.148899 0.11354,0 0.21367,-0.01667 0.22249,-0.03705 z"
       id="path6618"
       style="fill:#c97868" /><path
       d="m -1.7201244,269.11805 c -0.032052,-0.0835 -0.040233,-1.56753 -0.018181,-3.29776 l 0.040094,-3.1459 100.4796054,10e-5 100.479606,9e-5 0,3.26083 0,3.26083 -100.461425,0.0368 c -68.486822,0.0251 -100.4799716,-0.0115 -100.5196996,-0.11503 z M 9.5958028,249.15176 c -0.6281454,-0.5944 -1.1834947,-1.67148 -1.5979079,-3.09907 -0.4821635,-1.66097 -0.5677984,-5.46861 -0.1665977,-7.40753 0.3510885,-1.69674 0.9931006,-3.11666 1.7325128,-3.83175 0.447253,-0.43254 0.644383,-0.5187 1.186779,-0.5187 0.542397,0 0.739527,0.0862 1.18678,0.5187 0.739412,0.71509 1.381424,2.13501 1.732513,3.83175 0.24976,1.20703 0.284356,1.80967 0.222438,3.87465 -0.08168,2.7239 -0.347951,3.97299 -1.179544,5.53322 -0.871488,1.63508 -2.094568,2.06621 -3.1169732,1.09873 z m 44.0457172,0.0488 c -0.575869,-0.47469 -1.299901,-1.89728 -1.703091,-3.34627 -0.165694,-0.59548 -0.270265,-1.69694 -0.31657,-3.3345 -0.07967,-2.81734 0.201956,-4.65296 0.961885,-6.26957 0.439642,-0.93525 1.193367,-1.80631 1.702964,-1.96804 0.95022,-0.30159 2.041891,0.58905 2.615954,2.13424 0.59715,1.60734 0.794106,2.9421 0.802198,5.43647 0.0079,2.44401 -0.141507,3.6285 -0.657987,5.2155 -0.759084,2.33247 -2.124889,3.18763 -3.405353,2.13217 z m 43.517875,-0.0245 c -1.886131,-1.65603 -2.684358,-7.20015 -1.626828,-11.29917 0.517081,-2.00421 1.736081,-3.65634 2.697788,-3.65634 1.720051,0 3.068655,2.86488 3.248545,6.90099 0.098,2.19828 -0.0891,3.83545 -0.63341,5.5443 -0.84134,2.6412 -2.359454,3.67503 -3.686095,2.51022 z m 44.015405,0 c -2.27058,-1.99358 -2.83294,-9.1557 -1.02025,-12.99358 1.9554,-4.14003 5.03724,-1.29361 5.33707,4.92937 0.18088,3.75402 -0.78619,7.26119 -2.2724,8.24104 -0.6551,0.4319 -1.42717,0.36514 -2.04442,-0.17683 z m 43.74161,-0.0244 c -0.62815,-0.5944 -1.1835,-1.67148 -1.59791,-3.09907 -0.48217,-1.66097 -0.5678,-5.46861 -0.16659,-7.40753 0.35109,-1.69674 0.9931,-3.11666 1.7325,-3.83175 0.44754,-0.4328 0.64424,-0.5187 1.18788,-0.5187 0.5566,0 0.7372,0.0836 1.23946,0.57411 0.75506,0.7373 1.30658,1.9777 1.6785,3.77513 0.25003,1.20839 0.28462,1.81031 0.22268,3.87586 -0.0817,2.7239 -0.34795,3.97299 -1.17955,5.53322 -0.87149,1.63508 -2.09457,2.06621 -3.11697,1.09873 z M 26.89663,190.46074 c -0.0399,-0.10401 -0.05448,-1.58786 -0.0324,-3.29745 l 0.04016,-3.10838 71.719964,-0.0372 c 57.278286,-0.0297 71.743656,1.4e-4 71.837676,0.1482 0.13678,0.2154 0.16616,5.90066 0.0323,6.24948 -0.0819,0.21332 -6.54719,0.23442 -71.807553,0.23442 -58.012043,0 -71.731465,-0.0361 -71.790157,-0.18907 z m 10.307707,-16.08412 c -1.274984,-1.32277 -1.928222,-3.74091 -1.924699,-7.12477 0.0025,-2.40341 0.371511,-4.27777 1.140498,-5.79309 1.512664,-2.98077 3.641063,-2.19196 4.789682,1.77511 0.456954,1.57821 0.575787,5.31572 0.227778,7.16404 -0.559638,2.97231 -1.670521,4.6873 -3.0379,4.68992 -0.414523,0.001 -0.636196,-0.13109 -1.195359,-0.71121 z m 40.031974,0.19214 c -0.80425,-0.72659 -1.457143,-2.1228 -1.825811,-3.9045 -0.404009,-1.9525 -0.315734,-5.74544 0.172933,-7.43039 0.854209,-2.94537 2.207823,-4.15623 3.657824,-3.27207 1.30681,0.79684 2.276945,4.73189 2.064439,8.37375 -0.233643,4.00409 -1.293818,6.50286 -2.845575,6.70686 -0.549927,0.0723 -0.671661,0.0252 -1.22381,-0.47365 z m 39.905369,0.23776 c -0.87016,-0.5306 -1.60596,-1.92743 -2.0762,-3.94141 -0.33316,-1.42693 -0.38122,-5.26396 -0.0835,-6.669 0.38081,-1.79727 0.92443,-3.04728 1.65477,-3.80498 0.6063,-0.62903 0.7633,-0.71512 1.30416,-0.71512 2.87389,0 4.33035,8.14599 2.33461,13.05753 -0.82786,2.03738 -1.96195,2.78757 -3.13382,2.07298 z m 39.70299,-0.009 c -1.6754,-1.02154 -2.73525,-5.36711 -2.27487,-9.32726 0.53063,-4.56424 2.45217,-6.9335 4.2823,-5.28009 0.703,0.63513 1.41079,2.12933 1.75909,3.7136 0.37073,1.68628 0.36416,5.34808 -0.0125,6.96122 -0.77422,3.31593 -2.24257,4.85411 -3.75402,3.93253 z M 49.307292,123.56461 c -0.05434,-0.0543 -0.0988,-1.52162 -0.0988,-3.26063 l 0,-3.16183 47.386953,0.0373 47.386955,0.0373 0.042,2.8899 c 0.0231,1.58945 0.005,3.03996 -0.0399,3.22335 l -0.0819,0.33345 -47.24828,0 c -25.986552,0 -47.292738,-0.0445 -47.347077,-0.0988 z m 13.475533,-15.54036 c -0.544605,-0.28401 -0.755487,-0.54632 -1.221045,-1.51879 -1.002383,-2.09382 -1.323891,-6.812281 -0.673279,-9.881064 1.087914,-5.131425 3.600363,-5.141753 4.717235,-0.01939 0.125834,0.577119 0.264522,1.949622 0.308195,3.050007 0.156378,3.940027 -0.679125,7.353637 -2.021215,8.258077 -0.592581,0.39934 -0.562978,0.39637 -1.109891,0.11116 z m 33.627369,-9e-4 c -1.346031,-0.66761 -2.212201,-3.70698 -2.19478,-7.70144 0.03349,-7.678421 3.490836,-10.47048 4.845331,-3.912954 0.919196,4.450114 0.0061,10.743694 -1.685655,11.618534 -0.514112,0.26586 -0.419716,0.26626 -0.964896,-0.004 z m 33.395176,-0.0444 c -0.57694,-0.2881 -1.31415,-1.63287 -1.67881,-3.0624 -0.59081,-2.31612 -0.65423,-5.829183 -0.14982,-8.299666 0.2712,-1.328259 0.98416,-3.015992 1.4627,-3.462504 0.84857,-0.79178 1.79666,-0.385477 2.4684,1.057828 1.66075,3.568309 1.51377,10.190952 -0.28926,13.034042 -0.54075,0.85268 -1.11125,1.08322 -1.81321,0.7327 z M 109.5641,84.601387 c -3.11914,-0.37787 -6.68091,-1.308253 -8.03884,-2.09985 -1.748242,-1.019132 -3.116892,-3.03811 -3.22341,-4.755056 -0.02867,-0.462092 0.01884,-0.940202 0.10557,-1.062467 0.136028,-0.191756 0.195213,-0.177678 0.430754,0.102461 0.150183,0.178618 0.317131,0.600378 0.370999,0.937244 0.272961,1.707009 1.732837,3.697644 3.290677,4.487063 1.73478,0.879082 5.57844,1.778818 8.77023,2.052964 4.55282,0.391045 9.27375,-0.472481 13.44632,-2.459529 1.98459,-0.945095 3.24715,-1.879525 4.29172,-3.176317 1.54383,-1.916616 2.46843,-4.044948 3.14798,-7.246344 0.36208,-1.705751 0.40079,-2.188603 0.40659,-5.071541 0.006,-2.749743 -0.0401,-3.416433 -0.33294,-4.865968 -0.41343,-2.046305 -1.19542,-4.4785 -1.89599,-5.897059 -1.43313,-2.901899 -4.18517,-4.991758 -7.61807,-5.785037 l -1.4079,-0.32534 1.13552,-0.0107 c 3.9067,-0.0368 8.10884,2.055267 10.69339,5.323797 2.50817,3.171938 3.63819,6.838978 3.46748,11.252368 -0.16047,4.148607 -1.12803,7.386314 -3.12104,10.443867 -2.60998,4.004051 -6.18156,6.210713 -12.28077,7.58753 -3.45398,0.779689 -8.04209,1.003575 -11.63827,0.567913 z M 67.853303,83.271969 c -3.365607,-0.816177 -5.878447,-3.275611 -6.724992,-6.582068 -0.357319,-1.395628 -0.237407,-4.344268 0.225282,-5.5397 1.015059,-2.622569 3.221799,-4.477486 6.389353,-5.370692 2.556975,-0.721032 3.095095,-1.057714 5.251647,-3.285767 3.812105,-3.938497 6.766625,-5.268206 11.7078,-5.269204 2.80399,-5.93e-4 4.279373,0.295283 8.012124,1.606616 1.499932,0.526934 2.817309,0.958061 2.927501,0.958061 0.231023,0 4.541702,-7.692134 7.059372,-12.597 l 1.7116,-3.3345 -0.0447,-3.5568 c -0.0873,-6.94436 0.30564,-8.319454 2.36841,-8.288295 2.03211,0.0307 2.57706,2.11733 1.46791,5.620695 -0.94064,2.971115 -1.50988,5.453744 -1.64806,7.1877 -0.0747,0.937365 -0.13741,5.017364 -0.13934,9.066664 -0.003,6.49853 0.0238,7.389689 0.22938,7.59525 0.18993,0.189931 0.62254,0.232886 2.34546,0.232886 5.01547,0 9.76326,-0.954859 13.66278,-2.747815 0.64481,-0.296473 1.3391,-0.600883 1.54288,-0.676466 l 0.3705,-0.137426 -0.3705,0.295669 c -2.11064,1.684347 -7.58225,3.040295 -15.04231,3.727716 -1.05963,0.09764 -2.07488,0.231455 -2.25611,0.297362 l -0.32951,0.11983 -0.041,7.526315 -0.041,7.526314 -0.42514,0.55575 c -0.23382,0.305663 -0.50478,0.55575 -0.60212,0.55575 -0.20935,0 -0.86728,-0.678962 -1.10353,-1.138807 -0.11601,-0.225801 -0.16631,-2.43479 -0.16631,-7.30361 0,-7.623295 -0.0164,-7.783596 -0.84047,-8.199873 -0.23057,-0.116478 -1.01944,-0.251724 -1.75303,-0.300545 -0.85775,-0.05709 -1.704053,-0.221921 -2.371196,-0.46184 -1.293134,-0.46504 -2.016546,-0.472569 -2.965079,-0.03086 -0.962049,0.448004 -1.341581,0.896939 -3.499631,4.139604 -4.007421,6.021514 -7.535666,10.182906 -11.615691,13.700142 -2.822979,2.433582 -4.692205,3.468571 -7.309807,4.047432 -1.552897,0.343409 -4.687153,0.375637 -5.982483,0.06151 z m 6.137886,-1.187972 c 0.996771,-0.240766 2.408908,-0.923867 3.449404,-1.6686 3.770169,-2.698494 9.601013,-8.442212 12.637232,-12.448407 2.115862,-2.791812 4.957642,-6.988368 4.876138,-7.200764 -0.186949,-0.487181 -4.499723,-1.96077 -6.973532,-2.382718 -1.692824,-0.288739 -4.758051,-0.288941 -6.279035,-4.44e-4 -3.14799,0.597164 -5.824879,1.998082 -7.840309,4.103136 -0.915724,0.956472 -1.829795,2.244784 -1.829795,2.578982 0,0.09853 0.363002,0.384004 0.806669,0.634394 1.771054,0.999521 2.321396,2.015872 1.739793,3.212986 -0.672813,1.384853 -2.614236,1.852006 -3.588726,0.863535 -0.23206,-0.235391 -0.470432,-0.628053 -0.529717,-0.872583 l -0.10779,-0.4446 0.654636,0.533875 c 0.868959,0.708664 1.570384,1.057291 1.910214,0.949434 0.152606,-0.04844 0.516068,-0.352169 0.807693,-0.674964 1.115915,-1.235183 0.354454,-2.617099 -1.671609,-3.033676 -0.447931,-0.0921 -0.562444,-0.0386 -1.14855,0.536624 l -0.651013,0.638921 0,-0.406009 c 0,-0.572913 -0.315944,-0.630583 -1.376197,-0.251199 -3.799531,1.359566 -5.708464,4.039307 -5.280486,7.412694 0.33821,2.665831 2.022795,5.530479 4.039397,6.869023 1.969064,1.30699 3.94274,1.633171 6.355583,1.05036 z M 104.10074,61.184993 c 0.0495,-0.128931 0.09,-3.226079 0.09,-6.882553 0,-6.700642 -0.0353,-7.153763 -0.51745,-6.64611 -0.10593,0.111531 -1.73577,2.899008 -3.62187,6.194391 -2.771856,4.842962 -3.392766,6.026849 -3.238827,6.175443 0.178644,0.17244 5.953507,1.340403 6.806547,1.376621 0.23219,0.0099 0.42832,-0.07883 0.48165,-0.217792 z m 3.12898,-22.886268 c 0.0509,-0.08233 0.16345,-1.021681 0.25015,-2.087445 0.13649,-1.677718 0.12747,-1.967932 -0.0672,-2.162641 -0.14086,-0.140861 -0.34181,-0.187778 -0.53781,-0.125568 -0.29917,0.09495 -0.31293,0.19226 -0.31293,2.213531 0,1.162817 0.0445,2.158674 0.0988,2.213013 0.14755,0.147545 0.46387,0.119255 0.56903,-0.05089 z M 92.443284,51.265963 c -1.840411,-0.462606 -3.423968,-1.459971 -5.031919,-3.169233 -0.832662,-0.885124 -1.293617,-1.542562 -1.799334,-2.566295 -1.016308,-2.057339 -1.208024,-2.922679 -1.191437,-5.37772 0.01215,-1.798515 0.06717,-2.252411 0.413147,-3.408599 1.096449,-3.664088 3.148572,-6.451702 7.002977,-9.512883 3.260876,-2.589799 6.727967,-4.341442 9.908672,-5.006061 0.65208,-0.136254 1.34575,-0.326422 1.54149,-0.422595 0.48106,-0.236362 5.02534,-0.238478 5.51263,-0.0026 0.19574,0.09476 0.94941,0.283559 1.67482,0.41955 1.54351,0.289355 3.44529,0.935047 4.90546,1.665502 2.85705,1.429245 5.14513,3.831316 6.24627,6.557451 0.76681,1.898432 0.97717,3.044626 1.04773,5.708804 0.14336,5.41328 -0.93203,8.763449 -3.90461,12.164028 -0.60182,0.688483 -0.74652,0.941757 -0.61383,1.07445 0.0955,0.09549 0.27699,0.179641 0.40333,0.186999 0.12635,0.0074 -0.20377,0.133168 -0.73359,0.279579 -0.52981,0.146413 -1.43013,0.44899 -2.0007,0.672397 -0.57057,0.223407 -1.43754,0.530571 -1.9266,0.682587 -1.56875,0.487626 -1.65543,0.337369 -0.35265,-0.611341 3.49723,-2.546747 5.48379,-6.822454 5.71468,-12.2998 0.23373,-5.544642 -1.96494,-10.01148 -6.39943,-13.001141 -3.49656,-2.357332 -7.70559,-3.222987 -11.2986,-2.323743 -3.76059,0.941186 -8.170912,4.101599 -10.929903,7.83231 -3.138408,4.243757 -4.925826,10.033832 -4.160048,13.475856 0.759574,3.414142 3.526904,6.195827 6.734039,6.768974 1.084033,0.193727 2.013357,0.06481 4.222882,-0.585821 0.974576,-0.286979 1.007723,-0.28795 0.767484,-0.02249 -0.138096,0.152594 -0.596452,0.429898 -1.018567,0.616229 -0.974548,0.430187 -3.418599,0.536312 -4.734393,0.205572 z"
       id="path6616"
       style="fill:#b1665a" /><path
       d="m -1.7723114,265.93541 0,-3.1863 100.4796054,0 100.479606,0 0,3.1863 0,3.1863 -100.479606,0 -100.4796054,0 0,-3.1863 z M 9.6605397,248.96826 c -1.9314031,-1.74491 -2.6027265,-7.89805 -1.2845382,-11.77369 0.589555,-1.73336 1.506964,-2.82465 2.3745875,-2.82465 0.486525,0 1.223213,0.53977 1.641922,1.20306 0.928874,1.47143 1.39729,3.6655 1.394231,6.53062 -0.0044,4.10645 -1.351496,7.38161 -3.036153,7.38161 -0.38333,0 -0.666481,-0.13429 -1.0900493,-0.51695 z m 44.0636903,0.0486 c -0.653114,-0.57345 -1.145515,-1.5184 -1.585481,-3.04265 -0.293981,-1.01849 -0.334219,-1.49515 -0.335407,-3.97314 -10e-4,-2.27767 0.05133,-3.01406 0.274301,-3.8532 1.030016,-3.87639 3.033355,-4.93356 4.353029,-2.2971 2.212076,4.41932 1.105963,13.6344 -1.636577,13.6344 -0.390808,0 -0.681325,-0.12717 -1.069865,-0.46831 z m 43.447894,-0.0393 c -1.790492,-1.79049 -2.518807,-7.11732 -1.500558,-10.97493 1.030433,-3.90377 3.091899,-4.76752 4.531204,-1.89856 0.85062,1.69552 1.10074,3.09272 1.08221,6.04524 -0.0174,2.77008 -0.24673,4.00936 -1.04288,5.63532 -0.846017,1.72777 -2.062447,2.20046 -3.069976,1.19293 z m 43.934856,-0.0879 c -2.51464,-2.59118 -2.49656,-11.23146 0.0291,-13.88944 2.10846,-2.21895 4.48516,2.14881 4.21272,7.74191 -0.19244,3.95091 -1.46616,6.7431 -3.076,6.7431 -0.49155,0 -0.68245,-0.0975 -1.16579,-0.59557 z m 43.87416,0.0786 c -0.73233,-0.66163 -1.30491,-1.94179 -1.68091,-3.75819 -0.43541,-2.10342 -0.32127,-5.60921 0.24441,-7.5063 0.46502,-1.55955 1.02053,-2.53594 1.70772,-3.00151 0.60365,-0.40897 0.97343,-0.41881 1.59096,-0.0423 2.31963,1.41434 3.07475,8.92333 1.29595,12.88702 -0.51949,1.15758 -1.35241,1.93821 -2.06807,1.93821 -0.38334,0 -0.66649,-0.13429 -1.09006,-0.51695 z M 26.896555,190.31233 c -0.04001,-0.10427 -0.05462,-1.5215 -0.03246,-3.1494 l 0.04029,-2.95982 71.728804,0 71.728801,0 0,3.1122 0,3.1122 -71.696344,0.0372 c -58.121123,0.0302 -71.710121,0.001 -71.769096,-0.15238 z m 10.763732,-15.69311 c -0.70256,-0.47849 -1.255187,-1.44514 -1.72286,-3.01357 -0.336637,-1.12899 -0.408527,-1.69677 -0.469053,-3.70454 -0.06055,-2.00861 -0.02483,-2.59667 0.233628,-3.84572 1.165764,-5.63381 4.3655,-5.60839 5.532077,0.044 0.247102,1.19728 0.283708,1.81723 0.224471,3.80176 -0.07686,2.57504 -0.288193,3.67041 -1.00074,5.187 -0.776326,1.65234 -1.798286,2.21168 -2.797523,1.53111 z m 39.896705,0.0298 c -0.605024,-0.3689 -1.168584,-1.2605 -1.601787,-2.53418 -0.476401,-1.40068 -0.663825,-2.79142 -0.661565,-4.90903 0.0044,-4.13437 1.350327,-7.38161 3.059527,-7.38161 0.437377,0 0.647926,0.11217 1.097371,0.58464 1.108633,1.16541 1.689822,3.57123 1.684651,6.97356 -0.0042,2.75723 -0.283533,4.33509 -1.044728,5.9011 -0.758964,1.56142 -1.530309,1.97717 -2.533469,1.36552 z m 39.613988,0.005 c -1.47632,-0.97323 -2.45304,-4.50127 -2.25926,-8.16078 0.20306,-3.83505 1.48721,-6.669 3.02191,-6.669 1.15321,0 2.10803,1.37251 2.73211,3.9273 0.42392,1.73536 0.45525,5.15644 0.0638,6.9654 -0.34503,1.59443 -1.04067,3.07469 -1.74325,3.70941 -0.65378,0.59065 -1.16704,0.65503 -1.81531,0.22767 z m 39.3369,-0.42295 c -2.17251,-2.25395 -2.55889,-8.98304 -0.73146,-12.73885 0.5354,-1.10038 1.20039,-1.66798 1.95415,-1.66798 0.74933,0 1.34549,0.55998 1.94791,1.8297 2.1991,4.63497 0.86407,13.27917 -2.05187,13.28572 -0.32585,0 -0.60618,-0.17684 -1.11873,-0.70859 z m -107.151189,-53.82788 0,-3.11243 47.27881,0 47.278809,0 -0.0401,3.07515 -0.04,3.07515 -47.238756,0.0373 -47.238753,0.0373 0,-3.11243 z m 13.538831,-12.4559 c -0.784451,-0.29675 -1.592713,-2.0394 -1.990173,-4.29093 -0.279901,-1.58557 -0.244397,-5.109515 0.06769,-6.718697 0.405517,-2.090919 1.095109,-3.53707 1.889321,-3.962119 0.722475,-0.386657 1.630483,0.522008 2.183469,2.18505 0.580533,1.745883 0.685994,2.580893 0.67994,5.383566 -0.005,2.32629 -0.05605,2.94379 -0.336742,4.0755 -0.585975,2.36255 -1.570712,3.6767 -2.493508,3.32763 z m 67.138458,-10e-4 c -1.92079,-0.71055 -2.90993,-7.41488 -1.759,-11.92246 0.52003,-2.036665 1.49864,-3.364586 2.29359,-3.112277 0.79137,0.251169 1.59309,1.795978 2.03846,3.927845 0.34039,1.629379 0.33543,5.626132 -0.009,7.238922 -0.3538,1.65677 -0.78251,2.76043 -1.30218,3.3523 -0.47916,0.54574 -0.81244,0.68193 -1.26189,0.51567 z M 96.082252,107.6209 c -1.815179,-1.98119 -2.337435,-8.487778 -0.999756,-12.455559 0.848401,-2.516496 2.175637,-2.982747 3.10184,-1.089658 0.698189,1.427049 1.01676,3.395003 1.023152,6.320467 0.0079,3.6132 -0.517716,6.11565 -1.501906,7.15065 -0.491,0.51635 -1.18895,0.54821 -1.62333,0.0741 z M 109.74819,84.514214 c -0.65208,-0.07361 -2.00365,-0.29891 -3.0035,-0.500671 -4.61835,-0.931944 -6.57085,-2.028317 -7.719928,-4.334894 -0.580504,-1.16527 -0.802417,-2.128213 -0.608183,-2.639088 0.212049,-0.557732 0.382332,-0.332477 0.746396,0.987362 0.352907,1.279386 0.830227,2.155979 1.670125,3.06716 1.01022,1.095957 2.32281,1.693973 5.43239,2.475004 6.56596,1.649162 12.9799,1.044236 18.74731,-1.768137 3.7401,-1.823797 5.79187,-4.521295 6.95882,-9.148859 1.37733,-5.461856 0.94712,-11.325205 -1.20963,-16.48613 -1.27359,-3.047588 -4.02815,-5.452552 -7.30529,-6.378141 l -0.81511,-0.230214 1.03741,0.07536 c 3.33818,0.242502 7.01788,2.27511 9.34187,5.160294 1.23243,1.530048 2.45604,3.979361 2.97707,5.959254 0.52623,1.999689 0.64771,5.29681 0.28674,7.782376 -0.26924,1.853859 -1.10505,4.576227 -1.87096,6.094016 -1.12274,2.224884 -2.89791,4.39473 -4.71545,5.763833 -2.54734,1.918841 -6.96085,3.463554 -11.62142,4.067452 -1.91856,0.248601 -6.35026,0.277346 -8.32866,0.05402 z M 68.849554,83.346155 C 66.794513,83.023722 64.929895,82.105177 63.544103,80.732592 60.265854,77.485584 60.0774,71.740925 63.144199,68.542316 c 1.299392,-1.355242 2.550469,-2.024936 5.521944,-2.955864 1.885586,-0.590731 2.666183,-1.129815 4.534199,-3.131333 2.577579,-2.761793 4.895342,-4.144791 8.093451,-4.829322 2.342362,-0.501366 5.461003,-0.406394 8.056957,0.24536 0.622293,0.156237 2.278839,0.693348 3.681211,1.193582 1.402372,0.500233 2.637055,0.876021 2.743738,0.835083 0.250746,-0.09622 5.308351,-9.222078 7.271521,-13.120608 l 1.51397,-3.006499 0.007,-4.774 c 0.008,-5.141887 0.0564,-5.537417 0.77996,-6.347149 0.49628,-0.555389 1.35097,-0.708052 2.13352,-0.381084 1.38928,0.580477 1.5552,2.184428 0.56244,5.436933 -0.23636,0.774345 -0.67235,2.34156 -0.96888,3.4827 -0.68291,2.628071 -0.7931,4.480077 -0.80289,13.494924 -0.006,5.409708 0.0289,6.578862 0.20301,6.8172 0.18353,0.251293 0.45062,0.297048 2.11185,0.361776 l 1.90175,0.0741 -1.82862,0.178029 c -1.00573,0.09792 -1.92272,0.256134 -2.03775,0.351596 -0.17496,0.145209 -0.20913,1.389471 -0.20913,7.615657 l 0,7.442088 -0.40755,0.537164 c -0.22415,0.29544 -0.4853,0.539593 -0.58034,0.542565 -0.095,0.003 -0.37847,-0.254285 -0.62985,-0.571676 l -0.45706,-0.577077 0,-7.059983 c 0,-7.666045 -0.013,-7.798201 -0.81555,-8.324088 -0.26162,-0.17142 -0.85588,-0.294388 -1.75373,-0.36289 -0.80165,-0.06116 -1.874102,-0.268276 -2.617716,-0.505535 -1.405854,-0.448556 -2.125714,-0.436018 -3.085733,0.05375 -0.817701,0.417161 -1.396071,1.121281 -3.431696,4.177835 -3.271552,4.912335 -5.611804,7.837183 -8.886089,11.105845 -3.470571,3.464613 -5.927274,5.272279 -8.270889,6.085802 -1.98076,0.687568 -4.846637,0.998443 -6.627933,0.718961 z m 5.040152,-1.109323 c 1.986113,-0.51038 3.793597,-1.645236 6.90021,-4.332404 1.603512,-1.38701 6.264681,-6.069184 7.706852,-7.74158 1.998,-2.316958 6.728278,-9.076394 6.594909,-9.423945 -0.169678,-0.442176 -3.653785,-1.743047 -6.188744,-2.310711 -1.307569,-0.292809 -1.925126,-0.341683 -4.20054,-0.33243 -2.387948,0.0097 -2.818392,0.05136 -4.106001,0.397352 -1.723255,0.463048 -3.663158,1.346883 -4.911655,2.237793 -1.707814,1.218671 -3.967692,3.895233 -3.755565,4.448027 0.04201,0.109486 0.434191,0.400995 0.871505,0.6478 1.07053,0.60417 1.898216,1.532293 1.898216,2.12856 0,0.950267 -0.8124,1.928387 -1.884209,2.268565 -0.519551,0.1649 -1.46565,-0.170347 -1.884073,-0.667614 -0.532662,-0.633033 -0.475814,-0.842379 0.100331,-0.36948 0.662204,0.543534 1.564637,0.956156 1.899598,0.868563 0.153229,-0.04007 0.554944,-0.372654 0.892698,-0.739074 0.554659,-0.601735 0.606532,-0.722635 0.535922,-1.249075 -0.107661,-0.802673 -0.423136,-1.226973 -1.171635,-1.575793 -1.177535,-0.548764 -1.532355,-0.538865 -2.196641,0.06128 -0.384209,0.347111 -0.589792,0.455669 -0.589792,0.311444 0,-0.525855 -0.392519,-0.595276 -1.439735,-0.254636 -2.372579,0.771758 -4.13637,2.176151 -4.970588,3.957763 -0.594134,1.26887 -0.728624,3.108704 -0.338801,4.634781 0.610934,2.391675 2.222609,4.810917 3.983743,5.979892 1.76857,1.17391 4.196958,1.583532 6.253995,1.054926 z M 104.18548,61.280957 c 0.16543,-0.309117 0.22551,-13.283829 0.0635,-13.706121 -0.2702,-0.70412 -0.64012,-0.174935 -4.11124,5.881261 -2.938289,5.126559 -3.753086,6.720886 -3.468156,6.786213 0.719761,0.165022 6.805326,1.297317 7.034286,1.308817 0.18531,0.0093 0.39504,-0.108337 0.48165,-0.27017 z m 3.08428,-22.869592 c 0.12896,-0.157844 0.47773,-3.154446 0.47773,-4.104671 0,-0.397239 -0.63432,-0.668199 -1.0471,-0.447285 -0.26289,0.140696 -0.2867,0.328961 -0.2867,2.267481 0,2.092998 0.0809,2.469725 0.5302,2.469725 0.096,0 0.24262,-0.08336 0.32587,-0.18525 z m 13.88555,21.306896 c 0.73123,-0.278146 1.35264,-0.482595 1.3809,-0.454332 0.0702,0.0702 -2.28289,0.971114 -2.52038,0.96497 -0.10452,-0.0027 0.40825,-0.232492 1.13948,-0.510638 z M 93.263764,51.239114 c 0.144194,-0.03758 0.344264,-0.0351 0.4446,0.0055 0.100336,0.0406 -0.01764,0.07134 -0.26217,0.06832 -0.24453,-0.003 -0.326624,-0.03623 -0.18243,-0.07381 z m 2.166386,-0.114763 c 0.520606,-0.119242 1.27519,-0.325959 1.67685,-0.45937 0.95599,-0.317529 1.05796,-0.186779 0.18421,0.236195 -0.461499,0.223409 -1.041667,0.351821 -1.749086,0.387136 l -1.05853,0.05285 0.946556,-0.216806 z m 18.19199,-0.42494 c 1.14865,-0.849666 2.68779,-2.502965 3.35941,-3.608568 1.7726,-2.918012 2.76389,-7.642863 2.35018,-11.201852 -0.55289,-4.756447 -2.66216,-8.226101 -6.54192,-10.761166 -2.67859,-1.750212 -5.34789,-2.589609 -8.22862,-2.587593 -2.59395,0.0018 -4.46943,0.528029 -6.949331,1.949812 -5.817196,3.335132 -9.852061,8.948771 -11.205447,15.589953 -0.374022,1.835354 -0.373742,2.905502 0.0012,4.383862 0.428901,1.691359 1.077918,2.905969 2.173155,4.066977 1.132841,1.200872 2.135411,1.875849 3.454158,2.325503 0.531697,0.181293 0.851537,0.331345 0.710755,0.33345 -0.479437,0.0072 -2.260859,-0.749598 -3.192214,-1.356079 -1.458981,-0.950065 -2.977767,-2.670065 -3.793147,-4.295677 -1.03518,-2.063821 -1.33526,-3.454584 -1.240727,-5.750333 0.17932,-4.355809 2.067258,-7.869316 6.110816,-11.372476 3.8123,-3.302807 7.42333,-5.255021 11.337292,-6.129231 0.69284,-0.154749 1.52646,-0.291585 1.8525,-0.304079 l 0.5928,-0.02272 -0.5187,-0.09805 c -0.89452,-0.169093 2.05032,-0.344378 3.59385,-0.213916 1.02454,0.08659 1.23982,0.137534 0.85215,0.201638 -0.44845,0.07416 -0.3831,0.100684 0.48255,0.195879 2.60029,0.285952 6.25505,1.588146 8.18602,2.916687 1.15915,0.797514 2.56356,2.209381 3.31442,3.332003 1.602,2.395197 2.28152,4.912785 2.28092,8.450678 -8.9e-4,5.149471 -1.21138,8.562005 -4.17562,11.77165 -0.37023,0.400881 -0.57687,0.749844 -0.53051,0.895916 0.0583,0.183587 -0.13969,0.31352 -0.85067,0.558352 -0.50963,0.175497 -1.58308,0.555943 -2.38543,0.845434 -0.80235,0.289491 -1.55995,0.526347 -1.68355,0.526347 -0.1236,0 0.16607,-0.289082 0.64372,-0.642404 z"
       id="path6614"
       style="fill:#a45a51" /></g></svg>