<?xml version="1.0" encoding="UTF-8" standalone="no"?>
<!-- Created with Inkscape (http://www.inkscape.org/) -->

<svg
   xmlns:dc="http://purl.org/dc/elements/1.1/"
   xmlns:cc="http://creativecommons.org/ns#"
   xmlns:rdf="http://www.w3.org/1999/02/22-rdf-syntax-ns#"
   xmlns:svg="http://www.w3.org/2000/svg"
   xmlns="http://www.w3.org/2000/svg"
   xmlns:xlink="http://www.w3.org/1999/xlink"
   version="1.1"
   width="383.362"
   height="383.362"
   viewBox="0 0 383.362 383.362"
   id="Layer_1"
   xml:space="preserve"><metadata
     id="metadata13"><rdf:RDF><cc:Work
         rdf:about=""><dc:format>image/svg+xml</dc:format><dc:type
           rdf:resource="http://purl.org/dc/dcmitype/StillImage" /><dc:title></dc:title></cc:Work></rdf:RDF></metadata><defs
     id="defs11"><linearGradient
       id="linearGradient4541"
       gradientTransform="translate(-9.1010039,-9.4380777)"><stop
         id="stop4543"
         style="stop-color:#b4d461;stop-opacity:1"
         offset="0" /></linearGradient><linearGradient
       x1="61.46384"
       y1="200.38123"
       x2="333.26895"
       y2="200.38123"
       id="linearGradient4545"
       xlink:href="#linearGradient4541"
       gradientUnits="userSpaceOnUse" /></defs><g
     transform="translate(-30.649002,-30.979004)"
     id="g3"><circle
       cx="222.33"
       cy="222.66"
       r="191.681"
       id="circle5"
       style="fill:#6dc497" /></g><g
     transform="translate(3.4158985,0.75272538)"
     id="g4547"><path
       d="m 320.27776,275.51631 c -0.1394,-0.0268 -0.22786,-0.0901 -0.1966,-0.14067 0.0313,-0.0506 -0.0729,-0.12452 -0.23144,-0.16432 -0.84454,-0.21197 -1.72693,-1.10151 -2.53397,-2.55447 -0.79158,-1.42516 -1.70056,-2.5785 -3.06367,-3.88725 -3.33743,-3.20433 -5.40241,-4.47527 -11.00944,-6.77598 -2.99344,-1.22828 -4.5137,-1.92675 -5.69379,-2.61595 -0.81256,-0.47457 -0.83812,-0.48103 -2.51513,-0.63542 -8.24281,-0.75883 -11.40461,-0.88472 -16.18528,-0.64446 -3.28901,0.16528 -3.71301,0.32066 -5.04906,1.85016 -1.87257,2.1437 -2.64032,2.66715 -3.91195,2.66715 -0.65035,0 -0.86368,-0.0583 -1.62856,-0.44521 -0.4841,-0.24485 -1.23267,-0.75022 -1.66348,-1.12302 -0.43082,-0.37281 -1.08543,-0.84789 -1.4547,-1.05576 -0.65456,-0.36844 -2.87049,-1.37355 -4.07448,-1.84812 -0.78747,-0.3104 -0.83803,-0.34893 -2.25084,-1.71618 -2.24793,-2.17545 -4.46417,-3.35102 -7.47394,-3.96445 -0.92504,-0.18853 -5.71008,-0.19801 -99.97507,-0.19801 l -99.003527,0 0,-72.91342 0,-72.91343 1.59458,-0.0729 c 0.87701,-0.0401 61.146617,-0.0731 133.932457,-0.0734 l 132.33789,-4.1e-4 -0.005,0.25177 c -0.003,0.13848 0.0782,0.69898 0.17969,1.24556 0.44933,2.42057 0.0565,4.69942 -1.12964,6.55371 -0.59635,0.93225 -1.72067,2.04363 -3.20543,3.16853 -2.53772,1.92266 -5.35893,4.56165 -6.19168,5.79176 -0.94355,1.39377 -1.10339,2.79155 -0.46907,4.10187 0.37288,0.77027 1.16783,1.55687 2.38207,2.35703 1.4284,0.9413 2.07679,1.58806 2.56737,2.56094 1.1332,2.24722 2.36404,3.1567 5.06373,3.74161 1.44085,0.31217 2.23482,0.59935 2.92806,1.05906 0.68544,0.45452 1.08688,1.01444 1.37594,1.91906 0.11445,0.35819 0.21659,0.6009 0.22698,0.53936 0.16435,-0.97383 0.20508,7.64774 0.21059,44.59215 l 0.006,43.80885 -3.02292,-0.0331 c -2.58868,-0.0284 -3.03208,-0.009 -3.08658,0.13274 -0.035,0.0912 0.13978,0.50897 0.38842,0.92833 0.54435,0.91807 0.92579,1.9087 1.19842,3.11235 0.23526,1.03868 0.274,3.29528 0.1155,6.72893 -0.0543,1.17757 -0.0657,2.31055 -0.0251,2.51775 0.0565,0.28904 0.20455,0.4655 0.63594,0.75815 1.16409,0.78969 1.94194,1.92096 2.36728,3.44281 0.22984,0.8224 0.24321,1.0794 0.22015,4.23256 -0.0278,3.7989 -0.13247,5.15157 -0.54124,6.99375 -0.56685,2.5546 -0.98677,3.6208 -2.33572,5.9307 -0.34144,0.58468 -0.72001,1.38307 -0.84124,1.77421 -0.42986,1.38673 -0.21551,2.86747 0.58224,4.02236 1.32006,1.91101 1.56008,2.35708 2.38086,4.42457 0.4718,1.18846 0.84231,2.23255 0.82337,2.32018 -0.019,0.0876 -0.16035,0.19114 -0.31422,0.23002 -0.31547,0.0797 -2.04777,0.0925 -2.43548,0.018 z M 52.892033,106.55888 c -0.0372,-0.0372 -0.1337,-0.0412 -0.21448,-0.009 -0.0893,0.0357 -0.0628,0.0622 0.0676,0.0676 0.11796,0.005 0.18405,-0.0216 0.14687,-0.0588 z"
       id="path4549"
       style="fill:url(#linearGradient4541);stroke:none" /></g><path
     d=""
     id="path3098"
     style="fill:#000000" /></svg>