<?xml version="1.0" encoding="UTF-8" standalone="no"?>
<!-- Generator: Adobe Illustrator 17.0.0, SVG Export Plug-In . SVG Version: 6.00 Build 0)  -->

<svg
   xmlns:dc="http://purl.org/dc/elements/1.1/"
   xmlns:cc="http://creativecommons.org/ns#"
   xmlns:rdf="http://www.w3.org/1999/02/22-rdf-syntax-ns#"
   xmlns:svg="http://www.w3.org/2000/svg"
   xmlns="http://www.w3.org/2000/svg"
   xmlns:sodipodi="http://sodipodi.sourceforge.net/DTD/sodipodi-0.dtd"
   xmlns:inkscape="http://www.inkscape.org/namespaces/inkscape"
   version="1.1"
   id="Layer_1"
   x="0px"
   y="0px"
   width="383.452"
   height="383.452"
   viewBox="0 0 383.452 383.452"
   enable-background="new 0 0 450 450"
   xml:space="preserve"
   inkscape:version="0.48.4 r9939"
   sodipodi:docname="Ford_Over.svg"><metadata
     id="metadata73"><rdf:RDF><cc:Work
         rdf:about=""><dc:format>image/svg+xml</dc:format><dc:type
           rdf:resource="http://purl.org/dc/dcmitype/StillImage" /><dc:title></dc:title></cc:Work></rdf:RDF></metadata><defs
     id="defs71" /><sodipodi:namedview
     pagecolor="#ffffff"
     bordercolor="#666666"
     borderopacity="1"
     objecttolerance="10"
     gridtolerance="10"
     guidetolerance="10"
     inkscape:pageopacity="0"
     inkscape:pageshadow="2"
     inkscape:window-width="640"
     inkscape:window-height="480"
     id="namedview69"
     showgrid="false"
     fit-margin-top="0"
     fit-margin-left="0"
     fit-margin-right="0"
     fit-margin-bottom="0"
     inkscape:zoom="0.52444444"
     inkscape:cx="196.168"
     inkscape:cy="189.431"
     inkscape:window-x="0"
     inkscape:window-y="34"
     inkscape:window-maximized="0"
     inkscape:current-layer="Layer_1" /><g
     id="g3"
     transform="translate(-28.832001,-30.979004)"><circle
       cx="220.558"
       cy="222.705"
       r="191.726"
       id="circle5"
       sodipodi:cx="220.558"
       sodipodi:cy="222.705"
       sodipodi:rx="191.726"
       sodipodi:ry="191.726"
       style="fill:#61c7ce"
       d="m 412.284,222.705 c 0,105.88735 -85.83866,191.726 -191.726,191.726 -105.88735,0 -191.725999,-85.83865 -191.725999,-191.726 0,-105.88734 85.838649,-191.725996 191.725999,-191.725996 105.88734,0 191.726,85.838656 191.726,191.725996 z" /><path
       d="M 229.07,222.705"
       id="path7"
       inkscape:connector-curvature="0"
       style="fill:#3b94a8" /><g
       id="g9"><g
         id="g11"><g
           id="g13"><path
             d="m 77.659,164.435 c 4.545,37.828 7.779,77.752 0,115.364 -0.012,0.057 12.251,2.113 12.445,1.176 7.779,-37.613 4.545,-77.537 0,-115.364 -0.164,-1.36 -12.4,-0.807 -12.445,-1.176 l 0,0 z"
             id="path15"
             inkscape:connector-curvature="0"
             style="fill:#161738" /></g></g><g
         id="g17"><g
           id="g19"><path
             d="m 99.159,229.203 c 9.512,-0.734 18.945,-2.35 28.42,-3.432 8.241,-0.941 18.409,-2.69 26.44,0.236 -2.365,-0.862 -5.921,-6.405 -9.321,-7.644 -7.892,-2.876 -17.397,-1.393 -25.527,-0.541 -9.942,1.041 -19.811,2.812 -29.78,3.581 0.614,-0.047 4.129,3.676 4.699,4.131 0.894,0.714 3.786,3.768 5.069,3.669 l 0,0 z"
             id="path21"
             inkscape:connector-curvature="0"
             style="fill:#161738" /></g></g><g
         id="g23"><g
           id="g25"><path
             d="m 83.559,183.606 c 10.837,-5.857 24.21,-6.718 36.278,-7.197 13.461,-0.535 27.065,0.218 40.404,2.079 1.168,0.163 4.172,-3.189 4.933,-3.853 0.43,-0.376 4.1,-4.423 4.482,-4.369 -13.366,-1.864 -26.918,-2.516 -40.404,-2.079 -12.21,0.396 -25.778,1.433 -36.734,7.353 -2.177,1.177 -4.128,3.238 -5.948,4.877 -0.586,0.527 -3.072,3.222 -3.011,3.189 l 0,0 z"
             id="path27"
             inkscape:connector-curvature="0"
             style="fill:#161738" /></g></g></g><g
       id="g29"><g
         id="g31"><path
           d="m 187.79,163.817 c -10.803,-3.756 -17.572,11.064 -20.768,18.75 -6.243,15.013 -9.21,31.624 -10.64,47.748 -0.976,11.009 -2.606,26.374 3.483,36.337 3.525,5.769 9.448,11.461 14.84,15.546 3.578,2.711 7.836,4.515 12.357,4.591 9.532,0.161 16.96,-7.971 21.791,-15.26 6.922,-10.445 10.877,-22.887 13.179,-35.112 2.394,-12.718 2.814,-26.126 -0.079,-38.796 -2.919,-12.781 -10.774,-22.936 -20.457,-31.552 -5.504,-4.898 -12.679,-7.15 -19.942,-7.449 0.58,0.024 3.541,4.296 4.004,4.806 0.708,0.78 3.207,4.397 4.401,4.446 5.887,0.243 11.57,1.7 16.543,4.929 1.054,0.684 2.038,1.471 2.993,2.286 1.831,1.562 -5.786,-7.4 -2.313,-2.232 1.691,2.517 3.006,5.272 4.108,8.09 4.596,11.749 4.904,25.04 3.62,37.436 -1.334,12.874 -4.822,25.739 -10.661,37.31 -4.318,8.558 -10.776,17.857 -20.295,21.015 -3.7,1.228 -7.64,1.006 -11.291,-0.257 -2.361,-0.817 -4.495,-2.162 -6.475,-3.662 -3.062,-2.319 -4.481,-6.021 2.127,3.049 -0.602,-0.826 -1.037,-1.773 -1.423,-2.714 -4.731,-11.508 -2.931,-26.512 -1.614,-38.488 1.658,-15.071 4.837,-30.405 10.813,-44.39 3.175,-7.431 9.905,-20.721 20.105,-17.175 -1.081,-0.376 -3.201,-3.923 -4.004,-4.806 -1.065,-1.17 -2.828,-3.899 -4.402,-4.446 l 0,0 z"
           id="path33"
           inkscape:connector-curvature="0"
           style="fill:#161738" /></g></g><g
       id="g35"><g
         id="g37"><g
           id="g39"><path
             d="m 222.827,163.495 c -1.142,22.195 1.235,44.465 1.55,66.659 0.32,22.583 -0.572,46.838 -10.904,67.414 0.54,-1.075 4.131,-2.799 5.134,-3.578 1.358,-1.054 3.935,-2.486 4.739,-4.087 10.127,-20.166 11.075,-43.741 10.92,-65.879 -0.159,-22.717 -2.736,-45.477 -1.566,-68.193 -0.021,0.407 -4.678,3.224 -5.134,3.578 -0.782,0.606 -4.68,2.933 -4.739,4.086 l 0,0 z"
             id="path41"
             inkscape:connector-curvature="0"
             style="fill:#161738" /></g></g><g
         id="g43"><g
           id="g45"><path
             d="m 235.885,153.907 c 1.315,-2.026 2.907,-3.525 5.02,-4.714 4.337,-2.44 -7.881,1.331 -3.304,1.029 1.416,-0.093 2.84,-0.005 4.253,0.094 6.091,0.429 12.077,2.569 17.539,5.193 10.107,4.856 16.843,11.93 19.372,22.936 2.801,12.188 1.521,26.211 -3.447,37.668 -1.048,2.416 -2.444,4.653 -4.068,6.718 -1.416,1.8 -3.21,3.268 -5.065,4.586 -2.229,1.585 -8.401,2.693 -0.763,1.337 -7.043,1.251 -14.354,0.477 -21.463,0.988 -1.439,0.103 -11.605,3.509 -11.845,3.23 9.344,10.897 20.301,20.293 29.303,31.492 8.7,10.823 13.877,25.091 24.742,33.985 0.834,0.683 5.27,-1.021 6.134,-1.249 0.463,-0.122 5.766,-2.096 5.951,-1.945 -10.361,-8.482 -15.767,-22.044 -23.696,-32.638 -8.942,-11.947 -20.655,-21.535 -30.349,-32.839 -3.948,1.077 -7.896,2.153 -11.845,3.23 16.044,-1.153 34.677,0.4 48.078,-10.42 12.64,-10.206 13.36,-32.867 10.417,-47.337 -3.067,-15.078 -16.361,-23.35 -30.462,-27.028 -6.55,-1.708 -12.899,-1.467 -19.431,0.108 -6.328,1.526 -13.383,2.956 -17.157,8.77 0.306,-0.471 5.446,-1.067 6.134,-1.249 1.179,-0.311 5.205,-0.795 5.952,-1.945 l 0,0 z"
             id="path47"
             inkscape:connector-curvature="0"
             style="fill:#161738" /></g></g></g><g
       id="g49"><g
         id="g51"><g
           id="g53"><path
             d="m 295.07,159.009 c 6.496,38.062 3.511,77.098 3.471,115.501 1.051,3.879 2.101,7.757 3.152,11.635 0,-1.773 0,-3.546 0,-5.319 0,-3.682 -3.152,-9.061 -3.152,-11.635 0,1.773 0,3.546 0,5.319 0,3.681 3.155,9.063 3.152,11.635 0.041,-38.853 2.95,-78.254 -3.621,-116.762 -0.479,-2.806 -1.199,-5.585 -1.99,-8.317 -0.095,-0.328 -1.408,-4.376 -1.012,-2.057 l 0,0 z"
             id="path55"
             inkscape:connector-curvature="0"
             style="fill:#161738" /></g></g><g
         id="g57"><g
           id="g59"><path
             d="m 288.98,159.171 c 27.719,13.415 57.31,31.827 62.629,64.628 2.478,15.278 -1.467,31.054 -10.176,43.74 -4.802,6.996 -8.619,10.196 -16.102,13.576 -7.754,3.503 -16.246,5.031 -24.716,5.124 -1.462,0.016 -4.072,2.771 -5.125,3.591 -0.689,0.537 -3.962,4.08 -4.737,4.089 18.15,-0.199 33.199,-8.099 46.841,-19.549 13.029,-10.936 21.939,-24.822 24.155,-41.916 5.288,-40.803 -30.74,-65.395 -62.906,-80.962 -2.024,-0.98 -8.61,8.285 -9.863,7.679 l 0,0 z"
             id="path61"
             inkscape:connector-curvature="0"
             style="fill:#161738" /></g></g></g><g
       id="g63"><g
         id="g65"><path
           d="m 87.387,320.846 c 46.651,0 93.303,0 139.954,0 32.744,0 65.488,0 98.231,0 2.418,0 2.418,-3.75 0,-3.75 -46.651,0 -93.303,0 -139.954,0 -32.744,0 -65.488,0 -98.231,0 -2.418,0 -2.418,3.75 0,3.75 l 0,0 z"
           id="path67"
           inkscape:connector-curvature="0"
           style="fill:#161738" /></g></g></g></svg>