<?xml version="1.0" encoding="UTF-8" standalone="no"?>
<!-- Generator: Adobe Illustrator 17.0.0, SVG Export Plug-In . SVG Version: 6.00 Build 0)  -->

<svg
   xmlns:dc="http://purl.org/dc/elements/1.1/"
   xmlns:cc="http://creativecommons.org/ns#"
   xmlns:rdf="http://www.w3.org/1999/02/22-rdf-syntax-ns#"
   xmlns:svg="http://www.w3.org/2000/svg"
   xmlns="http://www.w3.org/2000/svg"
   xmlns:sodipodi="http://sodipodi.sourceforge.net/DTD/sodipodi-0.dtd"
   xmlns:inkscape="http://www.inkscape.org/namespaces/inkscape"
   version="1.1"
   id="Layer_1"
   x="0px"
   y="0px"
   width="383.362"
   height="383.362"
   viewBox="0 0 383.362 383.362"
   enable-background="new 0 0 450 450"
   xml:space="preserve"
   inkscape:version="0.48.4 r9939"
   sodipodi:docname="Julep_Over.svg"><metadata
     id="metadata35"><rdf:RDF><cc:Work
         rdf:about=""><dc:format>image/svg+xml</dc:format><dc:type
           rdf:resource="http://purl.org/dc/dcmitype/StillImage" /><dc:title></dc:title></cc:Work></rdf:RDF></metadata><defs
     id="defs33" /><sodipodi:namedview
     pagecolor="#ffffff"
     bordercolor="#666666"
     borderopacity="1"
     objecttolerance="10"
     gridtolerance="10"
     guidetolerance="10"
     inkscape:pageopacity="0"
     inkscape:pageshadow="2"
     inkscape:window-width="640"
     inkscape:window-height="480"
     id="namedview31"
     showgrid="false"
     fit-margin-top="0"
     fit-margin-left="0"
     fit-margin-right="0"
     fit-margin-bottom="0"
     inkscape:zoom="0.52444444"
     inkscape:cx="194.336"
     inkscape:cy="189.341"
     inkscape:window-x="0"
     inkscape:window-y="34"
     inkscape:window-maximized="0"
     inkscape:current-layer="Layer_1" /><g
     id="g3"
     transform="translate(-30.664001,-30.979004)"><circle
       cx="222.345"
       cy="222.66"
       r="191.681"
       id="circle5"
       sodipodi:cx="222.345"
       sodipodi:cy="222.66"
       sodipodi:rx="191.681"
       sodipodi:ry="191.681"
       style="fill:#cb9ac6"
       d="m 414.026,222.66 c 0,105.8625 -85.81851,191.681 -191.681,191.681 -105.86249,0 -191.680999,-85.8185 -191.680999,-191.681 0,-105.86249 85.818509,-191.680996 191.680999,-191.680996 105.86249,0 191.681,85.818506 191.681,191.680996 z" /><g
       id="g7"><path
         d="m 149.477,142.877 c -11.286,4.714 -24.99,13.919 -27.653,26.422 -2.705,12.696 -5.327,29.281 -3.96,42.268 0.744,7.069 5.567,32.91 15.109,33.185 l 0.447,1.954 c -4.85,7.854 -4.294,16.679 -6.942,25.421 -3.261,10.765 -9.059,21.048 -12.017,31.968 -1.112,4.104 -5.279,17.404 -2.846,21.378 4.218,6.89 9.215,-10.778 10.319,-14.33 4.708,-15.155 7.601,-30.719 12.7,-45.745 6.274,-18.492 14.758,-36.367 21.56,-54.693 5.327,-14.352 8.273,-29.175 11.081,-43.992 3.023,-15.956 3.434,-32.706 -17.798,-23.836 z m 8.834,31.057 c -1.359,14.01 -4.247,27.555 -11.009,39.832 -3.43,6.227 -5.629,13.462 -9.768,19.085 0.412,-0.952 0.853,-1.89 1.324,-2.815 l -2.952,4.172 c -10.08,-8.392 -9.733,-23.741 -7.36,-35.742 1.815,-9.181 3.395,-26.822 10.835,-32.734 3.252,-2.584 11.662,-7.071 15.844,-5.933 5.949,1.617 3.601,8.827 3.086,14.135 z"
         id="path9"
         inkscape:connector-curvature="0"
         style="fill:#ffffff" /><path
         d="m 326.457,232.95 c -4.574,-0.118 -10.021,3.681 -14.434,5.172 9.619,-6.233 11.563,-22.281 1.644,-30.77 -6.428,-5.501 -21.299,-6.687 -25.14,2.618 0.451,-4.085 0.953,-14.243 -4.846,-7.142 -2.782,3.407 -1.884,12.079 -1.875,16.221 0.014,6.296 1.303,11.353 -5.238,14.63 -5.589,2.8 -12.934,1.718 -18.957,0.76 2.334,-3.354 7.256,-5.238 9.623,-9.816 2.571,-4.973 2.245,-10.267 2.287,-15.682 0.079,-10.177 -3.086,-18.127 -14.793,-12.757 -10.472,4.803 -11.861,16.773 -11.355,26.792 0.878,17.392 -5.971,5.488 -11.791,-2.542 12.915,-16.077 23.44,-42.524 19.335,-63.596 -2.436,-12.503 -16.061,-15.378 -25.876,-7.671 -11.137,8.746 -11.761,22.737 -13.005,35.567 -0.802,8.27 -3.544,18.504 -2.621,26.705 0.746,6.63 7.762,11.976 6.362,18.943 -4.338,1.356 -10.024,1.882 -14.655,1.237 -8.265,-1.152 -7.635,-5.502 -5.784,-12.801 0.861,-3.396 4.973,-12.541 0.889,-15.232 -6.865,-4.524 -7.523,11.581 -7.883,15.299 -0.636,6.557 -0.593,12.313 -6.627,15.947 -6.732,4.055 -13.299,1.818 -12.757,-6.492 0.471,-7.228 5.955,-13.37 7.236,-20.634 0.741,-4.204 -2.694,-18.064 -8.285,-7.968 l 3.522,-3.48 c -6.721,14.917 -17.935,30 -17.962,47.298 -0.034,22.143 31.142,12.027 39.595,0.703 6.075,8.387 28.898,-0.144 30.638,-9.574 6.826,2.222 16.185,12.442 23.226,5.296 5.173,2.713 6.956,5.911 13.213,6.917 4.672,0.751 12.522,1.247 14.375,-4.083 0.233,0.229 0.757,0.642 1.143,0.594 -0.244,5.779 1.69,11.402 1.646,17.111 -0.051,6.57 -1.363,13.336 -2.591,19.654 -1.68,8.643 -9.495,24.405 -5.08,32.495 13.289,-21.287 10.904,-47.624 14.564,-71.489 10.039,8.487 33.636,10.696 43.739,1.307 4.277,-3.98 6.138,-9.34 -1.482,-9.537 z m -100.849,-17.427 1.709,2.076 c -7.538,-17.672 -13.055,-45.081 4.599,-59.261 4.727,-3.797 10.6,-7.297 15.057,-0.473 3.37,5.16 0.35,10.6 -1.405,15.663 -3.655,10.545 -6.001,21.682 -9.596,32.172 -1.689,4.929 -3.619,9.002 -7.568,12.542 -1.39,-0.437 -2.228,-1.427 -2.796,-2.719 z m 27.86,14.804 c -2.003,-4.638 -1.436,-20.647 5.52,-23.742 6.756,7.543 -1.822,16.906 -4.889,23.803 l -0.631,-0.061 z m 33.396,5.197 c 0.62,-0.111 1.225,-0.28 1.815,-0.508 l -1.954,0.447 c 0.927,-9.562 -0.719,-30.184 13.314,-19.071 12.058,9.55 -1.604,21.295 -13.175,19.132 z"
         id="path11"
         inkscape:connector-curvature="0"
         style="fill:#ffffff" /></g><g
       id="g13"><line
         stroke-miterlimit="10"
         x1="139.823"
         y1="269.09299"
         x2="267.51199"
         y2="269.09299"
         id="line15"
         style="fill:none;stroke:#ffffff;stroke-miterlimit:10" /><line
         stroke-miterlimit="10"
         x1="287.35101"
         y1="269.09299"
         x2="331.66101"
         y2="269.09299"
         id="line17"
         style="fill:none;stroke:#ffffff;stroke-miterlimit:10" /></g><g
       id="g19"><line
         stroke-miterlimit="10"
         x1="139.823"
         y1="278.85999"
         x2="267.51199"
         y2="278.85999"
         id="line21"
         style="fill:none;stroke:#ffffff;stroke-miterlimit:10" /><line
         stroke-miterlimit="10"
         x1="287.35101"
         y1="278.85999"
         x2="331.66101"
         y2="278.85999"
         id="line23"
         style="fill:none;stroke:#ffffff;stroke-miterlimit:10" /></g><g
       id="g25"><line
         stroke-miterlimit="10"
         x1="139.823"
         y1="288.62701"
         x2="267.51199"
         y2="288.62701"
         id="line27"
         style="fill:none;stroke:#ffffff;stroke-miterlimit:10" /><line
         stroke-miterlimit="10"
         x1="287.35101"
         y1="288.62701"
         x2="331.66101"
         y2="288.62701"
         id="line29"
         style="fill:none;stroke:#ffffff;stroke-miterlimit:10" /></g></g></svg>