<?xml version="1.0" encoding="UTF-8" standalone="no"?>
<!-- Created with Inkscape (http://www.inkscape.org/) -->

<svg
   xmlns:dc="http://purl.org/dc/elements/1.1/"
   xmlns:cc="http://creativecommons.org/ns#"
   xmlns:rdf="http://www.w3.org/1999/02/22-rdf-syntax-ns#"
   xmlns:svg="http://www.w3.org/2000/svg"
   xmlns="http://www.w3.org/2000/svg"
   version="1.1"
   width="383.362"
   height="383.362"
   viewBox="0 0 383.362 383.362"
   id="Layer_1"
   xml:space="preserve"><metadata
     id="metadata13"><rdf:RDF><cc:Work
         rdf:about=""><dc:format>image/svg+xml</dc:format><dc:type
           rdf:resource="http://purl.org/dc/dcmitype/StillImage" /><dc:title></dc:title></cc:Work></rdf:RDF></metadata><defs
     id="defs11" /><g
     transform="translate(-30.664001,-30.979004)"
     id="g3"><circle
       cx="222.345"
       cy="222.66"
       r="191.681"
       id="circle5"
       style="fill:#cb9ac6" /></g><path
     d="m 163.70682,342.90668 c -0.2211,-0.0714 -0.76545,-0.1371 -1.20967,-0.14591 -0.63935,-0.0127 -0.99121,-0.13612 -1.6884,-0.59229 -1.89964,-1.24295 -2.87424,-2.5843 -3.12055,-4.29483 -0.23007,-1.59783 -0.23351,-177.09721 -0.003,-178.68273 0.18443,-1.27127 0.70324,-2.16275 1.97327,-3.39062 0.99673,-0.96365 2.82033,-1.84136 4.05916,-1.95369 0.89382,-0.0811 0.95448,-0.0648 0.95448,0.256 0,0.18839 -0.25735,0.67969 -0.57189,1.09176 -0.31454,0.41207 -0.7148,1.02933 -0.88945,1.37168 l -0.31756,0.62247 0.67245,1.1514 c 1.5007,2.56955 3.02248,6.27903 3.97753,9.69561 2.2452,8.03189 2.7429,17.60568 1.76381,33.9288 -0.28685,4.78229 -0.35773,7.60592 -0.36125,14.3916 -0.005,9.19292 0.026,9.81109 1.19223,23.9592 0.86265,10.46519 1.08074,13.85413 1.36598,21.2256 0.56044,14.4834 1.2838,21.39449 2.97212,28.39597 2.6481,10.98167 8.42597,19.69538 15.65232,23.60553 2.68288,1.45171 6.23148,2.33366 8.47251,2.10573 4.67005,-0.47497 8.373,-2.3856 10.75814,-5.55092 3.43999,-4.5652 4.91019,-11.0575 5.64289,-24.91871 0.0958,-1.81302 0.24617,-4.08604 0.33407,-5.05114 0.87753,-9.63417 1.03385,-16.67247 0.79673,-35.87246 -0.14933,-12.09135 -0.15408,-17.53585 -0.0192,-21.9492 0.18523,-6.05904 0.44185,-11.09557 0.594,-11.658 0.0479,-0.17688 0.14962,-5.71242 0.22616,-12.3012 0.13729,-11.81918 0.27457,-15.34608 0.73856,-18.9744 1.01668,-7.95036 1.25024,-12.51943 0.79729,-15.5976 -0.51264,-3.48387 -1.70778,-6.20302 -3.62918,-8.25699 -0.67071,-0.717 -0.9635,-1.15814 -0.9635,-1.4517 l 0,-0.42171 2.55085,0 c 1.40297,0 2.94062,0.0735 3.417,0.16324 1.4204,0.26771 3.10382,1.1643 4.14963,2.21011 1.1226,1.1226 1.46757,1.73954 1.68501,3.01345 0.22239,1.30295 0.22602,177.57112 0.004,179.05081 -0.17744,1.18086 -0.71862,2.09573 -1.85937,3.14331 -1.06621,0.97913 -1.89053,1.42059 -2.952,1.58093 -1.20511,0.18202 -56.61061,0.2798 -57.1644,0.1009 z m -4.6632,-243.28363 c 0,-37.760738 0.0501,-52.813781 0.1777,-53.425807 0.40232,-1.929244 1.61299,-3.731491 3.27611,-4.876925 0.71875,-0.49502 1.13656,-0.654698 2.06048,-0.787458 1.59818,-0.229647 52.49725,-0.229647 54.09543,0 0.92391,0.13276 1.34173,0.292438 2.06047,0.787458 1.66312,1.145434 2.87379,2.947681 3.27611,4.876925 0.12763,0.612026 0.1777,15.665069 0.1777,53.425807 l 0,52.57368 -32.562,0 -32.562,0 0,-52.57368 z"
     id="path5477"
     style="fill:#ffffff;fill-opacity:1" /></svg>