<?xml version="1.0" encoding="UTF-8" standalone="no"?>
<!-- Created with Inkscape (http://www.inkscape.org/) -->

<svg
   xmlns:dc="http://purl.org/dc/elements/1.1/"
   xmlns:cc="http://creativecommons.org/ns#"
   xmlns:rdf="http://www.w3.org/1999/02/22-rdf-syntax-ns#"
   xmlns:svg="http://www.w3.org/2000/svg"
   xmlns="http://www.w3.org/2000/svg"
   xmlns:xlink="http://www.w3.org/1999/xlink"
   version="1.1"
   width="384.56201"
   height="384.56201"
   viewBox="0 0 384.56201 384.56201"
   id="Layer_1"
   xml:space="preserve"><metadata
     id="metadata13"><rdf:RDF><cc:Work
         rdf:about=""><dc:format>image/svg+xml</dc:format><dc:type
           rdf:resource="http://purl.org/dc/dcmitype/StillImage" /><dc:title></dc:title></cc:Work></rdf:RDF></metadata><defs
     id="defs11"><linearGradient
       id="linearGradient7879"><stop
         id="stop7881"
         style="stop-color:#d44758;stop-opacity:1"
         offset="0" /></linearGradient><linearGradient
       x1="151.13969"
       y1="194.36986"
       x2="233.42619"
       y2="194.36986"
       id="linearGradient7883"
       xlink:href="#linearGradient7879"
       gradientUnits="userSpaceOnUse" /></defs><g
     transform="translate(-27.876999,-30.978989)"
     id="g3"><circle
       cx="220.158"
       cy="223.25999"
       r="192.28101"
       id="circle5"
       style="fill:#d3d3d3" /></g><path
     d="m 187.8221,318.11126 c -10.5604,-1.69108 -19.25546,-8.24944 -23.79281,-17.94608 -0.65742,-1.40495 -1.6174,-4.04305 -2.13329,-5.86245 l -0.93799,-3.308 -0.11448,-78.61344 -0.11448,-78.61344 -1.85282,-0.25396 c -2.08911,-0.28634 -4.60182,-1.4488 -5.65928,-2.61817 -1.95135,-2.15783 -1.98046,-2.52755 -1.97082,-25.03234 0.008,-19.816572 0.0597,-21.316596 0.78199,-22.907146 0.90802,-1.999519 2.89055,-3.618717 5.20468,-4.250836 2.19587,-0.599816 67.98561,-0.63385 70.13689,-0.03628 2.24077,0.622424 4.11847,2.070777 5.08414,3.921621 0.843,1.615721 0.86297,2.156409 0.86297,23.362741 0,20.52216 -0.0431,21.79552 -0.78825,23.29627 -1.02996,2.07432 -3.28595,3.52503 -6.40295,4.11739 l -2.51368,0.4777 -0.11114,79.1952 -0.11114,79.19519 -0.93838,3.02723 c -4.27086,13.7779 -15.16709,22.43807 -28.97443,23.02845 -1.96764,0.0841 -4.51227,0.003 -5.65473,-0.17965 z m 8.07295,-9.55465 c 6.23366,-0.97206 12.76885,-5.82796 15.59541,-11.588 2.75359,-5.61135 2.58574,-0.0239 2.59248,-86.29626 l 0.006,-78.25487 -21.70875,0 -21.70875,0 0,78.68487 c 0,68.35187 0.0809,78.99532 0.61574,81.04886 2.20019,8.4471 9.16751,15.01625 17.3832,16.3898 2.92077,0.48831 4.1758,0.49102 7.22456,0.0156 z"
     id="path7885"
     style="fill:#d44758;fill-opacity:1" /></svg>