<?xml version="1.0" encoding="UTF-8" standalone="no"?>
<!-- Generator: Adobe Illustrator 17.0.0, SVG Export Plug-In . SVG Version: 6.00 Build 0)  -->

<svg
   xmlns:dc="http://purl.org/dc/elements/1.1/"
   xmlns:cc="http://creativecommons.org/ns#"
   xmlns:rdf="http://www.w3.org/1999/02/22-rdf-syntax-ns#"
   xmlns:svg="http://www.w3.org/2000/svg"
   xmlns="http://www.w3.org/2000/svg"
   xmlns:sodipodi="http://sodipodi.sourceforge.net/DTD/sodipodi-0.dtd"
   xmlns:inkscape="http://www.inkscape.org/namespaces/inkscape"
   version="1.1"
   id="Layer_1"
   x="0px"
   y="0px"
   width="384.56201"
   height="384.56201"
   viewBox="0 0 384.56201 384.56201"
   enable-background="new 0 0 450 450"
   xml:space="preserve"
   inkscape:version="0.48.4 r9939"
   sodipodi:docname="LC_Over.svg"><metadata
     id="metadata39"><rdf:RDF><cc:Work
         rdf:about=""><dc:format>image/svg+xml</dc:format><dc:type
           rdf:resource="http://purl.org/dc/dcmitype/StillImage" /><dc:title></dc:title></cc:Work></rdf:RDF></metadata><defs
     id="defs37" /><sodipodi:namedview
     pagecolor="#ffffff"
     bordercolor="#666666"
     borderopacity="1"
     objecttolerance="10"
     gridtolerance="10"
     guidetolerance="10"
     inkscape:pageopacity="0"
     inkscape:pageshadow="2"
     inkscape:window-width="640"
     inkscape:window-height="480"
     id="namedview35"
     showgrid="false"
     fit-margin-top="0"
     fit-margin-left="0"
     fit-margin-right="0"
     fit-margin-bottom="0"
     inkscape:zoom="0.52444444"
     inkscape:cx="196.97601"
     inkscape:cy="190.541"
     inkscape:window-x="0"
     inkscape:window-y="34"
     inkscape:window-maximized="0"
     inkscape:current-layer="Layer_1" /><g
     id="g3"
     transform="translate(-28.023987,-30.978989)"><circle
       cx="220.30499"
       cy="223.25999"
       r="192.28101"
       id="circle5"
       sodipodi:cx="220.30499"
       sodipodi:cy="223.25999"
       sodipodi:rx="192.28101"
       sodipodi:ry="192.28101"
       style="fill:#d3d3d3"
       d="m 412.586,223.25999 c 0,106.19387 -86.08714,192.28101 -192.28101,192.28101 -106.19386,0 -192.281003,-86.08714 -192.281003,-192.28101 0,-106.19386 86.087143,-192.281001 192.281003,-192.281001 106.19387,0 192.28101,86.087141 192.28101,192.281001 z" /><g
       id="g7"><g
         id="g9"><path
           d="m 156.108,209.561 c 0,0.35 -0.35,1.227 -1.399,1.227 -6.665,0 -12.274,1.227 -18.583,1.227 -2.983,0 -5.609,-0.35 -8.942,-0.878 -0.521,0 -0.878,-0.35 -0.878,-0.878 0,-11.389 -0.35,-22.436 -0.699,-33.826 -0.171,-2.455 -0.171,-7.543 -0.171,-9.991 0,-9.641 0.699,-19.46 0.871,-65.731 0,-0.528 0.878,-1.056 1.406,-1.056 0.528,0 1.227,0.528 1.399,0.878 0,23.314 -0.871,48.904 -0.871,72.218 0,12.267 0.871,23.485 0.871,35.931 2.983,0.699 5.609,0.699 8.592,0.699 5.609,0 11.396,-1.049 17.006,-1.049 1.048,0.18 1.398,0.701 1.398,1.229 z"
           id="path11"
           inkscape:connector-curvature="0"
           style="fill:#d44758" /><path
           d="m 161.56,204.651 c -0.528,2.284 -0.878,4.91 -1.755,7.015 -0.178,0.171 -0.528,0.521 -1.049,0.521 -0.357,0 -0.878,-0.35 -0.878,-0.871 0.699,-2.633 0.699,-3.511 1.049,-5.787 9.291,-44.173 10.868,-62.748 14.551,-80.803 1.577,-7.536 1.748,-15.778 4.731,-22.615 0.35,-0.699 1.756,-1.577 2.276,-1.577 1.577,0 1.934,6.658 2.284,8.414 l 3.675,28.923 c 1.406,11.568 2.983,23.314 4.56,34.882 0.699,4.731 2.276,10.519 2.983,15.421 1.227,7.893 3.675,15.25 4.032,22.964 0,0.35 -0.357,0.699 -1.056,0.699 -0.171,0 -0.699,-0.171 -1.049,-0.521 -1.406,-7.543 -2.276,-14.379 -3.861,-21.566 -0.521,-1.927 -3.504,-20.681 -4.203,-23.135 -7.885,0 -11.04,0.699 -19.104,0.699 l -7.186,37.337 z m 7.358,-39.791 c 6.308,0 12.096,-0.521 18.583,-0.521 0,-4.731 -0.878,-5.259 -0.878,-9.991 -1.399,-7.714 -2.455,-14.722 -6.137,-45.75 -0.171,-1.406 -0.521,-3.333 -0.521,-5.259 -1.406,3.154 -2.455,10.69 -3.682,16.299 -2.805,14.023 -4.032,28.395 -6.836,42.596 l -0.529,2.626 z"
           id="path13"
           inkscape:connector-curvature="0"
           style="fill:#d44758" /><path
           d="m 205.055,194.839 c 0,-10.169 -0.528,-20.338 -1.056,-30.678 -0.171,-5.431 -0.171,-10.868 -0.171,-16.299 v -22.786 c 0,-7.365 0,-14.722 -0.35,-22.086 0,-0.528 0.171,-1.227 0.871,-1.227 4.56,-0.35 8.064,-0.699 11.396,-0.699 2.805,0 5.609,0.35 7.536,1.748 4.91,3.511 7.893,13.152 8.242,22.786 v 2.983 c 0,2.276 -0.178,4.731 -0.35,7.015 -0.878,5.78 -2.812,10.69 -5.966,12.966 -2.455,1.927 -5.252,3.154 -8.235,3.504 9.812,2.455 14.372,9.12 14.372,22.964 0,4.032 0.528,14.551 0.528,16.827 0,0.35 0,0.528 0,0.528 -0.178,18.932 -9.991,19.104 -25.59,19.104 -0.528,0 -0.706,-0.171 -0.878,-0.171 -0.528,0 -1.056,-0.528 -1.056,-1.056 0,-3.854 0.528,-7.885 0.706,-11.746 v -3.677 z m 5.609,-44.173 c 4.382,0 9.291,-0.699 12.089,-2.805 3.861,-4.032 6.316,-7.186 6.316,-21.558 v -1.056 c -0.35,-8.935 -3.504,-17.876 -8.414,-21.73 -1.056,-0.706 -2.805,-0.706 -5.088,-0.706 -3.154,0 -7.008,0.178 -9.113,0.35 0.178,5.259 0.178,10.347 0.178,15.778 0,10.34 -0.178,21.209 -0.178,31.727 h 4.21 z m -3.511,48.027 c 0,3.682 -0.171,6.658 -0.171,10.34 15.949,0 22.436,-1.927 22.436,-16.649 0,-20.859 -0.35,-19.104 -1.227,-24.891 -1.227,-8.414 -4.91,-13.851 -19.81,-14.551 h -1.927 v 11.047 c 0.178,9.641 0.699,19.453 0.699,29.094 v 5.61 z"
           id="path15"
           inkscape:connector-curvature="0"
           style="fill:#d44758" /><path
           d="m 242.584,193.612 c 0,3.504 0.178,7.008 1.927,10.162 1.927,2.983 7.365,5.787 12.096,5.787 9.641,0 11.218,-20.859 11.218,-26.468 0,-8.064 0.528,-8.592 1.577,-8.592 0.699,0 0.699,0.178 0.878,2.455 0,11.568 0,25.069 -8.592,33.305 -1.227,1.227 -2.976,1.756 -4.91,1.756 -5.081,0 -11.389,-3.504 -13.666,-6.308 -1.406,-2.105 -2.455,-4.91 -2.455,-7.365 0,-2.626 -0.35,-5.787 -0.35,-8.942 0,-14.544 0.35,-28.216 0.35,-42.946 0,-3.325 -0.178,-10.69 -0.178,-17.698 0,-7.714 0.178,-15.6 1.577,-19.81 1.577,-5.259 6.665,-7.714 11.925,-7.714 4.903,0 9.991,1.927 13.145,5.088 2.455,2.448 2.976,6.658 2.976,10.69 0,2.276 -0.171,4.56 -0.171,6.308 0,0.528 -0.878,1.056 -1.577,1.056 -0.357,0 -1.056,-0.178 -1.056,-0.706 0,-2.098 0.178,-4.203 0.178,-6.13 0,-3.333 -0.35,-6.487 -2.276,-9.291 -3.333,-2.805 -7.015,-4.382 -10.868,-4.382 -3.682,0 -7.365,1.577 -10.169,5.081 -0.878,3.154 -1.049,7.365 -1.049,52.237 0,9.113 -0.528,18.575 -0.528,27.867 v 4.56 z"
           id="path17"
           inkscape:connector-curvature="0"
           style="fill:#d44758" /><path
           d="m 295.192,100.363 c 8.414,0 11.568,10.861 13.673,18.047 3.504,11.396 5.081,23.664 5.081,35.938 0,10.512 -1.227,21.38 -2.633,31.199 -1.399,8.763 -4.382,26.468 -16.47,26.468 -10.347,0 -13.673,-14.722 -15.6,-22.964 -2.455,-11.04 -3.682,-22.436 -3.682,-33.826 0,-10.169 1.049,-20.509 2.976,-30.5 1.577,-8.762 6.315,-24.362 16.655,-24.362 z m 13.145,84.835 c 1.577,-9.47 2.455,-19.282 2.455,-29.273 0,-8.763 -0.699,-17.883 -2.276,-26.818 -1.227,-6.487 -5.259,-25.947 -13.323,-26.818 -9.47,1.399 -12.274,15.25 -13.673,22.607 -1.927,10.169 -2.983,20.509 -2.983,30.678 0,11.218 1.227,22.436 3.511,33.305 1.577,6.836 3.675,16.47 10.512,20.153 1.056,0.528 2.983,0.528 3.333,0.528 0.178,0 1.406,-0.528 2.276,-0.699 7.014,-5.787 8.762,-14.9 10.168,-23.663 z"
           id="path19"
           inkscape:connector-curvature="0"
           style="fill:#d44758" /><path
           d="m 124.638,247.649 c -0.171,9.47 -0.521,20.688 -0.521,29.979 0,21.558 0.521,37.686 0.521,53.807 0,4.56 0,9.47 -0.171,14.201 -0.178,0.699 -0.699,0.878 -1.406,0.878 -0.521,0 -1.227,-0.178 -1.227,-1.056 0.178,-10.162 0.357,-20.331 0.357,-30.5 0,-17.348 -1.227,-26.818 -1.227,-37.508 0,-9.291 0.871,-20.509 1.049,-29.972 0,-2.805 0.35,-5.609 0.35,-8.592 0,-1.927 -0.171,-2.276 -0.171,-2.626 0.171,-0.528 0.699,-0.699 1.399,-0.699 0.528,0 1.049,0.171 1.577,1.049 2.633,10.34 6.308,20.16 9.113,30.15 5.088,18.226 9.819,38.207 13.502,56.611 0.871,4.032 1.577,8.242 3.325,13.673 -0.171,-18.575 -0.521,-37.329 -0.521,-56.262 0,-14.023 0.171,-29.801 1.227,-43.823 0.171,-0.35 0.699,-0.528 1.227,-0.528 0.699,0 1.22,0.178 1.399,0.706 -0.528,9.641 -0.699,19.282 -0.699,28.745 0,14.551 0.35,30.671 0.35,45.051 0,11.739 -0.178,23.307 -0.178,34.875 0,0.706 -1.227,0.706 -1.399,0.706 -0.699,0 -1.049,-0.706 -1.406,-1.756 -1.927,-5.081 -5.081,-14.722 -6.308,-21.209 -3.682,-18.404 -7.885,-38.735 -13.323,-56.618 -2.098,-7.008 -4.553,-14.023 -6.836,-21.209 v 1.927 z"
           id="path21"
           inkscape:connector-curvature="0"
           style="fill:#d44758" /><path
           d="m 167.255,247.649 c -0.171,9.47 -0.521,20.688 -0.521,29.979 0,21.558 0.521,37.686 0.521,53.807 0,4.56 0,9.47 -0.171,14.201 -0.178,0.699 -0.699,0.878 -1.406,0.878 -0.521,0 -1.227,-0.178 -1.227,-1.056 0.178,-10.162 0.357,-20.331 0.357,-30.5 0,-17.348 -1.227,-26.818 -1.227,-37.508 0,-9.291 0.871,-20.509 1.049,-29.972 0,-2.805 0.35,-5.609 0.35,-8.592 0,-1.927 -0.171,-2.276 -0.171,-2.626 0.171,-0.528 0.699,-0.699 1.399,-0.699 0.528,0 1.049,0.171 1.577,1.049 2.633,10.34 6.308,20.16 9.113,30.15 5.088,18.226 9.819,38.207 13.502,56.611 0.871,4.032 1.577,8.242 3.325,13.673 -0.171,-18.575 -0.521,-37.329 -0.521,-56.262 0,-14.023 0.171,-29.801 1.227,-43.823 0.171,-0.35 0.699,-0.528 1.227,-0.528 0.699,0 1.22,0.178 1.399,0.706 -0.528,9.641 -0.699,19.282 -0.699,28.745 0,14.551 0.35,30.671 0.35,45.051 0,11.739 -0.178,23.307 -0.178,34.875 0,0.706 -1.227,0.706 -1.399,0.706 -0.699,0 -1.049,-0.706 -1.406,-1.756 -1.927,-5.081 -5.081,-14.722 -6.308,-21.209 -3.682,-18.404 -7.885,-38.735 -13.323,-56.618 -2.098,-7.008 -4.553,-14.023 -6.836,-21.209 v 1.927 z"
           id="path23"
           inkscape:connector-curvature="0"
           style="fill:#d44758" /><path
           d="m 209.701,290.423 c 9.291,0 17.355,-0.178 26.996,-0.878 0.521,0 0.871,0.35 0.871,0.699 0,0.699 -0.699,1.577 -1.927,1.577 -9.463,0.878 -16.827,0.878 -25.94,0.878 0,1.577 -0.178,2.983 -0.178,4.56 -0.521,15.6 -0.871,30.5 -1.049,46.1 9.812,0.171 11.568,0.35 13.323,0.35 5.081,0 10.162,-0.178 15.421,-0.528 0.878,0 1.227,0.528 1.227,1.227 0,0.528 -0.528,1.399 -1.399,1.399 -4.738,0.357 -9.47,0.528 -14.023,0.528 -5.609,0 -11.047,-0.171 -16.306,-0.528 -0.35,0 -0.521,-0.35 -0.521,-0.699 0.35,-21.737 1.049,-43.117 1.049,-64.326 0,-13.851 -0.178,-28.573 -1.049,-42.767 0.171,-0.706 0.871,-1.755 1.927,-1.755 5.959,0 10.868,0.171 16.477,0.171 5.609,0 9.463,-0.171 12.966,-0.171 1.227,0 1.227,0.528 1.227,0.878 0,0.35 -0.171,1.227 -1.399,1.227 -2.284,0 -7.893,0.171 -13.673,0.171 -3.854,0 -8.942,0.178 -15.072,0.178 0.871,13.316 1.049,27.167 1.049,40.141 v 11.568 z"
           id="path25"
           inkscape:connector-curvature="0"
           style="fill:#d44758" /><path
           d="m 247.758,328.459 c 0,3.504 0.171,7.008 1.927,10.162 1.927,2.983 7.365,5.787 12.096,5.787 9.641,0 11.218,-20.859 11.218,-26.468 0,-8.064 0.528,-8.592 1.577,-8.592 0.699,0 0.699,0.178 0.878,2.455 0,11.568 0,25.069 -8.592,33.305 -1.227,1.227 -2.976,1.756 -4.903,1.756 -5.088,0 -11.396,-3.504 -13.673,-6.308 -1.406,-2.105 -2.455,-4.91 -2.455,-7.365 0,-2.633 -0.35,-5.787 -0.35,-8.942 0,-14.544 0.35,-28.216 0.35,-42.946 0,-3.325 -0.178,-10.69 -0.178,-17.698 0,-7.714 0.178,-15.6 1.577,-19.81 1.577,-5.259 6.665,-7.714 11.917,-7.714 4.91,0 9.998,1.934 13.152,5.088 2.455,2.455 2.976,6.658 2.976,10.69 0,2.276 -0.171,4.56 -0.171,6.308 0,0.528 -0.878,1.056 -1.577,1.056 -0.35,0 -1.056,-0.178 -1.056,-0.706 0,-2.098 0.178,-4.203 0.178,-6.13 0,-3.333 -0.35,-6.487 -2.284,-9.291 -3.325,-2.805 -7.008,-4.382 -10.861,-4.382 -3.682,0 -7.365,1.577 -10.169,5.081 -0.878,3.154 -1.049,7.365 -1.049,52.237 0,9.113 -0.528,18.575 -0.528,27.867 v 4.56 z"
           id="path27"
           inkscape:connector-curvature="0"
           style="fill:#d44758" /><path
           d="m 298.96,308.478 -2.105,-37.865 c -0.171,-3.154 -0.35,-6.308 -0.35,-9.463 0,-7.714 0.528,-15.25 0.528,-23.135 -6.308,0 -12.267,-0.178 -16.477,-0.178 -0.699,0 -1.049,-0.35 -1.049,-0.699 0,-0.349 0.35,-1.056 1.049,-1.227 9.641,0 28.573,0.878 38.036,0.878 1.056,0.171 1.056,0.521 1.056,0.871 0,0.357 0,1.056 -1.056,1.056 -4.731,0 -11.739,-0.528 -18.754,-0.528 0,9.291 -0.699,17.705 -0.699,26.818 0,11.746 1.577,30.85 2.276,43.474 0,6.48 -0.171,10.162 -0.171,13.844 0,7.885 0.171,16.128 0.171,23.314 -0.171,0.699 -0.878,0.878 -1.399,0.878 -0.528,0 -1.227,-0.178 -1.406,-0.706 -0.171,-11.389 -0.35,-14.722 -0.35,-16.47 0,-2.284 0,-4.56 0.178,-6.836 l 0.522,-14.026 z"
           id="path29"
           inkscape:connector-curvature="0"
           style="fill:#d44758" /></g><line
         stroke-miterlimit="10"
         x1="153.61301"
         y1="65.271004"
         x2="286.99701"
         y2="65.271004"
         id="line31"
         style="fill:none;stroke:#d44758;stroke-miterlimit:10" /><line
         stroke-miterlimit="10"
         x1="153.61301"
         y1="381.24899"
         x2="286.99701"
         y2="381.24899"
         id="line33"
         style="fill:none;stroke:#d44758;stroke-miterlimit:10" /></g></g></svg>