<?xml version="1.0" encoding="UTF-8" standalone="no"?>
<!-- Generator: Adobe Illustrator 17.0.0, SVG Export Plug-In . SVG Version: 6.00 Build 0)  -->

<svg
   xmlns:dc="http://purl.org/dc/elements/1.1/"
   xmlns:cc="http://creativecommons.org/ns#"
   xmlns:rdf="http://www.w3.org/1999/02/22-rdf-syntax-ns#"
   xmlns:svg="http://www.w3.org/2000/svg"
   xmlns="http://www.w3.org/2000/svg"
   xmlns:sodipodi="http://sodipodi.sourceforge.net/DTD/sodipodi-0.dtd"
   xmlns:inkscape="http://www.inkscape.org/namespaces/inkscape"
   version="1.1"
   id="Layer_1"
   x="0px"
   y="0px"
   width="384.22198"
   height="384.22198"
   viewBox="0 0 384.22198 384.22198"
   enable-background="new 0 0 450 450"
   xml:space="preserve"
   inkscape:version="0.48.4 r9939"
   sodipodi:docname="WW_Over.svg"><metadata
     id="metadata71"><rdf:RDF><cc:Work
         rdf:about=""><dc:format>image/svg+xml</dc:format><dc:type
           rdf:resource="http://purl.org/dc/dcmitype/StillImage" /><dc:title></dc:title></cc:Work></rdf:RDF></metadata><defs
     id="defs69" /><sodipodi:namedview
     pagecolor="#ffffff"
     bordercolor="#666666"
     borderopacity="1"
     objecttolerance="10"
     gridtolerance="10"
     guidetolerance="10"
     inkscape:pageopacity="0"
     inkscape:pageshadow="2"
     inkscape:window-width="1600"
     inkscape:window-height="876"
     id="namedview67"
     showgrid="false"
     fit-margin-top="0"
     fit-margin-left="0"
     fit-margin-right="0"
     fit-margin-bottom="0"
     inkscape:zoom="0.52444444"
     inkscape:cx="195.196"
     inkscape:cy="189.34698"
     inkscape:window-x="0"
     inkscape:window-y="24"
     inkscape:window-maximized="1"
     inkscape:current-layer="Layer_1" /><g
     id="g3"
     transform="translate(-29.804001,-30.125)"><circle
       cx="221.91499"
       cy="222.23599"
       r="192.11099"
       id="circle5"
       sodipodi:cx="221.91499"
       sodipodi:cy="222.23599"
       sodipodi:rx="192.11099"
       sodipodi:ry="192.11099"
       style="fill:#f4e1d9"
       d="m 414.02599,222.23599 c 0,106.09997 -86.01103,192.11099 -192.111,192.11099 -106.09997,0 -192.110989,-86.01102 -192.110989,-192.11099 0,-106.09997 86.011019,-192.11099 192.110989,-192.11099 106.09997,0 192.111,86.01102 192.111,192.11099 z" /><g
       id="g7"><path
         d="m 94.331,198.846 c -4.024,24.817 -7.374,52.328 -12.964,76.699 -0.237,0.674 -0.892,0.892 -1.784,0.892 -0.674,0 -1.566,0 -1.803,-0.665 -5.59,-24.598 -8.485,-52.11 -12.509,-77.145 -1.803,-11.407 -4.934,-22.814 -4.934,-33.993 -2.895,-8.94 -3.132,-19.455 -4.698,-28.85 0,-0.665 0.91,-1.111 1.803,-1.111 0.655,0 1.784,0.446 1.784,0.892 6.263,42.706 11.635,88.998 20.356,131.258 5.59,-28.395 10.269,-59.484 14.967,-88.325 2.24,-14.093 5.371,-28.622 7.611,-43.161 0.218,-0.446 0.892,-0.665 1.784,-0.665 0.674,0 1.566,0.218 1.784,0.892 3.587,14.311 5.371,33.092 7.611,48.295 3.805,26.61 8.048,57.918 12.527,84.528 6.263,-23.479 10.724,-52.101 14.985,-76.025 3.35,-19.236 6.245,-38.236 9.158,-57.472 0.455,-0.446 1.129,-0.892 1.784,-0.892 0.892,0 1.566,0.446 1.803,1.12 -3.587,23.479 -7.156,46.957 -11.416,70.436 -4.024,22.586 -8.721,47.849 -14.53,69.99 -0.218,0.674 -1.111,0.892 -1.784,0.892 -0.673,0 -1.566,-0.219 -1.803,-0.665 -8.485,-42.041 -12.509,-89.899 -20.119,-131.713 -2.912,17.672 -6.7,37.127 -9.613,54.788 z"
         id="path9"
         inkscape:connector-curvature="0"
         style="fill:#f79e86" /><path
         d="m 153.851,267.27 c -0.674,2.913 -1.111,6.263 -2.24,8.949 -0.218,0.219 -0.655,0.665 -1.329,0.665 -0.455,0 -1.129,-0.446 -1.129,-1.111 0.91,-3.359 0.91,-4.479 1.347,-7.383 11.853,-56.352 13.874,-80.049 18.553,-103.082 2.021,-9.614 2.24,-20.128 6.045,-28.85 0.455,-0.892 2.24,-2.012 2.913,-2.012 2.003,0 2.458,8.494 2.895,10.733 l 4.698,36.897 c 1.803,14.757 3.805,29.742 5.826,44.499 0.892,6.036 2.895,13.419 3.787,19.673 1.566,10.069 4.698,19.455 5.153,29.296 0,0.446 -0.455,0.892 -1.347,0.892 -0.218,0 -0.892,-0.219 -1.347,-0.665 -1.784,-9.623 -2.895,-18.344 -4.916,-27.512 -0.674,-2.458 -4.461,-26.383 -5.353,-29.514 -10.069,0 -14.093,0.892 -24.38,0.892 l -9.176,47.633 z m 9.396,-50.763 c 8.048,0 15.44,-0.665 23.706,-0.665 0,-6.036 -1.111,-6.709 -1.111,-12.745 -1.803,-9.841 -3.132,-18.781 -7.829,-58.364 -0.237,-1.793 -0.674,-4.251 -0.674,-6.709 -1.784,4.024 -3.132,13.637 -4.698,20.793 -3.587,17.889 -5.153,36.224 -8.721,54.34 l -0.673,3.35 z"
         id="path11"
         inkscape:connector-curvature="0"
         style="fill:#f79e86" /><path
         d="m 246.473,273.533 c 0,0.446 -0.455,1.566 -1.803,1.566 -8.485,0 -15.64,1.566 -23.706,1.566 -3.787,0 -7.156,-0.446 -11.398,-1.12 -0.674,0 -1.111,-0.446 -1.111,-1.12 0,-14.53 -0.455,-28.622 -0.892,-43.152 -0.237,-3.132 -0.237,-9.623 -0.237,-12.745 0,-12.299 0.892,-24.826 1.129,-83.855 0,-0.674 1.111,-1.347 1.784,-1.347 0.673,0 1.566,0.674 1.784,1.12 0,29.742 -1.111,62.388 -1.111,92.13 0,15.649 1.111,29.96 1.111,45.837 3.805,0.892 7.156,0.892 10.961,0.892 7.156,0 14.53,-1.338 21.685,-1.338 1.349,0.228 1.804,0.892 1.804,1.566 z"
         id="path13"
         inkscape:connector-curvature="0"
         style="fill:#f79e86" /><path
         d="m 266.155,227.914 c -2.003,6.263 -6.482,19.682 -9.614,25.937 0,5.371 0.455,8.275 0.455,10.961 0,3.578 0.218,7.156 0.437,10.506 -0.219,0.901 -1.111,1.12 -1.784,1.12 -0.674,0 -1.566,-0.219 -1.784,-0.892 -0.218,-6.928 -0.218,-14.083 -0.218,-21.239 0,-14.093 0.437,-28.404 0.437,-42.715 0,-24.371 -0.674,-51.209 -0.674,-75.579 0,-0.892 0.674,-1.338 1.566,-1.338 0.674,0 1.347,0.446 1.566,1.111 0,24.598 0.892,51.436 0.892,76.034 0,11.625 -0.437,22.805 -0.437,34.43 2.24,-6.482 4.461,-14.311 5.808,-18.553 5.808,-17.443 9.614,-35.559 13.874,-53.667 2.676,-12.081 6.027,-26.392 8.94,-38.245 0.218,-0.446 1.111,-0.892 1.784,-0.892 0.673,0 1.566,0.446 1.784,1.12 -2.895,12.072 -5.808,26.164 -8.721,38.236 -2.895,12.973 -6.263,25.937 -9.832,38.909 4.024,11.407 8.048,27.502 10.724,39.355 1.803,7.383 3.368,15.431 6.719,22.359 0,0.674 -0.674,1.347 -1.784,1.347 -0.674,0 -1.347,-0.228 -1.566,-0.901 -2.695,-4.242 -3.587,-12.518 -6.719,-22.577 -2.676,-11.407 -5.59,-23.032 -8.94,-33.993 l -2.913,9.166 z"
         id="path15"
         inkscape:connector-curvature="0"
         style="fill:#f79e86" /><path
         d="m 302.188,204.663 c 11.853,0 22.14,-0.228 34.43,-1.12 0.674,0 1.129,0.446 1.129,0.892 0,0.892 -0.892,2.012 -2.458,2.012 -12.09,1.12 -21.467,1.12 -33.101,1.12 0,2.012 -0.219,3.805 -0.219,5.817 -0.674,19.901 -1.129,38.9 -1.347,58.81 12.527,0.218 14.766,0.446 16.988,0.446 6.5,0 12.982,-0.228 19.682,-0.674 1.129,0 1.566,0.674 1.566,1.566 0,0.674 -0.674,1.784 -1.784,1.784 -6.045,0.455 -12.072,0.674 -17.898,0.674 -7.156,0 -14.074,-0.218 -20.793,-0.674 -0.437,0 -0.674,-0.446 -0.674,-0.892 0.455,-27.73 1.347,-55.005 1.347,-82.061 0,-17.67 -0.218,-36.451 -1.347,-54.568 0.237,-0.892 1.129,-2.23 2.458,-2.23 7.611,0 13.874,0.218 21.03,0.218 7.156,0 12.072,-0.218 16.551,-0.218 1.566,0 1.566,0.674 1.566,1.12 0,0.446 -0.237,1.566 -1.803,1.566 -2.895,0 -10.051,0.218 -17.443,0.218 -4.916,0 -11.398,0.228 -19.227,0.228 1.129,16.997 1.347,34.658 1.347,51.209 v 14.757 z"
         id="path17"
         inkscape:connector-curvature="0"
         style="fill:#f79e86" /><path
         d="m 359.669,214.495 c -1.784,0.455 -5.371,0.455 -7.374,0.455 0.218,5.362 0.218,10.278 0.218,15.422 0,16.778 -1.111,30.862 -1.111,44.727 0,0.892 -1.129,1.12 -1.784,1.12 -0.91,0 -1.803,-0.228 -1.803,-1.347 1.803,-45.391 2.24,-92.348 2.24,-137.74 0,-0.892 1.129,-0.892 1.566,-1.347 1.347,0 4.024,-0.218 7.156,-0.218 7.611,0 18.116,0.892 21.922,5.817 3.132,4.024 3.35,12.745 3.35,19.901 0,36.67 0,50.535 -19.009,52.993 5.134,13.191 9.177,27.73 12.527,41.14 1.784,6.491 3.132,13.419 6.027,19.682 0,0.218 -1.566,1.12 -2.458,1.12 -0.437,0 -0.674,-0.228 -1.111,-0.446 -3.132,-6.263 -4.479,-13.647 -6.263,-20.128 -3.35,-13.419 -7.156,-27.948 -12.072,-41.149 h -2.021 z m -4.698,-2.23 7.392,-0.892 c 0,0 0.437,-0.228 0.655,-0.228 0.455,0 0.674,0.228 0.91,0.228 2.458,0 3.35,0 4.679,-0.455 7.156,-2.458 10.524,-8.721 11.198,-16.095 0.892,-5.817 1.111,-11.853 1.111,-18.335 0,-6.482 -0.219,-13.865 -0.455,-19.455 -0.655,-4.47 0,-11.853 -3.787,-15.203 -3.368,-2.686 -11.853,-2.913 -17.898,-2.913 h -5.371 c 0,16.778 -0.437,33.547 -0.437,49.643 v 8.275 c 0,5.144 -0.674,10.06 -0.674,15.203 l 2.677,0.227 z"
         id="path19"
         inkscape:connector-curvature="0"
         style="fill:#f79e86" /></g><g
       id="g21"><path
         d="m 212.741,71.576 c 0,14.452 1.255,43.347 -19.214,43.961 -4.498,0.135 -9.106,-1.471 -12.951,-3.743 -3.341,-1.974 -7.559,-7.438 -7.282,-11.482 0.386,-5.627 7.254,-1.987 10.207,-1.224 3.844,0.993 9.052,1.243 12.135,-1.354 2.931,3.127 -1.359,6.515 -4.277,6.872 -2.987,0.365 -6.61,-0.084 -9.237,-0.931 0.11,5.22 6.527,6.885 10.356,4.977 4.903,-2.442 10.337,-6.311 11.773,-11.94 1.73,-6.783 -0.628,-14.303 0.695,-21.154 0.737,-3.816 6.206,-8.614 7.742,-2.741 0.396,1.512 0.59,6.184 -0.898,6.839"
         id="path23"
         inkscape:connector-curvature="0"
         style="fill:#a55b53" /><path
         d="m 184.938,70.863 c -0.975,2.961 -4.687,4.684 -7.592,4.997 -4.884,0.526 -4.301,-5.842 -2.863,-9.107 4.77,-10.833 21.141,-10.952 30.897,-8.663 5.237,1.228 12.903,3.622 17.573,-0.046 3.714,-2.917 9.954,-9.867 14.519,-3.506 4.329,6.031 -5.443,13.251 -10.593,14.192 -6.138,1.122 -10.986,-3.663 -16.978,-4.282 -5.501,-0.569 -10.894,-0.945 -16.197,1.221 -2.944,1.202 -7.727,3.116 -9.163,6.115 0.25,0.06 0.461,-0.009 0.635,-0.207"
         id="path25"
         inkscape:connector-curvature="0"
         style="fill:#a55b53" /><g
         id="g27"><path
           d="m 222.347,98.333 c -0.13,3.945 -4.193,4.758 -6.778,6.396 -1.706,1.081 -1.831,2.687 0.175,3.459 2.071,0.797 4.415,-0.374 6.299,-1.199 0.897,2.45 -0.546,5.946 1.872,7.872 4.221,3.362 4.74,-6.532 4.987,-8.576 0.145,-1.199 0.701,-5.14 2.695,-3.201 0.941,0.915 1.144,3.487 1.757,4.752 0.756,1.56 1.419,3.435 3.416,3.693 1.863,0.24 2.856,-1.255 4.299,-2.036 0.205,-0.111 0.559,-0.554 0.722,-0.705 1.592,1.901 3.805,2.301 6.067,1.67 3.616,-1.008 8.924,-5.644 9.122,-9.704 0.177,-3.632 -3.081,-1.357 -4.384,-0.12 -1.727,1.639 -4.336,4.422 -6.909,4.425 -0.391,-1.629 2.402,-3.296 3.381,-4.459 1.848,-2.195 2.362,-5.074 2.586,-7.912 0.317,-4.024 -2.322,-7.125 -6.62,-6.174 -2.902,0.643 -3.919,4.41 -4.47,6.944 -0.387,1.777 -0.79,3.825 -0.891,5.657 -0.079,1.443 0.853,2.794 0.783,4.126 -0.07,1.328 -1.835,3.414 -3.382,2.737 -2.461,-1.076 -0.19,-5.76 -0.153,-7.45 0.04,-1.829 -0.703,-4.819 -3.067,-4.644 -0.25,0.019 -0.47,0.084 -0.667,0.184 1.652,-3.018 1.912,-6.781 2.234,-10.251 0.339,-3.657 1.804,-8.733 0.243,-12.294 -1.663,-3.796 -7.059,-2.552 -9.136,0.235 -2.816,3.778 -2.962,8.9 -3.412,13.387 -0.277,2.759 -0.153,5.374 -0.153,8.126 m 4.596,-0.667 c -1.267,-1.806 -0.218,-5.337 0,-7.336 0.242,-2.216 -0.625,-7.705 1.231,-9.176 v -0.153 c 0.474,-1.414 1.96,0.022 2.339,0.767 0.883,1.736 0.553,3.561 0.12,5.369 -0.702,2.921 -1.098,8.606 -3.69,10.529 z m 16.405,4.199 c -0.774,-1.057 0.78,-3.423 1.536,-4.757 -0.008,-0.699 0.495,-1.074 1.213,-0.899 0.149,1.07 -1.282,7.659 -2.749,5.656 z"
           id="path29"
           inkscape:connector-curvature="0"
           style="fill:#a55b53" /></g></g><g
       id="g31"><g
         id="g33"><path
           d="m 103.967,289.04 c 1.645,-5.205 8.938,-2.643 11.335,0.563 4.403,5.889 5.151,15.871 -0.318,21.441 -4.212,4.29 -11.163,2.165 -16.03,0.299 -7.05,-2.705 -8.683,-10.775 -7.475,-17.513 1.054,-5.879 4.432,-14.742 9.855,-17.735 4.987,-2.753 11.613,-3.838 17.149,-2.958 8.748,1.39 11.692,10.14 12.097,18.039 0.397,7.752 0.744,16.637 -0.812,24.141 -1.77,-1.822 -3.027,-3.822 -5.024,-5.493 -2.112,-1.767 -2.99,-2.377 -3.303,-5.24 -0.713,-6.514 -1.581,-12.529 -4.731,-18.459 -2.616,-4.925 -5.413,-8.578 -10.518,-4.182 -4.43,3.814 -5.547,10.38 -5.267,16.152 0.13,2.689 0.829,5.577 3.049,7.433 3.874,3.239 7.403,-0.704 6.841,-5.032 -0.613,-4.731 -7.628,-9.138 -6.089,-13.737"
           id="path35"
           inkscape:connector-curvature="0"
           style="fill:#a55b53" /><path
           d="m 121.962,306.021 c -0.939,0.646 -0.629,4.578 -1.063,6.077 -0.792,2.732 -1.694,5.585 -2.479,8.313 -1.333,4.631 -4.598,9.17 -4.314,14.023 0.67,11.448 16.524,-0.37 19.781,-4.087 3.315,-3.784 5.519,-9.029 7.281,-13.694 1.009,-2.671 5.357,-11.612 3.344,-13.876 -3.51,-3.947 -8.901,2.343 -10.446,4.961 -1.507,2.555 -3.358,10.358 -5.823,5.182 -0.704,-1.479 -1.253,-3.24 -2.466,-4.421 -1.137,-1.105 -3.191,-1.424 -3.815,-2.478"
           id="path37"
           inkscape:connector-curvature="0"
           style="fill:#a55b53" /><path
           d="m 134.888,327.818 c -0.282,3.925 -3.664,9.231 1.344,11.595 5.539,2.615 9.777,-1.09 13.103,-5.253 6.579,-8.235 11.054,-17.302 14.448,-27.126 1.593,-4.611 2.44,-8.688 3.35,-13.434 0.806,-4.203 2.905,-11.313 -2.461,-12.875 -7.961,-2.317 -7.226,4.529 -7.226,10.075 0,6.382 -1.087,11.611 -3.098,17.558 -2.018,5.966 -5.299,14.882 -11.032,17.913 -2.098,-2.891 0.19,-6.806 0.456,-9.858 0.241,-2.762 0.1,-5.82 -0.057,-8.574 -3.458,-1.839 -6.013,7.697 -6.23,10.025 -0.262,2.81 -0.783,9.455 -3.357,10.968"
           id="path39"
           inkscape:connector-curvature="0"
           style="fill:#a55b53" /><path
           d="m 150.698,337.441 c 2.773,0.832 5.282,2.022 8.105,2.287 3.888,0.366 6.485,-1.557 9.841,-1.994 1.381,2.528 7.652,2.889 10.186,3.269 3.595,0.539 6.53,0.673 9.893,-0.963 1.502,-0.731 3.395,-2.518 5.018,-2.871 2.054,-0.447 2.329,0.9 4.099,2.052 4.261,2.773 5.876,-1.051 9.137,-3.529 4.747,3.069 7.534,7.378 12.928,2.079 4.432,5.033 13.208,10.483 17.276,2.034 2.712,4.131 10.824,3.163 13.948,-0.001 3.458,3.86 6.953,3.577 10.581,-0.392 1.796,-1.966 3.109,-3.893 3.992,-6.406 0.806,-2.293 1.06,-5.269 2.668,-7.09 1.369,3.131 -1.321,14.653 3.719,15.085 2.91,0.25 4.146,-5.537 4.892,-7.618 1.462,-4.075 1.902,-7.448 5.461,-10.116 1.902,4.862 -5.799,20.745 5.853,17.935 -0.037,-2.64 1.281,-6.396 1.795,-9.102 0.404,-2.126 1.091,-4.195 1.331,-6.318 0.453,-4.009 1.662,-9.632 -2.141,-12.418 -4.681,-3.43 -7.027,2.433 -10.835,4.307 -3.529,1.737 -7.211,3.201 -10.715,5.006 -2.755,1.419 -4.965,3.506 -7.44,5.128 -0.359,4.419 -6.245,6.337 -9.768,7.635 -3.277,1.207 -5.504,2.517 -8.833,1.685 -2.803,-0.701 -5.859,-1.644 -8.617,-0.38 -2.586,1.185 -4.683,3.366 -7.882,1.203 -2.8,-1.894 -2.601,-5.702 -6.566,-5.828 -3.565,-0.113 -7.077,1.12 -10.741,0.689 -3.937,-0.464 -9.886,-1.758 -13.564,-0.133 -4.206,1.857 -7.166,3.174 -11.957,3.758 -2.713,0.331 -5.635,0.619 -8.333,0.234 -2.863,-0.409 -5.774,-1.411 -8.829,-1.507 -4.025,-0.127 -10.469,0.443 -13.489,2.028"
           id="path41"
           inkscape:connector-curvature="0"
           style="fill:#a55b53" /><path
           d="m 159.823,334.4 c 6.169,2.506 4.589,-7.176 4.872,-10.386 0.458,-5.204 0.793,-9.493 4.822,-13.185 2.965,-2.717 10.498,-7.371 14.075,-2.992 2.451,3.001 1.98,10.155 1.014,13.629 -0.733,2.635 -2.008,4.946 -3.752,7.032 -1.138,1.361 -3.132,2.695 -3.795,4.38 -1.558,3.961 2.596,4.693 5.494,3.834 -2.015,3.407 -8.169,1.495 -11.07,0.658 -2.224,-0.641 -7.749,-3.432 -9.631,-2.719"
           id="path43"
           inkscape:connector-curvature="0"
           style="fill:#a55b53" /><path
           d="m 185.928,336.681 c -0.479,-3.608 6.915,-9.305 8.934,-12.166 2.788,-3.951 4.562,-9.251 9.557,-10.448 0.079,-0.047 -0.243,-0.275 -0.212,-0.406 0.487,0.23 1.147,0.057 1.706,0.17 0.377,-7.356 -1.725,-15.854 1.813,-22.462 2.136,-3.988 3.565,-8.743 7.545,-11.208 1.827,-1.131 4.784,-2.666 6.717,-1.089 3.481,2.839 1.564,11.431 0.507,14.833 -2.062,6.636 -2.556,13.802 -4.823,20.486 -1.89,5.572 -4.466,10.934 -3.503,16.942 5.774,-2.721 5.925,-10.785 9.924,-14.889 1.739,-1.785 4.132,-2.033 6.19,-2.882 1.656,-0.683 1.352,-0.042 2.342,-1.725 0.588,-0.999 0.766,-2.402 1.001,-3.51 1.72,-8.105 1.226,-15.525 9.043,-20.455 1.492,-0.941 5.554,-3.715 7.579,-2.844 2.452,1.055 1.675,6.049 1.386,8.032 -0.578,3.958 -2.34,8.079 -3.548,11.947 -1.014,3.248 -1.408,6.592 -2.406,9.826 -1.567,5.079 -2.89,10.098 -3.683,15.259 -0.423,2.749 -0.255,3.221 1.774,4.759 2.58,1.957 1.746,2.543 -1.577,3.036 -4.741,0.703 -10.464,1.043 -15.207,0.823 -3.557,-0.165 -6.646,-2.569 -10.138,-3.281 -3.289,-0.671 -6.827,-0.732 -10.125,-1.226 -4.202,-0.629 -8.078,0.422 -12.235,0.952 -2.056,0.262 -4.011,1.056 -6.027,1.329 -0.493,0.067 -1.81,0.546 -2.3,0.159 -0.89,-0.704 -0.377,-2.459 0.019,-2.495"
           id="path45"
           inkscape:connector-curvature="0"
           style="fill:#a55b53" /><path
           d="m 242.449,335.16 c 5.857,-0.062 7.766,-4.489 9.329,-9.715 0.728,-2.434 1.239,-5.001 1.626,-7.507 0.312,-2.018 0.177,-4.974 1.774,-6.545 0.706,-0.695 3.561,-2.005 4.518,-1.338 0.924,0.644 0.562,3.198 0.495,4.321 -0.217,3.607 -1.162,6.881 -0.976,10.624 1.82,-0.906 3.188,-4.398 4.526,-6.048 1.392,-1.717 2.828,-3.781 4.554,-5.146 5.101,-4.037 6.434,1.928 5.046,6.063 2.04,-2.079 3.478,-4.216 6.114,-5.486 1.244,-0.6 5.873,-2.899 7.057,-0.97 2.021,3.294 -11.798,10.013 -13.621,10.828 -2.304,1.029 -5.041,0.901 -7.124,2.232 -2.183,1.395 -3.145,4.043 -4.872,5.961 -3.138,3.486 -10.757,8.484 -15.658,5.717 -1.451,-0.819 -1.736,-2.503 -3.548,-2.737"
           id="path47"
           inkscape:connector-curvature="0"
           style="fill:#a55b53" /><path
           d="m 287.817,340.482 c 0.98,2.182 4.011,6.017 6.324,6.589 3.631,0.897 8.026,-1.945 10.1,-4.731 0.612,4.541 1.521,12.834 -2.522,15.618 -5.556,3.825 -13.452,8.452 -16.139,14.974 -2.243,5.444 -4.47,9.543 -4.099,15.721 0.499,8.306 10.985,5.305 15.214,1.506 5.538,-4.974 10.083,-10.359 12.103,-17.676 0.876,-3.175 1.416,-6.362 2.528,-9.499 0.625,-1.763 0.845,-2.618 2.112,-3.473 2.44,-1.644 5.311,-1.97 7.798,-3.973 7.288,-5.873 16.782,-11.04 20.825,-19.995 1.7,-3.765 1.003,-6.63 -3.051,-4.486 -2.485,1.314 -4.365,3.682 -6.393,5.568 -4.407,4.1 -10.686,7.548 -16.107,10.346 -1.571,-3.141 0.938,-9.034 0.962,-12.634 0.035,-5.434 1.471,-10.741 1.02,-16.163 -0.279,-3.359 -1.964,-8.002 -6.077,-8.116 -4.561,-0.126 -4.719,4.314 -4.582,7.324 -5.969,-0.076 -12.901,6.921 -16.404,11.177 -1.553,1.886 -2.554,4.785 -3.168,7.109 -0.856,3.239 0.675,4.083 1.077,6.843"
           id="path49"
           inkscape:connector-curvature="0"
           style="fill:#a55b53" /><path
           d="m 266.02,290.298 c -3.727,-0.369 -12.333,4.928 -4.751,7.3 3.25,1.017 6.601,0.757 6.779,-2.934 0.081,-1.688 -1.363,-6.283 -3.802,-3.606"
           id="path51"
           inkscape:connector-curvature="0"
           style="fill:#a55b53" /></g><path
         d="m 303.785,327.049 c -2.095,1.107 -9.299,11.925 -6.861,13.902 2.1,1.703 6.177,-6.112 6.798,-7.608 0.381,-0.917 1.137,-2.52 1.083,-3.506 -0.104,-1.923 -1.403,-3.291 -2.794,-0.507"
         id="path53"
         inkscape:connector-curvature="0"
         style="fill:#f4e1d9" /><path
         d="m 229.523,324.515 c -3.125,0.642 -7.519,7.809 -4.067,10.334 2.233,1.634 5.4,-1.882 6.051,-3.725 0.882,-2.495 -0.01,-4.517 -1.279,-6.577 -0.424,-0.217 -0.279,0.186 -0.451,0.221"
         id="path55"
         inkscape:connector-curvature="0"
         style="fill:#f4e1d9" /><path
         d="m 204.938,320.46 c -1.994,3.029 -4.749,7.862 -4.276,11.621 4.46,0.764 5.579,-8.178 4.53,-10.86"
         id="path57"
         inkscape:connector-curvature="0"
         style="fill:#f4e1d9" /><path
         d="m 175.283,314.123 c -0.535,1.65 -2.13,2.768 -2.858,4.31 -0.87,1.842 -0.994,3.796 -0.905,5.79 2.921,-0.026 5.736,-4.42 6.354,-7.058 0.697,-2.975 -2.476,-3.635 -3.858,-1.014"
         id="path59"
         inkscape:connector-curvature="0"
         style="fill:#f4e1d9" /></g><line
       stroke-miterlimit="10"
       x1="114.089"
       y1="359.983"
       x2="281.44"
       y2="359.983"
       id="line61"
       style="fill:none;stroke:#a55b53;stroke-miterlimit:10" /><line
       stroke-miterlimit="10"
       x1="135.95799"
       y1="92.347"
       x2="162.27"
       y2="92.347"
       id="line63"
       style="fill:none;stroke:#a55b53;stroke-miterlimit:10" /><line
       stroke-miterlimit="10"
       x1="268.284"
       y1="92.347"
       x2="294.59601"
       y2="92.347"
       id="line65"
       style="fill:none;stroke:#a55b53;stroke-miterlimit:10" /></g></svg>