<?xml version="1.0" encoding="utf-8"?>
<!-- Generator: Adobe Illustrator 17.0.0, SVG Export Plug-In . SVG Version: 6.00 Build 0)  -->
<!DOCTYPE svg PUBLIC "-//W3C//DTD SVG 1.1//EN" "http://www.w3.org/Graphics/SVG/1.1/DTD/svg11.dtd">
<svg version="1.1" id="Layer_1" xmlns="http://www.w3.org/2000/svg" xmlns:xlink="http://www.w3.org/1999/xlink" x="0px" y="0px"
	 width="144px" height="144px" viewBox="0 0 144 144" enable-background="new 0 0 144 144" xml:space="preserve">
<g>
	<g>
		<g>
			<g>
				<polygon fill-rule="evenodd" clip-rule="evenodd" fill="#F1B0C6" points="123.064,44.26 131.732,46.822 127.398,54.73 
					135.401,58.937 129.612,65.834 136.666,71.496 129.612,77.158 135.401,84.086 127.398,88.293 131.732,96.17 123.064,98.764 
					125.753,107.336 116.801,108.159 117.75,117.142 108.829,116.193 107.944,125.178 99.371,122.457 96.84,131.124 88.932,126.79 
					84.693,134.794 77.798,129.005 72.135,135.995 66.473,129.005 59.545,134.794 55.37,126.79 47.461,131.124 44.93,122.457 
					36.326,125.178 35.472,116.193 26.52,117.142 27.469,108.159 18.486,107.336 21.174,98.764 12.507,96.17 16.84,88.293 
					8.869,84.086 14.626,77.158 7.635,71.559 14.626,65.834 8.869,58.937 16.84,54.73 12.507,46.822 21.174,44.26 18.486,35.624 
					27.469,34.865 26.52,25.913 35.472,26.83 36.326,17.878 44.93,20.535 47.461,11.931 55.37,16.201 59.545,8.229 66.473,13.987 
					72.135,6.996 77.798,13.987 84.693,8.229 88.932,16.201 96.84,11.931 99.371,20.535 107.944,17.878 108.829,26.83 
					117.75,25.913 116.801,34.865 125.753,35.624 				"/>
			</g>
			<g>
				<path fill-rule="evenodd" clip-rule="evenodd" fill="#FFFFFF" d="M119.35,43.789c0,0.122-0.046,0.23-0.138,0.322
					c-0.092,0.092-0.199,0.138-0.322,0.138c-0.123,0-0.23-0.046-0.322-0.138c-0.092-0.092-0.138-0.2-0.138-0.322
					c0-0.123,0.046-0.231,0.138-0.323c0.092-0.092,0.199-0.138,0.322-0.138c0.123,0,0.23,0.046,0.322,0.138
					C119.304,43.558,119.35,43.666,119.35,43.789z"/>
				<path fill-rule="evenodd" clip-rule="evenodd" fill="#FFFFFF" d="M120.064,44.94c0,0.123-0.046,0.231-0.138,0.323
					c-0.061,0.092-0.161,0.138-0.299,0.138c-0.153,0-0.276-0.046-0.368-0.138c-0.061-0.061-0.092-0.169-0.092-0.323
					c0-0.153,0.031-0.245,0.092-0.276c0.123-0.123,0.246-0.184,0.368-0.184c0.123,0,0.223,0.061,0.299,0.184
					C120.018,44.71,120.064,44.801,120.064,44.94z"/>
				<path fill-rule="evenodd" clip-rule="evenodd" fill="#FFFFFF" d="M119.925,45.861c0.092-0.092,0.2-0.138,0.322-0.138
					c0.123,0,0.23,0.046,0.322,0.138c0.092,0.092,0.138,0.2,0.138,0.322c0,0.123-0.046,0.231-0.138,0.323
					c-0.092,0.092-0.199,0.138-0.322,0.138c-0.123,0-0.23-0.046-0.322-0.138c-0.092-0.092-0.138-0.2-0.138-0.323
					C119.787,46.06,119.833,45.953,119.925,45.861z"/>
				<path fill-rule="evenodd" clip-rule="evenodd" fill="#FFFFFF" d="M121.215,47.058c0.092,0.138,0.138,0.261,0.138,0.368
					c0,0.138-0.046,0.23-0.138,0.276c-0.123,0.122-0.23,0.184-0.322,0.184c-0.092,0-0.2-0.061-0.322-0.184
					c-0.092-0.046-0.138-0.139-0.138-0.276c0-0.108,0.046-0.23,0.138-0.368c0.123-0.061,0.23-0.093,0.322-0.093
					C120.984,46.966,121.092,46.997,121.215,47.058z"/>
				<path fill-rule="evenodd" clip-rule="evenodd" fill="#FFFFFF" d="M122.366,49.545c0.123,0.123,0.184,0.23,0.184,0.322
					c0,0.061-0.062,0.184-0.184,0.369c-0.061,0.061-0.153,0.092-0.276,0.092c-0.092,0-0.2-0.031-0.322-0.092
					c-0.092-0.139-0.138-0.261-0.138-0.369c0-0.122,0.046-0.23,0.138-0.322c0.184-0.092,0.292-0.138,0.322-0.138
					C122.182,49.406,122.274,49.453,122.366,49.545z"/>
				<path fill-rule="evenodd" clip-rule="evenodd" fill="#FFFFFF" d="M121.951,48.623c0,0.123-0.046,0.23-0.138,0.323
					c-0.061,0.092-0.169,0.138-0.322,0.138c-0.154,0-0.261-0.046-0.323-0.138c-0.092-0.093-0.138-0.2-0.138-0.323
					c0-0.138,0.046-0.23,0.138-0.276c0.077-0.122,0.185-0.184,0.323-0.184c0.138,0,0.245,0.062,0.322,0.184
					C121.905,48.393,121.951,48.485,121.951,48.623z"/>
				<path fill-rule="evenodd" clip-rule="evenodd" fill="#FFFFFF" d="M123.057,51.156c0,0.123-0.046,0.23-0.138,0.323
					c-0.092,0.092-0.2,0.138-0.322,0.138c-0.123,0-0.23-0.046-0.322-0.138c-0.092-0.093-0.138-0.2-0.138-0.323
					c0-0.123,0.046-0.23,0.138-0.322c0.092-0.092,0.2-0.138,0.322-0.138c0.123,0,0.23,0.046,0.322,0.138
					C123.01,50.926,123.057,51.033,123.057,51.156z"/>
				<path fill-rule="evenodd" clip-rule="evenodd" fill="#FFFFFF" d="M123.425,52.123c0.092,0.092,0.138,0.199,0.138,0.322
					s-0.046,0.23-0.138,0.323c-0.092,0.092-0.2,0.137-0.322,0.137c-0.123,0-0.23-0.046-0.322-0.137
					c-0.092-0.093-0.138-0.2-0.138-0.323s0.046-0.23,0.138-0.322c0.092-0.093,0.2-0.138,0.322-0.138
					C123.225,51.985,123.333,52.031,123.425,52.123z"/>
				<path fill-rule="evenodd" clip-rule="evenodd" fill="#FFFFFF" d="M103.464,27.258c-0.046,0.092-0.138,0.138-0.276,0.138
					c-0.107,0-0.23-0.046-0.368-0.138c-0.061-0.122-0.092-0.23-0.092-0.322c0-0.093,0.031-0.2,0.092-0.323
					c0.138-0.092,0.261-0.138,0.368-0.138c0.138,0,0.23,0.046,0.276,0.138c0.123,0.077,0.185,0.184,0.185,0.323
					C103.648,27.074,103.587,27.181,103.464,27.258z"/>
				<path fill-rule="evenodd" clip-rule="evenodd" fill="#FFFFFF" d="M102.359,25.831c0.092,0.092,0.138,0.199,0.138,0.322
					c0,0.122-0.046,0.23-0.138,0.322c-0.092,0.093-0.199,0.138-0.322,0.138c-0.123,0-0.23-0.046-0.322-0.138
					c-0.092-0.092-0.138-0.2-0.138-0.322c0-0.123,0.046-0.23,0.138-0.322c0.092-0.093,0.2-0.139,0.322-0.139
					C102.16,25.692,102.267,25.739,102.359,25.831z"/>
				<path fill-rule="evenodd" clip-rule="evenodd" fill="#FFFFFF" d="M101.208,25.094c0.092,0.046,0.138,0.138,0.138,0.276
					c0,0.123-0.046,0.23-0.138,0.322c-0.061,0.093-0.169,0.139-0.322,0.139c-0.153,0-0.261-0.046-0.322-0.139
					c-0.092-0.092-0.138-0.199-0.138-0.322c0-0.138,0.046-0.23,0.138-0.276c0.077-0.122,0.185-0.184,0.322-0.184
					C101.023,24.91,101.131,24.972,101.208,25.094z"/>
				<path fill-rule="evenodd" clip-rule="evenodd" fill="#FFFFFF" d="M105.03,28.271c0.092-0.092,0.199-0.138,0.322-0.138
					c0.123,0,0.23,0.046,0.322,0.138c0.092,0.092,0.138,0.2,0.138,0.323c0,0.122-0.046,0.23-0.138,0.322
					c-0.092,0.092-0.2,0.138-0.322,0.138c-0.123,0-0.23-0.046-0.322-0.138c-0.092-0.092-0.138-0.2-0.138-0.322
					C104.891,28.471,104.937,28.363,105.03,28.271z"/>
				<path fill-rule="evenodd" clip-rule="evenodd" fill="#FFFFFF" d="M104.615,28.087c-0.123,0.061-0.23,0.092-0.322,0.092
					c-0.061,0-0.184-0.031-0.368-0.092c-0.061-0.185-0.092-0.308-0.092-0.368c0-0.123,0.031-0.215,0.092-0.276
					c0.123-0.123,0.246-0.184,0.368-0.184c0.138,0,0.246,0.061,0.322,0.184c0.092,0.092,0.138,0.184,0.138,0.276
					C104.692,27.872,104.646,27.995,104.615,28.087z"/>
				<path fill-rule="evenodd" clip-rule="evenodd" fill="#FFFFFF" d="M106.089,29.146c0.092-0.092,0.199-0.138,0.322-0.138
					c0.123,0,0.23,0.046,0.322,0.138c0.092,0.092,0.138,0.2,0.138,0.323c0,0.122-0.046,0.23-0.138,0.322
					c-0.092,0.092-0.2,0.138-0.322,0.138c-0.123,0-0.23-0.046-0.322-0.138c-0.092-0.092-0.138-0.2-0.138-0.322
					C105.95,29.346,105.996,29.238,106.089,29.146z"/>
				<path fill-rule="evenodd" clip-rule="evenodd" fill="#FFFFFF" d="M107.47,29.929c0.092,0,0.2,0.03,0.322,0.092
					c0.092,0.138,0.138,0.261,0.138,0.368c0,0.138-0.046,0.231-0.138,0.276c-0.123,0.123-0.23,0.185-0.322,0.185
					c-0.092,0-0.199-0.061-0.322-0.185c-0.092-0.046-0.138-0.138-0.138-0.276c0-0.107,0.046-0.23,0.138-0.368
					C107.271,29.959,107.378,29.929,107.47,29.929z"/>
				<path fill-rule="evenodd" clip-rule="evenodd" fill="#FFFFFF" d="M82.927,17.957c0.077-0.123,0.184-0.185,0.322-0.185
					c0.138,0,0.246,0.061,0.322,0.185c0.092,0.046,0.138,0.137,0.138,0.276c0,0.122-0.046,0.23-0.138,0.322
					c-0.061,0.092-0.169,0.138-0.322,0.138s-0.261-0.046-0.322-0.138c-0.092-0.092-0.138-0.2-0.138-0.322
					C82.789,18.095,82.835,18.003,82.927,17.957z"/>
				<path fill-rule="evenodd" clip-rule="evenodd" fill="#FFFFFF" d="M81.914,18.464c-0.123,0-0.23-0.046-0.322-0.138
					c-0.092-0.092-0.138-0.2-0.138-0.323s0.046-0.23,0.138-0.322c0.092-0.092,0.2-0.138,0.322-0.138c0.123,0,0.23,0.046,0.322,0.138
					c0.092,0.092,0.138,0.199,0.138,0.322s-0.046,0.231-0.138,0.323C82.145,18.417,82.037,18.464,81.914,18.464z"/>
				<path fill-rule="evenodd" clip-rule="evenodd" fill="#FFFFFF" d="M84.907,18.878c-0.092,0.093-0.2,0.138-0.322,0.138
					c-0.123,0-0.23-0.046-0.322-0.138c-0.092-0.092-0.138-0.2-0.138-0.322c0-0.123,0.046-0.23,0.138-0.322
					c0.092-0.093,0.2-0.139,0.322-0.139c0.123,0,0.23,0.046,0.322,0.139c0.092,0.092,0.138,0.199,0.138,0.322
					C85.046,18.678,85,18.786,84.907,18.878z"/>
				<path fill-rule="evenodd" clip-rule="evenodd" fill="#FFFFFF" d="M86.243,18.556c0.092,0.092,0.138,0.2,0.138,0.322
					c0,0.123-0.046,0.231-0.138,0.323c-0.092,0.092-0.2,0.138-0.322,0.138c-0.123,0-0.23-0.046-0.322-0.138
					c-0.092-0.092-0.138-0.2-0.138-0.323c0-0.122,0.046-0.23,0.138-0.322c0.092-0.092,0.199-0.138,0.322-0.138
					C86.043,18.417,86.151,18.464,86.243,18.556z"/>
				<path fill-rule="evenodd" clip-rule="evenodd" fill="#FFFFFF" d="M90.295,20.075c0,0.138-0.046,0.23-0.138,0.276
					c-0.077,0.123-0.184,0.184-0.322,0.184c-0.138,0-0.246-0.061-0.322-0.184c-0.092-0.046-0.138-0.138-0.138-0.276
					c0-0.108,0.046-0.23,0.138-0.368c0.061-0.061,0.169-0.092,0.322-0.092c0.153,0,0.261,0.03,0.322,0.092
					C90.249,19.845,90.295,19.967,90.295,20.075z"/>
				<path fill-rule="evenodd" clip-rule="evenodd" fill="#FFFFFF" d="M90.663,20.535c0-0.107,0.046-0.23,0.138-0.368
					c0.061-0.061,0.169-0.092,0.322-0.092c0.153,0,0.261,0.031,0.322,0.092c0.092,0.138,0.138,0.261,0.138,0.368
					c0,0.138-0.046,0.231-0.138,0.276c-0.077,0.123-0.184,0.185-0.322,0.185c-0.138,0-0.246-0.061-0.322-0.185
					C90.709,20.766,90.663,20.673,90.663,20.535z"/>
				<path fill-rule="evenodd" clip-rule="evenodd" fill="#FFFFFF" d="M88.545,20.075c-0.123,0-0.23-0.046-0.322-0.138
					c-0.092-0.092-0.138-0.2-0.138-0.322c0-0.123,0.046-0.231,0.138-0.323c0.092-0.092,0.199-0.138,0.322-0.138
					c0.123,0,0.23,0.046,0.322,0.138c0.092,0.092,0.138,0.2,0.138,0.323c0,0.122-0.046,0.23-0.138,0.322
					C88.775,20.029,88.668,20.075,88.545,20.075z"/>
				<path fill-rule="evenodd" clip-rule="evenodd" fill="#FFFFFF" d="M87.256,19.66c-0.062,0-0.184-0.03-0.368-0.092
					c-0.061-0.184-0.092-0.308-0.092-0.368c0-0.123,0.031-0.215,0.092-0.276c0.123-0.123,0.246-0.184,0.368-0.184
					c0.138,0,0.246,0.061,0.322,0.184c0.092,0.092,0.138,0.184,0.138,0.276c-0.061,0.153-0.108,0.276-0.138,0.368
					C87.455,19.63,87.348,19.66,87.256,19.66z"/>
				<path fill-rule="evenodd" clip-rule="evenodd" fill="#FFFFFF" d="M96.603,22.7c0,0.123-0.046,0.23-0.138,0.323
					c-0.092,0.092-0.199,0.137-0.322,0.137c-0.123,0-0.23-0.046-0.322-0.137c-0.092-0.093-0.138-0.2-0.138-0.323
					s0.046-0.23,0.138-0.322c0.092-0.093,0.199-0.138,0.322-0.138c0.123,0,0.23,0.046,0.322,0.138
					C96.557,22.469,96.603,22.577,96.603,22.7z"/>
				<path fill-rule="evenodd" clip-rule="evenodd" fill="#FFFFFF" d="M97.017,23.022c0.077-0.123,0.184-0.185,0.322-0.185
					c0.138,0,0.246,0.061,0.322,0.185c0.092,0.046,0.138,0.137,0.138,0.276c0,0.122-0.046,0.23-0.138,0.322
					c-0.061,0.092-0.169,0.138-0.322,0.138c-0.153,0-0.261-0.046-0.322-0.138c-0.092-0.092-0.138-0.2-0.138-0.322
					C96.879,23.16,96.925,23.068,97.017,23.022z"/>
				<path fill-rule="evenodd" clip-rule="evenodd" fill="#FFFFFF" d="M98.215,23.667c0.092-0.093,0.199-0.138,0.322-0.138
					c0.123,0,0.23,0.046,0.322,0.138c0.092,0.092,0.138,0.199,0.138,0.322c0,0.123-0.046,0.23-0.138,0.322
					c-0.092,0.093-0.199,0.138-0.322,0.138c-0.123,0-0.23-0.046-0.322-0.138c-0.092-0.092-0.138-0.199-0.138-0.322
					C98.077,23.866,98.123,23.759,98.215,23.667z"/>
				<path fill-rule="evenodd" clip-rule="evenodd" fill="#FFFFFF" d="M99.734,24.219c0.123,0,0.23,0.046,0.322,0.138
					c0.092,0.092,0.138,0.2,0.138,0.323c0,0.122-0.046,0.23-0.138,0.322c-0.092,0.092-0.199,0.138-0.322,0.138
					c-0.123,0-0.23-0.046-0.323-0.138c-0.092-0.092-0.138-0.2-0.138-0.322c0-0.123,0.046-0.231,0.138-0.323
					C99.504,24.265,99.611,24.219,99.734,24.219z"/>
				<path fill-rule="evenodd" clip-rule="evenodd" fill="#FFFFFF" d="M94.117,21.503c0,0.107-0.046,0.23-0.138,0.368
					c-0.123,0.061-0.23,0.092-0.322,0.092c-0.092,0-0.2-0.03-0.322-0.092c-0.092-0.138-0.138-0.261-0.138-0.368
					c0-0.138,0.046-0.23,0.138-0.276c0.077-0.123,0.184-0.185,0.322-0.185c0.138,0,0.245,0.062,0.322,0.185
					C94.071,21.273,94.117,21.364,94.117,21.503z"/>
				<path fill-rule="evenodd" clip-rule="evenodd" fill="#FFFFFF" d="M92.09,20.673c0.092-0.092,0.2-0.138,0.322-0.138
					c0.123,0,0.23,0.046,0.322,0.138c0.092,0.093,0.138,0.2,0.138,0.323c0,0.122-0.046,0.23-0.138,0.322
					c-0.092,0.092-0.199,0.138-0.322,0.138c-0.123,0-0.23-0.046-0.322-0.138c-0.092-0.092-0.138-0.2-0.138-0.322
					C91.952,20.873,91.999,20.766,92.09,20.673z"/>
				<path fill-rule="evenodd" clip-rule="evenodd" fill="#FFFFFF" d="M95.36,22.101c0,0.123-0.046,0.23-0.138,0.323
					c-0.092,0.092-0.2,0.137-0.322,0.137c-0.123,0-0.23-0.046-0.322-0.137c-0.092-0.093-0.138-0.2-0.138-0.323
					c0-0.123,0.046-0.23,0.138-0.323c0.092-0.092,0.199-0.138,0.322-0.138c0.123,0,0.23,0.046,0.322,0.138
					C95.314,21.871,95.36,21.978,95.36,22.101z"/>
				<path fill-rule="evenodd" clip-rule="evenodd" fill="#FFFFFF" d="M110.785,32.83c0.092,0.138,0.138,0.261,0.138,0.368
					c0,0.138-0.046,0.23-0.138,0.276c-0.077,0.123-0.184,0.185-0.322,0.185c-0.138,0-0.246-0.061-0.322-0.185
					c-0.092-0.046-0.138-0.138-0.138-0.276c0-0.107,0.046-0.23,0.138-0.368c0.061-0.061,0.169-0.092,0.322-0.092
					S110.724,32.768,110.785,32.83z"/>
				<path fill-rule="evenodd" clip-rule="evenodd" fill="#FFFFFF" d="M111.66,33.751c0.092,0.092,0.138,0.2,0.138,0.322
					c0,0.123-0.046,0.23-0.138,0.323c-0.092,0.092-0.2,0.138-0.322,0.138c-0.123,0-0.23-0.046-0.322-0.138
					c-0.092-0.093-0.138-0.2-0.138-0.323c0-0.122,0.046-0.23,0.138-0.322c0.092-0.092,0.2-0.138,0.322-0.138
					C111.46,33.613,111.568,33.659,111.66,33.751z"/>
				<path fill-rule="evenodd" clip-rule="evenodd" fill="#FFFFFF" d="M111.798,35.086c0-0.092,0.061-0.2,0.184-0.322
					c0.046-0.093,0.138-0.138,0.276-0.138c0.123,0,0.23,0.046,0.322,0.138c0.092,0.061,0.138,0.169,0.138,0.322
					c0,0.153-0.046,0.261-0.138,0.323c-0.092,0.092-0.199,0.138-0.322,0.138c-0.138,0-0.23-0.046-0.276-0.138
					C111.86,35.286,111.798,35.178,111.798,35.086z"/>
				<path fill-rule="evenodd" clip-rule="evenodd" fill="#FFFFFF" d="M113.502,35.731c0.092,0.092,0.138,0.2,0.138,0.322
					c0,0.108-0.046,0.231-0.138,0.369c-0.123,0.061-0.23,0.092-0.322,0.092c-0.092,0-0.2-0.03-0.322-0.092
					c-0.092-0.138-0.138-0.261-0.138-0.369c0-0.122,0.046-0.23,0.138-0.322c0.184-0.092,0.292-0.138,0.322-0.138
					C113.21,35.592,113.318,35.639,113.502,35.731z"/>
				<path fill-rule="evenodd" clip-rule="evenodd" fill="#FFFFFF" d="M114.423,36.79c0.092,0.092,0.138,0.199,0.138,0.322
					c0,0.123-0.046,0.23-0.138,0.323c-0.092,0.092-0.199,0.138-0.322,0.138c-0.107,0-0.23-0.046-0.368-0.138
					c-0.061-0.061-0.092-0.169-0.092-0.323c0-0.153,0.031-0.261,0.092-0.322c0.138-0.092,0.261-0.138,0.368-0.138
					C114.223,36.652,114.331,36.698,114.423,36.79z"/>
				<path fill-rule="evenodd" clip-rule="evenodd" fill="#FFFFFF" d="M115.252,38.493c-0.046,0.092-0.138,0.138-0.276,0.138
					c-0.123,0-0.23-0.046-0.322-0.138c-0.092-0.092-0.138-0.199-0.138-0.322c0-0.123,0.046-0.23,0.138-0.322
					c0.092-0.093,0.199-0.139,0.322-0.139c0.138,0,0.23,0.046,0.276,0.139c0.123,0.122,0.184,0.23,0.184,0.322
					C115.436,38.263,115.375,38.37,115.252,38.493z"/>
				<path fill-rule="evenodd" clip-rule="evenodd" fill="#FFFFFF" d="M116.633,39.875c0.138,0,0.246,0.061,0.322,0.184
					c0.092,0.046,0.138,0.138,0.138,0.276c0,0.123-0.046,0.23-0.138,0.322c-0.061,0.093-0.169,0.138-0.322,0.138
					c-0.153,0-0.276-0.046-0.368-0.138c-0.061-0.061-0.092-0.169-0.092-0.322c0-0.153,0.03-0.246,0.092-0.276
					C116.387,39.936,116.51,39.875,116.633,39.875z"/>
				<path fill-rule="evenodd" clip-rule="evenodd" fill="#FFFFFF" d="M115.804,39.691c-0.092,0-0.199-0.031-0.322-0.092
					c-0.092-0.138-0.138-0.261-0.138-0.368c0-0.138,0.046-0.231,0.138-0.276c0.076-0.123,0.184-0.185,0.322-0.185
					c0.138,0,0.246,0.062,0.322,0.185c0.092,0.046,0.138,0.138,0.138,0.276c0,0.107-0.046,0.23-0.138,0.368
					C116.004,39.66,115.896,39.691,115.804,39.691z"/>
				<path fill-rule="evenodd" clip-rule="evenodd" fill="#FFFFFF" d="M117.094,41.118c0.061-0.061,0.169-0.092,0.322-0.092
					c0.153,0,0.261,0.031,0.322,0.092c0.092,0.154,0.138,0.276,0.138,0.369c0,0.092-0.046,0.184-0.138,0.276
					c-0.077,0.122-0.184,0.184-0.322,0.184c-0.138,0-0.246-0.061-0.322-0.184c-0.092-0.031-0.138-0.123-0.138-0.276
					C116.955,41.333,117.002,41.21,117.094,41.118z"/>
				<path fill-rule="evenodd" clip-rule="evenodd" fill="#FFFFFF" d="M108.944,31.264c0,0.123-0.046,0.231-0.138,0.323
					c-0.092,0.092-0.199,0.138-0.322,0.138c-0.123,0-0.23-0.046-0.322-0.138c-0.092-0.092-0.138-0.2-0.138-0.323
					c0-0.122,0.046-0.23,0.138-0.322c0.092-0.092,0.2-0.138,0.322-0.138c0.123,0,0.23,0.046,0.322,0.138
					C108.898,31.034,108.944,31.142,108.944,31.264z"/>
				<path fill-rule="evenodd" clip-rule="evenodd" fill="#FFFFFF" d="M109.174,31.863c0.123-0.061,0.23-0.092,0.322-0.092
					c0.092,0,0.2,0.03,0.322,0.092c0.092,0.138,0.138,0.261,0.138,0.368c0,0.138-0.046,0.23-0.138,0.276
					c-0.123,0.122-0.23,0.184-0.322,0.184c-0.092,0-0.199-0.061-0.322-0.184c-0.092-0.046-0.138-0.138-0.138-0.276
					C109.035,32.124,109.082,32.001,109.174,31.863z"/>
				<path fill-rule="evenodd" clip-rule="evenodd" fill="#FFFFFF" d="M118.613,42.638c0,0.138-0.046,0.23-0.138,0.276
					c-0.077,0.122-0.184,0.184-0.322,0.184c-0.138,0-0.245-0.061-0.322-0.184c-0.092-0.046-0.138-0.139-0.138-0.276
					c0-0.108,0.046-0.231,0.138-0.369c0.062-0.061,0.169-0.092,0.322-0.092c0.154,0,0.261,0.031,0.322,0.092
					C118.567,42.407,118.613,42.53,118.613,42.638z"/>
				<path fill-rule="evenodd" clip-rule="evenodd" fill="#FFFFFF" d="M124.3,55.346c-0.077,0.123-0.184,0.184-0.322,0.184
					c-0.138,0-0.23-0.061-0.276-0.184c-0.123-0.061-0.184-0.153-0.184-0.276c0-0.061,0.061-0.184,0.184-0.368
					c0.031-0.061,0.123-0.092,0.276-0.092s0.261,0.031,0.322,0.092c0.092,0.092,0.138,0.215,0.138,0.368
					C124.438,55.224,124.392,55.316,124.3,55.346z"/>
				<path fill-rule="evenodd" clip-rule="evenodd" fill="#FFFFFF" d="M123.241,53.412c0.092-0.092,0.199-0.137,0.322-0.137
					c0.123,0,0.23,0.046,0.322,0.137c0.092,0.093,0.138,0.2,0.138,0.323c0,0.123-0.046,0.23-0.138,0.322
					c-0.092,0.093-0.2,0.138-0.322,0.138c-0.123,0-0.23-0.046-0.322-0.138c-0.092-0.092-0.138-0.199-0.138-0.322
					C123.103,53.612,123.149,53.505,123.241,53.412z"/>
				<path fill-rule="evenodd" clip-rule="evenodd" fill="#FFFFFF" d="M124.392,55.853c0.031,0,0.138,0.046,0.323,0.138
					c0.092,0.092,0.138,0.2,0.138,0.322c0,0.108-0.046,0.231-0.138,0.369c-0.123,0.061-0.23,0.092-0.323,0.092
					c-0.092,0-0.199-0.031-0.322-0.092c-0.092-0.138-0.138-0.261-0.138-0.369c0-0.122,0.046-0.23,0.138-0.322
					C124.254,55.899,124.361,55.853,124.392,55.853z"/>
				<path fill-rule="evenodd" clip-rule="evenodd" fill="#FFFFFF" d="M124.76,57.188c0.123,0,0.23,0.046,0.322,0.138
					c0.092,0.184,0.138,0.292,0.138,0.323c0,0.03-0.046,0.138-0.138,0.322c-0.092,0.093-0.2,0.138-0.322,0.138
					c-0.123,0-0.23-0.046-0.322-0.138c-0.092-0.061-0.138-0.169-0.138-0.322c0-0.153,0.046-0.261,0.138-0.323
					C124.53,57.234,124.637,57.188,124.76,57.188z"/>
				<path fill-rule="evenodd" clip-rule="evenodd" fill="#FFFFFF" d="M125.083,59.445c-0.123,0-0.23-0.046-0.322-0.138
					c-0.092-0.092-0.138-0.2-0.138-0.323c0-0.123,0.046-0.23,0.138-0.322c0.092-0.092,0.199-0.138,0.322-0.138
					c0.138,0,0.23,0.046,0.276,0.138c0.123,0.123,0.184,0.23,0.184,0.322c0,0.092-0.061,0.2-0.184,0.323
					C125.313,59.398,125.221,59.445,125.083,59.445z"/>
				<path fill-rule="evenodd" clip-rule="evenodd" fill="#FFFFFF" d="M125.359,59.859c0.123,0,0.23,0.046,0.322,0.138
					c0.092,0.093,0.138,0.2,0.138,0.323c0,0.122-0.046,0.23-0.138,0.322c-0.092,0.092-0.199,0.138-0.322,0.138
					c-0.123,0-0.23-0.046-0.322-0.138c-0.092-0.092-0.138-0.2-0.138-0.322c0-0.123,0.046-0.23,0.138-0.323
					C125.129,59.905,125.236,59.859,125.359,59.859z"/>
				<path fill-rule="evenodd" clip-rule="evenodd" fill="#FFFFFF" d="M125.589,61.24c0.092,0,0.2,0.031,0.322,0.093
					c0.092,0.092,0.138,0.215,0.138,0.368c0,0.153-0.046,0.245-0.138,0.276c-0.123,0.122-0.23,0.184-0.322,0.184
					c-0.123,0-0.215-0.061-0.276-0.184c-0.123-0.061-0.184-0.154-0.184-0.276c0-0.061,0.061-0.185,0.184-0.368
					C125.374,61.271,125.466,61.24,125.589,61.24z"/>
				<path fill-rule="evenodd" clip-rule="evenodd" fill="#FFFFFF" d="M126.142,62.714c0.092,0.092,0.138,0.2,0.138,0.322
					c0,0.123-0.046,0.23-0.138,0.323c-0.092,0.092-0.2,0.138-0.322,0.138c-0.123,0-0.23-0.046-0.322-0.138
					c-0.092-0.093-0.138-0.2-0.138-0.323c0-0.122,0.046-0.23,0.138-0.322c0.092-0.092,0.2-0.138,0.322-0.138
					C125.942,62.576,126.049,62.622,126.142,62.714z"/>
				<path fill-rule="evenodd" clip-rule="evenodd" fill="#FFFFFF" d="M126.003,63.911c0.123,0,0.23,0.046,0.322,0.138
					c0.092,0.092,0.138,0.2,0.138,0.323c0,0.122-0.046,0.23-0.138,0.322c-0.092,0.093-0.199,0.138-0.322,0.138
					c-0.123,0-0.23-0.046-0.322-0.138c-0.092-0.092-0.138-0.2-0.138-0.322c0-0.123,0.046-0.231,0.138-0.323
					C125.773,63.957,125.881,63.911,126.003,63.911z"/>
				<path fill-rule="evenodd" clip-rule="evenodd" fill="#FFFFFF" d="M126.51,66.075c-0.184,0.061-0.307,0.093-0.368,0.093
					c-0.092,0-0.2-0.031-0.322-0.093c-0.03-0.092-0.077-0.215-0.138-0.368c0-0.092,0.046-0.184,0.138-0.276
					c0.077-0.123,0.184-0.184,0.322-0.184c0.123,0,0.246,0.061,0.368,0.184c0.062,0.031,0.092,0.123,0.092,0.276
					S126.571,65.983,126.51,66.075z"/>
				<path fill-rule="evenodd" clip-rule="evenodd" fill="#FFFFFF" d="M126.602,66.812c0.092,0.046,0.138,0.137,0.138,0.276
					c0,0.108-0.046,0.231-0.138,0.368c-0.123,0.061-0.23,0.093-0.322,0.093c-0.092,0-0.2-0.031-0.322-0.093
					c-0.092-0.138-0.138-0.261-0.138-0.368c0-0.138,0.046-0.23,0.138-0.276c0.077-0.123,0.184-0.184,0.322-0.184
					C126.418,66.628,126.525,66.689,126.602,66.812z"/>
				<path fill-rule="evenodd" clip-rule="evenodd" fill="#FFFFFF" d="M126.142,69.529c0.092-0.092,0.199-0.138,0.322-0.138
					c0.138,0,0.23,0.046,0.276,0.138c0.123,0.123,0.184,0.23,0.184,0.323c0,0.092-0.061,0.199-0.184,0.322
					c-0.046,0.092-0.138,0.138-0.276,0.138c-0.123,0-0.23-0.046-0.322-0.138c-0.092-0.092-0.138-0.2-0.138-0.322
					C126.003,69.728,126.049,69.62,126.142,69.529z"/>
				<path fill-rule="evenodd" clip-rule="evenodd" fill="#FFFFFF" d="M125.912,68.469c0-0.122,0.046-0.23,0.138-0.322
					c0.092-0.093,0.2-0.138,0.323-0.138c0.123,0,0.23,0.046,0.322,0.138c0.092,0.092,0.138,0.2,0.138,0.322
					c0,0.123-0.046,0.231-0.138,0.323c-0.092,0.092-0.199,0.138-0.322,0.138c-0.123,0-0.23-0.046-0.323-0.138
					C125.958,68.7,125.912,68.592,125.912,68.469z"/>
				<path fill-rule="evenodd" clip-rule="evenodd" fill="#FFFFFF" d="M126.924,72.614c0,0.122-0.046,0.23-0.138,0.322
					c-0.092,0.092-0.199,0.138-0.322,0.138s-0.23-0.046-0.322-0.138c-0.092-0.092-0.138-0.2-0.138-0.322
					c0-0.123,0.046-0.231,0.138-0.323c0.092-0.092,0.199-0.138,0.322-0.138s0.23,0.046,0.322,0.138
					C126.878,72.383,126.924,72.491,126.924,72.614z"/>
				<path fill-rule="evenodd" clip-rule="evenodd" fill="#FFFFFF" d="M126.924,71.233c0,0.122-0.046,0.23-0.138,0.322
					c-0.092,0.092-0.199,0.138-0.322,0.138s-0.23-0.046-0.322-0.138c-0.092-0.092-0.138-0.2-0.138-0.322
					c0-0.123,0.046-0.231,0.138-0.323c0.092-0.092,0.199-0.138,0.322-0.138s0.23,0.046,0.322,0.138
					C126.878,71.002,126.924,71.11,126.924,71.233z"/>
				<path fill-rule="evenodd" clip-rule="evenodd" fill="#FFFFFF" d="M126.049,75.054c0.092-0.092,0.2-0.138,0.323-0.138
					c0.123,0,0.23,0.046,0.322,0.138c0.092,0.093,0.138,0.2,0.138,0.323c0,0.123-0.046,0.23-0.138,0.322
					c-0.092,0.093-0.199,0.138-0.322,0.138c-0.123,0-0.23-0.046-0.323-0.138c-0.092-0.092-0.138-0.199-0.138-0.322
					C125.912,75.254,125.958,75.146,126.049,75.054z"/>
				<path fill-rule="evenodd" clip-rule="evenodd" fill="#FFFFFF" d="M126.003,73.995c0-0.123,0.046-0.23,0.138-0.323
					c0.092-0.092,0.199-0.138,0.322-0.138c0.138,0,0.23,0.046,0.276,0.138c0.123,0.123,0.184,0.23,0.184,0.323
					c0,0.092-0.061,0.199-0.184,0.322c-0.046,0.092-0.138,0.138-0.276,0.138c-0.123,0-0.23-0.046-0.322-0.138
					C126.049,74.225,126.003,74.117,126.003,73.995z"/>
				<path fill-rule="evenodd" clip-rule="evenodd" fill="#FFFFFF" d="M126.602,78.139c0,0.123-0.046,0.23-0.138,0.322
					c-0.092,0.093-0.2,0.138-0.322,0.138c-0.123,0-0.23-0.046-0.322-0.138c-0.092-0.092-0.138-0.199-0.138-0.322
					c0-0.123,0.046-0.23,0.138-0.323c0.092-0.092,0.2-0.138,0.322-0.138c0.123,0,0.23,0.046,0.322,0.138
					C126.556,77.909,126.602,78.016,126.602,78.139z"/>
				<path fill-rule="evenodd" clip-rule="evenodd" fill="#FFFFFF" d="M126.74,76.758c0,0.123-0.046,0.23-0.138,0.322
					c-0.092,0.093-0.2,0.138-0.322,0.138c-0.107,0-0.23-0.046-0.368-0.138c-0.061-0.061-0.092-0.169-0.092-0.322
					c0-0.153,0.031-0.261,0.092-0.323c0.138-0.092,0.261-0.137,0.368-0.137c0.123,0,0.23,0.046,0.322,0.137
					C126.694,76.528,126.74,76.635,126.74,76.758z"/>
				<path fill-rule="evenodd" clip-rule="evenodd" fill="#FFFFFF" d="M126.003,79.06c0.138,0,0.23,0.046,0.276,0.137
					c0.123,0.123,0.184,0.231,0.184,0.323c0,0.092-0.061,0.2-0.184,0.322c-0.046,0.093-0.138,0.138-0.276,0.138
					c-0.123,0-0.23-0.046-0.322-0.138c-0.092-0.092-0.138-0.199-0.138-0.322c0-0.123,0.046-0.23,0.138-0.323
					C125.773,79.106,125.881,79.06,126.003,79.06z"/>
				<path fill-rule="evenodd" clip-rule="evenodd" fill="#FFFFFF" d="M125.451,80.58c0.092-0.093,0.199-0.138,0.322-0.138
					c0.123,0,0.23,0.046,0.322,0.138c0.092,0.092,0.138,0.199,0.138,0.322c0,0.123-0.046,0.23-0.138,0.322
					c-0.092,0.093-0.199,0.139-0.322,0.139c-0.123,0-0.23-0.046-0.322-0.139c-0.092-0.092-0.138-0.199-0.138-0.322
					C125.313,80.779,125.359,80.672,125.451,80.58z"/>
				<path fill-rule="evenodd" clip-rule="evenodd" fill="#FFFFFF" d="M125.865,81.961c0.092,0.092,0.138,0.2,0.138,0.322
					c0,0.123-0.046,0.23-0.138,0.323c-0.092,0.092-0.199,0.138-0.322,0.138c-0.123,0-0.23-0.046-0.322-0.138
					c-0.092-0.093-0.138-0.2-0.138-0.323c0-0.122,0.046-0.23,0.138-0.322c0.092-0.093,0.2-0.138,0.322-0.138
					C125.666,81.823,125.773,81.869,125.865,81.961z"/>
				<path fill-rule="evenodd" clip-rule="evenodd" fill="#FFFFFF" d="M124.99,83.296c0.092-0.092,0.2-0.138,0.322-0.138
					c0.138,0,0.23,0.046,0.276,0.138c0.123,0.123,0.184,0.23,0.184,0.323c0,0.092-0.061,0.199-0.184,0.322
					c-0.046,0.092-0.138,0.138-0.276,0.138c-0.123,0-0.23-0.046-0.322-0.138c-0.092-0.092-0.138-0.2-0.138-0.322
					C124.852,83.496,124.899,83.388,124.99,83.296z"/>
				<path fill-rule="evenodd" clip-rule="evenodd" fill="#FFFFFF" d="M125.313,85.277c-0.092,0.092-0.2,0.138-0.322,0.138
					c-0.123,0-0.23-0.046-0.322-0.138c-0.092-0.093-0.138-0.2-0.138-0.323s0.046-0.23,0.138-0.323
					c0.092-0.092,0.2-0.137,0.322-0.137c0.123,0,0.23,0.046,0.322,0.137c0.092,0.093,0.138,0.2,0.138,0.323
					S125.405,85.184,125.313,85.277z"/>
				<path fill-rule="evenodd" clip-rule="evenodd" fill="#FFFFFF" d="M124.3,85.967c0.138-0.092,0.261-0.138,0.368-0.138
					c0.123,0,0.23,0.046,0.322,0.138c0.092,0.092,0.138,0.2,0.138,0.322c0,0.123-0.046,0.231-0.138,0.323
					c-0.092,0.092-0.199,0.138-0.322,0.138c-0.107,0-0.23-0.046-0.368-0.138c-0.062-0.062-0.092-0.169-0.092-0.323
					C124.208,86.136,124.238,86.028,124.3,85.967z"/>
				<path fill-rule="evenodd" clip-rule="evenodd" fill="#FFFFFF" d="M124.622,87.947c-0.092,0.093-0.2,0.138-0.322,0.138
					c-0.123,0-0.23-0.046-0.322-0.138c-0.092-0.061-0.138-0.169-0.138-0.322s0.046-0.261,0.138-0.323
					c0.092-0.092,0.2-0.138,0.322-0.138c0.123,0,0.23,0.046,0.322,0.138c0.092,0.185,0.138,0.292,0.138,0.323
					C124.76,87.655,124.714,87.763,124.622,87.947z"/>
				<path fill-rule="evenodd" clip-rule="evenodd" fill="#FFFFFF" d="M124.346,88.914c0,0.122-0.046,0.23-0.138,0.322
					c-0.061,0.092-0.169,0.138-0.322,0.138c-0.154,0-0.261-0.046-0.322-0.138c-0.092-0.092-0.138-0.2-0.138-0.322
					c0-0.138,0.046-0.23,0.138-0.276c0.077-0.123,0.184-0.184,0.322-0.184c0.138,0,0.245,0.061,0.322,0.184
					C124.3,88.684,124.346,88.776,124.346,88.914z"/>
				<path fill-rule="evenodd" clip-rule="evenodd" fill="#FFFFFF" d="M123.747,89.881c0.123,0.184,0.184,0.307,0.184,0.368
					c0,0.123-0.061,0.215-0.184,0.276c-0.061,0.123-0.153,0.184-0.276,0.184c-0.092,0-0.199-0.061-0.322-0.184
					c-0.092-0.046-0.138-0.138-0.138-0.276c0-0.107,0.046-0.23,0.138-0.368c0.123-0.061,0.23-0.092,0.322-0.092
					C123.594,89.789,123.686,89.819,123.747,89.881z"/>
				<path fill-rule="evenodd" clip-rule="evenodd" fill="#FFFFFF" d="M123.287,91.217c0.092,0.046,0.138,0.137,0.138,0.276
					c0,0.108-0.046,0.231-0.138,0.368c-0.123,0.061-0.23,0.093-0.322,0.093c-0.092,0-0.199-0.031-0.322-0.093
					c-0.092-0.137-0.138-0.26-0.138-0.368c0-0.138,0.046-0.23,0.138-0.276c0.077-0.123,0.184-0.185,0.322-0.185
					S123.21,91.094,123.287,91.217z"/>
				<path fill-rule="evenodd" clip-rule="evenodd" fill="#FFFFFF" d="M122.458,92.367c0.154,0,0.261,0.031,0.322,0.093
					c0.092,0.153,0.138,0.276,0.138,0.368c0,0.092-0.046,0.184-0.138,0.276c-0.077,0.122-0.184,0.184-0.322,0.184
					c-0.138,0-0.245-0.061-0.322-0.184c-0.092-0.031-0.138-0.123-0.138-0.276c0-0.153,0.046-0.276,0.138-0.368
					C122.197,92.398,122.304,92.367,122.458,92.367z"/>
				<path fill-rule="evenodd" clip-rule="evenodd" fill="#FFFFFF" d="M122.228,94.393c-0.123,0.061-0.23,0.093-0.322,0.093
					c-0.092,0-0.2-0.031-0.322-0.093c-0.092-0.137-0.138-0.26-0.138-0.368c0-0.138,0.046-0.23,0.138-0.276
					c0.077-0.123,0.184-0.185,0.322-0.185s0.246,0.061,0.322,0.185c0.092,0.046,0.138,0.137,0.138,0.276
					C122.366,94.133,122.32,94.256,122.228,94.393z"/>
				<path fill-rule="evenodd" clip-rule="evenodd" fill="#FFFFFF" d="M121.767,95.314c0,0.153-0.031,0.245-0.092,0.276
					c-0.184,0.123-0.307,0.184-0.369,0.184c-0.092,0-0.199-0.061-0.322-0.184c-0.092-0.092-0.138-0.184-0.138-0.276
					s0.046-0.215,0.138-0.368c0.123-0.061,0.23-0.092,0.322-0.092c0.061,0,0.185,0.03,0.369,0.092
					C121.736,95.038,121.767,95.161,121.767,95.314z"/>
				<path fill-rule="evenodd" clip-rule="evenodd" fill="#FFFFFF" d="M121.031,96.834c-0.061,0.092-0.169,0.138-0.322,0.138
					c-0.153,0-0.261-0.046-0.322-0.138c-0.092-0.092-0.138-0.2-0.138-0.322c0-0.138,0.046-0.231,0.138-0.276
					c0.077-0.123,0.184-0.184,0.322-0.184s0.246,0.061,0.322,0.184c0.092,0.046,0.138,0.138,0.138,0.276
					C121.168,96.634,121.123,96.742,121.031,96.834z"/>
				<path fill-rule="evenodd" clip-rule="evenodd" fill="#FFFFFF" d="M120.064,97.294c0.123,0,0.23,0.046,0.322,0.138
					c0.092,0.093,0.138,0.2,0.138,0.323c0,0.122-0.046,0.23-0.138,0.322c-0.092,0.093-0.2,0.138-0.322,0.138
					s-0.23-0.046-0.322-0.138c-0.077-0.107-0.115-0.215-0.115-0.322c0-0.108,0.038-0.215,0.115-0.323
					C119.833,97.34,119.941,97.294,120.064,97.294z"/>
				<path fill-rule="evenodd" clip-rule="evenodd" fill="#FFFFFF" d="M74.685,16.898c0.123-0.061,0.23-0.092,0.322-0.092
					c0.092,0,0.2,0.03,0.323,0.092c0.092,0.138,0.138,0.261,0.138,0.368c0,0.138-0.046,0.23-0.138,0.276
					c-0.123,0.123-0.23,0.185-0.323,0.185c-0.092,0-0.199-0.061-0.322-0.185c-0.092-0.046-0.138-0.138-0.138-0.276
					C74.547,17.159,74.593,17.036,74.685,16.898z"/>
				<path fill-rule="evenodd" clip-rule="evenodd" fill="#FFFFFF" d="M74.087,17.174c0,0.107-0.046,0.23-0.138,0.368
					c-0.123,0.061-0.23,0.092-0.322,0.092c-0.092,0-0.199-0.03-0.322-0.092c-0.092-0.138-0.138-0.261-0.138-0.368
					c0-0.123,0.046-0.23,0.138-0.322c0.184-0.093,0.292-0.139,0.322-0.139c0.031,0,0.138,0.046,0.322,0.139
					C74.041,16.944,74.087,17.051,74.087,17.174z"/>
				<path fill-rule="evenodd" clip-rule="evenodd" fill="#FFFFFF" d="M76.711,17.036c0.092,0.046,0.138,0.138,0.138,0.276
					c0,0.123-0.046,0.23-0.138,0.322c-0.061,0.093-0.169,0.138-0.322,0.138c-0.154,0-0.261-0.046-0.322-0.138
					c-0.092-0.092-0.138-0.199-0.138-0.322c0-0.138,0.046-0.23,0.138-0.276c0.077-0.123,0.184-0.184,0.322-0.184
					C76.527,16.852,76.635,16.913,76.711,17.036z"/>
				<path fill-rule="evenodd" clip-rule="evenodd" fill="#FFFFFF" d="M79.474,17.312c0.092,0.046,0.138,0.138,0.138,0.276
					c0,0.107-0.046,0.23-0.138,0.368c-0.123,0.061-0.23,0.092-0.322,0.092c-0.092,0-0.2-0.03-0.322-0.092
					c-0.092-0.138-0.138-0.261-0.138-0.368c0-0.138,0.046-0.23,0.138-0.276c0.077-0.123,0.184-0.184,0.322-0.184
					S79.397,17.189,79.474,17.312z"/>
				<path fill-rule="evenodd" clip-rule="evenodd" fill="#FFFFFF" d="M77.77,16.99c0.123,0,0.23,0.046,0.322,0.138
					c0.092,0.092,0.138,0.2,0.138,0.323c0,0.123-0.046,0.23-0.138,0.322c-0.092,0.092-0.2,0.138-0.322,0.138
					c-0.123,0-0.23-0.046-0.322-0.138c-0.092-0.092-0.138-0.199-0.138-0.322c0-0.123,0.046-0.231,0.138-0.323
					C77.54,17.036,77.647,16.99,77.77,16.99z"/>
				<path fill-rule="evenodd" clip-rule="evenodd" fill="#FFFFFF" d="M80.211,17.496c0.077-0.122,0.185-0.184,0.322-0.184
					c0.138,0,0.246,0.061,0.322,0.184c0.092,0.046,0.138,0.138,0.138,0.276c0,0.123-0.046,0.23-0.138,0.322
					c-0.061,0.093-0.169,0.139-0.322,0.139c-0.153,0-0.261-0.046-0.322-0.139c-0.092-0.092-0.138-0.199-0.138-0.322
					C80.072,17.634,80.119,17.542,80.211,17.496z"/>
				<path fill-rule="evenodd" clip-rule="evenodd" fill="#FFFFFF" d="M65.384,17.036c0.123,0,0.23,0.046,0.322,0.138
					c0.092,0.185,0.138,0.292,0.138,0.322c0,0.031-0.046,0.138-0.138,0.323c-0.092,0.092-0.2,0.138-0.322,0.138
					c-0.107,0-0.23-0.046-0.369-0.138c-0.061-0.123-0.092-0.23-0.092-0.323c0-0.092,0.031-0.2,0.092-0.322
					C65.154,17.082,65.276,17.036,65.384,17.036z"/>
				<path fill-rule="evenodd" clip-rule="evenodd" fill="#FFFFFF" d="M63.634,17.312c0.154-0.093,0.276-0.138,0.369-0.138
					c0.03,0,0.138,0.046,0.322,0.138c0.092,0.184,0.138,0.292,0.138,0.322c-0.061,0.153-0.107,0.276-0.138,0.368
					c-0.123,0.061-0.23,0.092-0.322,0.092c-0.062,0-0.184-0.03-0.369-0.092c-0.061-0.184-0.092-0.307-0.092-0.368
					C63.542,17.542,63.573,17.435,63.634,17.312z"/>
				<path fill-rule="evenodd" clip-rule="evenodd" fill="#FFFFFF" d="M67.778,16.944c0.092-0.092,0.199-0.138,0.322-0.138
					c0.123,0,0.23,0.046,0.322,0.138c0.092,0.092,0.138,0.2,0.138,0.322c0,0.123-0.046,0.23-0.138,0.323
					c-0.092,0.092-0.2,0.138-0.322,0.138c-0.123,0-0.23-0.046-0.322-0.138c-0.092-0.093-0.138-0.2-0.138-0.323
					C67.64,17.144,67.686,17.036,67.778,16.944z"/>
				<path fill-rule="evenodd" clip-rule="evenodd" fill="#FFFFFF" d="M66.719,16.898c0.123,0,0.23,0.046,0.322,0.138
					c0.092,0.092,0.138,0.2,0.138,0.323c0,0.122-0.046,0.23-0.138,0.322c-0.092,0.092-0.2,0.138-0.322,0.138
					c-0.123,0-0.23-0.046-0.322-0.138c-0.092-0.092-0.138-0.2-0.138-0.322c0-0.123,0.046-0.231,0.138-0.323
					C66.489,16.944,66.596,16.898,66.719,16.898z"/>
				<path fill-rule="evenodd" clip-rule="evenodd" fill="#FFFFFF" d="M69.942,17.174c0,0.107-0.046,0.23-0.138,0.368
					c-0.123,0.061-0.23,0.092-0.322,0.092s-0.2-0.03-0.322-0.092c-0.092-0.138-0.138-0.261-0.138-0.368
					c0-0.123,0.046-0.23,0.138-0.322c0.184-0.093,0.292-0.139,0.322-0.139c0.031,0,0.138,0.046,0.322,0.139
					C69.896,16.944,69.942,17.051,69.942,17.174z"/>
				<path fill-rule="evenodd" clip-rule="evenodd" fill="#FFFFFF" d="M71.922,16.852c0.092-0.093,0.2-0.139,0.322-0.139
					c0.123,0,0.23,0.046,0.322,0.139c0.092,0.092,0.138,0.199,0.138,0.322c0,0.122-0.046,0.23-0.138,0.322
					c-0.092,0.093-0.199,0.138-0.322,0.138c-0.123,0-0.23-0.046-0.322-0.138c-0.092-0.092-0.138-0.2-0.138-0.322
					C71.784,17.051,71.83,16.944,71.922,16.852z"/>
				<path fill-rule="evenodd" clip-rule="evenodd" fill="#FFFFFF" d="M70.541,16.852c0.092-0.093,0.2-0.139,0.322-0.139
					c0.123,0,0.23,0.046,0.322,0.139c0.092,0.092,0.138,0.199,0.138,0.322c0,0.122-0.046,0.23-0.138,0.322
					c-0.092,0.093-0.199,0.138-0.322,0.138c-0.123,0-0.23-0.046-0.322-0.138c-0.092-0.092-0.138-0.2-0.138-0.322
					C70.403,17.051,70.449,16.944,70.541,16.852z"/>
				<path fill-rule="evenodd" clip-rule="evenodd" fill="#FFFFFF" d="M58.293,18.325c0.046-0.092,0.138-0.138,0.276-0.138
					c0.108,0,0.23,0.046,0.369,0.138c0.061,0.061,0.092,0.169,0.092,0.322c0,0.153-0.031,0.261-0.092,0.323
					c-0.138,0.092-0.261,0.138-0.369,0.138c-0.138,0-0.23-0.046-0.276-0.138c-0.123-0.077-0.184-0.184-0.184-0.323
					C58.109,18.509,58.17,18.402,58.293,18.325z"/>
				<path fill-rule="evenodd" clip-rule="evenodd" fill="#FFFFFF" d="M57.234,18.509c0.123,0,0.245,0.061,0.368,0.185
					c0.062,0.061,0.092,0.153,0.092,0.276c0,0.061-0.03,0.184-0.092,0.368c-0.184,0.061-0.307,0.092-0.368,0.092
					c-0.123,0-0.215-0.03-0.276-0.092c-0.123-0.184-0.184-0.308-0.184-0.368c0-0.123,0.061-0.215,0.184-0.276
					C57.003,18.571,57.096,18.509,57.234,18.509z"/>
				<path fill-rule="evenodd" clip-rule="evenodd" fill="#FFFFFF" d="M60.411,18.325c0,0.122-0.061,0.245-0.184,0.368
					c-0.061,0.061-0.153,0.092-0.276,0.092c-0.092,0-0.2-0.03-0.322-0.092c-0.092-0.092-0.138-0.215-0.138-0.368
					s0.046-0.261,0.138-0.323c0.184-0.092,0.292-0.138,0.322-0.138c0.092,0,0.184,0.046,0.276,0.138
					C60.35,18.079,60.411,18.187,60.411,18.325z"/>
				<path fill-rule="evenodd" clip-rule="evenodd" fill="#FFFFFF" d="M61.286,17.634c0.123,0,0.23,0.046,0.322,0.138
					c0.092,0.092,0.138,0.2,0.138,0.322c0,0.123-0.046,0.231-0.138,0.323c-0.092,0.092-0.199,0.138-0.322,0.138
					c-0.123,0-0.23-0.046-0.323-0.138c-0.092-0.092-0.138-0.2-0.138-0.323c0-0.122,0.046-0.23,0.138-0.322
					C61.055,17.681,61.163,17.634,61.286,17.634z"/>
				<path fill-rule="evenodd" clip-rule="evenodd" fill="#FFFFFF" d="M62.943,17.542c0.092,0.092,0.138,0.2,0.138,0.322
					c0,0.123-0.046,0.23-0.138,0.323c-0.092,0.092-0.199,0.138-0.322,0.138c-0.123,0-0.23-0.046-0.322-0.138
					c-0.092-0.093-0.138-0.2-0.138-0.323c0-0.122,0.046-0.23,0.138-0.322c0.092-0.092,0.199-0.138,0.322-0.138
					C62.744,17.404,62.851,17.451,62.943,17.542z"/>
				<path fill-rule="evenodd" clip-rule="evenodd" fill="#FFFFFF" d="M53.274,19.707c0.154,0.061,0.276,0.107,0.368,0.138
					c0.061,0.061,0.092,0.169,0.092,0.322c0,0.153-0.031,0.276-0.092,0.368c-0.184,0.061-0.307,0.092-0.368,0.092
					c-0.123,0-0.215-0.03-0.276-0.092c-0.123-0.123-0.184-0.245-0.184-0.368c0-0.138,0.061-0.245,0.184-0.322
					C53.09,19.752,53.182,19.707,53.274,19.707z"/>
				<path fill-rule="evenodd" clip-rule="evenodd" fill="#FFFFFF" d="M52.491,20.673c0,0.031-0.046,0.138-0.138,0.323
					c-0.092,0.092-0.2,0.138-0.322,0.138c-0.107,0-0.23-0.046-0.368-0.138c-0.061-0.123-0.092-0.23-0.092-0.323
					c0-0.092,0.031-0.199,0.092-0.322c0.138-0.093,0.261-0.138,0.368-0.138c0.123,0,0.23,0.046,0.322,0.138
					C52.445,20.535,52.491,20.643,52.491,20.673z"/>
				<path fill-rule="evenodd" clip-rule="evenodd" fill="#FFFFFF" d="M49.82,21.41c0.092,0.185,0.138,0.292,0.138,0.323
					c0,0.03-0.046,0.138-0.138,0.322c-0.092,0.093-0.2,0.138-0.322,0.138c-0.107,0-0.23-0.046-0.368-0.138
					c-0.061-0.122-0.092-0.23-0.092-0.322c0-0.092,0.031-0.2,0.092-0.323c0.138-0.092,0.261-0.137,0.368-0.137
					C49.621,21.273,49.728,21.318,49.82,21.41z"/>
				<path fill-rule="evenodd" clip-rule="evenodd" fill="#FFFFFF" d="M51.063,20.858c0.092,0.092,0.138,0.2,0.138,0.322
					c0,0.123-0.046,0.23-0.138,0.323c-0.092,0.092-0.199,0.138-0.322,0.138c-0.123,0-0.23-0.046-0.322-0.138
					c-0.092-0.093-0.138-0.2-0.138-0.323c0-0.122,0.046-0.23,0.138-0.322c0.092-0.092,0.2-0.138,0.322-0.138
					C50.864,20.72,50.972,20.766,51.063,20.858z"/>
				<path fill-rule="evenodd" clip-rule="evenodd" fill="#FFFFFF" d="M46.689,22.608c0.092-0.092,0.2-0.138,0.322-0.138
					c0.123,0,0.23,0.046,0.322,0.138c0.092,0.092,0.138,0.2,0.138,0.322c0,0.123-0.046,0.23-0.138,0.323
					c-0.092,0.092-0.199,0.138-0.322,0.138c-0.123,0-0.23-0.046-0.322-0.138c-0.092-0.093-0.138-0.2-0.138-0.323
					C46.551,22.807,46.597,22.7,46.689,22.608z"/>
				<path fill-rule="evenodd" clip-rule="evenodd" fill="#FFFFFF" d="M45.078,24.265c0,0.03-0.046,0.138-0.138,0.322
					c-0.092,0.093-0.199,0.138-0.322,0.138c-0.123,0-0.23-0.046-0.322-0.138c-0.092-0.092-0.138-0.199-0.138-0.322
					c0-0.123,0.046-0.23,0.138-0.323c0.092-0.092,0.2-0.137,0.322-0.137c0.123,0,0.23,0.046,0.322,0.137
					C45.032,24.127,45.078,24.234,45.078,24.265z"/>
				<path fill-rule="evenodd" clip-rule="evenodd" fill="#FFFFFF" d="M45.354,23.574c0-0.122,0.031-0.215,0.092-0.276
					c0.123-0.123,0.246-0.185,0.368-0.185c0.138,0,0.246,0.062,0.322,0.185c0.092,0.046,0.138,0.137,0.138,0.276
					c0,0.108-0.046,0.231-0.138,0.368c-0.123,0.062-0.23,0.093-0.322,0.093c-0.062,0-0.184-0.031-0.368-0.093
					C45.384,23.759,45.354,23.636,45.354,23.574z"/>
				<path fill-rule="evenodd" clip-rule="evenodd" fill="#FFFFFF" d="M48.669,22.331c0,0.153-0.031,0.245-0.092,0.276
					c-0.184,0.123-0.307,0.184-0.368,0.184c-0.123,0-0.215-0.061-0.276-0.184c-0.123-0.061-0.184-0.153-0.184-0.276
					c0-0.061,0.061-0.184,0.184-0.368c0.061-0.061,0.153-0.092,0.276-0.092c0.061,0,0.184,0.03,0.368,0.092
					C48.638,22.055,48.669,22.178,48.669,22.331z"/>
				<path fill-rule="evenodd" clip-rule="evenodd" fill="#FFFFFF" d="M55.576,19.66c-0.062-0.061-0.092-0.153-0.092-0.276
					c0-0.061,0.031-0.184,0.092-0.368c0.092-0.061,0.215-0.092,0.368-0.092c0.153,0,0.261,0.031,0.322,0.092
					c0.092,0.153,0.138,0.276,0.138,0.368c0,0.093-0.046,0.184-0.138,0.276c-0.077,0.123-0.184,0.184-0.322,0.184
					C55.822,19.845,55.699,19.783,55.576,19.66z"/>
				<path fill-rule="evenodd" clip-rule="evenodd" fill="#FFFFFF" d="M54.609,19.292c0.123,0,0.23,0.046,0.322,0.138
					c0.092,0.092,0.138,0.2,0.138,0.322c0,0.123-0.046,0.231-0.138,0.323c-0.092,0.092-0.199,0.138-0.322,0.138
					c-0.123,0-0.23-0.046-0.322-0.138c-0.092-0.092-0.138-0.2-0.138-0.323c0-0.122,0.046-0.23,0.138-0.322
					C54.379,19.338,54.486,19.292,54.609,19.292z"/>
				<path fill-rule="evenodd" clip-rule="evenodd" fill="#FFFFFF" d="M37.48,28.639c0.123-0.061,0.23-0.092,0.322-0.092
					c0.092,0,0.199,0.03,0.322,0.092c0.092,0.138,0.138,0.261,0.138,0.368c0,0.138-0.046,0.23-0.138,0.276
					c-0.123,0.123-0.23,0.184-0.322,0.184c-0.092,0-0.2-0.061-0.322-0.184c-0.092-0.046-0.138-0.138-0.138-0.276
					C37.342,28.901,37.388,28.778,37.48,28.639z"/>
				<path fill-rule="evenodd" clip-rule="evenodd" fill="#FFFFFF" d="M36.421,29.561c0.092-0.092,0.199-0.138,0.322-0.138
					c0.123,0,0.23,0.046,0.322,0.138c0.092,0.092,0.138,0.2,0.138,0.322c0,0.123-0.046,0.231-0.138,0.323
					c-0.092,0.092-0.199,0.138-0.322,0.138c-0.123,0-0.23-0.046-0.322-0.138c-0.092-0.092-0.138-0.2-0.138-0.323
					C36.283,29.76,36.329,29.652,36.421,29.561z"/>
				<path fill-rule="evenodd" clip-rule="evenodd" fill="#FFFFFF" d="M39.552,27.304c0-0.123,0.046-0.231,0.138-0.323
					c0.092-0.092,0.199-0.138,0.322-0.138c0.123,0,0.23,0.046,0.322,0.138c0.092,0.184,0.138,0.292,0.138,0.323
					c0,0.03-0.046,0.138-0.138,0.322c-0.092,0.093-0.2,0.138-0.322,0.138c-0.123,0-0.23-0.046-0.322-0.138
					C39.598,27.534,39.552,27.427,39.552,27.304z"/>
				<path fill-rule="evenodd" clip-rule="evenodd" fill="#FFFFFF" d="M38.907,28.594c-0.107,0-0.23-0.046-0.368-0.138
					c-0.061-0.123-0.092-0.231-0.092-0.323s0.031-0.199,0.092-0.322c0.138-0.092,0.261-0.138,0.368-0.138
					c0.123,0,0.23,0.046,0.322,0.138c0.092,0.092,0.138,0.199,0.138,0.322s-0.046,0.23-0.138,0.323
					C39.138,28.548,39.03,28.594,38.907,28.594z"/>
				<path fill-rule="evenodd" clip-rule="evenodd" fill="#FFFFFF" d="M43.881,24.956c0,0.107-0.046,0.23-0.138,0.368
					c-0.123,0.061-0.23,0.093-0.322,0.093c-0.092,0-0.199-0.031-0.322-0.093c-0.092-0.137-0.138-0.261-0.138-0.368
					c0-0.139,0.046-0.231,0.138-0.276c0.077-0.123,0.184-0.184,0.322-0.184c0.138,0,0.246,0.061,0.322,0.184
					C43.834,24.726,43.881,24.817,43.881,24.956z"/>
				<path fill-rule="evenodd" clip-rule="evenodd" fill="#FFFFFF" d="M42.729,25.692c0,0.108-0.046,0.231-0.138,0.369
					c-0.123,0.061-0.23,0.092-0.322,0.092c-0.092,0-0.199-0.03-0.322-0.092c-0.092-0.138-0.138-0.261-0.138-0.369
					c0-0.122,0.046-0.23,0.138-0.322c0.184-0.092,0.292-0.138,0.322-0.138c0.031,0,0.138,0.046,0.322,0.138
					C42.683,25.462,42.729,25.57,42.729,25.692z"/>
				<path fill-rule="evenodd" clip-rule="evenodd" fill="#FFFFFF" d="M40.795,26.153c0.061-0.061,0.169-0.092,0.322-0.092
					c0.154,0,0.261,0.03,0.322,0.092c0.092,0.138,0.138,0.261,0.138,0.368c0,0.138-0.046,0.23-0.138,0.276
					c-0.077,0.123-0.184,0.184-0.322,0.184c-0.138,0-0.245-0.061-0.322-0.184c-0.092-0.046-0.138-0.138-0.138-0.276
					C40.657,26.414,40.703,26.291,40.795,26.153z"/>
				<path fill-rule="evenodd" clip-rule="evenodd" fill="#FFFFFF" d="M25.508,42.453c-0.092-0.046-0.138-0.138-0.138-0.276
					c0-0.107,0.046-0.23,0.138-0.368c0.061-0.061,0.169-0.092,0.322-0.092s0.261,0.031,0.322,0.092
					c0.092,0.138,0.138,0.261,0.138,0.368c0,0.138-0.046,0.23-0.138,0.276c-0.077,0.123-0.184,0.184-0.322,0.184
					S25.585,42.576,25.508,42.453z"/>
				<path fill-rule="evenodd" clip-rule="evenodd" fill="#FFFFFF" d="M24.679,44.203c0.092,0.093,0.138,0.2,0.138,0.323
					c0,0.122-0.046,0.23-0.138,0.322c-0.092,0.092-0.199,0.138-0.322,0.138c-0.123,0-0.23-0.046-0.322-0.138
					c-0.092-0.092-0.138-0.2-0.138-0.322c0-0.123,0.046-0.23,0.138-0.323c0.092-0.092,0.2-0.138,0.322-0.138
					C24.48,44.065,24.587,44.111,24.679,44.203z"/>
				<path fill-rule="evenodd" clip-rule="evenodd" fill="#FFFFFF" d="M24.587,43.328c0-0.03,0.046-0.138,0.138-0.322
					c0.092-0.092,0.199-0.138,0.322-0.138c0.108,0,0.23,0.046,0.369,0.138c0.061,0.061,0.092,0.169,0.092,0.322
					c0,0.153-0.031,0.261-0.092,0.322c-0.138,0.093-0.261,0.139-0.369,0.139c-0.123,0-0.23-0.046-0.322-0.139
					C24.633,43.466,24.587,43.359,24.587,43.328z"/>
				<path fill-rule="evenodd" clip-rule="evenodd" fill="#FFFFFF" d="M23.344,46.597c0.092,0.092,0.138,0.2,0.138,0.323
					s-0.046,0.23-0.138,0.322c-0.092,0.092-0.199,0.138-0.322,0.138c-0.123,0-0.23-0.046-0.322-0.138
					c-0.092-0.092-0.138-0.199-0.138-0.322s0.046-0.231,0.138-0.323c0.092-0.092,0.199-0.138,0.322-0.138
					C23.144,46.459,23.252,46.506,23.344,46.597z"/>
				<path fill-rule="evenodd" clip-rule="evenodd" fill="#FFFFFF" d="M23.206,45.723c0-0.123,0.046-0.23,0.138-0.322
					c0.092-0.093,0.2-0.138,0.322-0.138c0.123,0,0.23,0.046,0.322,0.138c0.092,0.092,0.138,0.199,0.138,0.322
					c0,0.123-0.046,0.23-0.138,0.323c-0.092,0.092-0.199,0.137-0.322,0.137c-0.123,0-0.23-0.046-0.322-0.137
					C23.252,45.953,23.206,45.846,23.206,45.723z"/>
				<path fill-rule="evenodd" clip-rule="evenodd" fill="#FFFFFF" d="M21.272,50.236c0.154,0,0.261,0.03,0.322,0.092
					c0.092,0.138,0.138,0.261,0.138,0.368c0,0.138-0.046,0.23-0.138,0.276c-0.077,0.122-0.184,0.184-0.322,0.184
					s-0.245-0.061-0.322-0.184c-0.092-0.046-0.138-0.138-0.138-0.276c0-0.108,0.046-0.23,0.138-0.368
					C21.011,50.266,21.118,50.236,21.272,50.236z"/>
				<path fill-rule="evenodd" clip-rule="evenodd" fill="#FFFFFF" d="M21.042,51.617c0.123,0.122,0.184,0.23,0.184,0.322
					c0,0.061-0.062,0.184-0.184,0.368c-0.061,0.061-0.153,0.092-0.276,0.092c-0.092,0-0.199-0.03-0.322-0.092
					c-0.092-0.138-0.138-0.261-0.138-0.368c0-0.123,0.046-0.23,0.138-0.322c0.184-0.093,0.292-0.138,0.322-0.138
					C20.857,51.479,20.949,51.524,21.042,51.617z"/>
				<path fill-rule="evenodd" clip-rule="evenodd" fill="#FFFFFF" d="M22.745,48.485c-0.092,0.093-0.2,0.138-0.322,0.138
					c-0.107,0-0.23-0.046-0.368-0.138c-0.061-0.061-0.092-0.169-0.092-0.322c0-0.153,0.031-0.261,0.092-0.323
					c0.138-0.092,0.261-0.138,0.368-0.138c0.123,0,0.23,0.046,0.322,0.138c0.092,0.093,0.138,0.2,0.138,0.323
					C22.883,48.286,22.838,48.393,22.745,48.485z"/>
				<path fill-rule="evenodd" clip-rule="evenodd" fill="#FFFFFF" d="M22.147,49.084c0.092,0.092,0.138,0.199,0.138,0.322
					c0,0.123-0.046,0.23-0.138,0.323c-0.092,0.092-0.2,0.138-0.323,0.138c-0.123,0-0.23-0.046-0.322-0.138
					c-0.092-0.093-0.138-0.2-0.138-0.323c0-0.123,0.046-0.23,0.138-0.322c0.092-0.093,0.199-0.138,0.322-0.138
					C21.947,48.946,22.055,48.992,22.147,49.084z"/>
				<path fill-rule="evenodd" clip-rule="evenodd" fill="#FFFFFF" d="M36.006,30.435c0.092,0.092,0.138,0.2,0.138,0.322
					c0,0.108-0.046,0.231-0.138,0.369c-0.123,0.061-0.23,0.092-0.322,0.092c-0.092,0-0.199-0.031-0.322-0.092
					c-0.092-0.138-0.138-0.261-0.138-0.369c0-0.122,0.046-0.23,0.138-0.322c0.184-0.092,0.292-0.138,0.322-0.138
					C35.715,30.297,35.822,30.343,36.006,30.435z"/>
				<path fill-rule="evenodd" clip-rule="evenodd" fill="#FFFFFF" d="M34.671,31.264c0.123,0,0.23,0.046,0.322,0.139
					c0.092,0.092,0.138,0.199,0.138,0.322c0,0.123-0.046,0.23-0.138,0.322c-0.092,0.092-0.199,0.138-0.322,0.138
					c-0.123,0-0.23-0.046-0.322-0.138c-0.092-0.092-0.138-0.199-0.138-0.322c0-0.123,0.046-0.23,0.138-0.322
					C34.441,31.31,34.548,31.264,34.671,31.264z"/>
				<path fill-rule="evenodd" clip-rule="evenodd" fill="#FFFFFF" d="M33.428,32.278c0.092-0.093,0.184-0.139,0.276-0.139
					c0.03,0,0.138,0.046,0.322,0.139c0.092,0.061,0.138,0.169,0.138,0.322c0,0.153-0.046,0.276-0.138,0.368
					c-0.123,0.061-0.23,0.092-0.322,0.092c-0.123,0-0.215-0.03-0.276-0.092c-0.123-0.184-0.184-0.307-0.184-0.368
					C33.244,32.508,33.305,32.4,33.428,32.278z"/>
				<path fill-rule="evenodd" clip-rule="evenodd" fill="#FFFFFF" d="M32.415,33.935c-0.092-0.046-0.138-0.139-0.138-0.276
					c0-0.108,0.046-0.231,0.138-0.369c0.062-0.061,0.169-0.092,0.322-0.092c0.153,0,0.246,0.031,0.276,0.092
					c0.123,0.184,0.185,0.308,0.185,0.369c0,0.122-0.061,0.214-0.185,0.276c-0.046,0.122-0.138,0.184-0.276,0.184
					C32.599,34.119,32.492,34.058,32.415,33.935z"/>
				<path fill-rule="evenodd" clip-rule="evenodd" fill="#FFFFFF" d="M31.77,34.165c0.123,0,0.23,0.046,0.322,0.137
					c0.092,0.093,0.138,0.2,0.138,0.323c0,0.123-0.046,0.23-0.138,0.322c-0.092,0.093-0.199,0.138-0.322,0.138
					c-0.123,0-0.23-0.046-0.322-0.138c-0.092-0.092-0.138-0.199-0.138-0.322c0-0.123,0.046-0.23,0.138-0.323
					C31.54,34.211,31.648,34.165,31.77,34.165z"/>
				<path fill-rule="evenodd" clip-rule="evenodd" fill="#FFFFFF" d="M31.31,35.639c0,0.123-0.046,0.23-0.138,0.322
					c-0.092,0.092-0.2,0.138-0.322,0.138c-0.123,0-0.23-0.046-0.322-0.138c-0.092-0.092-0.138-0.199-0.138-0.322
					c0-0.123,0.046-0.23,0.138-0.322c0.092-0.093,0.2-0.139,0.322-0.139c0.123,0,0.23,0.046,0.322,0.139
					C31.264,35.409,31.31,35.516,31.31,35.639z"/>
				<path fill-rule="evenodd" clip-rule="evenodd" fill="#FFFFFF" d="M30.251,36.375c0.123,0.061,0.185,0.153,0.185,0.276
					c0,0.092-0.061,0.2-0.185,0.322c-0.031,0.093-0.123,0.138-0.276,0.138c-0.154,0-0.261-0.046-0.322-0.138
					c-0.092-0.092-0.138-0.199-0.138-0.322c0-0.138,0.046-0.23,0.138-0.276c0.077-0.123,0.184-0.184,0.322-0.184
					C30.112,36.191,30.205,36.252,30.251,36.375z"/>
				<path fill-rule="evenodd" clip-rule="evenodd" fill="#FFFFFF" d="M29.422,37.388c0.092,0.138,0.138,0.261,0.138,0.368
					c0,0.138-0.046,0.23-0.138,0.276c-0.123,0.123-0.23,0.184-0.322,0.184c-0.061,0-0.184-0.061-0.368-0.184
					c-0.061-0.031-0.092-0.123-0.092-0.276c0-0.153,0.03-0.276,0.092-0.368c0.184-0.061,0.307-0.092,0.368-0.092
					C29.192,37.296,29.299,37.327,29.422,37.388z"/>
				<path fill-rule="evenodd" clip-rule="evenodd" fill="#FFFFFF" d="M28.225,38.355c0.123,0,0.23,0.046,0.322,0.138
					c0.092,0.092,0.138,0.2,0.138,0.323c0,0.122-0.046,0.23-0.138,0.322c-0.092,0.093-0.199,0.138-0.322,0.138
					c-0.123,0-0.23-0.046-0.322-0.138c-0.092-0.092-0.138-0.2-0.138-0.322c0-0.123,0.046-0.231,0.138-0.323
					C27.995,38.401,28.102,38.355,28.225,38.355z"/>
				<path fill-rule="evenodd" clip-rule="evenodd" fill="#FFFFFF" d="M27.718,39.599c0.092,0.092,0.138,0.2,0.138,0.322
					c0,0.123-0.046,0.23-0.138,0.322c-0.092,0.093-0.199,0.139-0.322,0.139c-0.123,0-0.23-0.046-0.322-0.139
					c-0.092-0.092-0.138-0.199-0.138-0.322c0-0.122,0.046-0.23,0.138-0.322c0.092-0.093,0.199-0.138,0.322-0.138
					C27.519,39.461,27.626,39.506,27.718,39.599z"/>
				<path fill-rule="evenodd" clip-rule="evenodd" fill="#FFFFFF" d="M26.889,40.704c0.092,0.062,0.138,0.169,0.138,0.322
					c0,0.154-0.046,0.261-0.138,0.323c-0.092,0.092-0.199,0.138-0.322,0.138c-0.138,0-0.23-0.046-0.276-0.138
					c-0.123-0.123-0.184-0.231-0.184-0.323c0-0.092,0.061-0.199,0.184-0.322c0.046-0.092,0.138-0.138,0.276-0.138
					C26.69,40.566,26.797,40.612,26.889,40.704z"/>
				<path fill-rule="evenodd" clip-rule="evenodd" fill="#FFFFFF" d="M20.719,53.275c0,0.122-0.046,0.23-0.138,0.322
					c-0.092,0.092-0.199,0.138-0.322,0.138c-0.123,0-0.23-0.046-0.322-0.138c-0.092-0.092-0.138-0.2-0.138-0.322
					c0-0.123,0.046-0.231,0.138-0.323c0.092-0.092,0.2-0.138,0.322-0.138c0.123,0,0.23,0.046,0.322,0.138
					C20.673,53.044,20.719,53.152,20.719,53.275z"/>
				<path fill-rule="evenodd" clip-rule="evenodd" fill="#FFFFFF" d="M19.844,54.149c0.153,0,0.246,0.03,0.276,0.092
					c0.123,0.184,0.185,0.307,0.185,0.368c0,0.123-0.061,0.215-0.185,0.276c-0.046,0.122-0.138,0.184-0.276,0.184
					c-0.138,0-0.246-0.061-0.322-0.184c-0.092-0.046-0.138-0.138-0.138-0.276c0-0.108,0.046-0.23,0.138-0.368
					C19.584,54.18,19.691,54.149,19.844,54.149z"/>
				<path fill-rule="evenodd" clip-rule="evenodd" fill="#FFFFFF" d="M19.752,55.576c0.092,0.092,0.138,0.2,0.138,0.323
					c0,0.123-0.046,0.23-0.138,0.322c-0.092,0.092-0.199,0.138-0.322,0.138c-0.107,0-0.23-0.046-0.368-0.138
					C19,56.16,18.97,56.052,18.97,55.899c0-0.154,0.03-0.261,0.092-0.323c0.138-0.092,0.261-0.138,0.368-0.138
					C19.553,55.438,19.66,55.484,19.752,55.576z"/>
				<path fill-rule="evenodd" clip-rule="evenodd" fill="#FFFFFF" d="M18.693,58.109c0.138,0,0.23,0.061,0.276,0.184
					c0.123,0.062,0.184,0.153,0.184,0.276c0,0.061-0.061,0.184-0.184,0.368C18.908,59,18.816,59.03,18.693,59.03
					c-0.092,0-0.199-0.03-0.322-0.092c-0.123-0.185-0.184-0.308-0.184-0.368c0-0.123,0.061-0.215,0.184-0.276
					C18.448,58.17,18.555,58.109,18.693,58.109z"/>
				<path fill-rule="evenodd" clip-rule="evenodd" fill="#FFFFFF" d="M18.555,57.234c0-0.123,0.046-0.23,0.138-0.322
					c0.092-0.093,0.2-0.138,0.322-0.138c0.123,0,0.23,0.046,0.322,0.138c0.092,0.092,0.138,0.199,0.138,0.322
					c0,0.123-0.046,0.23-0.138,0.323c-0.092,0.092-0.2,0.138-0.322,0.138c-0.123,0-0.23-0.046-0.322-0.138
					C18.601,57.464,18.555,57.357,18.555,57.234z"/>
				<path fill-rule="evenodd" clip-rule="evenodd" fill="#FFFFFF" d="M18.831,59.951c0,0.122-0.046,0.23-0.138,0.322
					c-0.092,0.092-0.199,0.138-0.322,0.138c-0.123,0-0.23-0.046-0.322-0.138c-0.092-0.092-0.138-0.2-0.138-0.322
					c0-0.123,0.046-0.23,0.138-0.323c0.092-0.092,0.2-0.138,0.322-0.138c0.123,0,0.23,0.046,0.322,0.138
					C18.785,59.721,18.831,59.828,18.831,59.951z"/>
				<path fill-rule="evenodd" clip-rule="evenodd" fill="#FFFFFF" d="M17.818,60.964c0.092-0.092,0.199-0.138,0.322-0.138
					c0.123,0,0.23,0.046,0.322,0.138c0.092,0.184,0.138,0.292,0.138,0.322c0,0.031-0.046,0.138-0.138,0.322
					c-0.092,0.093-0.2,0.139-0.322,0.139c-0.123,0-0.23-0.046-0.322-0.139c-0.092-0.061-0.138-0.169-0.138-0.322
					C17.68,61.133,17.726,61.025,17.818,60.964z"/>
				<path fill-rule="evenodd" clip-rule="evenodd" fill="#FFFFFF" d="M18.187,62.345c0.123,0.077,0.184,0.184,0.184,0.322
					c0,0.138-0.061,0.246-0.184,0.323c-0.046,0.092-0.138,0.138-0.276,0.138c-0.123,0-0.23-0.046-0.322-0.138
					c-0.092-0.061-0.138-0.169-0.138-0.323c0-0.153,0.046-0.261,0.138-0.322c0.092-0.092,0.2-0.138,0.322-0.138
					C18.048,62.207,18.141,62.254,18.187,62.345z"/>
				<path fill-rule="evenodd" clip-rule="evenodd" fill="#FFFFFF" d="M17.358,63.727c0.092-0.092,0.2-0.138,0.322-0.138
					c0.123,0,0.23,0.046,0.322,0.138c0.092,0.092,0.138,0.199,0.138,0.322c0,0.123-0.046,0.231-0.138,0.323
					c-0.092,0.092-0.199,0.138-0.322,0.138c-0.123,0-0.23-0.046-0.322-0.138c-0.092-0.092-0.138-0.2-0.138-0.323
					C17.22,63.926,17.266,63.819,17.358,63.727z"/>
				<path fill-rule="evenodd" clip-rule="evenodd" fill="#FFFFFF" d="M17.957,65.43c0,0.093-0.031,0.2-0.092,0.323
					c-0.138,0.092-0.261,0.138-0.368,0.138c-0.138,0-0.23-0.046-0.276-0.138c-0.123-0.123-0.184-0.23-0.184-0.323
					c0-0.092,0.061-0.199,0.184-0.322c0.046-0.092,0.138-0.138,0.276-0.138c0.107,0,0.23,0.046,0.368,0.138
					C17.926,65.231,17.957,65.338,17.957,65.43z"/>
				<path fill-rule="evenodd" clip-rule="evenodd" fill="#FFFFFF" d="M17.035,66.489c0.138-0.092,0.261-0.138,0.369-0.138
					c0.138,0,0.23,0.046,0.276,0.138c0.123,0.077,0.184,0.184,0.184,0.323c0,0.137-0.061,0.245-0.184,0.322
					c-0.046,0.092-0.138,0.138-0.276,0.138c-0.108,0-0.23-0.046-0.369-0.138c-0.061-0.123-0.092-0.23-0.092-0.322
					C16.944,66.72,16.974,66.612,17.035,66.489z"/>
				<path fill-rule="evenodd" clip-rule="evenodd" fill="#FFFFFF" d="M17.726,68.194c0,0.122-0.046,0.23-0.138,0.322
					c-0.092,0.092-0.199,0.138-0.322,0.138c-0.123,0-0.23-0.046-0.322-0.138c-0.092-0.092-0.138-0.2-0.138-0.322
					c0-0.123,0.046-0.231,0.138-0.323c0.092-0.092,0.199-0.138,0.322-0.138c0.123,0,0.23,0.046,0.322,0.138
					C17.68,67.963,17.726,68.07,17.726,68.194z"/>
				<path fill-rule="evenodd" clip-rule="evenodd" fill="#FFFFFF" d="M17.496,69.298c0.123,0.046,0.184,0.138,0.184,0.276
					c0,0.137-0.061,0.245-0.184,0.322c-0.031,0.092-0.123,0.138-0.276,0.138c-0.153,0-0.261-0.046-0.322-0.138
					c-0.092-0.061-0.138-0.169-0.138-0.322c0-0.154,0.046-0.246,0.138-0.276c0.077-0.123,0.184-0.185,0.322-0.185
					C17.358,69.114,17.45,69.175,17.496,69.298z"/>
				<path fill-rule="evenodd" clip-rule="evenodd" fill="#FFFFFF" d="M17.496,70.68c0.092,0.092,0.138,0.2,0.138,0.322
					c0,0.123-0.046,0.231-0.138,0.323c-0.092,0.092-0.2,0.138-0.322,0.138c-0.123,0-0.23-0.046-0.322-0.138
					c-0.092-0.092-0.138-0.2-0.138-0.323c0-0.122,0.046-0.23,0.138-0.322c0.092-0.093,0.2-0.138,0.322-0.138
					C17.296,70.542,17.404,70.587,17.496,70.68z"/>
				<path fill-rule="evenodd" clip-rule="evenodd" fill="#FFFFFF" d="M17.496,72.061c0.092,0.092,0.138,0.2,0.138,0.322
					c0,0.123-0.046,0.231-0.138,0.323c-0.092,0.092-0.2,0.138-0.322,0.138c-0.123,0-0.23-0.046-0.322-0.138
					c-0.092-0.092-0.138-0.2-0.138-0.323c0-0.122,0.046-0.23,0.138-0.322c0.092-0.092,0.2-0.138,0.322-0.138
					C17.296,71.923,17.404,71.969,17.496,72.061z"/>
				<path fill-rule="evenodd" clip-rule="evenodd" fill="#FFFFFF" d="M17.68,73.765c0,0.137-0.061,0.245-0.184,0.322
					c-0.046,0.092-0.138,0.138-0.276,0.138c-0.123,0-0.23-0.046-0.322-0.138c-0.092-0.062-0.138-0.169-0.138-0.322
					c0-0.154,0.046-0.261,0.138-0.323c0.092-0.092,0.2-0.138,0.322-0.138c0.138,0,0.23,0.046,0.276,0.138
					C17.619,73.519,17.68,73.627,17.68,73.765z"/>
				<path fill-rule="evenodd" clip-rule="evenodd" fill="#FFFFFF" d="M17.588,74.824c0.092,0.093,0.138,0.2,0.138,0.323
					c0,0.122-0.046,0.23-0.138,0.322c-0.092,0.092-0.199,0.138-0.322,0.138c-0.123,0-0.23-0.046-0.322-0.138
					c-0.092-0.092-0.138-0.2-0.138-0.322c0-0.123,0.046-0.23,0.138-0.323c0.092-0.092,0.199-0.138,0.322-0.138
					C17.389,74.686,17.496,74.732,17.588,74.824z"/>
				<path fill-rule="evenodd" clip-rule="evenodd" fill="#FFFFFF" d="M17.035,76.205c0.092-0.092,0.2-0.138,0.322-0.138
					c0.123,0,0.23,0.046,0.322,0.138c0.092,0.093,0.138,0.2,0.138,0.323c0,0.122-0.046,0.23-0.138,0.322
					c-0.092,0.092-0.2,0.138-0.322,0.138c-0.123,0-0.23-0.046-0.322-0.138c-0.092-0.092-0.138-0.2-0.138-0.322
					C16.897,76.405,16.944,76.298,17.035,76.205z"/>
				<path fill-rule="evenodd" clip-rule="evenodd" fill="#FFFFFF" d="M17.818,77.586c0.061,0.061,0.092,0.169,0.092,0.323
					c0,0.153-0.031,0.261-0.092,0.322c-0.138,0.092-0.261,0.138-0.368,0.138c-0.138,0-0.23-0.046-0.276-0.138
					c-0.123-0.077-0.184-0.184-0.184-0.322c0-0.138,0.061-0.245,0.184-0.323c0.046-0.092,0.138-0.138,0.276-0.138
					C17.558,77.448,17.68,77.494,17.818,77.586z"/>
				<path fill-rule="evenodd" clip-rule="evenodd" fill="#FFFFFF" d="M18.095,79.29c0,0.123-0.046,0.23-0.138,0.322
					c-0.092,0.093-0.2,0.138-0.322,0.138c-0.123,0-0.23-0.046-0.322-0.138c-0.092-0.092-0.138-0.199-0.138-0.322
					c0-0.123,0.046-0.23,0.138-0.323c0.092-0.092,0.2-0.137,0.322-0.137c0.123,0,0.23,0.046,0.322,0.137
					C18.048,79.06,18.095,79.167,18.095,79.29z"/>
				<path fill-rule="evenodd" clip-rule="evenodd" fill="#FFFFFF" d="M17.496,80.349c0.077-0.122,0.184-0.184,0.322-0.184
					s0.246,0.061,0.322,0.184c0.092,0.046,0.138,0.138,0.138,0.276c0,0.123-0.046,0.23-0.138,0.323
					c-0.061,0.092-0.169,0.138-0.322,0.138s-0.261-0.046-0.322-0.138c-0.092-0.093-0.138-0.2-0.138-0.323
					C17.358,80.487,17.404,80.395,17.496,80.349z"/>
				<path fill-rule="evenodd" clip-rule="evenodd" fill="#FFFFFF" d="M18.371,81.73c0.092,0.046,0.138,0.138,0.138,0.276
					c0,0.123-0.046,0.231-0.138,0.323c-0.061,0.092-0.169,0.138-0.322,0.138c-0.153,0-0.261-0.046-0.322-0.138
					c-0.092-0.092-0.138-0.2-0.138-0.323c0-0.138,0.046-0.23,0.138-0.276c0.077-0.122,0.184-0.184,0.322-0.184
					C18.187,81.547,18.294,81.608,18.371,81.73z"/>
				<path fill-rule="evenodd" clip-rule="evenodd" fill="#FFFFFF" d="M18.601,83.112c0.092,0.03,0.138,0.122,0.138,0.276
					c0,0.154-0.046,0.261-0.138,0.323c-0.061,0.092-0.153,0.138-0.276,0.138c-0.154,0-0.276-0.046-0.368-0.138
					c-0.061-0.123-0.092-0.23-0.092-0.323c0-0.123,0.031-0.215,0.092-0.276c0.123-0.123,0.246-0.184,0.368-0.184
					C18.432,82.928,18.524,82.989,18.601,83.112z"/>
				<path fill-rule="evenodd" clip-rule="evenodd" fill="#FFFFFF" d="M18.601,85.23c-0.138,0-0.245-0.061-0.322-0.184
					c-0.092-0.046-0.138-0.138-0.138-0.276c0-0.108,0.046-0.231,0.138-0.369c0.061-0.061,0.169-0.092,0.322-0.092
					c0.154,0,0.261,0.031,0.323,0.092c0.092,0.138,0.138,0.261,0.138,0.369c0,0.137-0.046,0.23-0.138,0.276
					C18.847,85.169,18.739,85.23,18.601,85.23z"/>
				<path fill-rule="evenodd" clip-rule="evenodd" fill="#FFFFFF" d="M18.601,85.737c0.184-0.061,0.307-0.092,0.369-0.092
					c0.092,0,0.199,0.03,0.322,0.092c0.092,0.138,0.138,0.261,0.138,0.368c0,0.138-0.046,0.23-0.138,0.276
					c-0.123,0.122-0.23,0.184-0.322,0.184c-0.061,0-0.184-0.061-0.369-0.184c-0.061-0.031-0.092-0.123-0.092-0.276
					C18.509,85.952,18.54,85.829,18.601,85.737z"/>
				<path fill-rule="evenodd" clip-rule="evenodd" fill="#FFFFFF" d="M21.594,92.643c0,0.108-0.046,0.231-0.138,0.368
					c-0.123,0.061-0.23,0.093-0.323,0.093c-0.092,0-0.199-0.031-0.322-0.093c-0.092-0.138-0.138-0.261-0.138-0.368
					c0-0.138,0.046-0.23,0.138-0.276c0.077-0.123,0.184-0.184,0.322-0.184c0.138,0,0.246,0.061,0.323,0.184
					C21.548,92.413,21.594,92.505,21.594,92.643z"/>
				<path fill-rule="evenodd" clip-rule="evenodd" fill="#FFFFFF" d="M20.029,88.453c0.092,0.046,0.138,0.138,0.138,0.276
					c0,0.108-0.046,0.23-0.138,0.368c-0.123,0.061-0.23,0.093-0.322,0.093c-0.092,0-0.199-0.031-0.322-0.093
					c-0.092-0.138-0.138-0.26-0.138-0.368c0-0.138,0.046-0.23,0.138-0.276c0.077-0.123,0.184-0.184,0.322-0.184
					S19.952,88.33,20.029,88.453z"/>
				<path fill-rule="evenodd" clip-rule="evenodd" fill="#FFFFFF" d="M19.292,87.855c-0.092,0-0.199-0.03-0.322-0.092
					c-0.031-0.093-0.077-0.215-0.138-0.368c0-0.031,0.046-0.138,0.138-0.323c0.184-0.092,0.292-0.138,0.322-0.138
					c0.154,0.061,0.276,0.108,0.369,0.138c0.061,0.062,0.092,0.169,0.092,0.323s-0.031,0.276-0.092,0.368
					C19.476,87.824,19.353,87.855,19.292,87.855z"/>
				<path fill-rule="evenodd" clip-rule="evenodd" fill="#FFFFFF" d="M20.443,89.789c0.092,0.03,0.138,0.122,0.138,0.276
					c0,0.153-0.046,0.261-0.138,0.322c-0.061,0.092-0.169,0.138-0.322,0.138c-0.153,0-0.245-0.046-0.276-0.138
					c-0.123-0.123-0.184-0.23-0.184-0.322c0-0.123,0.061-0.215,0.184-0.276c0.046-0.123,0.138-0.185,0.276-0.185
					C20.259,89.604,20.366,89.666,20.443,89.789z"/>
				<path fill-rule="evenodd" clip-rule="evenodd" fill="#FFFFFF" d="M20.949,91.032c0.092,0.138,0.138,0.261,0.138,0.368
					c0,0.138-0.046,0.23-0.138,0.276c-0.123,0.123-0.23,0.184-0.322,0.184c-0.092,0-0.199-0.061-0.322-0.184
					c-0.092-0.046-0.138-0.138-0.138-0.276c0-0.107,0.046-0.23,0.138-0.368c0.123-0.061,0.23-0.092,0.322-0.092
					C20.719,90.94,20.827,90.971,20.949,91.032z"/>
				<path fill-rule="evenodd" clip-rule="evenodd" fill="#FFFFFF" d="M22.009,93.61c0.092,0.139,0.138,0.261,0.138,0.369
					c0,0.137-0.046,0.23-0.138,0.276c-0.077,0.122-0.184,0.184-0.322,0.184c-0.138,0-0.246-0.062-0.322-0.184
					c-0.092-0.046-0.138-0.139-0.138-0.276c0-0.108,0.046-0.23,0.138-0.369c0.061-0.061,0.169-0.092,0.322-0.092
					C21.84,93.518,21.947,93.549,22.009,93.61z"/>
				<path fill-rule="evenodd" clip-rule="evenodd" fill="#FFFFFF" d="M22.285,94.761c0.031,0,0.138,0.046,0.322,0.138
					c0.092,0.185,0.138,0.292,0.138,0.323c-0.061,0.153-0.107,0.276-0.138,0.368c-0.123,0.061-0.23,0.092-0.322,0.092
					c-0.092,0-0.199-0.03-0.322-0.092c-0.092-0.092-0.138-0.215-0.138-0.368c0-0.153,0.046-0.261,0.138-0.323
					C22.147,94.808,22.254,94.761,22.285,94.761z"/>
				<path fill-rule="evenodd" clip-rule="evenodd" fill="#FFFFFF" d="M23.344,96.512c0,0.137-0.046,0.23-0.138,0.276
					c-0.077,0.122-0.184,0.184-0.322,0.184c-0.138,0-0.246-0.062-0.322-0.184c-0.092-0.046-0.138-0.139-0.138-0.276
					c0-0.108,0.046-0.231,0.138-0.369c0.061-0.061,0.169-0.092,0.322-0.092s0.261,0.031,0.322,0.092
					C23.298,96.281,23.344,96.404,23.344,96.512z"/>
				<path fill-rule="evenodd" clip-rule="evenodd" fill="#FFFFFF" d="M23.528,97.248c0.138,0,0.245,0.061,0.322,0.184
					c0.092,0.046,0.138,0.138,0.138,0.276c0,0.108-0.046,0.23-0.138,0.368c-0.123,0.061-0.23,0.093-0.322,0.093
					c-0.092,0-0.2-0.031-0.322-0.093c-0.092-0.138-0.138-0.261-0.138-0.368c0-0.138,0.046-0.23,0.138-0.276
					C23.283,97.309,23.39,97.248,23.528,97.248z"/>
				<path fill-rule="evenodd" clip-rule="evenodd" fill="#FFFFFF" d="M46.275,119.811c0.092,0.092,0.138,0.199,0.138,0.322
					c0,0.123-0.046,0.23-0.138,0.322c-0.092,0.092-0.2,0.138-0.322,0.138c-0.123,0-0.23-0.046-0.322-0.138
					c-0.092-0.092-0.138-0.199-0.138-0.322c0-0.123,0.046-0.23,0.138-0.322c0.092-0.093,0.2-0.139,0.322-0.139
					C46.075,119.672,46.183,119.719,46.275,119.811z"/>
				<path fill-rule="evenodd" clip-rule="evenodd" fill="#FFFFFF" d="M45.078,119.12c0.092,0.092,0.138,0.2,0.138,0.322
					c0,0.123-0.046,0.23-0.138,0.323c-0.092,0.092-0.2,0.138-0.322,0.138c-0.123,0-0.23-0.046-0.322-0.138
					c-0.092-0.061-0.138-0.169-0.138-0.323s0.046-0.261,0.138-0.322c0.092-0.092,0.2-0.138,0.322-0.138
					C44.878,118.982,44.985,119.028,45.078,119.12z"/>
				<path fill-rule="evenodd" clip-rule="evenodd" fill="#FFFFFF" d="M46.735,120.778c0-0.092,0.03-0.2,0.092-0.323
					c0.138-0.092,0.261-0.138,0.368-0.138c0.123,0,0.23,0.046,0.322,0.138c0.092,0.092,0.138,0.2,0.138,0.323
					c0,0.122-0.046,0.23-0.138,0.322c-0.092,0.093-0.199,0.138-0.322,0.138c-0.107,0-0.23-0.046-0.368-0.138
					C46.766,120.978,46.735,120.87,46.735,120.778z"/>
				<path fill-rule="evenodd" clip-rule="evenodd" fill="#FFFFFF" d="M48.715,121.1c0.123,0.046,0.184,0.138,0.184,0.276
					s-0.061,0.245-0.184,0.322c-0.03,0.093-0.123,0.138-0.276,0.138c-0.154,0-0.261-0.046-0.322-0.138
					c-0.092-0.061-0.138-0.169-0.138-0.322s0.046-0.246,0.138-0.276c0.077-0.122,0.184-0.184,0.322-0.184
					C48.577,120.916,48.669,120.978,48.715,121.1z"/>
				<path fill-rule="evenodd" clip-rule="evenodd" fill="#FFFFFF" d="M60.779,125.382c0,0.031-0.046,0.138-0.138,0.323
					c-0.092,0.092-0.2,0.138-0.322,0.138c-0.107,0-0.23-0.046-0.368-0.138c-0.061-0.123-0.092-0.23-0.092-0.323
					c0-0.092,0.031-0.199,0.092-0.322c0.138-0.092,0.261-0.138,0.368-0.138c0.123,0,0.23,0.046,0.322,0.138
					C60.733,125.244,60.779,125.352,60.779,125.382z"/>
				<path fill-rule="evenodd" clip-rule="evenodd" fill="#FFFFFF" d="M59.26,124.784c0.092,0.046,0.138,0.138,0.138,0.276
					c0,0.123-0.046,0.23-0.138,0.322c-0.061,0.093-0.169,0.138-0.322,0.138c-0.154,0-0.261-0.046-0.322-0.138
					c-0.092-0.092-0.138-0.199-0.138-0.322c0-0.138,0.046-0.23,0.138-0.276c0.077-0.123,0.184-0.184,0.322-0.184
					C59.076,124.6,59.183,124.661,59.26,124.784z"/>
				<path fill-rule="evenodd" clip-rule="evenodd" fill="#FFFFFF" d="M63.036,125.382c0.031,0,0.138,0.046,0.322,0.138
					c0.092,0.092,0.138,0.2,0.138,0.323c0,0.107-0.046,0.23-0.138,0.368c-0.123,0.061-0.23,0.092-0.322,0.092
					c-0.092,0-0.2-0.03-0.322-0.092c-0.092-0.138-0.138-0.261-0.138-0.368c0-0.123,0.046-0.231,0.138-0.323
					C62.897,125.428,63.005,125.382,63.036,125.382z"/>
				<path fill-rule="evenodd" clip-rule="evenodd" fill="#FFFFFF" d="M61.977,125.29c0.092,0.092,0.138,0.2,0.138,0.322
					c0,0.108-0.046,0.231-0.138,0.369c-0.123,0.061-0.23,0.092-0.322,0.092c-0.092,0-0.2-0.03-0.322-0.092
					c-0.092-0.138-0.138-0.261-0.138-0.369c0-0.122,0.046-0.23,0.138-0.322c0.184-0.092,0.292-0.138,0.322-0.138
					C61.685,125.152,61.792,125.198,61.977,125.29z"/>
				<path fill-rule="evenodd" clip-rule="evenodd" fill="#FFFFFF" d="M54.609,123.679c0.046-0.123,0.138-0.184,0.276-0.184
					c0.123,0,0.246,0.061,0.368,0.184c0.061,0.03,0.092,0.123,0.092,0.276c0,0.153-0.03,0.276-0.092,0.368
					c-0.184,0.061-0.307,0.092-0.368,0.092c-0.123,0-0.215-0.03-0.276-0.092c-0.123-0.123-0.184-0.246-0.184-0.368
					C54.425,123.817,54.486,123.725,54.609,123.679z"/>
				<path fill-rule="evenodd" clip-rule="evenodd" fill="#FFFFFF" d="M56.267,123.909c0.138,0,0.23,0.046,0.276,0.138
					c0.123,0.077,0.184,0.184,0.184,0.322s-0.061,0.246-0.184,0.323c-0.046,0.092-0.138,0.138-0.276,0.138
					c-0.123,0-0.23-0.046-0.322-0.138c-0.092-0.062-0.138-0.169-0.138-0.323c0-0.153,0.046-0.261,0.138-0.322
					C56.036,123.955,56.144,123.909,56.267,123.909z"/>
				<path fill-rule="evenodd" clip-rule="evenodd" fill="#FFFFFF" d="M58.063,124.737c0,0.139-0.061,0.246-0.184,0.323
					c-0.046,0.092-0.138,0.138-0.276,0.138c-0.107,0-0.23-0.046-0.368-0.138c-0.061-0.123-0.092-0.23-0.092-0.323
					c0-0.092,0.031-0.199,0.092-0.322c0.138-0.092,0.261-0.138,0.368-0.138c0.138,0,0.23,0.046,0.276,0.138
					C58.001,124.492,58.063,124.6,58.063,124.737z"/>
				<path fill-rule="evenodd" clip-rule="evenodd" fill="#FFFFFF" d="M52.307,123.494c-0.061,0-0.184-0.03-0.369-0.092
					c-0.061-0.184-0.092-0.307-0.092-0.368c0-0.123,0.031-0.215,0.092-0.276c0.123-0.123,0.246-0.184,0.369-0.184
					c0.138,0,0.23,0.061,0.276,0.184c0.123,0.046,0.184,0.138,0.184,0.276c0,0.123-0.061,0.245-0.184,0.368
					C52.522,123.464,52.43,123.494,52.307,123.494z"/>
				<path fill-rule="evenodd" clip-rule="evenodd" fill="#FFFFFF" d="M53.918,123.218c0.092,0.093,0.138,0.2,0.138,0.323
					c0,0.122-0.046,0.23-0.138,0.322c-0.092,0.093-0.199,0.138-0.322,0.138c-0.123,0-0.23-0.046-0.322-0.138
					c-0.092-0.092-0.138-0.2-0.138-0.322c0-0.123,0.046-0.23,0.138-0.323c0.092-0.092,0.2-0.138,0.322-0.138
					C53.719,123.08,53.826,123.126,53.918,123.218z"/>
				<path fill-rule="evenodd" clip-rule="evenodd" fill="#FFFFFF" d="M50.972,122.067c0.107,0,0.23,0.046,0.368,0.137
					c0.061,0.061,0.092,0.169,0.092,0.323s-0.031,0.261-0.092,0.322c-0.138,0.093-0.261,0.138-0.368,0.138
					c-0.138,0-0.23-0.046-0.276-0.138c-0.123-0.077-0.184-0.184-0.184-0.322s0.061-0.246,0.184-0.323
					C50.741,122.113,50.833,122.067,50.972,122.067z"/>
				<path fill-rule="evenodd" clip-rule="evenodd" fill="#FFFFFF" d="M50.051,121.653c0.092,0.184,0.138,0.292,0.138,0.322
					c0,0.031-0.046,0.138-0.138,0.323c-0.092,0.092-0.199,0.138-0.322,0.138c-0.107,0-0.23-0.046-0.368-0.138
					c-0.061-0.123-0.092-0.23-0.092-0.323c0-0.092,0.03-0.199,0.092-0.322c0.138-0.092,0.261-0.138,0.368-0.138
					C49.851,121.515,49.959,121.561,50.051,121.653z"/>
				<path fill-rule="evenodd" clip-rule="evenodd" fill="#FFFFFF" d="M77.954,126.488c-0.092-0.093-0.138-0.2-0.138-0.323
					c0-0.122,0.046-0.23,0.138-0.322c0.092-0.092,0.2-0.138,0.322-0.138s0.23,0.046,0.322,0.138c0.092,0.092,0.138,0.2,0.138,0.322
					c0,0.123-0.046,0.23-0.138,0.323c-0.092,0.092-0.2,0.138-0.322,0.138S78.046,126.58,77.954,126.488z"/>
				<path fill-rule="evenodd" clip-rule="evenodd" fill="#FFFFFF" d="M79.198,125.981c0-0.138,0.046-0.23,0.138-0.276
					c0.077-0.123,0.184-0.184,0.322-0.184c0.138,0,0.246,0.061,0.322,0.184c0.092,0.046,0.138,0.138,0.138,0.276
					c0,0.122-0.046,0.23-0.138,0.322c-0.061,0.092-0.169,0.138-0.322,0.138c-0.153,0-0.261-0.046-0.322-0.138
					C79.244,126.211,79.198,126.104,79.198,125.981z"/>
				<path fill-rule="evenodd" clip-rule="evenodd" fill="#FFFFFF" d="M81.362,125.475c0.092,0.092,0.138,0.2,0.138,0.322
					c0,0.123-0.046,0.23-0.138,0.322c-0.092,0.093-0.2,0.139-0.322,0.139s-0.23-0.046-0.322-0.139
					c-0.092-0.092-0.138-0.199-0.138-0.322c0-0.122,0.046-0.23,0.138-0.322c0.092-0.093,0.2-0.138,0.322-0.138
					S81.27,125.382,81.362,125.475z"/>
				<path fill-rule="evenodd" clip-rule="evenodd" fill="#FFFFFF" d="M73.212,126.488c0,0.122-0.046,0.23-0.138,0.322
					c-0.092,0.092-0.199,0.138-0.322,0.138c-0.123,0-0.23-0.046-0.322-0.138c-0.092-0.092-0.138-0.2-0.138-0.322
					c0-0.123,0.046-0.23,0.138-0.323c0.092-0.092,0.2-0.138,0.322-0.138c0.123,0,0.23,0.046,0.322,0.138
					C73.166,126.258,73.212,126.365,73.212,126.488z"/>
				<path fill-rule="evenodd" clip-rule="evenodd" fill="#FFFFFF" d="M74.455,126.763c-0.061,0.093-0.169,0.138-0.322,0.138
					c-0.153,0-0.261-0.046-0.322-0.138c-0.092-0.092-0.138-0.199-0.138-0.322c0-0.138,0.046-0.23,0.138-0.276
					c0.076-0.122,0.184-0.184,0.322-0.184c0.138,0,0.246,0.061,0.322,0.184c0.092,0.046,0.138,0.138,0.138,0.276
					C74.593,126.564,74.547,126.672,74.455,126.763z"/>
				<path fill-rule="evenodd" clip-rule="evenodd" fill="#FFFFFF" d="M75.974,126.395c0,0.123-0.046,0.231-0.138,0.323
					c-0.092,0.092-0.199,0.138-0.322,0.138c-0.123,0-0.23-0.046-0.322-0.138c-0.092-0.092-0.138-0.2-0.138-0.323
					c0-0.122,0.046-0.23,0.138-0.322c0.092-0.092,0.199-0.138,0.322-0.138c0.123,0,0.23,0.046,0.322,0.138
					C75.928,126.165,75.974,126.273,75.974,126.395z"/>
				<path fill-rule="evenodd" clip-rule="evenodd" fill="#FFFFFF" d="M77.218,125.981c0.092,0.092,0.138,0.199,0.138,0.322
					s-0.046,0.23-0.138,0.323c-0.092,0.092-0.2,0.137-0.322,0.137c-0.123,0-0.23-0.046-0.322-0.137
					c-0.092-0.093-0.138-0.2-0.138-0.323s0.046-0.23,0.138-0.322c0.092-0.093,0.199-0.138,0.322-0.138
					C77.018,125.843,77.126,125.889,77.218,125.981z"/>
				<path fill-rule="evenodd" clip-rule="evenodd" fill="#FFFFFF" d="M68.101,126.441c0-0.107,0.046-0.23,0.138-0.368
					c0.061-0.061,0.169-0.092,0.322-0.092c0.154,0,0.261,0.03,0.323,0.092c0.092,0.138,0.138,0.261,0.138,0.368
					c0,0.138-0.046,0.23-0.138,0.276c-0.077,0.123-0.184,0.184-0.323,0.184c-0.138,0-0.245-0.061-0.322-0.184
					C68.147,126.672,68.101,126.58,68.101,126.441z"/>
				<path fill-rule="evenodd" clip-rule="evenodd" fill="#FFFFFF" d="M69.989,125.981c0.138,0,0.246,0.061,0.322,0.184
					c0.092,0.093,0.138,0.184,0.138,0.276c0,0.031-0.046,0.138-0.138,0.322c-0.061,0.093-0.169,0.138-0.322,0.138
					c-0.153,0-0.276-0.046-0.368-0.138c-0.061-0.122-0.092-0.23-0.092-0.322c0-0.123,0.031-0.215,0.092-0.276
					C69.743,126.043,69.866,125.981,69.989,125.981z"/>
				<path fill-rule="evenodd" clip-rule="evenodd" fill="#FFFFFF" d="M71.047,126.165c0.092-0.092,0.2-0.138,0.322-0.138
					c0.123,0,0.23,0.046,0.322,0.138c0.092,0.093,0.138,0.2,0.138,0.323c0,0.122-0.046,0.23-0.138,0.322
					c-0.092,0.092-0.2,0.138-0.322,0.138c-0.123,0-0.23-0.046-0.322-0.138c-0.092-0.092-0.138-0.2-0.138-0.322
					C70.909,126.365,70.956,126.258,71.047,126.165z"/>
				<path fill-rule="evenodd" clip-rule="evenodd" fill="#FFFFFF" d="M64.417,125.567c0.138,0,0.246,0.061,0.322,0.184
					c0.092,0.046,0.138,0.138,0.138,0.276c0,0.108-0.046,0.231-0.138,0.368c-0.123,0.061-0.23,0.093-0.322,0.093
					s-0.2-0.031-0.322-0.093c-0.092-0.138-0.138-0.261-0.138-0.368c0-0.138,0.046-0.23,0.138-0.276
					C64.171,125.628,64.279,125.567,64.417,125.567z"/>
				<path fill-rule="evenodd" clip-rule="evenodd" fill="#FFFFFF" d="M65.338,126.211c0-0.123,0.046-0.23,0.138-0.323
					c0.092-0.092,0.2-0.138,0.322-0.138c0.123,0,0.23,0.046,0.322,0.138c0.092,0.093,0.138,0.2,0.138,0.323s-0.046,0.23-0.138,0.322
					c-0.092,0.093-0.199,0.138-0.322,0.138c-0.123,0-0.23-0.046-0.322-0.138C65.384,126.441,65.338,126.334,65.338,126.211z"/>
				<path fill-rule="evenodd" clip-rule="evenodd" fill="#FFFFFF" d="M67.502,126.672c-0.123,0.061-0.23,0.092-0.322,0.092
					c-0.092,0-0.199-0.03-0.322-0.092c-0.092-0.138-0.138-0.261-0.138-0.368c0-0.123,0.046-0.23,0.138-0.322
					c0.185-0.093,0.292-0.138,0.322-0.138s0.138,0.046,0.322,0.138c0.092,0.092,0.138,0.199,0.138,0.322
					C67.64,126.41,67.594,126.533,67.502,126.672z"/>
				<path fill-rule="evenodd" clip-rule="evenodd" fill="#FFFFFF" d="M26.153,101.346c0,0.138-0.046,0.231-0.138,0.276
					c-0.077,0.123-0.184,0.185-0.322,0.185c-0.138,0-0.245-0.062-0.322-0.185c-0.092-0.046-0.138-0.138-0.138-0.276
					c0-0.107,0.046-0.23,0.138-0.368c0.061-0.061,0.169-0.092,0.322-0.092c0.154,0,0.261,0.031,0.322,0.092
					C26.107,101.116,26.153,101.239,26.153,101.346z"/>
				<path fill-rule="evenodd" clip-rule="evenodd" fill="#FFFFFF" d="M26.475,102.037c0.123,0,0.23,0.046,0.322,0.138
					c0.092,0.092,0.138,0.199,0.138,0.322c0,0.123-0.046,0.231-0.138,0.323c-0.092,0.092-0.2,0.138-0.322,0.138
					c-0.123,0-0.23-0.046-0.322-0.138c-0.092-0.092-0.138-0.2-0.138-0.323c0-0.123,0.046-0.23,0.138-0.322
					C26.245,102.083,26.352,102.037,26.475,102.037z"/>
				<path fill-rule="evenodd" clip-rule="evenodd" fill="#FFFFFF" d="M26.797,103.648c0-0.092,0.061-0.199,0.184-0.322
					c0.046-0.092,0.138-0.138,0.276-0.138c0.123,0,0.23,0.046,0.322,0.138c0.092,0.061,0.138,0.169,0.138,0.322
					c0,0.153-0.046,0.261-0.138,0.322c-0.092,0.093-0.199,0.139-0.322,0.139c-0.138,0-0.23-0.046-0.276-0.139
					C26.859,103.848,26.797,103.74,26.797,103.648z"/>
				<path fill-rule="evenodd" clip-rule="evenodd" fill="#FFFFFF" d="M28.409,105.076c-0.046,0.092-0.138,0.138-0.276,0.138
					c-0.123,0-0.23-0.046-0.322-0.138s-0.138-0.2-0.138-0.323c0-0.122,0.046-0.23,0.138-0.322c0.092-0.092,0.199-0.138,0.322-0.138
					c0.138,0,0.23,0.046,0.276,0.138c0.123,0.122,0.185,0.23,0.185,0.322C28.593,104.846,28.532,104.953,28.409,105.076z"/>
				<path fill-rule="evenodd" clip-rule="evenodd" fill="#FFFFFF" d="M28.962,106.319c-0.123,0-0.23-0.046-0.322-0.138
					c-0.092-0.184-0.138-0.292-0.138-0.322c0-0.031,0.046-0.138,0.138-0.323c0.092-0.092,0.199-0.138,0.322-0.138
					c0.107,0,0.23,0.046,0.368,0.138c0.061,0.061,0.092,0.169,0.092,0.323c0,0.153-0.031,0.261-0.092,0.322
					C29.192,106.273,29.069,106.319,28.962,106.319z"/>
				<path fill-rule="evenodd" clip-rule="evenodd" fill="#FFFFFF" d="M30.205,106.596c0.092,0.092,0.138,0.2,0.138,0.322
					c0,0.123-0.046,0.231-0.138,0.323c-0.092,0.092-0.199,0.138-0.322,0.138c-0.123,0-0.23-0.046-0.322-0.138
					c-0.092-0.092-0.138-0.2-0.138-0.323c0-0.122,0.046-0.23,0.138-0.322c0.092-0.092,0.2-0.138,0.322-0.138
					C30.005,106.457,30.112,106.504,30.205,106.596z"/>
				<path fill-rule="evenodd" clip-rule="evenodd" fill="#FFFFFF" d="M30.343,107.977c0-0.123,0.046-0.23,0.138-0.323
					c0.092-0.092,0.199-0.137,0.322-0.137c0.123,0,0.23,0.046,0.323,0.137c0.092,0.093,0.138,0.2,0.138,0.323
					s-0.046,0.23-0.138,0.323c-0.092,0.092-0.2,0.138-0.323,0.138c-0.123,0-0.23-0.046-0.322-0.138
					C30.389,108.207,30.343,108.1,30.343,107.977z"/>
				<path fill-rule="evenodd" clip-rule="evenodd" fill="#FFFFFF" d="M31.77,108.575c0.123,0,0.23,0.046,0.322,0.138
					c0.092,0.092,0.138,0.2,0.138,0.322c0,0.123-0.046,0.231-0.138,0.323c-0.092,0.092-0.199,0.138-0.322,0.138
					c-0.123,0-0.23-0.046-0.322-0.138c-0.092-0.092-0.138-0.2-0.138-0.323c0-0.122,0.046-0.23,0.138-0.322
					C31.54,108.622,31.648,108.575,31.77,108.575z"/>
				<path fill-rule="evenodd" clip-rule="evenodd" fill="#FFFFFF" d="M32.737,109.543c0.138,0,0.23,0.046,0.276,0.138
					c0.123,0.122,0.185,0.23,0.185,0.322s-0.061,0.199-0.185,0.322c-0.046,0.093-0.138,0.138-0.276,0.138
					c-0.123,0-0.23-0.046-0.322-0.138c-0.092-0.092-0.138-0.199-0.138-0.322c0-0.123,0.046-0.23,0.138-0.322
					C32.507,109.588,32.614,109.543,32.737,109.543z"/>
				<path fill-rule="evenodd" clip-rule="evenodd" fill="#FFFFFF" d="M33.474,110.74c0.077-0.123,0.184-0.184,0.322-0.184
					c0.138,0,0.246,0.061,0.322,0.184c0.092,0.093,0.138,0.184,0.138,0.276c0,0.031-0.046,0.138-0.138,0.322
					c-0.062,0.093-0.169,0.138-0.322,0.138c-0.153,0-0.261-0.046-0.322-0.138c-0.092-0.061-0.138-0.169-0.138-0.322
					C33.336,110.863,33.382,110.77,33.474,110.74z"/>
				<path fill-rule="evenodd" clip-rule="evenodd" fill="#FFFFFF" d="M35.086,111.661c0.123,0.077,0.184,0.184,0.184,0.322
					s-0.061,0.246-0.184,0.323c-0.046,0.092-0.138,0.138-0.276,0.138c-0.123,0-0.23-0.046-0.322-0.138
					c-0.092-0.092-0.138-0.2-0.138-0.323c0-0.122,0.046-0.23,0.138-0.322c0.092-0.093,0.2-0.138,0.322-0.138
					C34.947,111.523,35.04,111.568,35.086,111.661z"/>
				<path fill-rule="evenodd" clip-rule="evenodd" fill="#FFFFFF" d="M35.776,112.444c0.123,0,0.246,0.061,0.368,0.184
					c0.061,0.031,0.092,0.123,0.092,0.276s-0.031,0.276-0.092,0.368c-0.184,0.061-0.307,0.092-0.368,0.092
					c-0.123,0-0.215-0.03-0.276-0.092c-0.123-0.184-0.184-0.307-0.184-0.368c0-0.123,0.062-0.215,0.184-0.276
					C35.546,112.504,35.638,112.444,35.776,112.444z"/>
				<path fill-rule="evenodd" clip-rule="evenodd" fill="#FFFFFF" d="M37.296,113.825c0,0.122-0.046,0.23-0.138,0.322
					c-0.092,0.092-0.2,0.138-0.322,0.138c-0.123,0-0.23-0.046-0.322-0.138c-0.092-0.092-0.138-0.2-0.138-0.322
					c0-0.123,0.046-0.23,0.138-0.323c0.092-0.092,0.2-0.138,0.322-0.138c0.123,0,0.23,0.046,0.322,0.138
					C37.25,113.595,37.296,113.702,37.296,113.825z"/>
				<path fill-rule="evenodd" clip-rule="evenodd" fill="#FFFFFF" d="M37.434,114.7c0-0.138,0.046-0.23,0.138-0.276
					c0.077-0.123,0.184-0.184,0.322-0.184c0.138,0,0.245,0.061,0.322,0.184c0.092,0.046,0.138,0.138,0.138,0.276
					c0,0.122-0.046,0.23-0.138,0.322c-0.061,0.092-0.169,0.138-0.322,0.138c-0.154,0-0.261-0.046-0.322-0.138
					C37.48,114.93,37.434,114.822,37.434,114.7z"/>
				<path fill-rule="evenodd" clip-rule="evenodd" fill="#FFFFFF" d="M39.322,115.252c0.092,0.093,0.138,0.2,0.138,0.323
					c0,0.123-0.046,0.23-0.138,0.323c-0.092,0.092-0.2,0.138-0.322,0.138c-0.123,0-0.23-0.046-0.322-0.138
					c-0.092-0.093-0.138-0.2-0.138-0.323c0-0.123,0.046-0.23,0.138-0.323c0.092-0.092,0.2-0.138,0.322-0.138
					C39.122,115.114,39.23,115.16,39.322,115.252z"/>
				<path fill-rule="evenodd" clip-rule="evenodd" fill="#FFFFFF" d="M39.644,116.403c0-0.122,0.046-0.23,0.138-0.322
					c0.184-0.092,0.292-0.138,0.323-0.138c0.03,0,0.138,0.046,0.322,0.138c0.092,0.092,0.138,0.2,0.138,0.322
					c0,0.108-0.046,0.23-0.138,0.369c-0.123,0.061-0.23,0.092-0.322,0.092c-0.092,0-0.2-0.031-0.323-0.092
					C39.69,116.633,39.644,116.511,39.644,116.403z"/>
				<path fill-rule="evenodd" clip-rule="evenodd" fill="#FFFFFF" d="M42.867,117.969c0,0.123-0.061,0.245-0.184,0.368
					c-0.062,0.061-0.153,0.092-0.276,0.092c-0.092,0-0.199-0.03-0.322-0.092c-0.092-0.138-0.138-0.261-0.138-0.368
					c0-0.138,0.046-0.23,0.138-0.276c0.077-0.123,0.184-0.184,0.322-0.184c0.138,0,0.23,0.061,0.276,0.184
					C42.806,117.739,42.867,117.831,42.867,117.969z"/>
				<path fill-rule="evenodd" clip-rule="evenodd" fill="#FFFFFF" d="M43.558,118.245c0.092,0,0.184,0.046,0.276,0.138
					c0.123,0.077,0.185,0.184,0.185,0.322c0,0.123-0.061,0.245-0.185,0.368c-0.061,0.061-0.153,0.092-0.276,0.092
					c-0.092,0-0.2-0.03-0.322-0.092c-0.092-0.138-0.138-0.261-0.138-0.368c0-0.123,0.046-0.23,0.138-0.322
					C43.42,118.291,43.527,118.245,43.558,118.245z"/>
				<path fill-rule="evenodd" clip-rule="evenodd" fill="#FFFFFF" d="M41.532,116.91c0.123,0.077,0.184,0.185,0.184,0.323
					s-0.062,0.245-0.184,0.322c-0.046,0.093-0.138,0.138-0.276,0.138c-0.123,0-0.23-0.046-0.322-0.138
					c-0.092-0.092-0.138-0.199-0.138-0.322c0-0.123,0.046-0.23,0.138-0.323c0.092-0.092,0.2-0.137,0.322-0.137
					C41.394,116.772,41.486,116.818,41.532,116.91z"/>
				<path fill-rule="evenodd" clip-rule="evenodd" fill="#FFFFFF" d="M25.278,99.826c0.092,0.093,0.138,0.2,0.138,0.323
					s-0.046,0.23-0.138,0.322c-0.092,0.093-0.2,0.138-0.322,0.138c-0.107,0-0.23-0.046-0.368-0.138
					c-0.061-0.061-0.092-0.169-0.092-0.322s0.031-0.261,0.092-0.323c0.138-0.092,0.261-0.137,0.368-0.137
					C25.078,99.689,25.186,99.735,25.278,99.826z"/>
				<path fill-rule="evenodd" clip-rule="evenodd" fill="#FFFFFF" d="M24.541,98.63c0.092,0.092,0.138,0.2,0.138,0.322
					c0,0.123-0.046,0.23-0.138,0.323c-0.092,0.092-0.2,0.138-0.322,0.138c-0.123,0-0.23-0.046-0.322-0.138
					c-0.092-0.093-0.138-0.2-0.138-0.323c0-0.122,0.046-0.23,0.138-0.322c0.092-0.092,0.199-0.138,0.322-0.138
					C24.342,98.491,24.449,98.538,24.541,98.63z"/>
				<path fill-rule="evenodd" clip-rule="evenodd" fill="#FFFFFF" d="M119.718,98.63c0.077,0.061,0.115,0.169,0.115,0.322
					c0,0.154-0.038,0.261-0.115,0.323c-0.092,0.092-0.2,0.138-0.322,0.138c-0.138,0-0.23-0.046-0.276-0.138
					c-0.123-0.123-0.184-0.23-0.184-0.323c0-0.092,0.061-0.199,0.184-0.322c0.046-0.092,0.138-0.138,0.276-0.138
					C119.519,98.491,119.626,98.538,119.718,98.63z"/>
				<path fill-rule="evenodd" clip-rule="evenodd" fill="#FFFFFF" d="M118.705,99.689c0.092,0,0.199,0.03,0.322,0.092
					c0.092,0.138,0.138,0.26,0.138,0.368c0,0.138-0.046,0.23-0.138,0.276c-0.123,0.122-0.23,0.184-0.322,0.184
					c-0.092,0-0.2-0.061-0.322-0.184c-0.092-0.046-0.138-0.138-0.138-0.276c0-0.108,0.046-0.23,0.138-0.368
					C118.506,99.719,118.613,99.689,118.705,99.689z"/>
				<path fill-rule="evenodd" clip-rule="evenodd" fill="#FFFFFF" d="M117.646,100.932c0.123-0.061,0.23-0.093,0.322-0.093
					c0.092,0,0.2,0.031,0.322,0.093c0.092,0.138,0.138,0.261,0.138,0.368c0,0.138-0.046,0.23-0.138,0.276
					c-0.123,0.122-0.23,0.184-0.322,0.184c-0.092,0-0.199-0.061-0.322-0.184c-0.092-0.046-0.138-0.138-0.138-0.276
					C117.508,101.193,117.554,101.07,117.646,100.932z"/>
				<path fill-rule="evenodd" clip-rule="evenodd" fill="#FFFFFF" d="M116.081,103.235c0.092-0.093,0.2-0.139,0.322-0.139
					c0.123,0,0.23,0.046,0.322,0.139c0.092,0.092,0.138,0.199,0.138,0.322s-0.046,0.23-0.138,0.322
					c-0.092,0.092-0.2,0.138-0.322,0.138c-0.123,0-0.23-0.046-0.322-0.138c-0.092-0.092-0.138-0.199-0.138-0.322
					S115.988,103.326,116.081,103.235z"/>
				<path fill-rule="evenodd" clip-rule="evenodd" fill="#FFFFFF" d="M117.554,102.083c0.061,0.092,0.092,0.215,0.092,0.368
					c0,0.153-0.03,0.245-0.092,0.276c-0.184,0.122-0.307,0.184-0.368,0.184c-0.092,0-0.2-0.061-0.322-0.184
					c-0.092-0.093-0.138-0.184-0.138-0.276c0-0.093,0.046-0.215,0.138-0.368c0.123-0.061,0.23-0.093,0.322-0.093
					C117.247,101.991,117.37,102.022,117.554,102.083z"/>
				<path fill-rule="evenodd" clip-rule="evenodd" fill="#FFFFFF" d="M113.502,106.457c0.184-0.061,0.307-0.092,0.368-0.092
					c0.092,0,0.2,0.03,0.322,0.092c0.092,0.138,0.138,0.261,0.138,0.368c0,0.138-0.046,0.23-0.138,0.276
					c-0.123,0.123-0.23,0.184-0.322,0.184c-0.062,0-0.184-0.061-0.368-0.184c-0.061-0.031-0.092-0.123-0.092-0.276
					S113.441,106.549,113.502,106.457z"/>
				<path fill-rule="evenodd" clip-rule="evenodd" fill="#FFFFFF" d="M114.285,105.721c0-0.138,0.046-0.23,0.138-0.276
					c0.077-0.123,0.184-0.185,0.322-0.185s0.23,0.062,0.276,0.185c0.123,0.061,0.184,0.153,0.184,0.276
					c0,0.092-0.062,0.2-0.184,0.322c-0.031,0.092-0.123,0.138-0.276,0.138c-0.153,0-0.261-0.046-0.322-0.138
					C114.331,105.951,114.285,105.843,114.285,105.721z"/>
				<path fill-rule="evenodd" clip-rule="evenodd" fill="#FFFFFF" d="M112.028,108.392c0.123,0,0.23,0.046,0.322,0.138
					c0.092,0.092,0.138,0.199,0.138,0.322s-0.046,0.23-0.138,0.323c-0.092,0.092-0.2,0.137-0.322,0.137
					c-0.107,0-0.23-0.046-0.368-0.137c-0.061-0.061-0.092-0.169-0.092-0.323s0.031-0.261,0.092-0.322
					C111.798,108.437,111.921,108.392,112.028,108.392z"/>
				<path fill-rule="evenodd" clip-rule="evenodd" fill="#FFFFFF" d="M111.384,109.496c0.092,0.138,0.138,0.261,0.138,0.368
					c0,0.138-0.046,0.23-0.138,0.276c-0.077,0.123-0.184,0.184-0.322,0.184c-0.138,0-0.245-0.061-0.322-0.184
					c-0.092-0.046-0.138-0.138-0.138-0.276c0-0.107,0.046-0.23,0.138-0.368c0.061-0.061,0.169-0.092,0.322-0.092
					C111.215,109.405,111.323,109.435,111.384,109.496z"/>
				<path fill-rule="evenodd" clip-rule="evenodd" fill="#FFFFFF" d="M112.627,107.517c0.092-0.093,0.199-0.138,0.322-0.138
					c0.123,0,0.23,0.046,0.322,0.138c0.092,0.092,0.138,0.199,0.138,0.322c0,0.123-0.046,0.23-0.138,0.322
					c-0.092,0.093-0.2,0.139-0.322,0.139c-0.123,0-0.23-0.046-0.322-0.139c-0.092-0.092-0.138-0.199-0.138-0.322
					C112.489,107.716,112.535,107.609,112.627,107.517z"/>
				<path fill-rule="evenodd" clip-rule="evenodd" fill="#FFFFFF" d="M115.896,104.984c-0.092,0.092-0.2,0.137-0.322,0.137
					c-0.123,0-0.23-0.046-0.322-0.137c-0.092-0.093-0.138-0.2-0.138-0.323c0-0.123,0.046-0.23,0.138-0.322
					c0.092-0.093,0.2-0.138,0.322-0.138c0.123,0,0.23,0.046,0.322,0.138c0.092,0.092,0.138,0.199,0.138,0.322
					C116.035,104.785,115.988,104.892,115.896,104.984z"/>
				<path fill-rule="evenodd" clip-rule="evenodd" fill="#FFFFFF" d="M109.588,110.878c0-0.153,0.046-0.261,0.138-0.322
					c0.092-0.093,0.199-0.138,0.322-0.138c0.123,0,0.23,0.046,0.322,0.138c0.092,0.184,0.138,0.292,0.138,0.322
					c0,0.03-0.046,0.138-0.138,0.322c-0.092,0.093-0.199,0.138-0.322,0.138c-0.123,0-0.23-0.046-0.322-0.138
					C109.634,111.139,109.588,111.031,109.588,110.878z"/>
				<path fill-rule="evenodd" clip-rule="evenodd" fill="#FFFFFF" d="M108.023,112.351c0.092,0,0.199,0.031,0.322,0.093
					c0.092,0.138,0.138,0.261,0.138,0.368c0,0.137-0.046,0.23-0.138,0.276c-0.123,0.122-0.23,0.184-0.322,0.184
					c-0.092,0-0.2-0.061-0.323-0.184c-0.092-0.046-0.138-0.139-0.138-0.276c0-0.108,0.046-0.23,0.138-0.368
					C107.823,112.382,107.93,112.351,108.023,112.351z"/>
				<path fill-rule="evenodd" clip-rule="evenodd" fill="#FFFFFF" d="M109.496,111.799c0,0.153-0.046,0.276-0.138,0.368
					c-0.123,0.061-0.23,0.092-0.322,0.092c-0.123,0-0.215-0.03-0.276-0.092c-0.123-0.185-0.184-0.307-0.184-0.368
					c0-0.092,0.061-0.2,0.184-0.323c0.092-0.092,0.184-0.138,0.276-0.138c0.031,0,0.138,0.046,0.322,0.138
					C109.45,111.538,109.496,111.646,109.496,111.799z"/>
				<path fill-rule="evenodd" clip-rule="evenodd" fill="#FFFFFF" d="M106.963,113.226c0.123,0,0.23,0.046,0.322,0.138
					c0.092,0.061,0.138,0.169,0.138,0.323c0,0.153-0.046,0.261-0.138,0.322c-0.092,0.092-0.199,0.138-0.322,0.138
					c-0.138,0-0.23-0.046-0.276-0.138c-0.123-0.123-0.184-0.23-0.184-0.322s0.061-0.2,0.184-0.323
					C106.733,113.272,106.825,113.226,106.963,113.226z"/>
				<path fill-rule="evenodd" clip-rule="evenodd" fill="#FFFFFF" d="M105.95,115.022c-0.061,0-0.184-0.03-0.368-0.092
					c-0.061-0.184-0.092-0.307-0.092-0.368c0-0.092,0.031-0.2,0.092-0.323c0.153-0.092,0.276-0.138,0.368-0.138
					c0.092,0,0.184,0.046,0.276,0.138c0.123,0.077,0.184,0.184,0.184,0.323c0,0.122-0.062,0.245-0.184,0.368
					C106.165,114.991,106.073,115.022,105.95,115.022z"/>
				<path fill-rule="evenodd" clip-rule="evenodd" fill="#FFFFFF" d="M105.214,115.114c0.061,0.061,0.092,0.169,0.092,0.323
					c0,0.153-0.03,0.261-0.092,0.322c-0.138,0.093-0.261,0.139-0.368,0.139c-0.138,0-0.23-0.046-0.276-0.139
					c-0.123-0.077-0.184-0.184-0.184-0.322c0-0.138,0.061-0.245,0.184-0.323c0.046-0.092,0.138-0.137,0.276-0.137
					C104.953,114.976,105.076,115.022,105.214,115.114z"/>
				<path fill-rule="evenodd" clip-rule="evenodd" fill="#FFFFFF" d="M103.464,116.588c-0.123-0.061-0.184-0.153-0.184-0.276
					c0-0.061,0.061-0.184,0.184-0.368c0.031-0.061,0.123-0.092,0.276-0.092c0.153,0,0.276,0.03,0.368,0.092
					c0.061,0.184,0.092,0.307,0.092,0.368c0,0.123-0.031,0.215-0.092,0.276c-0.123,0.123-0.245,0.185-0.368,0.185
					C103.602,116.772,103.51,116.711,103.464,116.588z"/>
				<path fill-rule="evenodd" clip-rule="evenodd" fill="#FFFFFF" d="M102.958,117.416c-0.092,0.093-0.2,0.138-0.322,0.138
					c-0.123,0-0.23-0.046-0.322-0.138c-0.092-0.092-0.138-0.2-0.138-0.322c0-0.123,0.046-0.23,0.138-0.322
					c0.092-0.093,0.199-0.139,0.322-0.139c0.123,0,0.23,0.046,0.322,0.139c0.092,0.092,0.138,0.199,0.138,0.322
					C103.095,117.216,103.05,117.324,102.958,117.416z"/>
				<path fill-rule="evenodd" clip-rule="evenodd" fill="#FFFFFF" d="M101.162,118.153c-0.061-0.061-0.092-0.154-0.092-0.276
					c0-0.061,0.031-0.184,0.092-0.368c0.184-0.061,0.307-0.093,0.368-0.093c0.092,0,0.2,0.031,0.322,0.093
					c0.092,0.153,0.138,0.276,0.138,0.368c0,0.092-0.046,0.184-0.138,0.276c-0.123,0.122-0.23,0.184-0.322,0.184
					C101.469,118.337,101.346,118.276,101.162,118.153z"/>
				<path fill-rule="evenodd" clip-rule="evenodd" fill="#FFFFFF" d="M100.701,118.936c-0.092,0.093-0.199,0.138-0.322,0.138
					c-0.107,0-0.23-0.046-0.368-0.138c-0.061-0.122-0.092-0.23-0.092-0.322s0.03-0.2,0.092-0.323
					c0.138-0.092,0.261-0.138,0.368-0.138c0.123,0,0.23,0.046,0.322,0.138c0.092,0.184,0.138,0.292,0.138,0.323
					C100.839,118.645,100.793,118.752,100.701,118.936z"/>
				<path fill-rule="evenodd" clip-rule="evenodd" fill="#FFFFFF" d="M95.544,120.824c0.123,0,0.23,0.046,0.322,0.138
					c0.092,0.184,0.138,0.292,0.138,0.323c0,0.03-0.046,0.138-0.138,0.322c-0.092,0.092-0.2,0.138-0.322,0.138
					c-0.107,0-0.23-0.046-0.368-0.138c-0.061-0.123-0.092-0.23-0.092-0.322c0-0.092,0.031-0.2,0.092-0.323
					C95.314,120.87,95.437,120.824,95.544,120.824z"/>
				<path fill-rule="evenodd" clip-rule="evenodd" fill="#FFFFFF" d="M97.984,119.535c0.123,0,0.23,0.046,0.322,0.137
					c0.092,0.093,0.138,0.2,0.138,0.323c0,0.123-0.046,0.23-0.138,0.322c-0.092,0.093-0.199,0.138-0.322,0.138
					c-0.123,0-0.23-0.046-0.322-0.138c-0.092-0.092-0.138-0.199-0.138-0.322c0-0.123,0.046-0.23,0.138-0.323
					C97.754,119.58,97.862,119.535,97.984,119.535z"/>
				<path fill-rule="evenodd" clip-rule="evenodd" fill="#FFFFFF" d="M96.787,120.225c0.153,0,0.246,0.031,0.276,0.092
					c0.123,0.123,0.184,0.246,0.184,0.369c0,0.138-0.062,0.23-0.184,0.276c-0.046,0.123-0.138,0.184-0.276,0.184
					s-0.246-0.061-0.322-0.184c-0.092-0.03-0.138-0.122-0.138-0.276c0-0.154,0.046-0.276,0.138-0.369
					C96.526,120.256,96.634,120.225,96.787,120.225z"/>
				<path fill-rule="evenodd" clip-rule="evenodd" fill="#FFFFFF" d="M99.504,119.627c-0.061,0.092-0.169,0.138-0.322,0.138
					c-0.153,0-0.261-0.046-0.322-0.138c-0.092-0.092-0.138-0.2-0.138-0.323c0-0.138,0.046-0.23,0.138-0.276
					c0.077-0.123,0.184-0.185,0.322-0.185c0.138,0,0.246,0.061,0.322,0.185c0.092,0.046,0.138,0.137,0.138,0.276
					C99.642,119.427,99.596,119.535,99.504,119.627z"/>
				<path fill-rule="evenodd" clip-rule="evenodd" fill="#FFFFFF" d="M93.932,121.561c0.092-0.093,0.2-0.138,0.322-0.138
					c0.123,0,0.23,0.046,0.322,0.138c0.092,0.092,0.138,0.199,0.138,0.322c0,0.123-0.046,0.23-0.138,0.322
					c-0.092,0.093-0.2,0.138-0.322,0.138c-0.123,0-0.23-0.046-0.322-0.138c-0.092-0.092-0.138-0.199-0.138-0.322
					C93.794,121.76,93.84,121.653,93.932,121.561z"/>
				<path fill-rule="evenodd" clip-rule="evenodd" fill="#FFFFFF" d="M93.334,122.113c0.092,0.185,0.138,0.292,0.138,0.323
					c0,0.03-0.046,0.138-0.138,0.322c-0.092,0.092-0.2,0.138-0.322,0.138c-0.107,0-0.23-0.046-0.368-0.138
					c-0.061-0.123-0.092-0.23-0.092-0.322c0-0.093,0.031-0.2,0.092-0.323c0.138-0.092,0.261-0.138,0.368-0.138
					C93.134,121.975,93.242,122.021,93.334,122.113z"/>
				<path fill-rule="evenodd" clip-rule="evenodd" fill="#FFFFFF" d="M91.999,122.619c0.123,0.123,0.184,0.245,0.184,0.368
					c0,0.138-0.061,0.23-0.184,0.276c-0.046,0.123-0.138,0.184-0.276,0.184c-0.138,0-0.245-0.061-0.322-0.184
					c-0.092-0.03-0.138-0.122-0.138-0.276c0-0.153,0.046-0.276,0.138-0.368c0.061-0.061,0.169-0.092,0.322-0.092
					C91.876,122.528,91.968,122.559,91.999,122.619z"/>
				<path fill-rule="evenodd" clip-rule="evenodd" fill="#FFFFFF" d="M89.604,123.909c0,0.138-0.061,0.23-0.184,0.276
					c-0.046,0.123-0.138,0.184-0.276,0.184c-0.123,0-0.246-0.061-0.368-0.184c-0.061-0.061-0.092-0.153-0.092-0.276
					c0-0.061,0.031-0.184,0.092-0.368c0.092-0.061,0.215-0.092,0.368-0.092c0.153,0,0.246,0.03,0.276,0.092
					C89.543,123.663,89.604,123.786,89.604,123.909z"/>
				<path fill-rule="evenodd" clip-rule="evenodd" fill="#FFFFFF" d="M90.755,123.126c0.061,0.123,0.092,0.23,0.092,0.323
					c0,0.092-0.031,0.199-0.092,0.322c-0.138,0.092-0.261,0.138-0.369,0.138c-0.138,0-0.23-0.046-0.276-0.138
					c-0.123-0.123-0.184-0.23-0.184-0.322c0-0.093,0.061-0.2,0.184-0.323c0.046-0.092,0.138-0.138,0.276-0.138
					C90.494,122.988,90.617,123.034,90.755,123.126z"/>
				<path fill-rule="evenodd" clip-rule="evenodd" fill="#FFFFFF" d="M87.808,123.863c0.123,0,0.215,0.031,0.276,0.093
					c0.123,0.122,0.184,0.245,0.184,0.368c0,0.138-0.061,0.23-0.184,0.276c-0.061,0.122-0.154,0.184-0.276,0.184
					c-0.092,0-0.2-0.061-0.322-0.184c-0.092-0.031-0.138-0.123-0.138-0.276c0-0.153,0.046-0.276,0.138-0.368
					C87.609,123.894,87.716,123.863,87.808,123.863z"/>
				<path fill-rule="evenodd" clip-rule="evenodd" fill="#FFFFFF" d="M86.887,124.645c0,0.153-0.031,0.276-0.092,0.368
					c-0.184,0.062-0.307,0.093-0.368,0.093c-0.123,0-0.215-0.031-0.276-0.093c-0.123-0.122-0.184-0.245-0.184-0.368
					c0-0.138,0.061-0.23,0.184-0.276c0.046-0.123,0.138-0.184,0.276-0.184c0.123,0,0.246,0.061,0.368,0.184
					C86.857,124.4,86.887,124.492,86.887,124.645z"/>
				<path fill-rule="evenodd" clip-rule="evenodd" fill="#FFFFFF" d="M84.217,125.29c0,0.123-0.046,0.23-0.138,0.322
					c-0.061,0.093-0.169,0.139-0.322,0.139c-0.153,0-0.261-0.046-0.322-0.139c-0.092-0.092-0.138-0.199-0.138-0.322
					c0-0.138,0.046-0.23,0.138-0.276c0.077-0.122,0.184-0.184,0.322-0.184c0.138,0,0.246,0.061,0.322,0.184
					C84.171,125.06,84.217,125.152,84.217,125.29z"/>
				<path fill-rule="evenodd" clip-rule="evenodd" fill="#FFFFFF" d="M82.743,125.244c0.092,0.185,0.138,0.292,0.138,0.323
					c0,0.03-0.046,0.138-0.138,0.322c-0.092,0.093-0.199,0.138-0.322,0.138c-0.107,0-0.23-0.046-0.368-0.138
					c-0.061-0.122-0.092-0.23-0.092-0.322c0-0.092,0.03-0.2,0.092-0.323c0.138-0.092,0.261-0.137,0.368-0.137
					C82.544,125.106,82.651,125.152,82.743,125.244z"/>
				<path fill-rule="evenodd" clip-rule="evenodd" fill="#FFFFFF" d="M85.46,125.337c-0.138,0.092-0.261,0.138-0.368,0.138
					c-0.138,0-0.23-0.046-0.276-0.138c-0.123-0.123-0.184-0.23-0.184-0.323c0-0.092,0.061-0.2,0.184-0.322
					c0.046-0.092,0.138-0.138,0.276-0.138c0.107,0,0.23,0.046,0.368,0.138c0.061,0.122,0.092,0.23,0.092,0.322
					C85.552,125.106,85.521,125.214,85.46,125.337z"/>
			</g>
		</g>
		<circle fill-rule="evenodd" clip-rule="evenodd" fill="#F8D7E1" cx="71.437" cy="71.409" r="48.395"/>
	</g>
</g>
<g>
	<path fill="#FFFFFF" d="M52.449,53.036v-8.972h6.045v23.247h-6.045v-9.527h-8.724v9.527H37.68V44.065h6.045v8.972H52.449z"/>
	<path fill="#FFFFFF" d="M68.482,67.312h-6.045V44.065h6.045V67.312z"/>
	<path fill="#FFFFFF" d="M91.76,67.312h-7.522l-5.706-8.941h-0.06v8.941h-6.045V44.065h9.036c2.424,0,4.379,0.596,5.859,1.788
		c1.478,1.193,2.218,2.981,2.218,5.365c0,1.665-0.447,3.104-1.34,4.317c-0.896,1.213-2.143,1.963-3.746,2.251L91.76,67.312z
		 M78.471,54.485h0.585c0.557,0,1.074-0.035,1.558-0.108c0.482-0.072,0.926-0.21,1.325-0.415c0.401-0.206,0.72-0.504,0.956-0.895
		c0.236-0.39,0.356-0.883,0.356-1.48c0-0.596-0.12-1.089-0.356-1.479s-0.555-0.689-0.956-0.895
		c-0.399-0.206-0.843-0.344-1.325-0.417c-0.484-0.072-1.001-0.108-1.558-0.108h-0.585V54.485z"/>
	<path fill="#FFFFFF" d="M99.438,49.182v3.885h6.815v5.119h-6.815v4.007h7.184v5.119H93.393V44.065h13.228v5.117H99.438z"/>
	<path fill="#FFFFFF" d="M47.021,81.062h5.952l4.717,12.425l4.996-12.425h6.012l3.515,23.247h-6.045l-1.696-13.381h-0.06
		l-5.58,13.381h-2.406l-5.334-13.381h-0.06l-1.942,13.381h-6.014L47.021,81.062z"/>
	<path fill="#FFFFFF" d="M80.815,86.18v3.885h6.815v5.119h-6.815v4.007h7.184v5.119H74.77V81.062h13.228v5.117H80.815z"/>
	<path fill="#FFFFFF" d="M98.234,98.76c0.7,0.7,1.049,1.553,1.049,2.559c0,0.986-0.349,1.834-1.049,2.544
		c-0.698,0.708-1.551,1.064-2.559,1.064c-1.006,0-1.859-0.356-2.559-1.064c-0.698-0.71-1.046-1.558-1.046-2.544
		c0-1.006,0.349-1.859,1.046-2.559c0.7-0.698,1.553-1.049,2.559-1.049C96.683,97.711,97.536,98.062,98.234,98.76z M92.776,81.062
		h5.829v15.354h-5.829V81.062z"/>
</g>
</svg>
