<?xml version="1.0" encoding="utf-8"?>
<!-- Generator: Adobe Illustrator 17.0.0, SVG Export Plug-In . SVG Version: 6.00 Build 0)  -->
<!DOCTYPE svg PUBLIC "-//W3C//DTD SVG 1.1//EN" "http://www.w3.org/Graphics/SVG/1.1/DTD/svg11.dtd">
<svg version="1.1" id="Layer_1" xmlns="http://www.w3.org/2000/svg" xmlns:xlink="http://www.w3.org/1999/xlink" x="0px" y="0px"
	 width="300px" height="300px" viewBox="0 0 300 300" enable-background="new 0 0 300 300" xml:space="preserve">
<g id="dk30Bm_1_">
	<g>
		<path fill="#F1B0C6" d="M249.08,250.75c-66.489,0-132.977,0-199.466,0c-0.45-0.169-0.887-0.41-1.352-0.495
			c-16.266-2.959-28.17-17.202-28.17-33.731c-0.001-39.805-0.095-79.611,0.05-119.416c0.052-14.147,6.827-24.532,19.345-30.987
			c3.143-1.621,6.739-2.363,10.126-3.509c66.489,0,132.977,0,199.466,0c0.444,0.172,0.875,0.421,1.335,0.505
			c16.15,2.962,28.187,17.362,28.188,33.74c0,39.883,0.001,79.767-0.001,119.65c-0.001,13.765-8.592,26.573-21.388,31.699
			C254.585,249.259,251.796,249.912,249.08,250.75z M263.161,81.587c-5.516-6.309-12.096-9.162-20.014-9.16
			c-62.541,0.013-125.081,0.003-187.622,0.028c-1.876,0.001-3.782,0.151-5.622,0.503c-4.476,0.856-8.438,2.77-11.783,6.019
			c0.389,0.449,0.588,0.709,0.817,0.938c36.204,36.215,72.407,72.432,108.623,108.636c3.015,3.014,5.426,2.964,8.447-0.053
			c28.918-28.877,57.83-57.76,86.752-86.633C249.492,95.144,256.253,88.452,263.161,81.587z M37.464,233.949
			c4.786,4.66,10.736,6.963,17.586,6.971c20.354,0.023,40.708,0.008,61.062,0.008c42.432,0,84.863-0.001,127.295,0.001
			c7.443,0,13.73-2.641,18.62-7.869c-22.704-22.773-45.341-45.478-68.46-68.666c-0.462,0.681-0.867,1.538-1.498,2.171
			c-9.726,9.772-19.471,19.526-29.233,29.261c-6.635,6.617-15.467,6.599-22.033,0.016c-6.781-6.798-13.587-13.572-20.363-20.375
			c-4.149-4.166-8.262-8.368-12.173-12.334C84.513,186.891,61.031,210.377,37.464,233.949z M100.032,155.937
			c-22.591-22.656-45.329-45.459-68.487-68.683c-0.577,3.334-1.577,6.444-1.585,9.556c-0.106,39.88-0.096,79.76-0.015,119.64
			c0.006,2.742,0.814,5.483,1.262,8.303C54.499,201.463,77.393,178.573,100.032,155.937z M267.777,223.495
			c0.372-2.526,0.985-4.763,0.988-7.001c0.059-39.865,0.054-79.73,0.01-119.595c-0.002-1.877-0.493-3.753-0.746-5.555
			c-22.289,22.274-44.356,44.327-66.207,66.163C223.58,179.276,245.479,201.186,267.777,223.495z"/>
		<path fill="#F8D7E1" d="M263.161,81.587c-6.908,6.865-13.669,13.557-20.401,20.278c-28.922,28.873-57.834,57.756-86.752,86.633
			c-3.022,3.017-5.432,3.068-8.447,0.053c-36.216-36.204-72.419-72.42-108.623-108.636c-0.229-0.229-0.428-0.489-0.817-0.938
			c3.345-3.25,7.307-5.164,11.783-6.019c1.84-0.352,3.746-0.502,5.622-0.503c62.541-0.025,125.081-0.015,187.622-0.028
			C251.065,72.426,257.645,75.278,263.161,81.587z"/>
		<path fill="#F8D7E1" d="M37.464,233.949c23.567-23.571,47.05-47.058,70.803-70.815c3.912,3.966,8.024,8.168,12.173,12.334
			c6.776,6.803,13.582,13.577,20.363,20.375c6.566,6.583,15.398,6.601,22.033-0.016c9.762-9.736,19.507-19.489,29.233-29.261
			c0.63-0.633,1.036-1.49,1.498-2.171c23.118,23.188,45.755,45.893,68.46,68.666c-4.89,5.228-11.177,7.869-18.62,7.869
			c-42.432-0.003-84.863-0.001-127.295-0.001c-20.354,0-40.708,0.015-61.062-0.008C48.2,240.912,42.25,238.608,37.464,233.949z"/>
		<path fill="#F8D7E1" d="M100.032,155.937c-22.639,22.636-45.532,45.527-68.825,68.816c-0.448-2.821-1.257-5.561-1.262-8.303
			c-0.081-39.88-0.091-79.76,0.015-119.64c0.008-3.112,1.008-6.222,1.585-9.556C54.703,110.478,77.441,133.281,100.032,155.937z"/>
		<path fill="#F8D7E1" d="M267.777,223.495c-22.298-22.309-44.197-44.219-65.955-65.987c21.851-21.837,43.918-43.889,66.207-66.163
			c0.253,1.802,0.744,3.678,0.746,5.555c0.044,39.865,0.048,79.73-0.01,119.595C268.762,218.732,268.149,220.969,267.777,223.495z"
			/>
	</g>
</g>
</svg>
