<?xml version="1.0" encoding="utf-8"?>
<!-- Generator: Adobe Illustrator 17.0.0, SVG Export Plug-In . SVG Version: 6.00 Build 0)  -->
<!DOCTYPE svg PUBLIC "-//W3C//DTD SVG 1.1//EN" "http://www.w3.org/Graphics/SVG/1.1/DTD/svg11.dtd">
<svg version="1.1" id="Layer_1" xmlns="http://www.w3.org/2000/svg" xmlns:xlink="http://www.w3.org/1999/xlink" x="0px" y="0px"
	 width="300px" height="300px" viewBox="0 0 300 300" enable-background="new 0 0 300 300" xml:space="preserve">
<path fill="#F7D6E0" stroke="#F0AFC5" stroke-width="6" stroke-miterlimit="10" d="M75.963,290.262
	c-19.475,0-35.263-16.105-35.263-35.972V44.216c0-19.867,15.788-35.972,35.263-35.972h134.697c19.475,0,35.263,16.105,35.263,35.972
	V254.29c0,19.867-15.788,35.972-35.263,35.972H75.963z"/>
<g>
	<g>
		<path fill="#FFFFFF" d="M88.929,67.82h-9.526l-7.223-11.322h-0.078V67.82H64.45V38.383h11.439c3.071,0,5.544,0.755,7.418,2.264
			c1.875,1.509,2.811,3.775,2.811,6.793c0,2.108-0.566,3.93-1.698,5.466c-1.133,1.536-2.714,2.486-4.744,2.851L88.929,67.82z
			 M72.102,51.58h0.742c0.702,0,1.359-0.046,1.971-0.137c0.611-0.091,1.171-0.267,1.679-0.527c0.508-0.26,0.911-0.638,1.21-1.133
			c0.299-0.495,0.45-1.119,0.45-1.874s-0.15-1.379-0.45-1.874c-0.299-0.495-0.702-0.872-1.21-1.133s-1.068-0.435-1.679-0.527
			c-0.612-0.091-1.269-0.137-1.971-0.137h-0.742V51.58z"/>
		<path fill="#FFFFFF" d="M98.65,44.864v4.919h8.628v6.48H98.65v5.076h9.097v6.48H90.998V38.383h16.749v6.48H98.65z"/>
		<path fill="#FFFFFF" d="M128.634,45.957c-0.729-0.599-1.53-1.073-2.401-1.425c-0.872-0.351-1.764-0.527-2.674-0.527
			c-0.807,0-1.555,0.222-2.245,0.664c-0.69,0.443-1.035,1.042-1.035,1.796c0,0.755,0.313,1.327,0.937,1.718
			c0.625,0.39,1.444,0.755,2.459,1.092l1.952,0.586c1.093,0.312,2.069,0.69,2.928,1.131c0.859,0.443,1.62,0.977,2.284,1.601
			s1.172,1.379,1.523,2.264c0.351,0.885,0.527,1.901,0.527,3.046c0,1.614-0.234,3.104-0.703,4.47
			c-0.468,1.367-1.249,2.519-2.343,3.455c-1.093,0.937-2.368,1.634-3.826,2.089c-1.458,0.455-2.967,0.683-4.528,0.683
			c-1.822,0-3.625-0.293-5.407-0.878c-1.783-0.585-3.43-1.412-4.94-2.479l3.28-6.169c1.066,0.937,2.16,1.679,3.28,2.226
			c1.118,0.546,2.29,0.82,3.513,0.82c1.015,0,1.887-0.253,2.616-0.761c0.728-0.508,1.093-1.242,1.093-2.206
			c0-0.495-0.137-0.917-0.41-1.269c-0.274-0.351-0.631-0.657-1.073-0.917c-0.443-0.26-0.893-0.469-1.348-0.625
			s-0.982-0.312-1.581-0.469c-0.104-0.026-0.182-0.052-0.234-0.077c-1.431-0.416-2.589-0.806-3.474-1.172
			c-0.886-0.364-1.673-0.839-2.363-1.425c-0.69-0.585-1.217-1.34-1.581-2.264c-0.364-0.924-0.546-2.076-0.546-3.455
			c0-1.484,0.247-2.83,0.741-4.041c0.495-1.21,1.198-2.251,2.109-3.123c0.911-0.871,1.99-1.542,3.24-2.011s2.603-0.703,4.06-0.703
			c1.509,0,3.097,0.222,4.764,0.664c1.665,0.443,3.149,1.028,4.451,1.757L128.634,45.957z"/>
		<path fill="#FFFFFF" d="M162.055,38.383v16.554c0,2.394-0.191,4.405-0.567,6.032s-1.216,3.078-2.519,4.353
			c-1.144,1.145-2.588,1.978-4.333,2.498c-1.743,0.52-3.552,0.78-5.427,0.78c-1.873,0-3.683-0.26-5.425-0.78
			c-1.745-0.52-3.189-1.353-4.335-2.498c-1.301-1.275-2.141-2.726-2.517-4.353c-0.378-1.627-0.566-3.638-0.566-6.032V38.383h7.652
			v15.5c0,1.198,0.045,2.225,0.137,3.084c0.092,0.859,0.305,1.666,0.644,2.421c0.339,0.755,0.866,1.36,1.581,1.815
			c0.715,0.455,1.66,0.683,2.83,0.683c1.173,0,2.115-0.228,2.833-0.683c0.715-0.455,1.242-1.054,1.581-1.796
			c0.336-0.741,0.552-1.549,0.644-2.42c0.09-0.872,0.137-1.906,0.137-3.104v-15.5H162.055z"/>
		<path fill="#FFFFFF" d="M170.135,38.383h7.536l5.972,15.734l6.325-15.734h7.614l4.452,29.437h-7.652l-2.149-16.944h-0.078
			l-7.067,16.944h-3.043l-6.755-16.944h-0.078l-2.458,16.944h-7.614L170.135,38.383z"/>
		<path fill="#FFFFFF" d="M212.924,44.864v4.919h8.628v6.48h-8.628v5.076h9.097v6.48h-16.749V38.383h16.749v6.48H212.924z"/>
	</g>
	<line fill="none" stroke="#FFFFFF" stroke-width="4" stroke-miterlimit="10" x1="61.952" y1="88.76" x2="135.853" y2="88.76"/>
	<line fill="none" stroke="#FFFFFF" stroke-width="4" stroke-miterlimit="10" x1="61.747" y1="108.365" x2="135.647" y2="108.365"/>
	<line fill="none" stroke="#FFFFFF" stroke-width="4" stroke-miterlimit="10" x1="61.747" y1="129.837" x2="135.647" y2="129.837"/>
	<line fill="none" stroke="#FFFFFF" stroke-width="4" stroke-miterlimit="10" x1="61.747" y1="151.866" x2="135.647" y2="151.866"/>
	<line fill="none" stroke="#FFFFFF" stroke-width="4" stroke-miterlimit="10" x1="150.977" y1="88.76" x2="224.877" y2="88.76"/>
	
		<line fill="none" stroke="#FFFFFF" stroke-width="4" stroke-miterlimit="10" x1="150.771" y1="108.365" x2="224.672" y2="108.365"/>
	
		<line fill="none" stroke="#FFFFFF" stroke-width="4" stroke-miterlimit="10" x1="150.771" y1="129.837" x2="224.672" y2="129.837"/>
	
		<line fill="none" stroke="#FFFFFF" stroke-width="4" stroke-miterlimit="10" x1="150.771" y1="151.866" x2="224.672" y2="151.866"/>
	<line fill="none" stroke="#FFFFFF" stroke-width="4" stroke-miterlimit="10" x1="62.298" y1="188.611" x2="223.617" y2="188.611"/>
	<line fill="none" stroke="#FFFFFF" stroke-width="4" stroke-miterlimit="10" x1="61.85" y1="208.216" x2="223.169" y2="208.216"/>
	<line fill="none" stroke="#FFFFFF" stroke-width="4" stroke-miterlimit="10" x1="61.85" y1="229.688" x2="223.169" y2="229.688"/>
	<line fill="none" stroke="#FFFFFF" stroke-width="4" stroke-miterlimit="10" x1="61.85" y1="251.718" x2="223.169" y2="251.718"/>
</g>
</svg>
