<?xml version="1.0" encoding="UTF-8" standalone="no"?>
<!-- Generator: Adobe Illustrator 17.0.0, SVG Export Plug-In . SVG Version: 6.00 Build 0)  -->

<svg
   xmlns:dc="http://purl.org/dc/elements/1.1/"
   xmlns:cc="http://creativecommons.org/ns#"
   xmlns:rdf="http://www.w3.org/1999/02/22-rdf-syntax-ns#"
   xmlns:svg="http://www.w3.org/2000/svg"
   xmlns="http://www.w3.org/2000/svg"
   xmlns:sodipodi="http://sodipodi.sourceforge.net/DTD/sodipodi-0.dtd"
   xmlns:inkscape="http://www.inkscape.org/namespaces/inkscape"
   version="1.1"
   id="Layer_1"
   x="0px"
   y="0px"
   width="126.84112"
   height="126.973"
   viewBox="0 0 126.84112 126.973"
   enable-background="new 0 0 144 144"
   xml:space="preserve"
   inkscape:version="0.48.4 r9939"
   sodipodi:docname="facebook.svg"><metadata
     id="metadata12"><rdf:RDF><cc:Work
         rdf:about=""><dc:format>image/svg+xml</dc:format><dc:type
           rdf:resource="http://purl.org/dc/dcmitype/StillImage" /><dc:title></dc:title></cc:Work></rdf:RDF></metadata><defs
     id="defs10" /><sodipodi:namedview
     pagecolor="#ffffff"
     bordercolor="#666666"
     borderopacity="1"
     objecttolerance="10"
     gridtolerance="10"
     guidetolerance="10"
     inkscape:pageopacity="0"
     inkscape:pageshadow="2"
     inkscape:window-width="640"
     inkscape:window-height="480"
     id="namedview8"
     showgrid="false"
     fit-margin-top="0"
     fit-margin-left="0"
     fit-margin-right="0"
     fit-margin-bottom="0"
     inkscape:zoom="1.6388889"
     inkscape:cx="63.420117"
     inkscape:cy="63.486"
     inkscape:window-x="10"
     inkscape:window-y="34"
     inkscape:window-maximized="0"
     inkscape:current-layer="Layer_1" /><g
     id="_x39_wYmTC_1_"
     transform="translate(-8.5798828,-8.513)"><g
       id="g4"><path
         d="m 76.168,135.486 c -20.221,0 -40.443,0 -60.664,0 -0.155,-0.082 -0.305,-0.222 -0.467,-0.237 C 10.853,134.856 8.561,131.613 8.58,126.881 8.65,109.264 8.613,91.647 8.611,74.03 8.61,54.886 8.602,35.742 8.6,16.598 c 0,-3.786 1.667,-6.421 4.727,-7.459 0.714,-0.242 1.45,-0.419 2.177,-0.626 37.856,0 75.713,0 113.569,0 2.118,0.881 4.344,1.631 5.359,3.977 0.383,0.885 0.663,1.815 0.989,2.724 0,37.856 0,75.713 0,113.569 -0.928,1.644 -1.648,3.467 -2.857,4.867 -0.8,0.926 -2.303,1.244 -3.491,1.834 -10.934,0 -21.867,0 -32.801,0 0.026,-0.703 0.074,-1.407 0.074,-2.11 0.006,-14.927 0.034,-29.854 -0.031,-44.78 -0.007,-1.717 0.494,-2.185 2.174,-2.14 4.169,0.113 8.344,0.011 12.516,0.044 1.262,0.01 1.875,-0.343 2.014,-1.759 0.321,-3.257 0.877,-6.491 1.296,-9.739 0.335,-2.592 0.608,-5.192 0.929,-7.968 -0.931,-0.041 -1.617,-0.097 -2.302,-0.098 -4.936,-0.007 -9.874,-0.053 -14.809,0.028 -1.394,0.023 -1.845,-0.384 -1.811,-1.783 0.09,-3.7 0.032,-7.404 0.058,-11.106 0.039,-5.498 2.609,-8.047 8.125,-8.067 3.291,-0.012 6.583,-0.047 9.872,0.029 1.403,0.032 1.821,-0.485 1.802,-1.856 -0.067,-4.759 -0.088,-9.521 0.01,-14.279 0.033,-1.614 -0.696,-2.036 -2.075,-2.069 -4.988,-0.122 -9.986,-0.533 -14.961,-0.344 -7.767,0.296 -14.399,3.143 -18.869,9.881 -2.979,4.491 -4.058,9.567 -4.201,14.852 -0.117,4.346 -0.071,8.697 -0.006,13.045 0.02,1.319 -0.408,1.718 -1.721,1.696 -4.347,-0.074 -8.698,0.014 -13.045,-0.054 -1.353,-0.021 -1.882,0.367 -1.864,1.788 0.066,5.288 0.07,10.578 0.008,15.866 -0.017,1.471 0.532,1.961 1.951,1.944 4.231,-0.05 8.463,0.039 12.693,-0.044 1.503,-0.029 2,0.361 1.993,1.961 -0.064,14.985 -0.039,29.971 -0.032,44.956 0,0.705 0.07,1.406 0.108,2.108 z"
         id="path6"
         inkscape:connector-curvature="0"
         style="fill:#53be93" /></g></g></svg>