<?xml version="1.0" encoding="UTF-8" standalone="no"?>
<!-- Generator: Adobe Illustrator 17.0.0, SVG Export Plug-In . SVG Version: 6.00 Build 0)  -->

<svg
   xmlns:dc="http://purl.org/dc/elements/1.1/"
   xmlns:cc="http://creativecommons.org/ns#"
   xmlns:rdf="http://www.w3.org/1999/02/22-rdf-syntax-ns#"
   xmlns:svg="http://www.w3.org/2000/svg"
   xmlns="http://www.w3.org/2000/svg"
   xmlns:sodipodi="http://sodipodi.sourceforge.net/DTD/sodipodi-0.dtd"
   xmlns:inkscape="http://www.inkscape.org/namespaces/inkscape"
   version="1.1"
   id="Layer_1"
   x="0px"
   y="0px"
   width="274.35403"
   height="275.55829"
   viewBox="0 0 274.35403 275.55829"
   enable-background="new 0 0 300 300"
   xml:space="preserve"
   inkscape:version="0.48.4 r9939"
   sodipodi:docname="instagram.svg"><metadata
     id="metadata16"><rdf:RDF><cc:Work
         rdf:about=""><dc:format>image/svg+xml</dc:format><dc:type
           rdf:resource="http://purl.org/dc/dcmitype/StillImage" /><dc:title></dc:title></cc:Work></rdf:RDF></metadata><defs
     id="defs14" /><sodipodi:namedview
     pagecolor="#ffffff"
     bordercolor="#666666"
     borderopacity="1"
     objecttolerance="10"
     gridtolerance="10"
     guidetolerance="10"
     inkscape:pageopacity="0"
     inkscape:pageshadow="2"
     inkscape:window-width="640"
     inkscape:window-height="480"
     id="namedview12"
     showgrid="false"
     fit-margin-top="0"
     fit-margin-left="0"
     fit-margin-right="0"
     fit-margin-bottom="0"
     inkscape:zoom="0.78666667"
     inkscape:cx="137.62223"
     inkscape:cy="137.32113"
     inkscape:window-x="10"
     inkscape:window-y="34"
     inkscape:window-maximized="0"
     inkscape:current-layer="Layer_1" /><g
     id="qq0d0n_1_"
     transform="translate(-12.377767,-11.76284)"><g
       id="g4"><path
         d="m 12.591,110.311 c 26.524,0 52.749,0 79.485,0 -12.325,18.593 -15.923,38.371 -10.116,59.495 4.339,15.782 13.483,28.436 26.749,38.035 25.921,18.756 62.365,16.904 86.564,-4.098 23.545,-20.435 34.374,-59.066 11.523,-93.421 26.518,0 52.873,0 79.654,0 0.061,1.104 0.183,2.275 0.183,3.446 0.01,40.011 0.06,80.021 -0.009,120.032 -0.051,29.364 -24.357,53.508 -53.728,53.513 -55.614,0.01 -111.227,0.012 -166.841,-10e-4 -29.034,-0.007 -53.446,-23.94 -53.58,-52.958 -0.187,-40.456 -0.048,-80.913 -0.041,-121.369 0.002,-0.773 0.089,-1.544 0.157,-2.674 z"
         id="path6"
         inkscape:connector-curvature="0"
         style="fill:#f79e86" /><path
         d="m 286.64,101.705 c -1.453,0 -2.448,0 -3.442,0 -26.97,0 -53.941,0.034 -80.911,-0.082 -1.66,-0.007 -3.707,-0.779 -4.916,-1.903 -27.334,-25.424 -69.229,-25.314 -96.311,0.304 -0.872,0.825 -2.233,1.608 -3.368,1.612 -27.973,0.082 -55.947,0.057 -83.92,0.042 -0.319,0 -0.637,-0.129 -1.04,-0.216 -0.093,-0.426 -0.269,-0.852 -0.266,-1.277 0.096,-13.59 -0.18,-27.197 0.429,-40.764 0.622,-13.874 10.481,-29.816 22.484,-37.577 0,19.441 0,38.598 0,57.944 3.75,0 7.052,0 10.922,0 0,-1.28 0,-2.557 0,-3.834 0,-18.277 0,-36.555 0,-54.832 0,-6.121 1.178,-7.266 7.998,-7.511 0,21.927 0,43.846 0,66.067 3.764,0 7.249,0 11.097,0 0,-22.481 0,-44.942 0,-67.657 2.623,0 4.894,0 7.549,0 0,22.485 0,44.927 0,67.664 3.858,0 7.344,0 11.191,0 0,-22.498 0,-44.961 0,-67.92 1.753,0 3.156,0 4.559,0 48.034,0 96.068,-0.006 144.102,0.002 29.027,0.005 53.133,23.379 53.796,52.407 0.282,12.347 0.047,24.708 0.047,37.531 z M 215.32,57.948 c 0,5.015 -0.047,10.03 0.013,15.045 0.061,5.078 3.536,8.624 8.594,8.658 9.695,0.065 19.391,0.069 29.086,-10e-4 5.057,-0.036 8.591,-3.602 8.622,-8.677 0.062,-9.918 0.066,-19.837 -0.005,-29.755 -0.035,-4.844 -3.173,-8.486 -7.965,-8.593 -10.135,-0.227 -20.283,-0.231 -30.417,0.014 -4.829,0.117 -7.865,3.754 -7.917,8.599 -0.052,4.902 -0.011,9.806 -0.011,14.71 z"
         id="path8"
         inkscape:connector-curvature="0"
         style="fill:#f79e86" /><path
         d="M 149.328,204.793 C 119.38,204.796 95.097,180.59 95.124,150.76 95.151,121.001 119.55,96.69 149.38,96.701 c 29.914,0.011 54.104,24.223 54.068,54.12 -0.036,30.02 -24.051,53.969 -54.12,53.972 z m 0.081,-93.804 c -22.222,0.051 -39.724,17.85 -39.682,40.357 0.04,21.448 18.11,39.321 39.771,39.339 22.219,0.018 39.907,-18.002 39.847,-40.595 -0.058,-21.484 -18.102,-39.151 -39.936,-39.101 z"
         id="path10"
         inkscape:connector-curvature="0"
         style="fill:#f79e86" /></g></g></svg>