<?xml version="1.0" encoding="UTF-8" standalone="no"?>
<!-- Generator: Adobe Illustrator 17.0.0, SVG Export Plug-In . SVG Version: 6.00 Build 0)  -->

<svg
   xmlns:dc="http://purl.org/dc/elements/1.1/"
   xmlns:cc="http://creativecommons.org/ns#"
   xmlns:rdf="http://www.w3.org/1999/02/22-rdf-syntax-ns#"
   xmlns:svg="http://www.w3.org/2000/svg"
   xmlns="http://www.w3.org/2000/svg"
   xmlns:sodipodi="http://sodipodi.sourceforge.net/DTD/sodipodi-0.dtd"
   xmlns:inkscape="http://www.inkscape.org/namespaces/inkscape"
   version="1.1"
   id="Layer_1"
   x="0px"
   y="0px"
   width="285.63885"
   height="285.50125"
   viewBox="0 0 285.63885 285.50125"
   enable-background="new 0 0 300 300"
   xml:space="preserve"
   inkscape:version="0.48.4 r9939"
   sodipodi:docname="tumblr.svg"><metadata
     id="metadata12"><rdf:RDF><cc:Work
         rdf:about=""><dc:format>image/svg+xml</dc:format><dc:type
           rdf:resource="http://purl.org/dc/dcmitype/StillImage" /><dc:title></dc:title></cc:Work></rdf:RDF></metadata><defs
     id="defs10" /><sodipodi:namedview
     pagecolor="#ffffff"
     bordercolor="#666666"
     borderopacity="1"
     objecttolerance="10"
     gridtolerance="10"
     guidetolerance="10"
     inkscape:pageopacity="0"
     inkscape:pageshadow="2"
     inkscape:window-width="640"
     inkscape:window-height="480"
     id="namedview8"
     showgrid="false"
     fit-margin-top="0"
     fit-margin-left="0"
     fit-margin-right="0"
     fit-margin-bottom="0"
     inkscape:zoom="0.78666667"
     inkscape:cx="142.67933"
     inkscape:cy="142.75103"
     inkscape:window-x="10"
     inkscape:window-y="34"
     inkscape:window-maximized="0"
     inkscape:current-layer="Layer_1" /><g
     id="jKEpSY_1_"
     transform="translate(-7.320674,-7.2497691)"><g
       id="g4"><path
         d="M 7.45,149.923 C 7.449,116.278 7.408,82.633 7.496,48.988 7.508,44.363 7.653,39.632 8.606,35.134 12.153,18.386 24.396,8.263 41.63,7.383 43.897,7.267 46.172,7.258 48.443,7.258 116.274,7.252 184.105,7.226 251.936,7.314 c 4.828,0.006 9.777,0.332 14.461,1.414 14.601,3.375 23.802,13.756 25.823,28.605 0.451,3.31 0.699,6.674 0.701,10.014 0.039,68.48 0.089,136.96 -0.079,205.44 -0.014,5.751 -0.824,11.728 -2.537,17.202 -4.268,13.635 -16.474,21.924 -32.02,22.654 -1.944,0.091 -3.893,0.102 -5.84,0.102 -68.156,0.005 -136.311,0.023 -204.467,-0.043 -4.192,-0.004 -8.463,-0.28 -12.561,-1.106 C 17.579,288.004 8.581,275.329 7.664,257.992 7.036,246.124 7.463,234.198 7.456,222.299 7.441,198.173 7.451,174.048 7.45,149.923 z m 212.611,62.442 c -1.732,0.674 -2.92,1.119 -4.096,1.596 -9.147,3.711 -18.502,6.589 -28.353,7.833 -16.495,2.082 -28.166,-5.343 -31.171,-20.215 -0.552,-2.731 -0.683,-5.585 -0.69,-8.383 -0.055,-21.416 -0.034,-42.832 -0.021,-64.248 0.001,-1.271 0.136,-2.542 0.227,-4.127 1.411,0 2.575,0 3.74,0 16.873,0 33.746,0.001 50.619,-0.003 4.183,-0.001 4.192,-0.01 4.19,-4.319 -0.004,-8.977 -0.006,-17.955 -0.034,-26.932 -0.015,-4.802 -0.039,-4.802 -4.693,-4.803 -16.657,-0.005 -33.314,-0.096 -49.97,0.059 -3.272,0.03 -4.203,-0.851 -4.173,-4.162 0.152,-17.088 -0.003,-34.178 0.076,-51.267 0.012,-2.617 -0.656,-3.588 -3.434,-3.524 -7.784,0.18 -15.574,0.059 -23.361,0.081 -0.93,0.003 -1.859,0.156 -2.927,0.252 -0.097,1.181 -0.208,2.132 -0.248,3.085 -0.574,13.865 -5.403,26.121 -14.004,36.937 -8.171,10.274 -18.508,17.744 -30.232,23.473 -1.092,0.533 -2.383,2.059 -2.409,3.152 -0.202,8.432 -0.059,16.871 -0.152,25.307 -0.025,2.269 1.023,2.656 2.971,2.641 7.462,-0.059 14.926,0.003 22.389,0.019 1.15,0.002 2.301,0 3.905,0 0,3.013 0,5.584 0,8.156 -0.004,28.014 -0.14,56.028 0.052,84.041 0.081,11.9 4.814,21.853 14.471,29.122 9.721,7.318 21.141,9.722 32.899,10.427 20.916,1.254 41.377,-1.923 61.573,-7.195 2.462,-0.643 3.205,-1.853 3.171,-4.314 -0.134,-9.733 -0.073,-19.468 -0.1,-29.203 -0.003,-0.951 -0.114,-1.902 -0.215,-3.486 z"
         id="path6"
         inkscape:connector-curvature="0"
         style="fill:#c2cde9" /></g></g></svg>